<?xml version="1.0" encoding="utf-8"?>
<!-- Generator: Adobe Illustrator 19.1.0, SVG Export Plug-In . SVG Version: 6.00 Build 0)  -->
<svg version="1.1" id="Layer_1" xmlns="http://www.w3.org/2000/svg" xmlns:xlink="http://www.w3.org/1999/xlink" x="0px" y="0px"
	 viewBox="0 0 102 102" style="enable-background:new 0 0 102 102;" xml:space="preserve">
<style type="text/css">
	.st0{fill:#C1171E;}
</style>
<g>
	<rect x="11.4" y="55.7" class="st0" width="8.5" height="5.3"/>
	<rect x="11.4" y="16.1" class="st0" width="32.2" height="5.3"/>
	<rect x="11.4" y="28.1" class="st0" width="17" height="5.3"/>
	<path class="st0" d="M80.1,79V78V29.8l6.4-6.4c3.4-3.4,5.3-6.9,5.7-10.3c0.3-3.3-0.7-6.2-3.2-8.8c0,0-0.4-0.4-0.5-0.5
		c-2.5-2.4-5.3-3.4-8.5-3.2l0,0H4.6v0L1,0.6h-1.8v0v5.3v79.5c0,4.9,1.1,8.6,3.3,11.3c2.1,2.6,5.1,3.9,8.7,4c0,0,0.1,0,0.1,0
		c0,0,0.1,0,0.1,0l0,0h76.3l0,0c3.4-0.2,6.2-1.5,8.2-4c2.2-2.7,3.3-6.5,3.3-11.3v-1v-5V79H80.1z M85,7.4c0,0,0.2,0.2,0.3,0.3
		c1.4,1.5,2,3.1,1.8,5c-0.2,1.9-1.3,3.9-3.2,5.8L48.1,54.3l-9.7-9.7L74.2,8.8c1.9-1.9,3.9-3,5.8-3.2C81.9,5.4,83.5,6,85,7.4z
		 M42.7,56.5h-6.4v-6.4L42.7,56.5z M69.8,5.9c-0.2,0.1-0.3,0.3-0.5,0.4L31,44.7l0,0l0,0l0.1,0.1h-0.2v16.1h0v0.9H48l0,0l3.8-3.8l0,0
		l22.9-22.9V79H4.6V78l0-72.1H69.8z M23.6,84.4h51.2v1c0,4.1,0.8,7.5,2.4,10H21.2c1.6-2.6,2.4-5.9,2.4-10V84.4z M11.2,95.7
		c-2-0.1-3.6-0.8-4.8-2.3c-1.2-1.5-1.8-3.7-1.8-6.4v-2.7h13.7V87c0,2.8-0.6,4.9-1.8,6.4c-1.2,1.4-2.8,2.2-4.8,2.3c0,0-0.1,0-0.1,0
		c0,0-0.1,0-0.1,0C11.4,95.7,11.3,95.7,11.2,95.7C11.3,95.7,11.2,95.7,11.2,95.7z M93.8,87c0,2.8-0.6,4.9-1.8,6.4
		c-1.2,1.4-2.8,2.2-4.8,2.3c0,0-0.1,0-0.1,0c0,0-0.1,0-0.1,0c0,0-0.1,0-0.1,0c0,0-0.1,0-0.1,0c-2-0.1-3.6-0.8-4.8-2.3
		c-1.2-1.5-1.8-3.7-1.8-6.4v-2.7h13.7V87z"/>
</g>
</svg>
