<?xml version="1.0" encoding="utf-8"?>
<!-- Generator: Adobe Illustrator 19.1.0, SVG Export Plug-In . SVG Version: 6.00 Build 0)  -->
<svg version="1.1" id="Layer_1" xmlns="http://www.w3.org/2000/svg" xmlns:xlink="http://www.w3.org/1999/xlink" x="0px" y="0px"
	 viewBox="0 0 68.2 68.2" style="enable-background:new 0 0 68.2 68.2;" xml:space="preserve">
<style type="text/css">
	.st0{fill:#7F060A;}
	.st1{fill:#FFFFFF;}
	.st2{fill:#C1171E;}
	.st3{fill:#212121;}
	.st4{fill:#F2F2F2;stroke:#F2F2F2;stroke-width:5.6693;stroke-miterlimit:10;}
</style>
<circle class="st0" cx="34.1" cy="34.1" r="34.1"/>
<path class="st1" d="M39.8,22.3L39.8,22.3c-1.3-1.3-2.5-2.1-3.9-2.5c0,0-0.1,0-0.1,0c-0.5-0.1-0.9-0.2-1.4-0.2c0,0,0,0-0.1,0
	c0,0-0.1,0-0.1,0c0,0-0.1,0-0.1,0c0,0,0,0,0,0c-0.5,0-1,0.1-1.4,0.2c0,0-0.1,0-0.1,0c-1.4,0.4-2.6,1.2-3.9,2.5l0,0L18.2,32.6l3.3,4
	l8.8-8.8c0.3-0.3,0.7-0.6,1.1-0.9v24.6h5.3V26.8c0.5,0.3,0.9,0.7,1.3,1.1l8,8.1l3.9-3.5L39.8,22.3z"/>
</svg>
