<?xml version="1.0" encoding="utf-8"?>
<!-- Generator: Adobe Illustrator 16.0.0, SVG Export Plug-In . SVG Version: 6.00 Build 0)  -->
<!DOCTYPE svg PUBLIC "-//W3C//DTD SVG 1.1//EN" "http://www.w3.org/Graphics/SVG/1.1/DTD/svg11.dtd">
<svg version="1.1"  xmlns="http://www.w3.org/2000/svg" xmlns:xlink="http://www.w3.org/1999/xlink" x="0px" y="0px"
     width="48px" height="48px" viewBox="0 0 48 48" enable-background="new 0 0 48 48" xml:space="preserve">
<g>
    <g id="XMLID_2_">
        <g>
            <path fill="#FFFFFF" d="M16.956,23.983l0.063,18.89c-0.175,0.91-0.976,1.601-1.935,1.601H5.651c-1.088,0-1.971-0.886-1.971-1.971V24.212
                c0-1.088,0.883-1.971,1.971-1.971h9.433C15.964,22.241,16.705,23.184,16.956,23.983z"/>
        </g>
        <g>
        </g>
    </g>
    <g id="XMLID_3_">
        <g>
            <path fill="#FFFFFF" d="M40.207,18.971c2.019,0.147,5.692,1.438,5.614,5.271c-0.03,1.362-0.545,2.312-0.994,2.884
                c0.353,0.585,0.711,1.514,0.633,2.836c-0.094,1.514-0.774,2.707-1.447,3.315c0.244,0.53,0.423,1.055,0.396,1.79
                c-0.03,0.823-0.169,2.806-1.365,3.906c0.169,0.88,0.147,2.351-0.771,3.646c-0.477,0.669-1.426,1.471-3.252,1.492
                c-1.013,0.015-3.49,0.018-6.341,0.018c-5.654,0-11.887-0.015-11.995-0.018h-0.172l-0.181-0.016
                c-0.817-0.093-1.347-0.653-1.643-1.277v-18.67c0.566-0.359,0.44-0.32,0.787-0.57c0.735-0.633,2.17-2.357,2.691-3.427
                c0.784-1.603,1.814-3.954,2.852-4.852c0.108-0.093,0.271-0.22,0.473-0.377c1.423-1.118,4.481-4.171,4.906-7.812
                c0.185-1.567,0.757-2.643,1.7-3.198c1.235-0.726,2.541-0.223,2.686-0.163l0.22,0.129c0.16,0.127,3.909,3.201,2.447,7.541
                c-1.317,3.912-3.276,6.305-3.36,6.407c0.003,0.003-0.383,0.6-0.133,1.136l0.088,0.006H40.207z"/>
        </g>
        <g>
        </g>
    </g>
</g>
</svg>
