<?xml version="1.0" encoding="utf-8"?>
<!-- Generator: Adobe Illustrator 16.0.0, SVG Export Plug-In . SVG Version: 6.00 Build 0)  -->
<!DOCTYPE svg PUBLIC "-//W3C//DTD SVG 1.1//EN" "http://www.w3.org/Graphics/SVG/1.1/DTD/svg11.dtd">
<svg version="1.1"  xmlns="http://www.w3.org/2000/svg" xmlns:xlink="http://www.w3.org/1999/xlink" x="0px" y="0px"
     width="48px" height="48px" viewBox="0 0 48 48" enable-background="new 0 0 48 48" xml:space="preserve">
<path fill="#FFFFFF" d="M18.443,17.582"/>
<g>
    <path fill="#FFFFFF" d="M35.608,12.108c0,0-3.575,0.451-3.575-1.875c0-2.058,3.576-1.643,3.576-1.643L35.608,12.108z"/>
    <path fill="#FFFFFF" d="M46.509,26.288c0,0-3.553-3.212-7.219-1.894c0.229-3.152-1.261-3.036-2.062-3.036c-3.779-7.834-4.699-8.449-5.958-10.355
        c0.916-2.445-2.486-3.048-2.637-0.841c-4.125,2.215-3.82,3.59,0.459,1.539l3.094,7.169l-4.583,11.836h-7.449
        c0,0,1.236-6.14,1.203-8.399c2.813,0.144,3.952-4.066-0.057-4.128H8.238c-5.042-0.455-4.125,4.187-1.719,4.104
        c-6.99,2.854-5.469,10.207-4.545,10.189c0.93-0.019,19.313-0.009,27.651-0.003l4.987-6.941l1.897-0.006l-2.849,6.95
        c0.01,0,0.015,0,0.015,0c1.719-0.115,5.383-5.376,12.031-4.012C47.379,28.807,47.603,26.601,46.509,26.288z"/>
    <path fill="#FFFFFF" d="M11.021,33.595c-0.526,0.622-1.311,1.019-2.189,1.019c-0.88,0-1.664-0.396-2.19-1.019H3.285
        c0.775,2.323,2.964,3.998,5.548,3.998c2.583,0,4.772-1.675,5.547-3.998H11.021z"/>
    <path fill="#FFFFFF" d="M46.404,29.616c-0.301-0.001-0.513-0.101-0.838-0.167c-1.7-0.35-3.18-0.039-4.508,0.281
        c0.101-0.01,0.202-0.016,0.305-0.016c1.587,0,2.871,1.285,2.871,2.869c0,1.586-1.284,2.87-2.871,2.87
        c-1.584,0-2.867-1.284-2.867-2.87c0-1.123,0.645-2.094,1.585-2.566c-1.915,0.664-3.414,1.771-4.563,2.596
        c0.015,3.218,2.627,5.82,5.846,5.82c3.232,0,5.851-2.618,5.851-5.85C47.214,31.501,46.918,30.486,46.404,29.616z"/>
</g>
</svg>
