<?xml version="1.0" encoding="UTF-8" standalone="no"?>
<!DOCTYPE svg PUBLIC "-//W3C//DTD SVG 1.1//EN"
 "http://www.w3.org/Graphics/SVG/1.1/DTD/svg11.dtd">
<!-- Generated by graphviz version 2.38.0 (20140413.2041)
 -->
<!-- Title: controllers_diagram Pages: 1 -->
<svg width="915pt" height="919pt"
 viewBox="0.00 0.00 915.00 919.00" xmlns="http://www.w3.org/2000/svg" xmlns:xlink="http://www.w3.org/1999/xlink">
<g id="graph0" class="graph" transform="scale(1 1) rotate(0) translate(422 516)">
<title>controllers_diagram</title>
<polygon fill="none" stroke="none" points="-422,403 -422,-516 493,-516 493,403 -422,403"/>
<!-- _diagram_info -->
<g id="node1" class="node"><title>_diagram_info</title>
<text text-anchor="start" x="274" y="335.4" font-family="Times,serif" font-size="13.00">Controllers diagram</text>
<text text-anchor="start" x="274" y="349.4" font-family="Times,serif" font-size="13.00">Date: Oct 12 2016 &#45; 21:52</text>
<text text-anchor="start" x="274" y="363.4" font-family="Times,serif" font-size="13.00">Migration version: 20161004024401</text>
<text text-anchor="start" x="274" y="377.4" font-family="Times,serif" font-size="13.00">Generated by RailRoady 1.5.2</text>
<text text-anchor="start" x="274" y="391.4" font-family="Times,serif" font-size="13.00">http://railroady.prestonlee.com</text>
</g>
<!-- CreditCardsController -->
<g id="node2" class="node"><title>CreditCardsController</title>
<path fill="none" stroke="black" d="M202.5,-190.5C202.5,-190.5 315.5,-190.5 315.5,-190.5 321.5,-190.5 327.5,-196.5 327.5,-202.5 327.5,-202.5 327.5,-391.5 327.5,-391.5 327.5,-397.5 321.5,-403.5 315.5,-403.5 315.5,-403.5 202.5,-403.5 202.5,-403.5 196.5,-403.5 190.5,-397.5 190.5,-391.5 190.5,-391.5 190.5,-202.5 190.5,-202.5 190.5,-196.5 196.5,-190.5 202.5,-190.5"/>
<text text-anchor="middle" x="259" y="-388.3" font-family="Times,serif" font-size="14.00">CreditCardsController</text>
<polyline fill="none" stroke="black" points="190.5,-380.5 327.5,-380.5 "/>
<text text-anchor="start" x="198.5" y="-365.3" font-family="Times,serif" font-size="14.00">create</text>
<text text-anchor="start" x="198.5" y="-350.3" font-family="Times,serif" font-size="14.00">destroy</text>
<text text-anchor="start" x="198.5" y="-335.3" font-family="Times,serif" font-size="14.00">edit</text>
<text text-anchor="start" x="198.5" y="-320.3" font-family="Times,serif" font-size="14.00">index</text>
<text text-anchor="start" x="198.5" y="-305.3" font-family="Times,serif" font-size="14.00">new</text>
<text text-anchor="start" x="198.5" y="-290.3" font-family="Times,serif" font-size="14.00">show</text>
<text text-anchor="start" x="198.5" y="-275.3" font-family="Times,serif" font-size="14.00">update</text>
<polyline fill="none" stroke="black" points="190.5,-267.5 327.5,-267.5 "/>
<polyline fill="none" stroke="black" points="190.5,-243.5 327.5,-243.5 "/>
<text text-anchor="start" x="198.5" y="-228.3" font-family="Times,serif" font-size="14.00">_layout</text>
<text text-anchor="start" x="198.5" y="-213.3" font-family="Times,serif" font-size="14.00">credit_card_params</text>
<text text-anchor="start" x="198.5" y="-198.3" font-family="Times,serif" font-size="14.00">set_credit_card</text>
</g>
<!-- ProfessionalsController -->
<g id="node3" class="node"><title>ProfessionalsController</title>
<path fill="none" stroke="black" d="M-235,-247.5C-235,-247.5 -115,-247.5 -115,-247.5 -109,-247.5 -103,-253.5 -103,-259.5 -103,-259.5 -103,-448.5 -103,-448.5 -103,-454.5 -109,-460.5 -115,-460.5 -115,-460.5 -235,-460.5 -235,-460.5 -241,-460.5 -247,-454.5 -247,-448.5 -247,-448.5 -247,-259.5 -247,-259.5 -247,-253.5 -241,-247.5 -235,-247.5"/>
<text text-anchor="middle" x="-175" y="-445.3" font-family="Times,serif" font-size="14.00">ProfessionalsController</text>
<polyline fill="none" stroke="black" points="-247,-437.5 -103,-437.5 "/>
<text text-anchor="start" x="-239" y="-422.3" font-family="Times,serif" font-size="14.00">create</text>
<text text-anchor="start" x="-239" y="-407.3" font-family="Times,serif" font-size="14.00">destroy</text>
<text text-anchor="start" x="-239" y="-392.3" font-family="Times,serif" font-size="14.00">edit</text>
<text text-anchor="start" x="-239" y="-377.3" font-family="Times,serif" font-size="14.00">index</text>
<text text-anchor="start" x="-239" y="-362.3" font-family="Times,serif" font-size="14.00">new</text>
<text text-anchor="start" x="-239" y="-347.3" font-family="Times,serif" font-size="14.00">show</text>
<text text-anchor="start" x="-239" y="-332.3" font-family="Times,serif" font-size="14.00">update</text>
<polyline fill="none" stroke="black" points="-247,-324.5 -103,-324.5 "/>
<polyline fill="none" stroke="black" points="-247,-300.5 -103,-300.5 "/>
<text text-anchor="start" x="-239" y="-285.3" font-family="Times,serif" font-size="14.00">_layout</text>
<text text-anchor="start" x="-239" y="-270.3" font-family="Times,serif" font-size="14.00">professional_params</text>
<text text-anchor="start" x="-239" y="-255.3" font-family="Times,serif" font-size="14.00">set_professional</text>
</g>
<!-- ClientsController -->
<g id="node4" class="node"><title>ClientsController</title>
<path fill="none" stroke="black" d="M-387,-0.5C-387,-0.5 -301,-0.5 -301,-0.5 -295,-0.5 -289,-6.5 -289,-12.5 -289,-12.5 -289,-201.5 -289,-201.5 -289,-207.5 -295,-213.5 -301,-213.5 -301,-213.5 -387,-213.5 -387,-213.5 -393,-213.5 -399,-207.5 -399,-201.5 -399,-201.5 -399,-12.5 -399,-12.5 -399,-6.5 -393,-0.5 -387,-0.5"/>
<text text-anchor="middle" x="-344" y="-198.3" font-family="Times,serif" font-size="14.00">ClientsController</text>
<polyline fill="none" stroke="black" points="-399,-190.5 -289,-190.5 "/>
<text text-anchor="start" x="-391" y="-175.3" font-family="Times,serif" font-size="14.00">create</text>
<text text-anchor="start" x="-391" y="-160.3" font-family="Times,serif" font-size="14.00">destroy</text>
<text text-anchor="start" x="-391" y="-145.3" font-family="Times,serif" font-size="14.00">edit</text>
<text text-anchor="start" x="-391" y="-130.3" font-family="Times,serif" font-size="14.00">index</text>
<text text-anchor="start" x="-391" y="-115.3" font-family="Times,serif" font-size="14.00">new</text>
<text text-anchor="start" x="-391" y="-100.3" font-family="Times,serif" font-size="14.00">show</text>
<text text-anchor="start" x="-391" y="-85.3" font-family="Times,serif" font-size="14.00">update</text>
<polyline fill="none" stroke="black" points="-399,-77.5 -289,-77.5 "/>
<polyline fill="none" stroke="black" points="-399,-53.5 -289,-53.5 "/>
<text text-anchor="start" x="-391" y="-38.3" font-family="Times,serif" font-size="14.00">_layout</text>
<text text-anchor="start" x="-391" y="-23.3" font-family="Times,serif" font-size="14.00">client_params</text>
<text text-anchor="start" x="-391" y="-8.3" font-family="Times,serif" font-size="14.00">set_client</text>
</g>
<!-- BankingsController -->
<g id="node5" class="node"><title>BankingsController</title>
<path fill="none" stroke="black" d="M-234.5,246.5C-234.5,246.5 -135.5,246.5 -135.5,246.5 -129.5,246.5 -123.5,240.5 -123.5,234.5 -123.5,234.5 -123.5,45.5 -123.5,45.5 -123.5,39.5 -129.5,33.5 -135.5,33.5 -135.5,33.5 -234.5,33.5 -234.5,33.5 -240.5,33.5 -246.5,39.5 -246.5,45.5 -246.5,45.5 -246.5,234.5 -246.5,234.5 -246.5,240.5 -240.5,246.5 -234.5,246.5"/>
<text text-anchor="middle" x="-185" y="48.7" font-family="Times,serif" font-size="14.00">BankingsController</text>
<polyline fill="none" stroke="black" points="-246.5,56.5 -123.5,56.5 "/>
<text text-anchor="start" x="-238.5" y="71.7" font-family="Times,serif" font-size="14.00">create</text>
<text text-anchor="start" x="-238.5" y="86.7" font-family="Times,serif" font-size="14.00">destroy</text>
<text text-anchor="start" x="-238.5" y="101.7" font-family="Times,serif" font-size="14.00">edit</text>
<text text-anchor="start" x="-238.5" y="116.7" font-family="Times,serif" font-size="14.00">index</text>
<text text-anchor="start" x="-238.5" y="131.7" font-family="Times,serif" font-size="14.00">new</text>
<text text-anchor="start" x="-238.5" y="146.7" font-family="Times,serif" font-size="14.00">show</text>
<text text-anchor="start" x="-238.5" y="161.7" font-family="Times,serif" font-size="14.00">update</text>
<polyline fill="none" stroke="black" points="-246.5,169.5 -123.5,169.5 "/>
<polyline fill="none" stroke="black" points="-246.5,193.5 -123.5,193.5 "/>
<text text-anchor="start" x="-238.5" y="208.7" font-family="Times,serif" font-size="14.00">_layout</text>
<text text-anchor="start" x="-238.5" y="223.7" font-family="Times,serif" font-size="14.00">banking_params</text>
<text text-anchor="start" x="-238.5" y="238.7" font-family="Times,serif" font-size="14.00">set_banking</text>
</g>
<!-- MainClientsController -->
<g id="node6" class="node"><title>MainClientsController</title>
<path fill="none" stroke="black" d="M-64,151.5C-64,151.5 52,151.5 52,151.5 58,151.5 64,145.5 64,139.5 64,139.5 64,-109.5 64,-109.5 64,-115.5 58,-121.5 52,-121.5 52,-121.5 -64,-121.5 -64,-121.5 -70,-121.5 -76,-115.5 -76,-109.5 -76,-109.5 -76,139.5 -76,139.5 -76,145.5 -70,151.5 -64,151.5"/>
<text text-anchor="middle" x="-6" y="-106.3" font-family="Times,serif" font-size="14.00">MainClientsController</text>
<polyline fill="none" stroke="black" points="-76,-98.5 64,-98.5 "/>
<text text-anchor="start" x="-68" y="-83.3" font-family="Times,serif" font-size="14.00">add_product_car</text>
<text text-anchor="start" x="-68" y="-68.3" font-family="Times,serif" font-size="14.00">create</text>
<text text-anchor="start" x="-68" y="-53.3" font-family="Times,serif" font-size="14.00">destroy</text>
<text text-anchor="start" x="-68" y="-38.3" font-family="Times,serif" font-size="14.00">edit</text>
<text text-anchor="start" x="-68" y="-23.3" font-family="Times,serif" font-size="14.00">index</text>
<text text-anchor="start" x="-68" y="-8.3" font-family="Times,serif" font-size="14.00">new</text>
<text text-anchor="start" x="-68" y="6.7" font-family="Times,serif" font-size="14.00">shoppingcart</text>
<text text-anchor="start" x="-68" y="21.7" font-family="Times,serif" font-size="14.00">shoppingcart=</text>
<text text-anchor="start" x="-68" y="36.7" font-family="Times,serif" font-size="14.00">show</text>
<text text-anchor="start" x="-68" y="51.7" font-family="Times,serif" font-size="14.00">update</text>
<polyline fill="none" stroke="black" points="-76,59.5 64,59.5 "/>
<polyline fill="none" stroke="black" points="-76,83.5 64,83.5 "/>
<text text-anchor="start" x="-68" y="98.7" font-family="Times,serif" font-size="14.00">_layout</text>
<text text-anchor="start" x="-68" y="113.7" font-family="Times,serif" font-size="14.00">load_products</text>
<text text-anchor="start" x="-68" y="128.7" font-family="Times,serif" font-size="14.00">main_client_params</text>
<text text-anchor="start" x="-68" y="143.7" font-family="Times,serif" font-size="14.00">set_main_client</text>
</g>
<!-- ShoppingCartsController -->
<g id="node7" class="node"><title>ShoppingCartsController</title>
<path fill="none" stroke="black" d="M107,94.5C107,94.5 235,94.5 235,94.5 241,94.5 247,88.5 247,82.5 247,82.5 247,-136.5 247,-136.5 247,-142.5 241,-148.5 235,-148.5 235,-148.5 107,-148.5 107,-148.5 101,-148.5 95,-142.5 95,-136.5 95,-136.5 95,82.5 95,82.5 95,88.5 101,94.5 107,94.5"/>
<text text-anchor="middle" x="171" y="-133.3" font-family="Times,serif" font-size="14.00">ShoppingCartsController</text>
<polyline fill="none" stroke="black" points="95,-125.5 247,-125.5 "/>
<text text-anchor="start" x="103" y="-110.3" font-family="Times,serif" font-size="14.00">buy</text>
<text text-anchor="start" x="103" y="-95.3" font-family="Times,serif" font-size="14.00">create</text>
<text text-anchor="start" x="103" y="-80.3" font-family="Times,serif" font-size="14.00">destroy</text>
<text text-anchor="start" x="103" y="-65.3" font-family="Times,serif" font-size="14.00">edit</text>
<text text-anchor="start" x="103" y="-50.3" font-family="Times,serif" font-size="14.00">index</text>
<text text-anchor="start" x="103" y="-35.3" font-family="Times,serif" font-size="14.00">new</text>
<text text-anchor="start" x="103" y="-20.3" font-family="Times,serif" font-size="14.00">show</text>
<text text-anchor="start" x="103" y="-5.3" font-family="Times,serif" font-size="14.00">update</text>
<polyline fill="none" stroke="black" points="95,2.5 247,2.5 "/>
<polyline fill="none" stroke="black" points="95,26.5 247,26.5 "/>
<text text-anchor="start" x="103" y="41.7" font-family="Times,serif" font-size="14.00">_layout</text>
<text text-anchor="start" x="103" y="56.7" font-family="Times,serif" font-size="14.00">set_new_product_cart</text>
<text text-anchor="start" x="103" y="71.7" font-family="Times,serif" font-size="14.00">set_shopping_cart</text>
<text text-anchor="start" x="103" y="86.7" font-family="Times,serif" font-size="14.00">shopping_cart_params</text>
</g>
<!-- ProductsController -->
<g id="node8" class="node"><title>ProductsController</title>
<path fill="none" stroke="black" d="M-44.5,-153C-44.5,-153 50.5,-153 50.5,-153 56.5,-153 62.5,-159 62.5,-165 62.5,-165 62.5,-399 62.5,-399 62.5,-405 56.5,-411 50.5,-411 50.5,-411 -44.5,-411 -44.5,-411 -50.5,-411 -56.5,-405 -56.5,-399 -56.5,-399 -56.5,-165 -56.5,-165 -56.5,-159 -50.5,-153 -44.5,-153"/>
<text text-anchor="middle" x="3" y="-395.8" font-family="Times,serif" font-size="14.00">ProductsController</text>
<polyline fill="none" stroke="black" points="-56.5,-388 62.5,-388 "/>
<text text-anchor="start" x="-48.5" y="-372.8" font-family="Times,serif" font-size="14.00">buy</text>
<text text-anchor="start" x="-48.5" y="-357.8" font-family="Times,serif" font-size="14.00">create</text>
<text text-anchor="start" x="-48.5" y="-342.8" font-family="Times,serif" font-size="14.00">destroy</text>
<text text-anchor="start" x="-48.5" y="-327.8" font-family="Times,serif" font-size="14.00">edit</text>
<text text-anchor="start" x="-48.5" y="-312.8" font-family="Times,serif" font-size="14.00">index</text>
<text text-anchor="start" x="-48.5" y="-297.8" font-family="Times,serif" font-size="14.00">new</text>
<text text-anchor="start" x="-48.5" y="-282.8" font-family="Times,serif" font-size="14.00">show</text>
<text text-anchor="start" x="-48.5" y="-267.8" font-family="Times,serif" font-size="14.00">update</text>
<polyline fill="none" stroke="black" points="-56.5,-260 62.5,-260 "/>
<polyline fill="none" stroke="black" points="-56.5,-236 62.5,-236 "/>
<text text-anchor="start" x="-48.5" y="-220.8" font-family="Times,serif" font-size="14.00">_layout</text>
<text text-anchor="start" x="-48.5" y="-205.8" font-family="Times,serif" font-size="14.00">product_params</text>
<text text-anchor="start" x="-48.5" y="-190.8" font-family="Times,serif" font-size="14.00">set_consumer</text>
<text text-anchor="start" x="-48.5" y="-175.8" font-family="Times,serif" font-size="14.00">set_product</text>
<text text-anchor="start" x="-48.5" y="-160.8" font-family="Times,serif" font-size="14.00">set_professional</text>
</g>
<!-- PicturesController -->
<g id="node9" class="node"><title>PicturesController</title>
<path fill="none" stroke="black" d="M-387,246.5C-387,246.5 -295,246.5 -295,246.5 -289,246.5 -283,240.5 -283,234.5 -283,234.5 -283,45.5 -283,45.5 -283,39.5 -289,33.5 -295,33.5 -295,33.5 -387,33.5 -387,33.5 -393,33.5 -399,39.5 -399,45.5 -399,45.5 -399,234.5 -399,234.5 -399,240.5 -393,246.5 -387,246.5"/>
<text text-anchor="middle" x="-341" y="48.7" font-family="Times,serif" font-size="14.00">PicturesController</text>
<polyline fill="none" stroke="black" points="-399,56.5 -283,56.5 "/>
<text text-anchor="start" x="-391" y="71.7" font-family="Times,serif" font-size="14.00">create</text>
<text text-anchor="start" x="-391" y="86.7" font-family="Times,serif" font-size="14.00">destroy</text>
<text text-anchor="start" x="-391" y="101.7" font-family="Times,serif" font-size="14.00">edit</text>
<text text-anchor="start" x="-391" y="116.7" font-family="Times,serif" font-size="14.00">index</text>
<text text-anchor="start" x="-391" y="131.7" font-family="Times,serif" font-size="14.00">new</text>
<text text-anchor="start" x="-391" y="146.7" font-family="Times,serif" font-size="14.00">show</text>
<text text-anchor="start" x="-391" y="161.7" font-family="Times,serif" font-size="14.00">update</text>
<polyline fill="none" stroke="black" points="-399,169.5 -283,169.5 "/>
<polyline fill="none" stroke="black" points="-399,193.5 -283,193.5 "/>
<text text-anchor="start" x="-391" y="208.7" font-family="Times,serif" font-size="14.00">_layout</text>
<text text-anchor="start" x="-391" y="223.7" font-family="Times,serif" font-size="14.00">picture_params</text>
<text text-anchor="start" x="-391" y="238.7" font-family="Times,serif" font-size="14.00">set_picture</text>
</g>
<!-- Clients::RegistrationsController -->
<g id="node10" class="node"><title>Clients::RegistrationsController</title>
<path fill="none" stroke="black" d="M-387,398C-387,398 -205,398 -205,398 -199,398 -193,392 -193,386 -193,386 -193,302 -193,302 -193,296 -199,290 -205,290 -205,290 -387,290 -387,290 -393,290 -399,296 -399,302 -399,302 -399,386 -399,386 -399,392 -393,398 -387,398"/>
<text text-anchor="middle" x="-296" y="305.2" font-family="Times,serif" font-size="14.00">Clients::RegistrationsController</text>
<polyline fill="none" stroke="black" points="-399,313 -193,313 "/>
<text text-anchor="start" x="-391" y="328.2" font-family="Times,serif" font-size="14.00">configure_account_update_params</text>
<text text-anchor="start" x="-391" y="343.2" font-family="Times,serif" font-size="14.00">configure_sign_up_params</text>
<polyline fill="none" stroke="black" points="-399,351 -193,351 "/>
<polyline fill="none" stroke="black" points="-399,375 -193,375 "/>
<text text-anchor="start" x="-391" y="390.2" font-family="Times,serif" font-size="14.00">_layout</text>
</g>
<!-- TelephonesController -->
<g id="node11" class="node"><title>TelephonesController</title>
<path fill="none" stroke="black" d="M297,284.5C297,284.5 407,284.5 407,284.5 413,284.5 419,278.5 419,272.5 419,272.5 419,83.5 419,83.5 419,77.5 413,71.5 407,71.5 407,71.5 297,71.5 297,71.5 291,71.5 285,77.5 285,83.5 285,83.5 285,272.5 285,272.5 285,278.5 291,284.5 297,284.5"/>
<text text-anchor="middle" x="352" y="86.7" font-family="Times,serif" font-size="14.00">TelephonesController</text>
<polyline fill="none" stroke="black" points="285,94.5 419,94.5 "/>
<text text-anchor="start" x="293" y="109.7" font-family="Times,serif" font-size="14.00">create</text>
<text text-anchor="start" x="293" y="124.7" font-family="Times,serif" font-size="14.00">destroy</text>
<text text-anchor="start" x="293" y="139.7" font-family="Times,serif" font-size="14.00">edit</text>
<text text-anchor="start" x="293" y="154.7" font-family="Times,serif" font-size="14.00">index</text>
<text text-anchor="start" x="293" y="169.7" font-family="Times,serif" font-size="14.00">new</text>
<text text-anchor="start" x="293" y="184.7" font-family="Times,serif" font-size="14.00">show</text>
<text text-anchor="start" x="293" y="199.7" font-family="Times,serif" font-size="14.00">update</text>
<polyline fill="none" stroke="black" points="285,207.5 419,207.5 "/>
<polyline fill="none" stroke="black" points="285,231.5 419,231.5 "/>
<text text-anchor="start" x="293" y="246.7" font-family="Times,serif" font-size="14.00">_layout</text>
<text text-anchor="start" x="293" y="261.7" font-family="Times,serif" font-size="14.00">set_telephone</text>
<text text-anchor="start" x="293" y="276.7" font-family="Times,serif" font-size="14.00">telephone_params</text>
</g>
<!-- TransactionsController -->
<g id="node12" class="node"><title>TransactionsController</title>
<path fill="none" stroke="black" d="M-234.5,-0.5C-234.5,-0.5 -117.5,-0.5 -117.5,-0.5 -111.5,-0.5 -105.5,-6.5 -105.5,-12.5 -105.5,-12.5 -105.5,-201.5 -105.5,-201.5 -105.5,-207.5 -111.5,-213.5 -117.5,-213.5 -117.5,-213.5 -234.5,-213.5 -234.5,-213.5 -240.5,-213.5 -246.5,-207.5 -246.5,-201.5 -246.5,-201.5 -246.5,-12.5 -246.5,-12.5 -246.5,-6.5 -240.5,-0.5 -234.5,-0.5"/>
<text text-anchor="middle" x="-176" y="-198.3" font-family="Times,serif" font-size="14.00">TransactionsController</text>
<polyline fill="none" stroke="black" points="-246.5,-190.5 -105.5,-190.5 "/>
<text text-anchor="start" x="-238.5" y="-175.3" font-family="Times,serif" font-size="14.00">create</text>
<text text-anchor="start" x="-238.5" y="-160.3" font-family="Times,serif" font-size="14.00">destroy</text>
<text text-anchor="start" x="-238.5" y="-145.3" font-family="Times,serif" font-size="14.00">edit</text>
<text text-anchor="start" x="-238.5" y="-130.3" font-family="Times,serif" font-size="14.00">index</text>
<text text-anchor="start" x="-238.5" y="-115.3" font-family="Times,serif" font-size="14.00">new</text>
<text text-anchor="start" x="-238.5" y="-100.3" font-family="Times,serif" font-size="14.00">show</text>
<text text-anchor="start" x="-238.5" y="-85.3" font-family="Times,serif" font-size="14.00">update</text>
<polyline fill="none" stroke="black" points="-246.5,-77.5 -105.5,-77.5 "/>
<polyline fill="none" stroke="black" points="-246.5,-53.5 -105.5,-53.5 "/>
<text text-anchor="start" x="-238.5" y="-38.3" font-family="Times,serif" font-size="14.00">_layout</text>
<text text-anchor="start" x="-238.5" y="-23.3" font-family="Times,serif" font-size="14.00">set_transaction</text>
<text text-anchor="start" x="-238.5" y="-8.3" font-family="Times,serif" font-size="14.00">transaction_params</text>
</g>
<!-- WelcomeController -->
<g id="node13" class="node"><title>WelcomeController</title>
<path fill="none" stroke="black" d="M-387.5,-285.5C-387.5,-285.5 -286.5,-285.5 -286.5,-285.5 -280.5,-285.5 -274.5,-291.5 -274.5,-297.5 -274.5,-297.5 -274.5,-366.5 -274.5,-366.5 -274.5,-372.5 -280.5,-378.5 -286.5,-378.5 -286.5,-378.5 -387.5,-378.5 -387.5,-378.5 -393.5,-378.5 -399.5,-372.5 -399.5,-366.5 -399.5,-366.5 -399.5,-297.5 -399.5,-297.5 -399.5,-291.5 -393.5,-285.5 -387.5,-285.5"/>
<text text-anchor="middle" x="-337" y="-363.3" font-family="Times,serif" font-size="14.00">WelcomeController</text>
<polyline fill="none" stroke="black" points="-399.5,-355.5 -274.5,-355.5 "/>
<text text-anchor="start" x="-391.5" y="-340.3" font-family="Times,serif" font-size="14.00">index</text>
<polyline fill="none" stroke="black" points="-399.5,-332.5 -274.5,-332.5 "/>
<polyline fill="none" stroke="black" points="-399.5,-308.5 -274.5,-308.5 "/>
<text text-anchor="start" x="-391.5" y="-293.3" font-family="Times,serif" font-size="14.00">_layout</text>
</g>
<!-- ConsumersController -->
<g id="node14" class="node"><title>ConsumersController</title>
<path fill="none" stroke="black" d="M107,341.5C107,341.5 217,341.5 217,341.5 223,341.5 229,335.5 229,329.5 229,329.5 229,140.5 229,140.5 229,134.5 223,128.5 217,128.5 217,128.5 107,128.5 107,128.5 101,128.5 95,134.5 95,140.5 95,140.5 95,329.5 95,329.5 95,335.5 101,341.5 107,341.5"/>
<text text-anchor="middle" x="162" y="143.7" font-family="Times,serif" font-size="14.00">ConsumersController</text>
<polyline fill="none" stroke="black" points="95,151.5 229,151.5 "/>
<text text-anchor="start" x="103" y="166.7" font-family="Times,serif" font-size="14.00">create</text>
<text text-anchor="start" x="103" y="181.7" font-family="Times,serif" font-size="14.00">destroy</text>
<text text-anchor="start" x="103" y="196.7" font-family="Times,serif" font-size="14.00">edit</text>
<text text-anchor="start" x="103" y="211.7" font-family="Times,serif" font-size="14.00">index</text>
<text text-anchor="start" x="103" y="226.7" font-family="Times,serif" font-size="14.00">new</text>
<text text-anchor="start" x="103" y="241.7" font-family="Times,serif" font-size="14.00">show</text>
<text text-anchor="start" x="103" y="256.7" font-family="Times,serif" font-size="14.00">update</text>
<polyline fill="none" stroke="black" points="95,264.5 229,264.5 "/>
<polyline fill="none" stroke="black" points="95,288.5 229,288.5 "/>
<text text-anchor="start" x="103" y="303.7" font-family="Times,serif" font-size="14.00">_layout</text>
<text text-anchor="start" x="103" y="318.7" font-family="Times,serif" font-size="14.00">consumer_params</text>
<text text-anchor="start" x="103" y="333.7" font-family="Times,serif" font-size="14.00">set_consumer</text>
</g>
<!-- KeywordsController -->
<g id="node15" class="node"><title>KeywordsController</title>
<path fill="none" stroke="black" d="M373,37.5C373,37.5 477,37.5 477,37.5 483,37.5 489,31.5 489,25.5 489,25.5 489,-163.5 489,-163.5 489,-169.5 483,-175.5 477,-175.5 477,-175.5 373,-175.5 373,-175.5 367,-175.5 361,-169.5 361,-163.5 361,-163.5 361,25.5 361,25.5 361,31.5 367,37.5 373,37.5"/>
<text text-anchor="middle" x="425" y="-160.3" font-family="Times,serif" font-size="14.00">KeywordsController</text>
<polyline fill="none" stroke="black" points="361,-152.5 489,-152.5 "/>
<text text-anchor="start" x="369" y="-137.3" font-family="Times,serif" font-size="14.00">create</text>
<text text-anchor="start" x="369" y="-122.3" font-family="Times,serif" font-size="14.00">destroy</text>
<text text-anchor="start" x="369" y="-107.3" font-family="Times,serif" font-size="14.00">edit</text>
<text text-anchor="start" x="369" y="-92.3" font-family="Times,serif" font-size="14.00">index</text>
<text text-anchor="start" x="369" y="-77.3" font-family="Times,serif" font-size="14.00">new</text>
<text text-anchor="start" x="369" y="-62.3" font-family="Times,serif" font-size="14.00">show</text>
<text text-anchor="start" x="369" y="-47.3" font-family="Times,serif" font-size="14.00">update</text>
<polyline fill="none" stroke="black" points="361,-39.5 489,-39.5 "/>
<polyline fill="none" stroke="black" points="361,-15.5 489,-15.5 "/>
<text text-anchor="start" x="369" y="-0.3" font-family="Times,serif" font-size="14.00">_layout</text>
<text text-anchor="start" x="369" y="14.7" font-family="Times,serif" font-size="14.00">keyword_params</text>
<text text-anchor="start" x="369" y="29.7" font-family="Times,serif" font-size="14.00">set_keyword</text>
</g>
<!-- ApplicationController -->
<g id="node16" class="node"><title>ApplicationController</title>
<path fill="none" stroke="black" d="M-406,-418.5C-406,-418.5 -290,-418.5 -290,-418.5 -284,-418.5 -278,-424.5 -278,-430.5 -278,-430.5 -278,-499.5 -278,-499.5 -278,-505.5 -284,-511.5 -290,-511.5 -290,-511.5 -406,-511.5 -406,-511.5 -412,-511.5 -418,-505.5 -418,-499.5 -418,-499.5 -418,-430.5 -418,-430.5 -418,-424.5 -412,-418.5 -406,-418.5"/>
<text text-anchor="middle" x="-348" y="-496.3" font-family="Times,serif" font-size="14.00">ApplicationController</text>
<polyline fill="none" stroke="black" points="-418,-488.5 -278,-488.5 "/>
<text text-anchor="start" x="-410" y="-473.3" font-family="Times,serif" font-size="14.00">after_sign_in_path_for</text>
<polyline fill="none" stroke="black" points="-418,-465.5 -278,-465.5 "/>
<polyline fill="none" stroke="black" points="-418,-441.5 -278,-441.5 "/>
<text text-anchor="start" x="-410" y="-426.3" font-family="Times,serif" font-size="14.00">_layout</text>
</g>
<!-- AddressesController -->
<g id="node17" class="node"><title>AddressesController</title>
<path fill="none" stroke="black" d="M373,-209.5C373,-209.5 477,-209.5 477,-209.5 483,-209.5 489,-215.5 489,-221.5 489,-221.5 489,-410.5 489,-410.5 489,-416.5 483,-422.5 477,-422.5 477,-422.5 373,-422.5 373,-422.5 367,-422.5 361,-416.5 361,-410.5 361,-410.5 361,-221.5 361,-221.5 361,-215.5 367,-209.5 373,-209.5"/>
<text text-anchor="middle" x="425" y="-407.3" font-family="Times,serif" font-size="14.00">AddressesController</text>
<polyline fill="none" stroke="black" points="361,-399.5 489,-399.5 "/>
<text text-anchor="start" x="369" y="-384.3" font-family="Times,serif" font-size="14.00">create</text>
<text text-anchor="start" x="369" y="-369.3" font-family="Times,serif" font-size="14.00">destroy</text>
<text text-anchor="start" x="369" y="-354.3" font-family="Times,serif" font-size="14.00">edit</text>
<text text-anchor="start" x="369" y="-339.3" font-family="Times,serif" font-size="14.00">index</text>
<text text-anchor="start" x="369" y="-324.3" font-family="Times,serif" font-size="14.00">new</text>
<text text-anchor="start" x="369" y="-309.3" font-family="Times,serif" font-size="14.00">show</text>
<text text-anchor="start" x="369" y="-294.3" font-family="Times,serif" font-size="14.00">update</text>
<polyline fill="none" stroke="black" points="361,-286.5 489,-286.5 "/>
<polyline fill="none" stroke="black" points="361,-262.5 489,-262.5 "/>
<text text-anchor="start" x="369" y="-247.3" font-family="Times,serif" font-size="14.00">_layout</text>
<text text-anchor="start" x="369" y="-232.3" font-family="Times,serif" font-size="14.00">address_params</text>
<text text-anchor="start" x="369" y="-217.3" font-family="Times,serif" font-size="14.00">set_address</text>
</g>
<!-- CartItemsController -->
<g id="node18" class="node"><title>CartItemsController</title>
<path fill="none" stroke="black" d="M-83,398.5C-83,398.5 19,398.5 19,398.5 25,398.5 31,392.5 31,386.5 31,386.5 31,197.5 31,197.5 31,191.5 25,185.5 19,185.5 19,185.5 -83,185.5 -83,185.5 -89,185.5 -95,191.5 -95,197.5 -95,197.5 -95,386.5 -95,386.5 -95,392.5 -89,398.5 -83,398.5"/>
<text text-anchor="middle" x="-32" y="200.7" font-family="Times,serif" font-size="14.00">CartItemsController</text>
<polyline fill="none" stroke="black" points="-95,208.5 31,208.5 "/>
<text text-anchor="start" x="-87" y="223.7" font-family="Times,serif" font-size="14.00">create</text>
<text text-anchor="start" x="-87" y="238.7" font-family="Times,serif" font-size="14.00">destroy</text>
<text text-anchor="start" x="-87" y="253.7" font-family="Times,serif" font-size="14.00">edit</text>
<text text-anchor="start" x="-87" y="268.7" font-family="Times,serif" font-size="14.00">index</text>
<text text-anchor="start" x="-87" y="283.7" font-family="Times,serif" font-size="14.00">new</text>
<text text-anchor="start" x="-87" y="298.7" font-family="Times,serif" font-size="14.00">show</text>
<text text-anchor="start" x="-87" y="313.7" font-family="Times,serif" font-size="14.00">update</text>
<polyline fill="none" stroke="black" points="-95,321.5 31,321.5 "/>
<polyline fill="none" stroke="black" points="-95,345.5 31,345.5 "/>
<text text-anchor="start" x="-87" y="360.7" font-family="Times,serif" font-size="14.00">_layout</text>
<text text-anchor="start" x="-87" y="375.7" font-family="Times,serif" font-size="14.00">cart_item_params</text>
<text text-anchor="start" x="-87" y="390.7" font-family="Times,serif" font-size="14.00">set_cart_item</text>
</g>
</g>
</svg>
