<?xml version="1.0" encoding="UTF-8" standalone="no"?>
<!DOCTYPE svg PUBLIC "-//W3C//DTD SVG 1.1//EN"
 "http://www.w3.org/Graphics/SVG/1.1/DTD/svg11.dtd">
<!-- Generated by graphviz version 2.38.0 (20140413.2041)
 -->
<!-- Title: controllers_diagram Pages: 1 -->
<svg width="934pt" height="900pt"
 viewBox="0.00 0.00 934.00 900.00" xmlns="http://www.w3.org/2000/svg" xmlns:xlink="http://www.w3.org/1999/xlink">
<g id="graph0" class="graph" transform="scale(1 1) rotate(0) translate(403 497)">
<title>controllers_diagram</title>
<polygon fill="none" stroke="none" points="-403,403 -403,-497 531,-497 531,403 -403,403"/>
<!-- _diagram_info -->
<g id="node1" class="node"><title>_diagram_info</title>
<text text-anchor="start" x="-353" y="297.4" font-family="Times,serif" font-size="13.00">Controllers diagram</text>
<text text-anchor="start" x="-353" y="311.4" font-family="Times,serif" font-size="13.00">Date: Oct 10 2016 &#45; 23:10</text>
<text text-anchor="start" x="-353" y="325.4" font-family="Times,serif" font-size="13.00">Migration version: 20161004024401</text>
<text text-anchor="start" x="-353" y="339.4" font-family="Times,serif" font-size="13.00">Generated by RailRoady 1.5.2</text>
<text text-anchor="start" x="-353" y="353.4" font-family="Times,serif" font-size="13.00">http://railroady.prestonlee.com</text>
</g>
<!-- CreditCardsController -->
<g id="node2" class="node"><title>CreditCardsController</title>
<path fill="none" stroke="black" d="M-63.5,-152.5C-63.5,-152.5 49.5,-152.5 49.5,-152.5 55.5,-152.5 61.5,-158.5 61.5,-164.5 61.5,-164.5 61.5,-353.5 61.5,-353.5 61.5,-359.5 55.5,-365.5 49.5,-365.5 49.5,-365.5 -63.5,-365.5 -63.5,-365.5 -69.5,-365.5 -75.5,-359.5 -75.5,-353.5 -75.5,-353.5 -75.5,-164.5 -75.5,-164.5 -75.5,-158.5 -69.5,-152.5 -63.5,-152.5"/>
<text text-anchor="middle" x="-7" y="-350.3" font-family="Times,serif" font-size="14.00">CreditCardsController</text>
<polyline fill="none" stroke="black" points="-75.5,-342.5 61.5,-342.5 "/>
<text text-anchor="start" x="-67.5" y="-327.3" font-family="Times,serif" font-size="14.00">create</text>
<text text-anchor="start" x="-67.5" y="-312.3" font-family="Times,serif" font-size="14.00">destroy</text>
<text text-anchor="start" x="-67.5" y="-297.3" font-family="Times,serif" font-size="14.00">edit</text>
<text text-anchor="start" x="-67.5" y="-282.3" font-family="Times,serif" font-size="14.00">index</text>
<text text-anchor="start" x="-67.5" y="-267.3" font-family="Times,serif" font-size="14.00">new</text>
<text text-anchor="start" x="-67.5" y="-252.3" font-family="Times,serif" font-size="14.00">show</text>
<text text-anchor="start" x="-67.5" y="-237.3" font-family="Times,serif" font-size="14.00">update</text>
<polyline fill="none" stroke="black" points="-75.5,-229.5 61.5,-229.5 "/>
<polyline fill="none" stroke="black" points="-75.5,-205.5 61.5,-205.5 "/>
<text text-anchor="start" x="-67.5" y="-190.3" font-family="Times,serif" font-size="14.00">_layout</text>
<text text-anchor="start" x="-67.5" y="-175.3" font-family="Times,serif" font-size="14.00">credit_card_params</text>
<text text-anchor="start" x="-67.5" y="-160.3" font-family="Times,serif" font-size="14.00">set_credit_card</text>
</g>
<!-- ProfessionalsController -->
<g id="node3" class="node"><title>ProfessionalsController</title>
<path fill="none" stroke="black" d="M221,-209.5C221,-209.5 341,-209.5 341,-209.5 347,-209.5 353,-215.5 353,-221.5 353,-221.5 353,-410.5 353,-410.5 353,-416.5 347,-422.5 341,-422.5 341,-422.5 221,-422.5 221,-422.5 215,-422.5 209,-416.5 209,-410.5 209,-410.5 209,-221.5 209,-221.5 209,-215.5 215,-209.5 221,-209.5"/>
<text text-anchor="middle" x="281" y="-407.3" font-family="Times,serif" font-size="14.00">ProfessionalsController</text>
<polyline fill="none" stroke="black" points="209,-399.5 353,-399.5 "/>
<text text-anchor="start" x="217" y="-384.3" font-family="Times,serif" font-size="14.00">create</text>
<text text-anchor="start" x="217" y="-369.3" font-family="Times,serif" font-size="14.00">destroy</text>
<text text-anchor="start" x="217" y="-354.3" font-family="Times,serif" font-size="14.00">edit</text>
<text text-anchor="start" x="217" y="-339.3" font-family="Times,serif" font-size="14.00">index</text>
<text text-anchor="start" x="217" y="-324.3" font-family="Times,serif" font-size="14.00">new</text>
<text text-anchor="start" x="217" y="-309.3" font-family="Times,serif" font-size="14.00">show</text>
<text text-anchor="start" x="217" y="-294.3" font-family="Times,serif" font-size="14.00">update</text>
<polyline fill="none" stroke="black" points="209,-286.5 353,-286.5 "/>
<polyline fill="none" stroke="black" points="209,-262.5 353,-262.5 "/>
<text text-anchor="start" x="217" y="-247.3" font-family="Times,serif" font-size="14.00">_layout</text>
<text text-anchor="start" x="217" y="-232.3" font-family="Times,serif" font-size="14.00">professional_params</text>
<text text-anchor="start" x="217" y="-217.3" font-family="Times,serif" font-size="14.00">set_professional</text>
</g>
<!-- ClientsController -->
<g id="node4" class="node"><title>ClientsController</title>
<path fill="none" stroke="black" d="M-387,-0.5C-387,-0.5 -301,-0.5 -301,-0.5 -295,-0.5 -289,-6.5 -289,-12.5 -289,-12.5 -289,-201.5 -289,-201.5 -289,-207.5 -295,-213.5 -301,-213.5 -301,-213.5 -387,-213.5 -387,-213.5 -393,-213.5 -399,-207.5 -399,-201.5 -399,-201.5 -399,-12.5 -399,-12.5 -399,-6.5 -393,-0.5 -387,-0.5"/>
<text text-anchor="middle" x="-344" y="-198.3" font-family="Times,serif" font-size="14.00">ClientsController</text>
<polyline fill="none" stroke="black" points="-399,-190.5 -289,-190.5 "/>
<text text-anchor="start" x="-391" y="-175.3" font-family="Times,serif" font-size="14.00">create</text>
<text text-anchor="start" x="-391" y="-160.3" font-family="Times,serif" font-size="14.00">destroy</text>
<text text-anchor="start" x="-391" y="-145.3" font-family="Times,serif" font-size="14.00">edit</text>
<text text-anchor="start" x="-391" y="-130.3" font-family="Times,serif" font-size="14.00">index</text>
<text text-anchor="start" x="-391" y="-115.3" font-family="Times,serif" font-size="14.00">new</text>
<text text-anchor="start" x="-391" y="-100.3" font-family="Times,serif" font-size="14.00">show</text>
<text text-anchor="start" x="-391" y="-85.3" font-family="Times,serif" font-size="14.00">update</text>
<polyline fill="none" stroke="black" points="-399,-77.5 -289,-77.5 "/>
<polyline fill="none" stroke="black" points="-399,-53.5 -289,-53.5 "/>
<text text-anchor="start" x="-391" y="-38.3" font-family="Times,serif" font-size="14.00">_layout</text>
<text text-anchor="start" x="-391" y="-23.3" font-family="Times,serif" font-size="14.00">client_params</text>
<text text-anchor="start" x="-391" y="-8.3" font-family="Times,serif" font-size="14.00">set_client</text>
</g>
<!-- BankingsController -->
<g id="node5" class="node"><title>BankingsController</title>
<path fill="none" stroke="black" d="M-234.5,246.5C-234.5,246.5 -135.5,246.5 -135.5,246.5 -129.5,246.5 -123.5,240.5 -123.5,234.5 -123.5,234.5 -123.5,45.5 -123.5,45.5 -123.5,39.5 -129.5,33.5 -135.5,33.5 -135.5,33.5 -234.5,33.5 -234.5,33.5 -240.5,33.5 -246.5,39.5 -246.5,45.5 -246.5,45.5 -246.5,234.5 -246.5,234.5 -246.5,240.5 -240.5,246.5 -234.5,246.5"/>
<text text-anchor="middle" x="-185" y="48.7" font-family="Times,serif" font-size="14.00">BankingsController</text>
<polyline fill="none" stroke="black" points="-246.5,56.5 -123.5,56.5 "/>
<text text-anchor="start" x="-238.5" y="71.7" font-family="Times,serif" font-size="14.00">create</text>
<text text-anchor="start" x="-238.5" y="86.7" font-family="Times,serif" font-size="14.00">destroy</text>
<text text-anchor="start" x="-238.5" y="101.7" font-family="Times,serif" font-size="14.00">edit</text>
<text text-anchor="start" x="-238.5" y="116.7" font-family="Times,serif" font-size="14.00">index</text>
<text text-anchor="start" x="-238.5" y="131.7" font-family="Times,serif" font-size="14.00">new</text>
<text text-anchor="start" x="-238.5" y="146.7" font-family="Times,serif" font-size="14.00">show</text>
<text text-anchor="start" x="-238.5" y="161.7" font-family="Times,serif" font-size="14.00">update</text>
<polyline fill="none" stroke="black" points="-246.5,169.5 -123.5,169.5 "/>
<polyline fill="none" stroke="black" points="-246.5,193.5 -123.5,193.5 "/>
<text text-anchor="start" x="-238.5" y="208.7" font-family="Times,serif" font-size="14.00">_layout</text>
<text text-anchor="start" x="-238.5" y="223.7" font-family="Times,serif" font-size="14.00">banking_params</text>
<text text-anchor="start" x="-238.5" y="238.7" font-family="Times,serif" font-size="14.00">set_banking</text>
</g>
<!-- MainClientsController -->
<g id="node6" class="node"><title>MainClientsController</title>
<path fill="none" stroke="black" d="M-64,151.5C-64,151.5 52,151.5 52,151.5 58,151.5 64,145.5 64,139.5 64,139.5 64,-109.5 64,-109.5 64,-115.5 58,-121.5 52,-121.5 52,-121.5 -64,-121.5 -64,-121.5 -70,-121.5 -76,-115.5 -76,-109.5 -76,-109.5 -76,139.5 -76,139.5 -76,145.5 -70,151.5 -64,151.5"/>
<text text-anchor="middle" x="-6" y="-106.3" font-family="Times,serif" font-size="14.00">MainClientsController</text>
<polyline fill="none" stroke="black" points="-76,-98.5 64,-98.5 "/>
<text text-anchor="start" x="-68" y="-83.3" font-family="Times,serif" font-size="14.00">add_product_car</text>
<text text-anchor="start" x="-68" y="-68.3" font-family="Times,serif" font-size="14.00">create</text>
<text text-anchor="start" x="-68" y="-53.3" font-family="Times,serif" font-size="14.00">destroy</text>
<text text-anchor="start" x="-68" y="-38.3" font-family="Times,serif" font-size="14.00">edit</text>
<text text-anchor="start" x="-68" y="-23.3" font-family="Times,serif" font-size="14.00">index</text>
<text text-anchor="start" x="-68" y="-8.3" font-family="Times,serif" font-size="14.00">new</text>
<text text-anchor="start" x="-68" y="6.7" font-family="Times,serif" font-size="14.00">shoppingcart</text>
<text text-anchor="start" x="-68" y="21.7" font-family="Times,serif" font-size="14.00">shoppingcart=</text>
<text text-anchor="start" x="-68" y="36.7" font-family="Times,serif" font-size="14.00">show</text>
<text text-anchor="start" x="-68" y="51.7" font-family="Times,serif" font-size="14.00">update</text>
<polyline fill="none" stroke="black" points="-76,59.5 64,59.5 "/>
<polyline fill="none" stroke="black" points="-76,83.5 64,83.5 "/>
<text text-anchor="start" x="-68" y="98.7" font-family="Times,serif" font-size="14.00">_layout</text>
<text text-anchor="start" x="-68" y="113.7" font-family="Times,serif" font-size="14.00">load_products</text>
<text text-anchor="start" x="-68" y="128.7" font-family="Times,serif" font-size="14.00">main_client_params</text>
<text text-anchor="start" x="-68" y="143.7" font-family="Times,serif" font-size="14.00">set_main_client</text>
</g>
<!-- ShoppingCartsController -->
<g id="node7" class="node"><title>ShoppingCartsController</title>
<path fill="none" stroke="black" d="M259,246.5C259,246.5 387,246.5 387,246.5 393,246.5 399,240.5 399,234.5 399,234.5 399,45.5 399,45.5 399,39.5 393,33.5 387,33.5 387,33.5 259,33.5 259,33.5 253,33.5 247,39.5 247,45.5 247,45.5 247,234.5 247,234.5 247,240.5 253,246.5 259,246.5"/>
<text text-anchor="middle" x="323" y="48.7" font-family="Times,serif" font-size="14.00">ShoppingCartsController</text>
<polyline fill="none" stroke="black" points="247,56.5 399,56.5 "/>
<text text-anchor="start" x="255" y="71.7" font-family="Times,serif" font-size="14.00">create</text>
<text text-anchor="start" x="255" y="86.7" font-family="Times,serif" font-size="14.00">destroy</text>
<text text-anchor="start" x="255" y="101.7" font-family="Times,serif" font-size="14.00">edit</text>
<text text-anchor="start" x="255" y="116.7" font-family="Times,serif" font-size="14.00">index</text>
<text text-anchor="start" x="255" y="131.7" font-family="Times,serif" font-size="14.00">new</text>
<text text-anchor="start" x="255" y="146.7" font-family="Times,serif" font-size="14.00">show</text>
<text text-anchor="start" x="255" y="161.7" font-family="Times,serif" font-size="14.00">update</text>
<polyline fill="none" stroke="black" points="247,169.5 399,169.5 "/>
<polyline fill="none" stroke="black" points="247,193.5 399,193.5 "/>
<text text-anchor="start" x="255" y="208.7" font-family="Times,serif" font-size="14.00">_layout</text>
<text text-anchor="start" x="255" y="223.7" font-family="Times,serif" font-size="14.00">set_shopping_cart</text>
<text text-anchor="start" x="255" y="238.7" font-family="Times,serif" font-size="14.00">shopping_cart_params</text>
</g>
<!-- ProductsController -->
<g id="node8" class="node"><title>ProductsController</title>
<path fill="none" stroke="black" d="M107.5,94C107.5,94 202.5,94 202.5,94 208.5,94 214.5,88 214.5,82 214.5,82 214.5,-152 214.5,-152 214.5,-158 208.5,-164 202.5,-164 202.5,-164 107.5,-164 107.5,-164 101.5,-164 95.5,-158 95.5,-152 95.5,-152 95.5,82 95.5,82 95.5,88 101.5,94 107.5,94"/>
<text text-anchor="middle" x="155" y="-148.8" font-family="Times,serif" font-size="14.00">ProductsController</text>
<polyline fill="none" stroke="black" points="95.5,-141 214.5,-141 "/>
<text text-anchor="start" x="103.5" y="-125.8" font-family="Times,serif" font-size="14.00">buy</text>
<text text-anchor="start" x="103.5" y="-110.8" font-family="Times,serif" font-size="14.00">create</text>
<text text-anchor="start" x="103.5" y="-95.8" font-family="Times,serif" font-size="14.00">destroy</text>
<text text-anchor="start" x="103.5" y="-80.8" font-family="Times,serif" font-size="14.00">edit</text>
<text text-anchor="start" x="103.5" y="-65.8" font-family="Times,serif" font-size="14.00">index</text>
<text text-anchor="start" x="103.5" y="-50.8" font-family="Times,serif" font-size="14.00">new</text>
<text text-anchor="start" x="103.5" y="-35.8" font-family="Times,serif" font-size="14.00">show</text>
<text text-anchor="start" x="103.5" y="-20.8" font-family="Times,serif" font-size="14.00">update</text>
<polyline fill="none" stroke="black" points="95.5,-13 214.5,-13 "/>
<polyline fill="none" stroke="black" points="95.5,11 214.5,11 "/>
<text text-anchor="start" x="103.5" y="26.2" font-family="Times,serif" font-size="14.00">_layout</text>
<text text-anchor="start" x="103.5" y="41.2" font-family="Times,serif" font-size="14.00">product_params</text>
<text text-anchor="start" x="103.5" y="56.2" font-family="Times,serif" font-size="14.00">set_consumer</text>
<text text-anchor="start" x="103.5" y="71.2" font-family="Times,serif" font-size="14.00">set_product</text>
<text text-anchor="start" x="103.5" y="86.2" font-family="Times,serif" font-size="14.00">set_professional</text>
</g>
<!-- PicturesController -->
<g id="node9" class="node"><title>PicturesController</title>
<path fill="none" stroke="black" d="M-387,246.5C-387,246.5 -295,246.5 -295,246.5 -289,246.5 -283,240.5 -283,234.5 -283,234.5 -283,45.5 -283,45.5 -283,39.5 -289,33.5 -295,33.5 -295,33.5 -387,33.5 -387,33.5 -393,33.5 -399,39.5 -399,45.5 -399,45.5 -399,234.5 -399,234.5 -399,240.5 -393,246.5 -387,246.5"/>
<text text-anchor="middle" x="-341" y="48.7" font-family="Times,serif" font-size="14.00">PicturesController</text>
<polyline fill="none" stroke="black" points="-399,56.5 -283,56.5 "/>
<text text-anchor="start" x="-391" y="71.7" font-family="Times,serif" font-size="14.00">create</text>
<text text-anchor="start" x="-391" y="86.7" font-family="Times,serif" font-size="14.00">destroy</text>
<text text-anchor="start" x="-391" y="101.7" font-family="Times,serif" font-size="14.00">edit</text>
<text text-anchor="start" x="-391" y="116.7" font-family="Times,serif" font-size="14.00">index</text>
<text text-anchor="start" x="-391" y="131.7" font-family="Times,serif" font-size="14.00">new</text>
<text text-anchor="start" x="-391" y="146.7" font-family="Times,serif" font-size="14.00">show</text>
<text text-anchor="start" x="-391" y="161.7" font-family="Times,serif" font-size="14.00">update</text>
<polyline fill="none" stroke="black" points="-399,169.5 -283,169.5 "/>
<polyline fill="none" stroke="black" points="-399,193.5 -283,193.5 "/>
<text text-anchor="start" x="-391" y="208.7" font-family="Times,serif" font-size="14.00">_layout</text>
<text text-anchor="start" x="-391" y="223.7" font-family="Times,serif" font-size="14.00">picture_params</text>
<text text-anchor="start" x="-391" y="238.7" font-family="Times,serif" font-size="14.00">set_picture</text>
</g>
<!-- Clients::RegistrationsController -->
<g id="node10" class="node"><title>Clients::RegistrationsController</title>
<path fill="none" stroke="black" d="M259,398C259,398 441,398 441,398 447,398 453,392 453,386 453,386 453,302 453,302 453,296 447,290 441,290 441,290 259,290 259,290 253,290 247,296 247,302 247,302 247,386 247,386 247,392 253,398 259,398"/>
<text text-anchor="middle" x="350" y="305.2" font-family="Times,serif" font-size="14.00">Clients::RegistrationsController</text>
<polyline fill="none" stroke="black" points="247,313 453,313 "/>
<text text-anchor="start" x="255" y="328.2" font-family="Times,serif" font-size="14.00">configure_account_update_params</text>
<text text-anchor="start" x="255" y="343.2" font-family="Times,serif" font-size="14.00">configure_sign_up_params</text>
<polyline fill="none" stroke="black" points="247,351 453,351 "/>
<polyline fill="none" stroke="black" points="247,375 453,375 "/>
<text text-anchor="start" x="255" y="390.2" font-family="Times,serif" font-size="14.00">_layout</text>
</g>
<!-- TelephonesController -->
<g id="node11" class="node"><title>TelephonesController</title>
<path fill="none" stroke="black" d="M-235,-247.5C-235,-247.5 -125,-247.5 -125,-247.5 -119,-247.5 -113,-253.5 -113,-259.5 -113,-259.5 -113,-448.5 -113,-448.5 -113,-454.5 -119,-460.5 -125,-460.5 -125,-460.5 -235,-460.5 -235,-460.5 -241,-460.5 -247,-454.5 -247,-448.5 -247,-448.5 -247,-259.5 -247,-259.5 -247,-253.5 -241,-247.5 -235,-247.5"/>
<text text-anchor="middle" x="-180" y="-445.3" font-family="Times,serif" font-size="14.00">TelephonesController</text>
<polyline fill="none" stroke="black" points="-247,-437.5 -113,-437.5 "/>
<text text-anchor="start" x="-239" y="-422.3" font-family="Times,serif" font-size="14.00">create</text>
<text text-anchor="start" x="-239" y="-407.3" font-family="Times,serif" font-size="14.00">destroy</text>
<text text-anchor="start" x="-239" y="-392.3" font-family="Times,serif" font-size="14.00">edit</text>
<text text-anchor="start" x="-239" y="-377.3" font-family="Times,serif" font-size="14.00">index</text>
<text text-anchor="start" x="-239" y="-362.3" font-family="Times,serif" font-size="14.00">new</text>
<text text-anchor="start" x="-239" y="-347.3" font-family="Times,serif" font-size="14.00">show</text>
<text text-anchor="start" x="-239" y="-332.3" font-family="Times,serif" font-size="14.00">update</text>
<polyline fill="none" stroke="black" points="-247,-324.5 -113,-324.5 "/>
<polyline fill="none" stroke="black" points="-247,-300.5 -113,-300.5 "/>
<text text-anchor="start" x="-239" y="-285.3" font-family="Times,serif" font-size="14.00">_layout</text>
<text text-anchor="start" x="-239" y="-270.3" font-family="Times,serif" font-size="14.00">set_telephone</text>
<text text-anchor="start" x="-239" y="-255.3" font-family="Times,serif" font-size="14.00">telephone_params</text>
</g>
<!-- TransactionsController -->
<g id="node12" class="node"><title>TransactionsController</title>
<path fill="none" stroke="black" d="M-234.5,-0.5C-234.5,-0.5 -117.5,-0.5 -117.5,-0.5 -111.5,-0.5 -105.5,-6.5 -105.5,-12.5 -105.5,-12.5 -105.5,-201.5 -105.5,-201.5 -105.5,-207.5 -111.5,-213.5 -117.5,-213.5 -117.5,-213.5 -234.5,-213.5 -234.5,-213.5 -240.5,-213.5 -246.5,-207.5 -246.5,-201.5 -246.5,-201.5 -246.5,-12.5 -246.5,-12.5 -246.5,-6.5 -240.5,-0.5 -234.5,-0.5"/>
<text text-anchor="middle" x="-176" y="-198.3" font-family="Times,serif" font-size="14.00">TransactionsController</text>
<polyline fill="none" stroke="black" points="-246.5,-190.5 -105.5,-190.5 "/>
<text text-anchor="start" x="-238.5" y="-175.3" font-family="Times,serif" font-size="14.00">create</text>
<text text-anchor="start" x="-238.5" y="-160.3" font-family="Times,serif" font-size="14.00">destroy</text>
<text text-anchor="start" x="-238.5" y="-145.3" font-family="Times,serif" font-size="14.00">edit</text>
<text text-anchor="start" x="-238.5" y="-130.3" font-family="Times,serif" font-size="14.00">index</text>
<text text-anchor="start" x="-238.5" y="-115.3" font-family="Times,serif" font-size="14.00">new</text>
<text text-anchor="start" x="-238.5" y="-100.3" font-family="Times,serif" font-size="14.00">show</text>
<text text-anchor="start" x="-238.5" y="-85.3" font-family="Times,serif" font-size="14.00">update</text>
<polyline fill="none" stroke="black" points="-246.5,-77.5 -105.5,-77.5 "/>
<polyline fill="none" stroke="black" points="-246.5,-53.5 -105.5,-53.5 "/>
<text text-anchor="start" x="-238.5" y="-38.3" font-family="Times,serif" font-size="14.00">_layout</text>
<text text-anchor="start" x="-238.5" y="-23.3" font-family="Times,serif" font-size="14.00">set_transaction</text>
<text text-anchor="start" x="-238.5" y="-8.3" font-family="Times,serif" font-size="14.00">transaction_params</text>
</g>
<!-- WelcomeController -->
<g id="node13" class="node"><title>WelcomeController</title>
<path fill="none" stroke="black" d="M258.5,-0.5C258.5,-0.5 359.5,-0.5 359.5,-0.5 365.5,-0.5 371.5,-6.5 371.5,-12.5 371.5,-12.5 371.5,-81.5 371.5,-81.5 371.5,-87.5 365.5,-93.5 359.5,-93.5 359.5,-93.5 258.5,-93.5 258.5,-93.5 252.5,-93.5 246.5,-87.5 246.5,-81.5 246.5,-81.5 246.5,-12.5 246.5,-12.5 246.5,-6.5 252.5,-0.5 258.5,-0.5"/>
<text text-anchor="middle" x="309" y="-78.3" font-family="Times,serif" font-size="14.00">WelcomeController</text>
<polyline fill="none" stroke="black" points="246.5,-70.5 371.5,-70.5 "/>
<text text-anchor="start" x="254.5" y="-55.3" font-family="Times,serif" font-size="14.00">index</text>
<polyline fill="none" stroke="black" points="246.5,-47.5 371.5,-47.5 "/>
<polyline fill="none" stroke="black" points="246.5,-23.5 371.5,-23.5 "/>
<text text-anchor="start" x="254.5" y="-8.3" font-family="Times,serif" font-size="14.00">_layout</text>
</g>
<!-- ConsumersController -->
<g id="node14" class="node"><title>ConsumersController</title>
<path fill="none" stroke="black" d="M-83,398.5C-83,398.5 27,398.5 27,398.5 33,398.5 39,392.5 39,386.5 39,386.5 39,197.5 39,197.5 39,191.5 33,185.5 27,185.5 27,185.5 -83,185.5 -83,185.5 -89,185.5 -95,191.5 -95,197.5 -95,197.5 -95,386.5 -95,386.5 -95,392.5 -89,398.5 -83,398.5"/>
<text text-anchor="middle" x="-28" y="200.7" font-family="Times,serif" font-size="14.00">ConsumersController</text>
<polyline fill="none" stroke="black" points="-95,208.5 39,208.5 "/>
<text text-anchor="start" x="-87" y="223.7" font-family="Times,serif" font-size="14.00">create</text>
<text text-anchor="start" x="-87" y="238.7" font-family="Times,serif" font-size="14.00">destroy</text>
<text text-anchor="start" x="-87" y="253.7" font-family="Times,serif" font-size="14.00">edit</text>
<text text-anchor="start" x="-87" y="268.7" font-family="Times,serif" font-size="14.00">index</text>
<text text-anchor="start" x="-87" y="283.7" font-family="Times,serif" font-size="14.00">new</text>
<text text-anchor="start" x="-87" y="298.7" font-family="Times,serif" font-size="14.00">show</text>
<text text-anchor="start" x="-87" y="313.7" font-family="Times,serif" font-size="14.00">update</text>
<polyline fill="none" stroke="black" points="-95,321.5 39,321.5 "/>
<polyline fill="none" stroke="black" points="-95,345.5 39,345.5 "/>
<text text-anchor="start" x="-87" y="360.7" font-family="Times,serif" font-size="14.00">_layout</text>
<text text-anchor="start" x="-87" y="375.7" font-family="Times,serif" font-size="14.00">consumer_params</text>
<text text-anchor="start" x="-87" y="390.7" font-family="Times,serif" font-size="14.00">set_consumer</text>
</g>
<!-- KeywordsController -->
<g id="node15" class="node"><title>KeywordsController</title>
<path fill="none" stroke="black" d="M88,398.5C88,398.5 192,398.5 192,398.5 198,398.5 204,392.5 204,386.5 204,386.5 204,197.5 204,197.5 204,191.5 198,185.5 192,185.5 192,185.5 88,185.5 88,185.5 82,185.5 76,191.5 76,197.5 76,197.5 76,386.5 76,386.5 76,392.5 82,398.5 88,398.5"/>
<text text-anchor="middle" x="140" y="200.7" font-family="Times,serif" font-size="14.00">KeywordsController</text>
<polyline fill="none" stroke="black" points="76,208.5 204,208.5 "/>
<text text-anchor="start" x="84" y="223.7" font-family="Times,serif" font-size="14.00">create</text>
<text text-anchor="start" x="84" y="238.7" font-family="Times,serif" font-size="14.00">destroy</text>
<text text-anchor="start" x="84" y="253.7" font-family="Times,serif" font-size="14.00">edit</text>
<text text-anchor="start" x="84" y="268.7" font-family="Times,serif" font-size="14.00">index</text>
<text text-anchor="start" x="84" y="283.7" font-family="Times,serif" font-size="14.00">new</text>
<text text-anchor="start" x="84" y="298.7" font-family="Times,serif" font-size="14.00">show</text>
<text text-anchor="start" x="84" y="313.7" font-family="Times,serif" font-size="14.00">update</text>
<polyline fill="none" stroke="black" points="76,321.5 204,321.5 "/>
<polyline fill="none" stroke="black" points="76,345.5 204,345.5 "/>
<text text-anchor="start" x="84" y="360.7" font-family="Times,serif" font-size="14.00">_layout</text>
<text text-anchor="start" x="84" y="375.7" font-family="Times,serif" font-size="14.00">keyword_params</text>
<text text-anchor="start" x="84" y="390.7" font-family="Times,serif" font-size="14.00">set_keyword</text>
</g>
<!-- ApplicationController -->
<g id="node16" class="node"><title>ApplicationController</title>
<path fill="none" stroke="black" d="M50,-399.5C50,-399.5 166,-399.5 166,-399.5 172,-399.5 178,-405.5 178,-411.5 178,-411.5 178,-480.5 178,-480.5 178,-486.5 172,-492.5 166,-492.5 166,-492.5 50,-492.5 50,-492.5 44,-492.5 38,-486.5 38,-480.5 38,-480.5 38,-411.5 38,-411.5 38,-405.5 44,-399.5 50,-399.5"/>
<text text-anchor="middle" x="108" y="-477.3" font-family="Times,serif" font-size="14.00">ApplicationController</text>
<polyline fill="none" stroke="black" points="38,-469.5 178,-469.5 "/>
<text text-anchor="start" x="46" y="-454.3" font-family="Times,serif" font-size="14.00">after_sign_in_path_for</text>
<polyline fill="none" stroke="black" points="38,-446.5 178,-446.5 "/>
<polyline fill="none" stroke="black" points="38,-422.5 178,-422.5 "/>
<text text-anchor="start" x="46" y="-407.3" font-family="Times,serif" font-size="14.00">_layout</text>
</g>
<!-- AddressesController -->
<g id="node17" class="node"><title>AddressesController</title>
<path fill="none" stroke="black" d="M411,-0.5C411,-0.5 515,-0.5 515,-0.5 521,-0.5 527,-6.5 527,-12.5 527,-12.5 527,-201.5 527,-201.5 527,-207.5 521,-213.5 515,-213.5 515,-213.5 411,-213.5 411,-213.5 405,-213.5 399,-207.5 399,-201.5 399,-201.5 399,-12.5 399,-12.5 399,-6.5 405,-0.5 411,-0.5"/>
<text text-anchor="middle" x="463" y="-198.3" font-family="Times,serif" font-size="14.00">AddressesController</text>
<polyline fill="none" stroke="black" points="399,-190.5 527,-190.5 "/>
<text text-anchor="start" x="407" y="-175.3" font-family="Times,serif" font-size="14.00">create</text>
<text text-anchor="start" x="407" y="-160.3" font-family="Times,serif" font-size="14.00">destroy</text>
<text text-anchor="start" x="407" y="-145.3" font-family="Times,serif" font-size="14.00">edit</text>
<text text-anchor="start" x="407" y="-130.3" font-family="Times,serif" font-size="14.00">index</text>
<text text-anchor="start" x="407" y="-115.3" font-family="Times,serif" font-size="14.00">new</text>
<text text-anchor="start" x="407" y="-100.3" font-family="Times,serif" font-size="14.00">show</text>
<text text-anchor="start" x="407" y="-85.3" font-family="Times,serif" font-size="14.00">update</text>
<polyline fill="none" stroke="black" points="399,-77.5 527,-77.5 "/>
<polyline fill="none" stroke="black" points="399,-53.5 527,-53.5 "/>
<text text-anchor="start" x="407" y="-38.3" font-family="Times,serif" font-size="14.00">_layout</text>
<text text-anchor="start" x="407" y="-23.3" font-family="Times,serif" font-size="14.00">address_params</text>
<text text-anchor="start" x="407" y="-8.3" font-family="Times,serif" font-size="14.00">set_address</text>
</g>
<!-- CartItemsController -->
<g id="node18" class="node"><title>CartItemsController</title>
<path fill="none" stroke="black" d="M411,-247.5C411,-247.5 513,-247.5 513,-247.5 519,-247.5 525,-253.5 525,-259.5 525,-259.5 525,-448.5 525,-448.5 525,-454.5 519,-460.5 513,-460.5 513,-460.5 411,-460.5 411,-460.5 405,-460.5 399,-454.5 399,-448.5 399,-448.5 399,-259.5 399,-259.5 399,-253.5 405,-247.5 411,-247.5"/>
<text text-anchor="middle" x="462" y="-445.3" font-family="Times,serif" font-size="14.00">CartItemsController</text>
<polyline fill="none" stroke="black" points="399,-437.5 525,-437.5 "/>
<text text-anchor="start" x="407" y="-422.3" font-family="Times,serif" font-size="14.00">create</text>
<text text-anchor="start" x="407" y="-407.3" font-family="Times,serif" font-size="14.00">destroy</text>
<text text-anchor="start" x="407" y="-392.3" font-family="Times,serif" font-size="14.00">edit</text>
<text text-anchor="start" x="407" y="-377.3" font-family="Times,serif" font-size="14.00">index</text>
<text text-anchor="start" x="407" y="-362.3" font-family="Times,serif" font-size="14.00">new</text>
<text text-anchor="start" x="407" y="-347.3" font-family="Times,serif" font-size="14.00">show</text>
<text text-anchor="start" x="407" y="-332.3" font-family="Times,serif" font-size="14.00">update</text>
<polyline fill="none" stroke="black" points="399,-324.5 525,-324.5 "/>
<polyline fill="none" stroke="black" points="399,-300.5 525,-300.5 "/>
<text text-anchor="start" x="407" y="-285.3" font-family="Times,serif" font-size="14.00">_layout</text>
<text text-anchor="start" x="407" y="-270.3" font-family="Times,serif" font-size="14.00">cart_item_params</text>
<text text-anchor="start" x="407" y="-255.3" font-family="Times,serif" font-size="14.00">set_cart_item</text>
</g>
</g>
</svg>
