<?xml version="1.0" encoding="UTF-8" standalone="no"?>
<!DOCTYPE svg PUBLIC "-//W3C//DTD SVG 1.1//EN"
 "http://www.w3.org/Graphics/SVG/1.1/DTD/svg11.dtd">
<!-- Generated by graphviz version 2.38.0 (20140413.2041)
 -->
<!-- Title: controllers_diagram Pages: 1 -->
<svg width="810pt" height="887pt"
 viewBox="0.00 0.00 809.50 887.00" xmlns="http://www.w3.org/2000/svg" xmlns:xlink="http://www.w3.org/1999/xlink">
<g id="graph0" class="graph" transform="scale(1 1) rotate(0) translate(327.5 541)">
<title>controllers_diagram</title>
<polygon fill="none" stroke="none" points="-327.5,346 -327.5,-541 482,-541 482,346 -327.5,346"/>
<!-- _diagram_info -->
<g id="node1" class="node"><title>_diagram_info</title>
<text text-anchor="start" x="-144" y="202.4" font-family="Times,serif" font-size="13.00">Controllers diagram</text>
<text text-anchor="start" x="-144" y="216.4" font-family="Times,serif" font-size="13.00">Date: Oct 17 2016 &#45; 21:05</text>
<text text-anchor="start" x="-144" y="230.4" font-family="Times,serif" font-size="13.00">Migration version: 20160922010222</text>
<text text-anchor="start" x="-144" y="244.4" font-family="Times,serif" font-size="13.00">Generated by RailRoady 1.5.2</text>
<text text-anchor="start" x="-144" y="258.4" font-family="Times,serif" font-size="13.00">http://railroady.prestonlee.com</text>
</g>
<!-- CreditCardsController -->
<g id="node2" class="node"><title>CreditCardsController</title>
<path fill="none" stroke="black" d="M107.5,94.5C107.5,94.5 220.5,94.5 220.5,94.5 226.5,94.5 232.5,88.5 232.5,82.5 232.5,82.5 232.5,-106.5 232.5,-106.5 232.5,-112.5 226.5,-118.5 220.5,-118.5 220.5,-118.5 107.5,-118.5 107.5,-118.5 101.5,-118.5 95.5,-112.5 95.5,-106.5 95.5,-106.5 95.5,82.5 95.5,82.5 95.5,88.5 101.5,94.5 107.5,94.5"/>
<text text-anchor="middle" x="164" y="-103.3" font-family="Times,serif" font-size="14.00">CreditCardsController</text>
<polyline fill="none" stroke="black" points="95.5,-95.5 232.5,-95.5 "/>
<text text-anchor="start" x="103.5" y="-80.3" font-family="Times,serif" font-size="14.00">create</text>
<text text-anchor="start" x="103.5" y="-65.3" font-family="Times,serif" font-size="14.00">destroy</text>
<text text-anchor="start" x="103.5" y="-50.3" font-family="Times,serif" font-size="14.00">edit</text>
<text text-anchor="start" x="103.5" y="-35.3" font-family="Times,serif" font-size="14.00">index</text>
<text text-anchor="start" x="103.5" y="-20.3" font-family="Times,serif" font-size="14.00">new</text>
<text text-anchor="start" x="103.5" y="-5.3" font-family="Times,serif" font-size="14.00">show</text>
<text text-anchor="start" x="103.5" y="9.7" font-family="Times,serif" font-size="14.00">update</text>
<polyline fill="none" stroke="black" points="95.5,17.5 232.5,17.5 "/>
<polyline fill="none" stroke="black" points="95.5,41.5 232.5,41.5 "/>
<text text-anchor="start" x="103.5" y="56.7" font-family="Times,serif" font-size="14.00">_layout</text>
<text text-anchor="start" x="103.5" y="71.7" font-family="Times,serif" font-size="14.00">credit_card_params</text>
<text text-anchor="start" x="103.5" y="86.7" font-family="Times,serif" font-size="14.00">set_credit_card</text>
</g>
<!-- ProfessionalsController -->
<g id="node3" class="node"><title>ProfessionalsController</title>
<path fill="none" stroke="black" d="M164,-152.5C164,-152.5 284,-152.5 284,-152.5 290,-152.5 296,-158.5 296,-164.5 296,-164.5 296,-353.5 296,-353.5 296,-359.5 290,-365.5 284,-365.5 284,-365.5 164,-365.5 164,-365.5 158,-365.5 152,-359.5 152,-353.5 152,-353.5 152,-164.5 152,-164.5 152,-158.5 158,-152.5 164,-152.5"/>
<text text-anchor="middle" x="224" y="-350.3" font-family="Times,serif" font-size="14.00">ProfessionalsController</text>
<polyline fill="none" stroke="black" points="152,-342.5 296,-342.5 "/>
<text text-anchor="start" x="160" y="-327.3" font-family="Times,serif" font-size="14.00">create</text>
<text text-anchor="start" x="160" y="-312.3" font-family="Times,serif" font-size="14.00">destroy</text>
<text text-anchor="start" x="160" y="-297.3" font-family="Times,serif" font-size="14.00">edit</text>
<text text-anchor="start" x="160" y="-282.3" font-family="Times,serif" font-size="14.00">index</text>
<text text-anchor="start" x="160" y="-267.3" font-family="Times,serif" font-size="14.00">new</text>
<text text-anchor="start" x="160" y="-252.3" font-family="Times,serif" font-size="14.00">show</text>
<text text-anchor="start" x="160" y="-237.3" font-family="Times,serif" font-size="14.00">update</text>
<polyline fill="none" stroke="black" points="152,-229.5 296,-229.5 "/>
<polyline fill="none" stroke="black" points="152,-205.5 296,-205.5 "/>
<text text-anchor="start" x="160" y="-190.3" font-family="Times,serif" font-size="14.00">_layout</text>
<text text-anchor="start" x="160" y="-175.3" font-family="Times,serif" font-size="14.00">professional_params</text>
<text text-anchor="start" x="160" y="-160.3" font-family="Times,serif" font-size="14.00">set_professional</text>
</g>
<!-- ClientsController -->
<g id="node4" class="node"><title>ClientsController</title>
<path fill="none" stroke="black" d="M-311,-323.5C-311,-323.5 -225,-323.5 -225,-323.5 -219,-323.5 -213,-329.5 -213,-335.5 -213,-335.5 -213,-524.5 -213,-524.5 -213,-530.5 -219,-536.5 -225,-536.5 -225,-536.5 -311,-536.5 -311,-536.5 -317,-536.5 -323,-530.5 -323,-524.5 -323,-524.5 -323,-335.5 -323,-335.5 -323,-329.5 -317,-323.5 -311,-323.5"/>
<text text-anchor="middle" x="-268" y="-521.3" font-family="Times,serif" font-size="14.00">ClientsController</text>
<polyline fill="none" stroke="black" points="-323,-513.5 -213,-513.5 "/>
<text text-anchor="start" x="-315" y="-498.3" font-family="Times,serif" font-size="14.00">create</text>
<text text-anchor="start" x="-315" y="-483.3" font-family="Times,serif" font-size="14.00">destroy</text>
<text text-anchor="start" x="-315" y="-468.3" font-family="Times,serif" font-size="14.00">edit</text>
<text text-anchor="start" x="-315" y="-453.3" font-family="Times,serif" font-size="14.00">index</text>
<text text-anchor="start" x="-315" y="-438.3" font-family="Times,serif" font-size="14.00">new</text>
<text text-anchor="start" x="-315" y="-423.3" font-family="Times,serif" font-size="14.00">show</text>
<text text-anchor="start" x="-315" y="-408.3" font-family="Times,serif" font-size="14.00">update</text>
<polyline fill="none" stroke="black" points="-323,-400.5 -213,-400.5 "/>
<polyline fill="none" stroke="black" points="-323,-376.5 -213,-376.5 "/>
<text text-anchor="start" x="-315" y="-361.3" font-family="Times,serif" font-size="14.00">_layout</text>
<text text-anchor="start" x="-315" y="-346.3" font-family="Times,serif" font-size="14.00">client_params</text>
<text text-anchor="start" x="-315" y="-331.3" font-family="Times,serif" font-size="14.00">set_client</text>
</g>
<!-- BankingsController -->
<g id="node5" class="node"><title>BankingsController</title>
<path fill="none" stroke="black" d="M-158.5,-171.5C-158.5,-171.5 -59.5,-171.5 -59.5,-171.5 -53.5,-171.5 -47.5,-177.5 -47.5,-183.5 -47.5,-183.5 -47.5,-372.5 -47.5,-372.5 -47.5,-378.5 -53.5,-384.5 -59.5,-384.5 -59.5,-384.5 -158.5,-384.5 -158.5,-384.5 -164.5,-384.5 -170.5,-378.5 -170.5,-372.5 -170.5,-372.5 -170.5,-183.5 -170.5,-183.5 -170.5,-177.5 -164.5,-171.5 -158.5,-171.5"/>
<text text-anchor="middle" x="-109" y="-369.3" font-family="Times,serif" font-size="14.00">BankingsController</text>
<polyline fill="none" stroke="black" points="-170.5,-361.5 -47.5,-361.5 "/>
<text text-anchor="start" x="-162.5" y="-346.3" font-family="Times,serif" font-size="14.00">create</text>
<text text-anchor="start" x="-162.5" y="-331.3" font-family="Times,serif" font-size="14.00">destroy</text>
<text text-anchor="start" x="-162.5" y="-316.3" font-family="Times,serif" font-size="14.00">edit</text>
<text text-anchor="start" x="-162.5" y="-301.3" font-family="Times,serif" font-size="14.00">index</text>
<text text-anchor="start" x="-162.5" y="-286.3" font-family="Times,serif" font-size="14.00">new</text>
<text text-anchor="start" x="-162.5" y="-271.3" font-family="Times,serif" font-size="14.00">show</text>
<text text-anchor="start" x="-162.5" y="-256.3" font-family="Times,serif" font-size="14.00">update</text>
<polyline fill="none" stroke="black" points="-170.5,-248.5 -47.5,-248.5 "/>
<polyline fill="none" stroke="black" points="-170.5,-224.5 -47.5,-224.5 "/>
<text text-anchor="start" x="-162.5" y="-209.3" font-family="Times,serif" font-size="14.00">_layout</text>
<text text-anchor="start" x="-162.5" y="-194.3" font-family="Times,serif" font-size="14.00">banking_params</text>
<text text-anchor="start" x="-162.5" y="-179.3" font-family="Times,serif" font-size="14.00">set_banking</text>
</g>
<!-- MainClientsController -->
<g id="node6" class="node"><title>MainClientsController</title>
<path fill="none" stroke="black" d="M-64,151.5C-64,151.5 52,151.5 52,151.5 58,151.5 64,145.5 64,139.5 64,139.5 64,-109.5 64,-109.5 64,-115.5 58,-121.5 52,-121.5 52,-121.5 -64,-121.5 -64,-121.5 -70,-121.5 -76,-115.5 -76,-109.5 -76,-109.5 -76,139.5 -76,139.5 -76,145.5 -70,151.5 -64,151.5"/>
<text text-anchor="middle" x="-6" y="-106.3" font-family="Times,serif" font-size="14.00">MainClientsController</text>
<polyline fill="none" stroke="black" points="-76,-98.5 64,-98.5 "/>
<text text-anchor="start" x="-68" y="-83.3" font-family="Times,serif" font-size="14.00">add_product_car</text>
<text text-anchor="start" x="-68" y="-68.3" font-family="Times,serif" font-size="14.00">create</text>
<text text-anchor="start" x="-68" y="-53.3" font-family="Times,serif" font-size="14.00">destroy</text>
<text text-anchor="start" x="-68" y="-38.3" font-family="Times,serif" font-size="14.00">edit</text>
<text text-anchor="start" x="-68" y="-23.3" font-family="Times,serif" font-size="14.00">index</text>
<text text-anchor="start" x="-68" y="-8.3" font-family="Times,serif" font-size="14.00">new</text>
<text text-anchor="start" x="-68" y="6.7" font-family="Times,serif" font-size="14.00">shoppingcart</text>
<text text-anchor="start" x="-68" y="21.7" font-family="Times,serif" font-size="14.00">shoppingcart=</text>
<text text-anchor="start" x="-68" y="36.7" font-family="Times,serif" font-size="14.00">show</text>
<text text-anchor="start" x="-68" y="51.7" font-family="Times,serif" font-size="14.00">update</text>
<polyline fill="none" stroke="black" points="-76,59.5 64,59.5 "/>
<polyline fill="none" stroke="black" points="-76,83.5 64,83.5 "/>
<text text-anchor="start" x="-68" y="98.7" font-family="Times,serif" font-size="14.00">_layout</text>
<text text-anchor="start" x="-68" y="113.7" font-family="Times,serif" font-size="14.00">load_products</text>
<text text-anchor="start" x="-68" y="128.7" font-family="Times,serif" font-size="14.00">main_client_params</text>
<text text-anchor="start" x="-68" y="143.7" font-family="Times,serif" font-size="14.00">set_main_client</text>
</g>
<!-- ProductsController -->
<g id="node7" class="node"><title>ProductsController</title>
<path fill="none" stroke="black" d="M-215.5,75.5C-215.5,75.5 -120.5,75.5 -120.5,75.5 -114.5,75.5 -108.5,69.5 -108.5,63.5 -108.5,63.5 -108.5,-125.5 -108.5,-125.5 -108.5,-131.5 -114.5,-137.5 -120.5,-137.5 -120.5,-137.5 -215.5,-137.5 -215.5,-137.5 -221.5,-137.5 -227.5,-131.5 -227.5,-125.5 -227.5,-125.5 -227.5,63.5 -227.5,63.5 -227.5,69.5 -221.5,75.5 -215.5,75.5"/>
<text text-anchor="middle" x="-168" y="-122.3" font-family="Times,serif" font-size="14.00">ProductsController</text>
<polyline fill="none" stroke="black" points="-227.5,-114.5 -108.5,-114.5 "/>
<text text-anchor="start" x="-219.5" y="-99.3" font-family="Times,serif" font-size="14.00">create</text>
<text text-anchor="start" x="-219.5" y="-84.3" font-family="Times,serif" font-size="14.00">destroy</text>
<text text-anchor="start" x="-219.5" y="-69.3" font-family="Times,serif" font-size="14.00">edit</text>
<text text-anchor="start" x="-219.5" y="-54.3" font-family="Times,serif" font-size="14.00">index</text>
<text text-anchor="start" x="-219.5" y="-39.3" font-family="Times,serif" font-size="14.00">new</text>
<text text-anchor="start" x="-219.5" y="-24.3" font-family="Times,serif" font-size="14.00">show</text>
<text text-anchor="start" x="-219.5" y="-9.3" font-family="Times,serif" font-size="14.00">update</text>
<polyline fill="none" stroke="black" points="-227.5,-1.5 -108.5,-1.5 "/>
<polyline fill="none" stroke="black" points="-227.5,22.5 -108.5,22.5 "/>
<text text-anchor="start" x="-219.5" y="37.7" font-family="Times,serif" font-size="14.00">_layout</text>
<text text-anchor="start" x="-219.5" y="52.7" font-family="Times,serif" font-size="14.00">product_params</text>
<text text-anchor="start" x="-219.5" y="67.7" font-family="Times,serif" font-size="14.00">set_product</text>
</g>
<!-- Clients::RegistrationsController -->
<g id="node8" class="node"><title>Clients::RegistrationsController</title>
<path fill="none" stroke="black" d="M278,18C278,18 460,18 460,18 466,18 472,12 472,6 472,6 472,-78 472,-78 472,-84 466,-90 460,-90 460,-90 278,-90 278,-90 272,-90 266,-84 266,-78 266,-78 266,6 266,6 266,12 272,18 278,18"/>
<text text-anchor="middle" x="369" y="-74.8" font-family="Times,serif" font-size="14.00">Clients::RegistrationsController</text>
<polyline fill="none" stroke="black" points="266,-67 472,-67 "/>
<text text-anchor="start" x="274" y="-51.8" font-family="Times,serif" font-size="14.00">configure_account_update_params</text>
<text text-anchor="start" x="274" y="-36.8" font-family="Times,serif" font-size="14.00">configure_sign_up_params</text>
<polyline fill="none" stroke="black" points="266,-29 472,-29 "/>
<polyline fill="none" stroke="black" points="266,-5 472,-5 "/>
<text text-anchor="start" x="274" y="10.2" font-family="Times,serif" font-size="14.00">_layout</text>
</g>
<!-- TelephonesController -->
<g id="node9" class="node"><title>TelephonesController</title>
<path fill="none" stroke="black" d="M278,265.5C278,265.5 388,265.5 388,265.5 394,265.5 400,259.5 400,253.5 400,253.5 400,64.5 400,64.5 400,58.5 394,52.5 388,52.5 388,52.5 278,52.5 278,52.5 272,52.5 266,58.5 266,64.5 266,64.5 266,253.5 266,253.5 266,259.5 272,265.5 278,265.5"/>
<text text-anchor="middle" x="333" y="67.7" font-family="Times,serif" font-size="14.00">TelephonesController</text>
<polyline fill="none" stroke="black" points="266,75.5 400,75.5 "/>
<text text-anchor="start" x="274" y="90.7" font-family="Times,serif" font-size="14.00">create</text>
<text text-anchor="start" x="274" y="105.7" font-family="Times,serif" font-size="14.00">destroy</text>
<text text-anchor="start" x="274" y="120.7" font-family="Times,serif" font-size="14.00">edit</text>
<text text-anchor="start" x="274" y="135.7" font-family="Times,serif" font-size="14.00">index</text>
<text text-anchor="start" x="274" y="150.7" font-family="Times,serif" font-size="14.00">new</text>
<text text-anchor="start" x="274" y="165.7" font-family="Times,serif" font-size="14.00">show</text>
<text text-anchor="start" x="274" y="180.7" font-family="Times,serif" font-size="14.00">update</text>
<polyline fill="none" stroke="black" points="266,188.5 400,188.5 "/>
<polyline fill="none" stroke="black" points="266,212.5 400,212.5 "/>
<text text-anchor="start" x="274" y="227.7" font-family="Times,serif" font-size="14.00">_layout</text>
<text text-anchor="start" x="274" y="242.7" font-family="Times,serif" font-size="14.00">set_telephone</text>
<text text-anchor="start" x="274" y="257.7" font-family="Times,serif" font-size="14.00">telephone_params</text>
</g>
<!-- TransactionsController -->
<g id="node10" class="node"><title>TransactionsController</title>
<path fill="none" stroke="black" d="M-6.5,-152.5C-6.5,-152.5 110.5,-152.5 110.5,-152.5 116.5,-152.5 122.5,-158.5 122.5,-164.5 122.5,-164.5 122.5,-353.5 122.5,-353.5 122.5,-359.5 116.5,-365.5 110.5,-365.5 110.5,-365.5 -6.5,-365.5 -6.5,-365.5 -12.5,-365.5 -18.5,-359.5 -18.5,-353.5 -18.5,-353.5 -18.5,-164.5 -18.5,-164.5 -18.5,-158.5 -12.5,-152.5 -6.5,-152.5"/>
<text text-anchor="middle" x="52" y="-350.3" font-family="Times,serif" font-size="14.00">TransactionsController</text>
<polyline fill="none" stroke="black" points="-18.5,-342.5 122.5,-342.5 "/>
<text text-anchor="start" x="-10.5" y="-327.3" font-family="Times,serif" font-size="14.00">create</text>
<text text-anchor="start" x="-10.5" y="-312.3" font-family="Times,serif" font-size="14.00">destroy</text>
<text text-anchor="start" x="-10.5" y="-297.3" font-family="Times,serif" font-size="14.00">edit</text>
<text text-anchor="start" x="-10.5" y="-282.3" font-family="Times,serif" font-size="14.00">index</text>
<text text-anchor="start" x="-10.5" y="-267.3" font-family="Times,serif" font-size="14.00">new</text>
<text text-anchor="start" x="-10.5" y="-252.3" font-family="Times,serif" font-size="14.00">show</text>
<text text-anchor="start" x="-10.5" y="-237.3" font-family="Times,serif" font-size="14.00">update</text>
<polyline fill="none" stroke="black" points="-18.5,-229.5 122.5,-229.5 "/>
<polyline fill="none" stroke="black" points="-18.5,-205.5 122.5,-205.5 "/>
<text text-anchor="start" x="-10.5" y="-190.3" font-family="Times,serif" font-size="14.00">_layout</text>
<text text-anchor="start" x="-10.5" y="-175.3" font-family="Times,serif" font-size="14.00">set_transaction</text>
<text text-anchor="start" x="-10.5" y="-160.3" font-family="Times,serif" font-size="14.00">transaction_params</text>
</g>
<!-- WelcomeController -->
<g id="node11" class="node"><title>WelcomeController</title>
<path fill="none" stroke="black" d="M-311.5,-171.5C-311.5,-171.5 -210.5,-171.5 -210.5,-171.5 -204.5,-171.5 -198.5,-177.5 -198.5,-183.5 -198.5,-183.5 -198.5,-282.5 -198.5,-282.5 -198.5,-288.5 -204.5,-294.5 -210.5,-294.5 -210.5,-294.5 -311.5,-294.5 -311.5,-294.5 -317.5,-294.5 -323.5,-288.5 -323.5,-282.5 -323.5,-282.5 -323.5,-183.5 -323.5,-183.5 -323.5,-177.5 -317.5,-171.5 -311.5,-171.5"/>
<text text-anchor="middle" x="-261" y="-279.3" font-family="Times,serif" font-size="14.00">WelcomeController</text>
<polyline fill="none" stroke="black" points="-323.5,-271.5 -198.5,-271.5 "/>
<text text-anchor="start" x="-315.5" y="-256.3" font-family="Times,serif" font-size="14.00">index</text>
<text text-anchor="start" x="-315.5" y="-241.3" font-family="Times,serif" font-size="14.00">main_client</text>
<text text-anchor="start" x="-315.5" y="-226.3" font-family="Times,serif" font-size="14.00">open_main_client</text>
<polyline fill="none" stroke="black" points="-323.5,-218.5 -198.5,-218.5 "/>
<polyline fill="none" stroke="black" points="-323.5,-194.5 -198.5,-194.5 "/>
<text text-anchor="start" x="-315.5" y="-179.3" font-family="Times,serif" font-size="14.00">_layout</text>
</g>
<!-- ConsumersController -->
<g id="node12" class="node"><title>ConsumersController</title>
<path fill="none" stroke="black" d="M-311,322.5C-311,322.5 -201,322.5 -201,322.5 -195,322.5 -189,316.5 -189,310.5 -189,310.5 -189,121.5 -189,121.5 -189,115.5 -195,109.5 -201,109.5 -201,109.5 -311,109.5 -311,109.5 -317,109.5 -323,115.5 -323,121.5 -323,121.5 -323,310.5 -323,310.5 -323,316.5 -317,322.5 -311,322.5"/>
<text text-anchor="middle" x="-256" y="124.7" font-family="Times,serif" font-size="14.00">ConsumersController</text>
<polyline fill="none" stroke="black" points="-323,132.5 -189,132.5 "/>
<text text-anchor="start" x="-315" y="147.7" font-family="Times,serif" font-size="14.00">create</text>
<text text-anchor="start" x="-315" y="162.7" font-family="Times,serif" font-size="14.00">destroy</text>
<text text-anchor="start" x="-315" y="177.7" font-family="Times,serif" font-size="14.00">edit</text>
<text text-anchor="start" x="-315" y="192.7" font-family="Times,serif" font-size="14.00">index</text>
<text text-anchor="start" x="-315" y="207.7" font-family="Times,serif" font-size="14.00">new</text>
<text text-anchor="start" x="-315" y="222.7" font-family="Times,serif" font-size="14.00">show</text>
<text text-anchor="start" x="-315" y="237.7" font-family="Times,serif" font-size="14.00">update</text>
<polyline fill="none" stroke="black" points="-323,245.5 -189,245.5 "/>
<polyline fill="none" stroke="black" points="-323,269.5 -189,269.5 "/>
<text text-anchor="start" x="-315" y="284.7" font-family="Times,serif" font-size="14.00">_layout</text>
<text text-anchor="start" x="-315" y="299.7" font-family="Times,serif" font-size="14.00">consumer_params</text>
<text text-anchor="start" x="-315" y="314.7" font-family="Times,serif" font-size="14.00">set_consumer</text>
</g>
<!-- ApplicationController -->
<g id="node13" class="node"><title>ApplicationController</title>
<path fill="none" stroke="black" d="M354,-133.5C354,-133.5 466,-133.5 466,-133.5 472,-133.5 478,-139.5 478,-145.5 478,-145.5 478,-214.5 478,-214.5 478,-220.5 472,-226.5 466,-226.5 466,-226.5 354,-226.5 354,-226.5 348,-226.5 342,-220.5 342,-214.5 342,-214.5 342,-145.5 342,-145.5 342,-139.5 348,-133.5 354,-133.5"/>
<text text-anchor="middle" x="410" y="-211.3" font-family="Times,serif" font-size="14.00">ApplicationController</text>
<polyline fill="none" stroke="black" points="342,-203.5 478,-203.5 "/>
<text text-anchor="start" x="350" y="-188.3" font-family="Times,serif" font-size="14.00">start_page</text>
<polyline fill="none" stroke="black" points="342,-180.5 478,-180.5 "/>
<polyline fill="none" stroke="black" points="342,-156.5 478,-156.5 "/>
<text text-anchor="start" x="350" y="-141.3" font-family="Times,serif" font-size="14.00">_layout</text>
</g>
<!-- AddressesController -->
<g id="node14" class="node"><title>AddressesController</title>
<path fill="none" stroke="black" d="M107,341.5C107,341.5 211,341.5 211,341.5 217,341.5 223,335.5 223,329.5 223,329.5 223,140.5 223,140.5 223,134.5 217,128.5 211,128.5 211,128.5 107,128.5 107,128.5 101,128.5 95,134.5 95,140.5 95,140.5 95,329.5 95,329.5 95,335.5 101,341.5 107,341.5"/>
<text text-anchor="middle" x="159" y="143.7" font-family="Times,serif" font-size="14.00">AddressesController</text>
<polyline fill="none" stroke="black" points="95,151.5 223,151.5 "/>
<text text-anchor="start" x="103" y="166.7" font-family="Times,serif" font-size="14.00">create</text>
<text text-anchor="start" x="103" y="181.7" font-family="Times,serif" font-size="14.00">destroy</text>
<text text-anchor="start" x="103" y="196.7" font-family="Times,serif" font-size="14.00">edit</text>
<text text-anchor="start" x="103" y="211.7" font-family="Times,serif" font-size="14.00">index</text>
<text text-anchor="start" x="103" y="226.7" font-family="Times,serif" font-size="14.00">new</text>
<text text-anchor="start" x="103" y="241.7" font-family="Times,serif" font-size="14.00">show</text>
<text text-anchor="start" x="103" y="256.7" font-family="Times,serif" font-size="14.00">update</text>
<polyline fill="none" stroke="black" points="95,264.5 223,264.5 "/>
<polyline fill="none" stroke="black" points="95,288.5 223,288.5 "/>
<text text-anchor="start" x="103" y="303.7" font-family="Times,serif" font-size="14.00">_layout</text>
<text text-anchor="start" x="103" y="318.7" font-family="Times,serif" font-size="14.00">address_params</text>
<text text-anchor="start" x="103" y="333.7" font-family="Times,serif" font-size="14.00">set_address</text>
</g>
</g>
</svg>
