<?xml version="1.0" encoding="UTF-8" standalone="no"?>
<!DOCTYPE svg PUBLIC "-//W3C//DTD SVG 1.1//EN"
 "http://www.w3.org/Graphics/SVG/1.1/DTD/svg11.dtd">
<!-- Generated by graphviz version 2.38.0 (20140413.2041)
 -->
<!-- Title: controllers_diagram Pages: 1 -->
<svg width="916pt" height="1039pt"
 viewBox="0.00 0.00 916.00 1039.00" xmlns="http://www.w3.org/2000/svg" xmlns:xlink="http://www.w3.org/1999/xlink">
<g id="graph0" class="graph" transform="scale(1 1) rotate(0) translate(422 617)">
<title>controllers_diagram</title>
<polygon fill="none" stroke="none" points="-422,422 -422,-617 494,-617 494,422 -422,422"/>
<!-- _diagram_info -->
<g id="node1" class="node"><title>_diagram_info</title>
<text text-anchor="start" x="65" y="335.4" font-family="Times,serif" font-size="13.00">Controllers diagram</text>
<text text-anchor="start" x="65" y="349.4" font-family="Times,serif" font-size="13.00">Date: Nov 02 2016 &#45; 18:22</text>
<text text-anchor="start" x="65" y="363.4" font-family="Times,serif" font-size="13.00">Migration version: 20161102200708</text>
<text text-anchor="start" x="65" y="377.4" font-family="Times,serif" font-size="13.00">Generated by RailRoady 1.5.2</text>
<text text-anchor="start" x="65" y="391.4" font-family="Times,serif" font-size="13.00">http://railroady.prestonlee.com</text>
</g>
<!-- CreditCardsController -->
<g id="node2" class="node"><title>CreditCardsController</title>
<path fill="none" stroke="black" d="M-25.5,-152.5C-25.5,-152.5 87.5,-152.5 87.5,-152.5 93.5,-152.5 99.5,-158.5 99.5,-164.5 99.5,-164.5 99.5,-353.5 99.5,-353.5 99.5,-359.5 93.5,-365.5 87.5,-365.5 87.5,-365.5 -25.5,-365.5 -25.5,-365.5 -31.5,-365.5 -37.5,-359.5 -37.5,-353.5 -37.5,-353.5 -37.5,-164.5 -37.5,-164.5 -37.5,-158.5 -31.5,-152.5 -25.5,-152.5"/>
<text text-anchor="middle" x="31" y="-350.3" font-family="Times,serif" font-size="14.00">CreditCardsController</text>
<polyline fill="none" stroke="black" points="-37.5,-342.5 99.5,-342.5 "/>
<text text-anchor="start" x="-29.5" y="-327.3" font-family="Times,serif" font-size="14.00">create</text>
<text text-anchor="start" x="-29.5" y="-312.3" font-family="Times,serif" font-size="14.00">destroy</text>
<text text-anchor="start" x="-29.5" y="-297.3" font-family="Times,serif" font-size="14.00">edit</text>
<text text-anchor="start" x="-29.5" y="-282.3" font-family="Times,serif" font-size="14.00">index</text>
<text text-anchor="start" x="-29.5" y="-267.3" font-family="Times,serif" font-size="14.00">new</text>
<text text-anchor="start" x="-29.5" y="-252.3" font-family="Times,serif" font-size="14.00">show</text>
<text text-anchor="start" x="-29.5" y="-237.3" font-family="Times,serif" font-size="14.00">update</text>
<polyline fill="none" stroke="black" points="-37.5,-229.5 99.5,-229.5 "/>
<polyline fill="none" stroke="black" points="-37.5,-205.5 99.5,-205.5 "/>
<text text-anchor="start" x="-29.5" y="-190.3" font-family="Times,serif" font-size="14.00">_layout</text>
<text text-anchor="start" x="-29.5" y="-175.3" font-family="Times,serif" font-size="14.00">credit_card_params</text>
<text text-anchor="start" x="-29.5" y="-160.3" font-family="Times,serif" font-size="14.00">set_credit_card</text>
</g>
<!-- ProfessionalsController -->
<g id="node3" class="node"><title>ProfessionalsController</title>
<path fill="none" stroke="black" d="M-216,-228.5C-216,-228.5 -96,-228.5 -96,-228.5 -90,-228.5 -84,-234.5 -84,-240.5 -84,-240.5 -84,-429.5 -84,-429.5 -84,-435.5 -90,-441.5 -96,-441.5 -96,-441.5 -216,-441.5 -216,-441.5 -222,-441.5 -228,-435.5 -228,-429.5 -228,-429.5 -228,-240.5 -228,-240.5 -228,-234.5 -222,-228.5 -216,-228.5"/>
<text text-anchor="middle" x="-156" y="-426.3" font-family="Times,serif" font-size="14.00">ProfessionalsController</text>
<polyline fill="none" stroke="black" points="-228,-418.5 -84,-418.5 "/>
<text text-anchor="start" x="-220" y="-403.3" font-family="Times,serif" font-size="14.00">create</text>
<text text-anchor="start" x="-220" y="-388.3" font-family="Times,serif" font-size="14.00">destroy</text>
<text text-anchor="start" x="-220" y="-373.3" font-family="Times,serif" font-size="14.00">edit</text>
<text text-anchor="start" x="-220" y="-358.3" font-family="Times,serif" font-size="14.00">index</text>
<text text-anchor="start" x="-220" y="-343.3" font-family="Times,serif" font-size="14.00">new</text>
<text text-anchor="start" x="-220" y="-328.3" font-family="Times,serif" font-size="14.00">show</text>
<text text-anchor="start" x="-220" y="-313.3" font-family="Times,serif" font-size="14.00">update</text>
<polyline fill="none" stroke="black" points="-228,-305.5 -84,-305.5 "/>
<polyline fill="none" stroke="black" points="-228,-281.5 -84,-281.5 "/>
<text text-anchor="start" x="-220" y="-266.3" font-family="Times,serif" font-size="14.00">_layout</text>
<text text-anchor="start" x="-220" y="-251.3" font-family="Times,serif" font-size="14.00">professional_params</text>
<text text-anchor="start" x="-220" y="-236.3" font-family="Times,serif" font-size="14.00">set_professional</text>
</g>
<!-- ClientsController -->
<g id="node4" class="node"><title>ClientsController</title>
<path fill="none" stroke="black" d="M392,-380.5C392,-380.5 478,-380.5 478,-380.5 484,-380.5 490,-386.5 490,-392.5 490,-392.5 490,-581.5 490,-581.5 490,-587.5 484,-593.5 478,-593.5 478,-593.5 392,-593.5 392,-593.5 386,-593.5 380,-587.5 380,-581.5 380,-581.5 380,-392.5 380,-392.5 380,-386.5 386,-380.5 392,-380.5"/>
<text text-anchor="middle" x="435" y="-578.3" font-family="Times,serif" font-size="14.00">ClientsController</text>
<polyline fill="none" stroke="black" points="380,-570.5 490,-570.5 "/>
<text text-anchor="start" x="388" y="-555.3" font-family="Times,serif" font-size="14.00">create</text>
<text text-anchor="start" x="388" y="-540.3" font-family="Times,serif" font-size="14.00">destroy</text>
<text text-anchor="start" x="388" y="-525.3" font-family="Times,serif" font-size="14.00">edit</text>
<text text-anchor="start" x="388" y="-510.3" font-family="Times,serif" font-size="14.00">index</text>
<text text-anchor="start" x="388" y="-495.3" font-family="Times,serif" font-size="14.00">new</text>
<text text-anchor="start" x="388" y="-480.3" font-family="Times,serif" font-size="14.00">show</text>
<text text-anchor="start" x="388" y="-465.3" font-family="Times,serif" font-size="14.00">update</text>
<polyline fill="none" stroke="black" points="380,-457.5 490,-457.5 "/>
<polyline fill="none" stroke="black" points="380,-433.5 490,-433.5 "/>
<text text-anchor="start" x="388" y="-418.3" font-family="Times,serif" font-size="14.00">_layout</text>
<text text-anchor="start" x="388" y="-403.3" font-family="Times,serif" font-size="14.00">client_params</text>
<text text-anchor="start" x="388" y="-388.3" font-family="Times,serif" font-size="14.00">set_client</text>
</g>
<!-- BankingsController -->
<g id="node5" class="node"><title>BankingsController</title>
<path fill="none" stroke="black" d="M-215.5,37C-215.5,37 -116.5,37 -116.5,37 -110.5,37 -104.5,31 -104.5,25 -104.5,25 -104.5,-179 -104.5,-179 -104.5,-185 -110.5,-191 -116.5,-191 -116.5,-191 -215.5,-191 -215.5,-191 -221.5,-191 -227.5,-185 -227.5,-179 -227.5,-179 -227.5,25 -227.5,25 -227.5,31 -221.5,37 -215.5,37"/>
<text text-anchor="middle" x="-166" y="-175.8" font-family="Times,serif" font-size="14.00">BankingsController</text>
<polyline fill="none" stroke="black" points="-227.5,-168 -104.5,-168 "/>
<text text-anchor="start" x="-219.5" y="-152.8" font-family="Times,serif" font-size="14.00">create</text>
<text text-anchor="start" x="-219.5" y="-137.8" font-family="Times,serif" font-size="14.00">destroy</text>
<text text-anchor="start" x="-219.5" y="-122.8" font-family="Times,serif" font-size="14.00">edit</text>
<text text-anchor="start" x="-219.5" y="-107.8" font-family="Times,serif" font-size="14.00">index</text>
<text text-anchor="start" x="-219.5" y="-92.8" font-family="Times,serif" font-size="14.00">new</text>
<text text-anchor="start" x="-219.5" y="-77.8" font-family="Times,serif" font-size="14.00">show</text>
<text text-anchor="start" x="-219.5" y="-62.8" font-family="Times,serif" font-size="14.00">update</text>
<polyline fill="none" stroke="black" points="-227.5,-55 -104.5,-55 "/>
<polyline fill="none" stroke="black" points="-227.5,-31 -104.5,-31 "/>
<text text-anchor="start" x="-219.5" y="-15.8" font-family="Times,serif" font-size="14.00">_layout</text>
<text text-anchor="start" x="-219.5" y="-0.8" font-family="Times,serif" font-size="14.00">banking_params</text>
<text text-anchor="start" x="-219.5" y="14.2" font-family="Times,serif" font-size="14.00">set_banking</text>
<text text-anchor="start" x="-219.5" y="29.2" font-family="Times,serif" font-size="14.00">set_professional</text>
</g>
<!-- ShoppingCartsController -->
<g id="node6" class="node"><title>ShoppingCartsController</title>
<path fill="none" stroke="black" d="M-64,132.5C-64,132.5 64,132.5 64,132.5 70,132.5 76,126.5 76,120.5 76,120.5 76,-98.5 76,-98.5 76,-104.5 70,-110.5 64,-110.5 64,-110.5 -64,-110.5 -64,-110.5 -70,-110.5 -76,-104.5 -76,-98.5 -76,-98.5 -76,120.5 -76,120.5 -76,126.5 -70,132.5 -64,132.5"/>
<text text-anchor="middle" x="0" y="-95.3" font-family="Times,serif" font-size="14.00">ShoppingCartsController</text>
<polyline fill="none" stroke="black" points="-76,-87.5 76,-87.5 "/>
<text text-anchor="start" x="-68" y="-72.3" font-family="Times,serif" font-size="14.00">buy</text>
<text text-anchor="start" x="-68" y="-57.3" font-family="Times,serif" font-size="14.00">create</text>
<text text-anchor="start" x="-68" y="-42.3" font-family="Times,serif" font-size="14.00">destroy</text>
<text text-anchor="start" x="-68" y="-27.3" font-family="Times,serif" font-size="14.00">edit</text>
<text text-anchor="start" x="-68" y="-12.3" font-family="Times,serif" font-size="14.00">index</text>
<text text-anchor="start" x="-68" y="2.7" font-family="Times,serif" font-size="14.00">new</text>
<text text-anchor="start" x="-68" y="17.7" font-family="Times,serif" font-size="14.00">show</text>
<text text-anchor="start" x="-68" y="32.7" font-family="Times,serif" font-size="14.00">update</text>
<polyline fill="none" stroke="black" points="-76,40.5 76,40.5 "/>
<polyline fill="none" stroke="black" points="-76,64.5 76,64.5 "/>
<text text-anchor="start" x="-68" y="79.7" font-family="Times,serif" font-size="14.00">_layout</text>
<text text-anchor="start" x="-68" y="94.7" font-family="Times,serif" font-size="14.00">set_new_product_cart</text>
<text text-anchor="start" x="-68" y="109.7" font-family="Times,serif" font-size="14.00">set_shopping_cart</text>
<text text-anchor="start" x="-68" y="124.7" font-family="Times,serif" font-size="14.00">shopping_cart_params</text>
</g>
<!-- CategoryProductsController -->
<g id="node7" class="node"><title>CategoryProductsController</title>
<path fill="none" stroke="black" d="M125.5,113.5C125.5,113.5 270.5,113.5 270.5,113.5 276.5,113.5 282.5,107.5 282.5,101.5 282.5,101.5 282.5,-87.5 282.5,-87.5 282.5,-93.5 276.5,-99.5 270.5,-99.5 270.5,-99.5 125.5,-99.5 125.5,-99.5 119.5,-99.5 113.5,-93.5 113.5,-87.5 113.5,-87.5 113.5,101.5 113.5,101.5 113.5,107.5 119.5,113.5 125.5,113.5"/>
<text text-anchor="middle" x="198" y="-84.3" font-family="Times,serif" font-size="14.00">CategoryProductsController</text>
<polyline fill="none" stroke="black" points="113.5,-76.5 282.5,-76.5 "/>
<text text-anchor="start" x="121.5" y="-61.3" font-family="Times,serif" font-size="14.00">create</text>
<text text-anchor="start" x="121.5" y="-46.3" font-family="Times,serif" font-size="14.00">destroy</text>
<text text-anchor="start" x="121.5" y="-31.3" font-family="Times,serif" font-size="14.00">edit</text>
<text text-anchor="start" x="121.5" y="-16.3" font-family="Times,serif" font-size="14.00">index</text>
<text text-anchor="start" x="121.5" y="-1.3" font-family="Times,serif" font-size="14.00">new</text>
<text text-anchor="start" x="121.5" y="13.7" font-family="Times,serif" font-size="14.00">show</text>
<text text-anchor="start" x="121.5" y="28.7" font-family="Times,serif" font-size="14.00">update</text>
<polyline fill="none" stroke="black" points="113.5,36.5 282.5,36.5 "/>
<polyline fill="none" stroke="black" points="113.5,60.5 282.5,60.5 "/>
<text text-anchor="start" x="121.5" y="75.7" font-family="Times,serif" font-size="14.00">_layout</text>
<text text-anchor="start" x="121.5" y="90.7" font-family="Times,serif" font-size="14.00">category_product_params</text>
<text text-anchor="start" x="121.5" y="105.7" font-family="Times,serif" font-size="14.00">set_category_product</text>
</g>
<!-- ProductsController -->
<g id="node8" class="node"><title>ProductsController</title>
<path fill="none" stroke="black" d="M145.5,-134C145.5,-134 240.5,-134 240.5,-134 246.5,-134 252.5,-140 252.5,-146 252.5,-146 252.5,-380 252.5,-380 252.5,-386 246.5,-392 240.5,-392 240.5,-392 145.5,-392 145.5,-392 139.5,-392 133.5,-386 133.5,-380 133.5,-380 133.5,-146 133.5,-146 133.5,-140 139.5,-134 145.5,-134"/>
<text text-anchor="middle" x="193" y="-376.8" font-family="Times,serif" font-size="14.00">ProductsController</text>
<polyline fill="none" stroke="black" points="133.5,-369 252.5,-369 "/>
<text text-anchor="start" x="141.5" y="-353.8" font-family="Times,serif" font-size="14.00">buy</text>
<text text-anchor="start" x="141.5" y="-338.8" font-family="Times,serif" font-size="14.00">create</text>
<text text-anchor="start" x="141.5" y="-323.8" font-family="Times,serif" font-size="14.00">destroy</text>
<text text-anchor="start" x="141.5" y="-308.8" font-family="Times,serif" font-size="14.00">edit</text>
<text text-anchor="start" x="141.5" y="-293.8" font-family="Times,serif" font-size="14.00">index</text>
<text text-anchor="start" x="141.5" y="-278.8" font-family="Times,serif" font-size="14.00">new</text>
<text text-anchor="start" x="141.5" y="-263.8" font-family="Times,serif" font-size="14.00">show</text>
<text text-anchor="start" x="141.5" y="-248.8" font-family="Times,serif" font-size="14.00">update</text>
<polyline fill="none" stroke="black" points="133.5,-241 252.5,-241 "/>
<polyline fill="none" stroke="black" points="133.5,-217 252.5,-217 "/>
<text text-anchor="start" x="141.5" y="-201.8" font-family="Times,serif" font-size="14.00">_layout</text>
<text text-anchor="start" x="141.5" y="-186.8" font-family="Times,serif" font-size="14.00">product_params</text>
<text text-anchor="start" x="141.5" y="-171.8" font-family="Times,serif" font-size="14.00">set_consumer</text>
<text text-anchor="start" x="141.5" y="-156.8" font-family="Times,serif" font-size="14.00">set_product</text>
<text text-anchor="start" x="141.5" y="-141.8" font-family="Times,serif" font-size="14.00">set_professional</text>
</g>
<!-- PicturesController -->
<g id="node9" class="node"><title>PicturesController</title>
<path fill="none" stroke="black" d="M-368,-380.5C-368,-380.5 -276,-380.5 -276,-380.5 -270,-380.5 -264,-386.5 -264,-392.5 -264,-392.5 -264,-581.5 -264,-581.5 -264,-587.5 -270,-593.5 -276,-593.5 -276,-593.5 -368,-593.5 -368,-593.5 -374,-593.5 -380,-587.5 -380,-581.5 -380,-581.5 -380,-392.5 -380,-392.5 -380,-386.5 -374,-380.5 -368,-380.5"/>
<text text-anchor="middle" x="-322" y="-578.3" font-family="Times,serif" font-size="14.00">PicturesController</text>
<polyline fill="none" stroke="black" points="-380,-570.5 -264,-570.5 "/>
<text text-anchor="start" x="-372" y="-555.3" font-family="Times,serif" font-size="14.00">create</text>
<text text-anchor="start" x="-372" y="-540.3" font-family="Times,serif" font-size="14.00">destroy</text>
<text text-anchor="start" x="-372" y="-525.3" font-family="Times,serif" font-size="14.00">edit</text>
<text text-anchor="start" x="-372" y="-510.3" font-family="Times,serif" font-size="14.00">index</text>
<text text-anchor="start" x="-372" y="-495.3" font-family="Times,serif" font-size="14.00">new</text>
<text text-anchor="start" x="-372" y="-480.3" font-family="Times,serif" font-size="14.00">show</text>
<text text-anchor="start" x="-372" y="-465.3" font-family="Times,serif" font-size="14.00">update</text>
<polyline fill="none" stroke="black" points="-380,-457.5 -264,-457.5 "/>
<polyline fill="none" stroke="black" points="-380,-433.5 -264,-433.5 "/>
<text text-anchor="start" x="-372" y="-418.3" font-family="Times,serif" font-size="14.00">_layout</text>
<text text-anchor="start" x="-372" y="-403.3" font-family="Times,serif" font-size="14.00">picture_params</text>
<text text-anchor="start" x="-372" y="-388.3" font-family="Times,serif" font-size="14.00">set_picture</text>
</g>
<!-- Clients::RegistrationsController -->
<g id="node10" class="node"><title>Clients::RegistrationsController</title>
<path fill="none" stroke="black" d="M126,284C126,284 308,284 308,284 314,284 320,278 320,272 320,272 320,158 320,158 320,152 314,146 308,146 308,146 126,146 126,146 120,146 114,152 114,158 114,158 114,272 114,272 114,278 120,284 126,284"/>
<text text-anchor="middle" x="217" y="161.2" font-family="Times,serif" font-size="14.00">Clients::RegistrationsController</text>
<polyline fill="none" stroke="black" points="114,169 320,169 "/>
<text text-anchor="start" x="122" y="184.2" font-family="Times,serif" font-size="14.00">configure_account_update_params</text>
<text text-anchor="start" x="122" y="199.2" font-family="Times,serif" font-size="14.00">configure_sign_up_params</text>
<text text-anchor="start" x="122" y="214.2" font-family="Times,serif" font-size="14.00">create</text>
<text text-anchor="start" x="122" y="229.2" font-family="Times,serif" font-size="14.00">new</text>
<polyline fill="none" stroke="black" points="114,237 320,237 "/>
<polyline fill="none" stroke="black" points="114,261 320,261 "/>
<text text-anchor="start" x="122" y="276.2" font-family="Times,serif" font-size="14.00">_layout</text>
</g>
<!-- TelephonesController -->
<g id="node11" class="node"><title>TelephonesController</title>
<path fill="none" stroke="black" d="M-273,284.5C-273,284.5 -163,284.5 -163,284.5 -157,284.5 -151,278.5 -151,272.5 -151,272.5 -151,83.5 -151,83.5 -151,77.5 -157,71.5 -163,71.5 -163,71.5 -273,71.5 -273,71.5 -279,71.5 -285,77.5 -285,83.5 -285,83.5 -285,272.5 -285,272.5 -285,278.5 -279,284.5 -273,284.5"/>
<text text-anchor="middle" x="-218" y="86.7" font-family="Times,serif" font-size="14.00">TelephonesController</text>
<polyline fill="none" stroke="black" points="-285,94.5 -151,94.5 "/>
<text text-anchor="start" x="-277" y="109.7" font-family="Times,serif" font-size="14.00">create</text>
<text text-anchor="start" x="-277" y="124.7" font-family="Times,serif" font-size="14.00">destroy</text>
<text text-anchor="start" x="-277" y="139.7" font-family="Times,serif" font-size="14.00">edit</text>
<text text-anchor="start" x="-277" y="154.7" font-family="Times,serif" font-size="14.00">index</text>
<text text-anchor="start" x="-277" y="169.7" font-family="Times,serif" font-size="14.00">new</text>
<text text-anchor="start" x="-277" y="184.7" font-family="Times,serif" font-size="14.00">show</text>
<text text-anchor="start" x="-277" y="199.7" font-family="Times,serif" font-size="14.00">update</text>
<polyline fill="none" stroke="black" points="-285,207.5 -151,207.5 "/>
<polyline fill="none" stroke="black" points="-285,231.5 -151,231.5 "/>
<text text-anchor="start" x="-277" y="246.7" font-family="Times,serif" font-size="14.00">_layout</text>
<text text-anchor="start" x="-277" y="261.7" font-family="Times,serif" font-size="14.00">set_telephone</text>
<text text-anchor="start" x="-277" y="276.7" font-family="Times,serif" font-size="14.00">telephone_params</text>
</g>
<!-- WelcomeController -->
<g id="node12" class="node"><title>WelcomeController</title>
<path fill="none" stroke="black" d="M239.5,-437.5C239.5,-437.5 340.5,-437.5 340.5,-437.5 346.5,-437.5 352.5,-443.5 352.5,-449.5 352.5,-449.5 352.5,-548.5 352.5,-548.5 352.5,-554.5 346.5,-560.5 340.5,-560.5 340.5,-560.5 239.5,-560.5 239.5,-560.5 233.5,-560.5 227.5,-554.5 227.5,-548.5 227.5,-548.5 227.5,-449.5 227.5,-449.5 227.5,-443.5 233.5,-437.5 239.5,-437.5"/>
<text text-anchor="middle" x="290" y="-545.3" font-family="Times,serif" font-size="14.00">WelcomeController</text>
<polyline fill="none" stroke="black" points="227.5,-537.5 352.5,-537.5 "/>
<text text-anchor="start" x="235.5" y="-522.3" font-family="Times,serif" font-size="14.00">filter</text>
<text text-anchor="start" x="235.5" y="-507.3" font-family="Times,serif" font-size="14.00">index</text>
<text text-anchor="start" x="235.5" y="-492.3" font-family="Times,serif" font-size="14.00">redirect</text>
<polyline fill="none" stroke="black" points="227.5,-484.5 352.5,-484.5 "/>
<polyline fill="none" stroke="black" points="227.5,-460.5 352.5,-460.5 "/>
<text text-anchor="start" x="235.5" y="-445.3" font-family="Times,serif" font-size="14.00">_layout</text>
</g>
<!-- EventsController -->
<g id="node13" class="node"><title>EventsController</title>
<path fill="none" stroke="black" d="M-6.5,-399.5C-6.5,-399.5 78.5,-399.5 78.5,-399.5 84.5,-399.5 90.5,-405.5 90.5,-411.5 90.5,-411.5 90.5,-600.5 90.5,-600.5 90.5,-606.5 84.5,-612.5 78.5,-612.5 78.5,-612.5 -6.5,-612.5 -6.5,-612.5 -12.5,-612.5 -18.5,-606.5 -18.5,-600.5 -18.5,-600.5 -18.5,-411.5 -18.5,-411.5 -18.5,-405.5 -12.5,-399.5 -6.5,-399.5"/>
<text text-anchor="middle" x="36" y="-597.3" font-family="Times,serif" font-size="14.00">EventsController</text>
<polyline fill="none" stroke="black" points="-18.5,-589.5 90.5,-589.5 "/>
<text text-anchor="start" x="-10.5" y="-574.3" font-family="Times,serif" font-size="14.00">create</text>
<text text-anchor="start" x="-10.5" y="-559.3" font-family="Times,serif" font-size="14.00">destroy</text>
<text text-anchor="start" x="-10.5" y="-544.3" font-family="Times,serif" font-size="14.00">edit</text>
<text text-anchor="start" x="-10.5" y="-529.3" font-family="Times,serif" font-size="14.00">index</text>
<text text-anchor="start" x="-10.5" y="-514.3" font-family="Times,serif" font-size="14.00">new</text>
<text text-anchor="start" x="-10.5" y="-499.3" font-family="Times,serif" font-size="14.00">show</text>
<text text-anchor="start" x="-10.5" y="-484.3" font-family="Times,serif" font-size="14.00">update</text>
<polyline fill="none" stroke="black" points="-18.5,-476.5 90.5,-476.5 "/>
<polyline fill="none" stroke="black" points="-18.5,-452.5 90.5,-452.5 "/>
<text text-anchor="start" x="-10.5" y="-437.3" font-family="Times,serif" font-size="14.00">_layout</text>
<text text-anchor="start" x="-10.5" y="-422.3" font-family="Times,serif" font-size="14.00">event_params</text>
<text text-anchor="start" x="-10.5" y="-407.3" font-family="Times,serif" font-size="14.00">set_event</text>
</g>
<!-- ConsumersController -->
<g id="node14" class="node"><title>ConsumersController</title>
<path fill="none" stroke="black" d="M297,-133.5C297,-133.5 407,-133.5 407,-133.5 413,-133.5 419,-139.5 419,-145.5 419,-145.5 419,-334.5 419,-334.5 419,-340.5 413,-346.5 407,-346.5 407,-346.5 297,-346.5 297,-346.5 291,-346.5 285,-340.5 285,-334.5 285,-334.5 285,-145.5 285,-145.5 285,-139.5 291,-133.5 297,-133.5"/>
<text text-anchor="middle" x="352" y="-331.3" font-family="Times,serif" font-size="14.00">ConsumersController</text>
<polyline fill="none" stroke="black" points="285,-323.5 419,-323.5 "/>
<text text-anchor="start" x="293" y="-308.3" font-family="Times,serif" font-size="14.00">create</text>
<text text-anchor="start" x="293" y="-293.3" font-family="Times,serif" font-size="14.00">destroy</text>
<text text-anchor="start" x="293" y="-278.3" font-family="Times,serif" font-size="14.00">edit</text>
<text text-anchor="start" x="293" y="-263.3" font-family="Times,serif" font-size="14.00">index</text>
<text text-anchor="start" x="293" y="-248.3" font-family="Times,serif" font-size="14.00">new</text>
<text text-anchor="start" x="293" y="-233.3" font-family="Times,serif" font-size="14.00">show</text>
<text text-anchor="start" x="293" y="-218.3" font-family="Times,serif" font-size="14.00">update</text>
<polyline fill="none" stroke="black" points="285,-210.5 419,-210.5 "/>
<polyline fill="none" stroke="black" points="285,-186.5 419,-186.5 "/>
<text text-anchor="start" x="293" y="-171.3" font-family="Times,serif" font-size="14.00">_layout</text>
<text text-anchor="start" x="293" y="-156.3" font-family="Times,serif" font-size="14.00">consumer_params</text>
<text text-anchor="start" x="293" y="-141.3" font-family="Times,serif" font-size="14.00">set_consumer</text>
</g>
<!-- KeywordsController -->
<g id="node15" class="node"><title>KeywordsController</title>
<path fill="none" stroke="black" d="M335,113.5C335,113.5 439,113.5 439,113.5 445,113.5 451,107.5 451,101.5 451,101.5 451,-87.5 451,-87.5 451,-93.5 445,-99.5 439,-99.5 439,-99.5 335,-99.5 335,-99.5 329,-99.5 323,-93.5 323,-87.5 323,-87.5 323,101.5 323,101.5 323,107.5 329,113.5 335,113.5"/>
<text text-anchor="middle" x="387" y="-84.3" font-family="Times,serif" font-size="14.00">KeywordsController</text>
<polyline fill="none" stroke="black" points="323,-76.5 451,-76.5 "/>
<text text-anchor="start" x="331" y="-61.3" font-family="Times,serif" font-size="14.00">create</text>
<text text-anchor="start" x="331" y="-46.3" font-family="Times,serif" font-size="14.00">destroy</text>
<text text-anchor="start" x="331" y="-31.3" font-family="Times,serif" font-size="14.00">edit</text>
<text text-anchor="start" x="331" y="-16.3" font-family="Times,serif" font-size="14.00">index</text>
<text text-anchor="start" x="331" y="-1.3" font-family="Times,serif" font-size="14.00">new</text>
<text text-anchor="start" x="331" y="13.7" font-family="Times,serif" font-size="14.00">show</text>
<text text-anchor="start" x="331" y="28.7" font-family="Times,serif" font-size="14.00">update</text>
<polyline fill="none" stroke="black" points="323,36.5 451,36.5 "/>
<polyline fill="none" stroke="black" points="323,60.5 451,60.5 "/>
<text text-anchor="start" x="331" y="75.7" font-family="Times,serif" font-size="14.00">_layout</text>
<text text-anchor="start" x="331" y="90.7" font-family="Times,serif" font-size="14.00">keyword_params</text>
<text text-anchor="start" x="331" y="105.7" font-family="Times,serif" font-size="14.00">set_keyword</text>
</g>
<!-- ApplicationController -->
<g id="node16" class="node"><title>ApplicationController</title>
<path fill="none" stroke="black" d="M-406,417.5C-406,417.5 -290,417.5 -290,417.5 -284,417.5 -278,411.5 -278,405.5 -278,405.5 -278,336.5 -278,336.5 -278,330.5 -284,324.5 -290,324.5 -290,324.5 -406,324.5 -406,324.5 -412,324.5 -418,330.5 -418,336.5 -418,336.5 -418,405.5 -418,405.5 -418,411.5 -412,417.5 -406,417.5"/>
<text text-anchor="middle" x="-348" y="339.7" font-family="Times,serif" font-size="14.00">ApplicationController</text>
<polyline fill="none" stroke="black" points="-418,347.5 -278,347.5 "/>
<text text-anchor="start" x="-410" y="362.7" font-family="Times,serif" font-size="14.00">after_sign_in_path_for</text>
<polyline fill="none" stroke="black" points="-418,370.5 -278,370.5 "/>
<polyline fill="none" stroke="black" points="-418,394.5 -278,394.5 "/>
<text text-anchor="start" x="-410" y="409.7" font-family="Times,serif" font-size="14.00">_layout</text>
</g>
<!-- AddressesController -->
<g id="node17" class="node"><title>AddressesController</title>
<path fill="none" stroke="black" d="M373,360.5C373,360.5 477,360.5 477,360.5 483,360.5 489,354.5 489,348.5 489,348.5 489,159.5 489,159.5 489,153.5 483,147.5 477,147.5 477,147.5 373,147.5 373,147.5 367,147.5 361,153.5 361,159.5 361,159.5 361,348.5 361,348.5 361,354.5 367,360.5 373,360.5"/>
<text text-anchor="middle" x="425" y="162.7" font-family="Times,serif" font-size="14.00">AddressesController</text>
<polyline fill="none" stroke="black" points="361,170.5 489,170.5 "/>
<text text-anchor="start" x="369" y="185.7" font-family="Times,serif" font-size="14.00">create</text>
<text text-anchor="start" x="369" y="200.7" font-family="Times,serif" font-size="14.00">destroy</text>
<text text-anchor="start" x="369" y="215.7" font-family="Times,serif" font-size="14.00">edit</text>
<text text-anchor="start" x="369" y="230.7" font-family="Times,serif" font-size="14.00">index</text>
<text text-anchor="start" x="369" y="245.7" font-family="Times,serif" font-size="14.00">new</text>
<text text-anchor="start" x="369" y="260.7" font-family="Times,serif" font-size="14.00">show</text>
<text text-anchor="start" x="369" y="275.7" font-family="Times,serif" font-size="14.00">update</text>
<polyline fill="none" stroke="black" points="361,283.5 489,283.5 "/>
<polyline fill="none" stroke="black" points="361,307.5 489,307.5 "/>
<text text-anchor="start" x="369" y="322.7" font-family="Times,serif" font-size="14.00">_layout</text>
<text text-anchor="start" x="369" y="337.7" font-family="Times,serif" font-size="14.00">address_params</text>
<text text-anchor="start" x="369" y="352.7" font-family="Times,serif" font-size="14.00">set_address</text>
</g>
<!-- PaymentsController -->
<g id="node18" class="node"><title>PaymentsController</title>
<path fill="none" stroke="black" d="M-368.5,-1C-368.5,-1 -267.5,-1 -267.5,-1 -261.5,-1 -255.5,-7 -255.5,-13 -255.5,-13 -255.5,-217 -255.5,-217 -255.5,-223 -261.5,-229 -267.5,-229 -267.5,-229 -368.5,-229 -368.5,-229 -374.5,-229 -380.5,-223 -380.5,-217 -380.5,-217 -380.5,-13 -380.5,-13 -380.5,-7 -374.5,-1 -368.5,-1"/>
<text text-anchor="middle" x="-318" y="-213.8" font-family="Times,serif" font-size="14.00">PaymentsController</text>
<polyline fill="none" stroke="black" points="-380.5,-206 -255.5,-206 "/>
<text text-anchor="start" x="-372.5" y="-190.8" font-family="Times,serif" font-size="14.00">create</text>
<text text-anchor="start" x="-372.5" y="-175.8" font-family="Times,serif" font-size="14.00">destroy</text>
<text text-anchor="start" x="-372.5" y="-160.8" font-family="Times,serif" font-size="14.00">edit</text>
<text text-anchor="start" x="-372.5" y="-145.8" font-family="Times,serif" font-size="14.00">index</text>
<text text-anchor="start" x="-372.5" y="-130.8" font-family="Times,serif" font-size="14.00">new</text>
<text text-anchor="start" x="-372.5" y="-115.8" font-family="Times,serif" font-size="14.00">show</text>
<text text-anchor="start" x="-372.5" y="-100.8" font-family="Times,serif" font-size="14.00">update</text>
<polyline fill="none" stroke="black" points="-380.5,-93 -255.5,-93 "/>
<polyline fill="none" stroke="black" points="-380.5,-69 -255.5,-69 "/>
<text text-anchor="start" x="-372.5" y="-53.8" font-family="Times,serif" font-size="14.00">_layout</text>
<text text-anchor="start" x="-372.5" y="-38.8" font-family="Times,serif" font-size="14.00">payment_params</text>
<text text-anchor="start" x="-372.5" y="-23.8" font-family="Times,serif" font-size="14.00">set_payment</text>
<text text-anchor="start" x="-372.5" y="-8.8" font-family="Times,serif" font-size="14.00">set_shopping_cart</text>
</g>
<!-- CartItemsController -->
<g id="node19" class="node"><title>CartItemsController</title>
<path fill="none" stroke="black" d="M-102,379.5C-102,379.5 0,379.5 0,379.5 6,379.5 12,373.5 12,367.5 12,367.5 12,178.5 12,178.5 12,172.5 6,166.5 0,166.5 0,166.5 -102,166.5 -102,166.5 -108,166.5 -114,172.5 -114,178.5 -114,178.5 -114,367.5 -114,367.5 -114,373.5 -108,379.5 -102,379.5"/>
<text text-anchor="middle" x="-51" y="181.7" font-family="Times,serif" font-size="14.00">CartItemsController</text>
<polyline fill="none" stroke="black" points="-114,189.5 12,189.5 "/>
<text text-anchor="start" x="-106" y="204.7" font-family="Times,serif" font-size="14.00">create</text>
<text text-anchor="start" x="-106" y="219.7" font-family="Times,serif" font-size="14.00">destroy</text>
<text text-anchor="start" x="-106" y="234.7" font-family="Times,serif" font-size="14.00">edit</text>
<text text-anchor="start" x="-106" y="249.7" font-family="Times,serif" font-size="14.00">index</text>
<text text-anchor="start" x="-106" y="264.7" font-family="Times,serif" font-size="14.00">new</text>
<text text-anchor="start" x="-106" y="279.7" font-family="Times,serif" font-size="14.00">show</text>
<text text-anchor="start" x="-106" y="294.7" font-family="Times,serif" font-size="14.00">update</text>
<polyline fill="none" stroke="black" points="-114,302.5 12,302.5 "/>
<polyline fill="none" stroke="black" points="-114,326.5 12,326.5 "/>
<text text-anchor="start" x="-106" y="341.7" font-family="Times,serif" font-size="14.00">_layout</text>
<text text-anchor="start" x="-106" y="356.7" font-family="Times,serif" font-size="14.00">cart_item_params</text>
<text text-anchor="start" x="-106" y="371.7" font-family="Times,serif" font-size="14.00">set_cart_item</text>
</g>
</g>
</svg>
