<?xml version="1.0" encoding="UTF-8" standalone="no"?>
<!DOCTYPE svg PUBLIC "-//W3C//DTD SVG 1.1//EN"
 "http://www.w3.org/Graphics/SVG/1.1/DTD/svg11.dtd">
<!-- Generated by graphviz version 2.38.0 (20140413.2041)
 -->
<!-- Title: controllers_diagram Pages: 1 -->
<svg width="1042pt" height="1115pt"
 viewBox="0.00 0.00 1041.50 1115.00" xmlns="http://www.w3.org/2000/svg" xmlns:xlink="http://www.w3.org/1999/xlink">
<g id="graph0" class="graph" transform="scale(1 1) rotate(0) translate(441.5 655)">
<title>controllers_diagram</title>
<polygon fill="none" stroke="none" points="-441.5,460 -441.5,-655 600,-655 600,460 -441.5,460"/>
<!-- _diagram_info -->
<g id="node1" class="node"><title>_diagram_info</title>
<text text-anchor="start" x="8" y="392.4" font-family="Times,serif" font-size="13.00">Controllers diagram</text>
<text text-anchor="start" x="8" y="406.4" font-family="Times,serif" font-size="13.00">Date: Oct 13 2016 &#45; 17:42</text>
<text text-anchor="start" x="8" y="420.4" font-family="Times,serif" font-size="13.00">Migration version: 20161013203116</text>
<text text-anchor="start" x="8" y="434.4" font-family="Times,serif" font-size="13.00">Generated by RailRoady 1.5.2</text>
<text text-anchor="start" x="8" y="448.4" font-family="Times,serif" font-size="13.00">http://railroady.prestonlee.com</text>
</g>
<!-- CreditCardsController -->
<g id="node2" class="node"><title>CreditCardsController</title>
<path fill="none" stroke="black" d="M-234.5,94.5C-234.5,94.5 -121.5,94.5 -121.5,94.5 -115.5,94.5 -109.5,88.5 -109.5,82.5 -109.5,82.5 -109.5,-106.5 -109.5,-106.5 -109.5,-112.5 -115.5,-118.5 -121.5,-118.5 -121.5,-118.5 -234.5,-118.5 -234.5,-118.5 -240.5,-118.5 -246.5,-112.5 -246.5,-106.5 -246.5,-106.5 -246.5,82.5 -246.5,82.5 -246.5,88.5 -240.5,94.5 -234.5,94.5"/>
<text text-anchor="middle" x="-178" y="-103.3" font-family="Times,serif" font-size="14.00">CreditCardsController</text>
<polyline fill="none" stroke="black" points="-246.5,-95.5 -109.5,-95.5 "/>
<text text-anchor="start" x="-238.5" y="-80.3" font-family="Times,serif" font-size="14.00">create</text>
<text text-anchor="start" x="-238.5" y="-65.3" font-family="Times,serif" font-size="14.00">destroy</text>
<text text-anchor="start" x="-238.5" y="-50.3" font-family="Times,serif" font-size="14.00">edit</text>
<text text-anchor="start" x="-238.5" y="-35.3" font-family="Times,serif" font-size="14.00">index</text>
<text text-anchor="start" x="-238.5" y="-20.3" font-family="Times,serif" font-size="14.00">new</text>
<text text-anchor="start" x="-238.5" y="-5.3" font-family="Times,serif" font-size="14.00">show</text>
<text text-anchor="start" x="-238.5" y="9.7" font-family="Times,serif" font-size="14.00">update</text>
<polyline fill="none" stroke="black" points="-246.5,17.5 -109.5,17.5 "/>
<polyline fill="none" stroke="black" points="-246.5,41.5 -109.5,41.5 "/>
<text text-anchor="start" x="-238.5" y="56.7" font-family="Times,serif" font-size="14.00">_layout</text>
<text text-anchor="start" x="-238.5" y="71.7" font-family="Times,serif" font-size="14.00">credit_card_params</text>
<text text-anchor="start" x="-238.5" y="86.7" font-family="Times,serif" font-size="14.00">set_credit_card</text>
</g>
<!-- ProfessionalsController -->
<g id="node3" class="node"><title>ProfessionalsController</title>
<path fill="none" stroke="black" d="M297,284.5C297,284.5 417,284.5 417,284.5 423,284.5 429,278.5 429,272.5 429,272.5 429,83.5 429,83.5 429,77.5 423,71.5 417,71.5 417,71.5 297,71.5 297,71.5 291,71.5 285,77.5 285,83.5 285,83.5 285,272.5 285,272.5 285,278.5 291,284.5 297,284.5"/>
<text text-anchor="middle" x="357" y="86.7" font-family="Times,serif" font-size="14.00">ProfessionalsController</text>
<polyline fill="none" stroke="black" points="285,94.5 429,94.5 "/>
<text text-anchor="start" x="293" y="109.7" font-family="Times,serif" font-size="14.00">create</text>
<text text-anchor="start" x="293" y="124.7" font-family="Times,serif" font-size="14.00">destroy</text>
<text text-anchor="start" x="293" y="139.7" font-family="Times,serif" font-size="14.00">edit</text>
<text text-anchor="start" x="293" y="154.7" font-family="Times,serif" font-size="14.00">index</text>
<text text-anchor="start" x="293" y="169.7" font-family="Times,serif" font-size="14.00">new</text>
<text text-anchor="start" x="293" y="184.7" font-family="Times,serif" font-size="14.00">show</text>
<text text-anchor="start" x="293" y="199.7" font-family="Times,serif" font-size="14.00">update</text>
<polyline fill="none" stroke="black" points="285,207.5 429,207.5 "/>
<polyline fill="none" stroke="black" points="285,231.5 429,231.5 "/>
<text text-anchor="start" x="293" y="246.7" font-family="Times,serif" font-size="14.00">_layout</text>
<text text-anchor="start" x="293" y="261.7" font-family="Times,serif" font-size="14.00">professional_params</text>
<text text-anchor="start" x="293" y="276.7" font-family="Times,serif" font-size="14.00">set_professional</text>
</g>
<!-- ClientsController -->
<g id="node4" class="node"><title>ClientsController</title>
<path fill="none" stroke="black" d="M-387,-0.5C-387,-0.5 -301,-0.5 -301,-0.5 -295,-0.5 -289,-6.5 -289,-12.5 -289,-12.5 -289,-201.5 -289,-201.5 -289,-207.5 -295,-213.5 -301,-213.5 -301,-213.5 -387,-213.5 -387,-213.5 -393,-213.5 -399,-207.5 -399,-201.5 -399,-201.5 -399,-12.5 -399,-12.5 -399,-6.5 -393,-0.5 -387,-0.5"/>
<text text-anchor="middle" x="-344" y="-198.3" font-family="Times,serif" font-size="14.00">ClientsController</text>
<polyline fill="none" stroke="black" points="-399,-190.5 -289,-190.5 "/>
<text text-anchor="start" x="-391" y="-175.3" font-family="Times,serif" font-size="14.00">create</text>
<text text-anchor="start" x="-391" y="-160.3" font-family="Times,serif" font-size="14.00">destroy</text>
<text text-anchor="start" x="-391" y="-145.3" font-family="Times,serif" font-size="14.00">edit</text>
<text text-anchor="start" x="-391" y="-130.3" font-family="Times,serif" font-size="14.00">index</text>
<text text-anchor="start" x="-391" y="-115.3" font-family="Times,serif" font-size="14.00">new</text>
<text text-anchor="start" x="-391" y="-100.3" font-family="Times,serif" font-size="14.00">show</text>
<text text-anchor="start" x="-391" y="-85.3" font-family="Times,serif" font-size="14.00">update</text>
<polyline fill="none" stroke="black" points="-399,-77.5 -289,-77.5 "/>
<polyline fill="none" stroke="black" points="-399,-53.5 -289,-53.5 "/>
<text text-anchor="start" x="-391" y="-38.3" font-family="Times,serif" font-size="14.00">_layout</text>
<text text-anchor="start" x="-391" y="-23.3" font-family="Times,serif" font-size="14.00">client_params</text>
<text text-anchor="start" x="-391" y="-8.3" font-family="Times,serif" font-size="14.00">set_client</text>
</g>
<!-- BankingsController -->
<g id="node5" class="node"><title>BankingsController</title>
<path fill="none" stroke="black" d="M-329.5,341.5C-329.5,341.5 -230.5,341.5 -230.5,341.5 -224.5,341.5 -218.5,335.5 -218.5,329.5 -218.5,329.5 -218.5,140.5 -218.5,140.5 -218.5,134.5 -224.5,128.5 -230.5,128.5 -230.5,128.5 -329.5,128.5 -329.5,128.5 -335.5,128.5 -341.5,134.5 -341.5,140.5 -341.5,140.5 -341.5,329.5 -341.5,329.5 -341.5,335.5 -335.5,341.5 -329.5,341.5"/>
<text text-anchor="middle" x="-280" y="143.7" font-family="Times,serif" font-size="14.00">BankingsController</text>
<polyline fill="none" stroke="black" points="-341.5,151.5 -218.5,151.5 "/>
<text text-anchor="start" x="-333.5" y="166.7" font-family="Times,serif" font-size="14.00">create</text>
<text text-anchor="start" x="-333.5" y="181.7" font-family="Times,serif" font-size="14.00">destroy</text>
<text text-anchor="start" x="-333.5" y="196.7" font-family="Times,serif" font-size="14.00">edit</text>
<text text-anchor="start" x="-333.5" y="211.7" font-family="Times,serif" font-size="14.00">index</text>
<text text-anchor="start" x="-333.5" y="226.7" font-family="Times,serif" font-size="14.00">new</text>
<text text-anchor="start" x="-333.5" y="241.7" font-family="Times,serif" font-size="14.00">show</text>
<text text-anchor="start" x="-333.5" y="256.7" font-family="Times,serif" font-size="14.00">update</text>
<polyline fill="none" stroke="black" points="-341.5,264.5 -218.5,264.5 "/>
<polyline fill="none" stroke="black" points="-341.5,288.5 -218.5,288.5 "/>
<text text-anchor="start" x="-333.5" y="303.7" font-family="Times,serif" font-size="14.00">_layout</text>
<text text-anchor="start" x="-333.5" y="318.7" font-family="Times,serif" font-size="14.00">banking_params</text>
<text text-anchor="start" x="-333.5" y="333.7" font-family="Times,serif" font-size="14.00">set_banking</text>
</g>
<!-- MainClientsController -->
<g id="node6" class="node"><title>MainClientsController</title>
<path fill="none" stroke="black" d="M-64,151.5C-64,151.5 52,151.5 52,151.5 58,151.5 64,145.5 64,139.5 64,139.5 64,-109.5 64,-109.5 64,-115.5 58,-121.5 52,-121.5 52,-121.5 -64,-121.5 -64,-121.5 -70,-121.5 -76,-115.5 -76,-109.5 -76,-109.5 -76,139.5 -76,139.5 -76,145.5 -70,151.5 -64,151.5"/>
<text text-anchor="middle" x="-6" y="-106.3" font-family="Times,serif" font-size="14.00">MainClientsController</text>
<polyline fill="none" stroke="black" points="-76,-98.5 64,-98.5 "/>
<text text-anchor="start" x="-68" y="-83.3" font-family="Times,serif" font-size="14.00">add_product_car</text>
<text text-anchor="start" x="-68" y="-68.3" font-family="Times,serif" font-size="14.00">create</text>
<text text-anchor="start" x="-68" y="-53.3" font-family="Times,serif" font-size="14.00">destroy</text>
<text text-anchor="start" x="-68" y="-38.3" font-family="Times,serif" font-size="14.00">edit</text>
<text text-anchor="start" x="-68" y="-23.3" font-family="Times,serif" font-size="14.00">index</text>
<text text-anchor="start" x="-68" y="-8.3" font-family="Times,serif" font-size="14.00">new</text>
<text text-anchor="start" x="-68" y="6.7" font-family="Times,serif" font-size="14.00">shoppingcart</text>
<text text-anchor="start" x="-68" y="21.7" font-family="Times,serif" font-size="14.00">shoppingcart=</text>
<text text-anchor="start" x="-68" y="36.7" font-family="Times,serif" font-size="14.00">show</text>
<text text-anchor="start" x="-68" y="51.7" font-family="Times,serif" font-size="14.00">update</text>
<polyline fill="none" stroke="black" points="-76,59.5 64,59.5 "/>
<polyline fill="none" stroke="black" points="-76,83.5 64,83.5 "/>
<text text-anchor="start" x="-68" y="98.7" font-family="Times,serif" font-size="14.00">_layout</text>
<text text-anchor="start" x="-68" y="113.7" font-family="Times,serif" font-size="14.00">load_products</text>
<text text-anchor="start" x="-68" y="128.7" font-family="Times,serif" font-size="14.00">main_client_params</text>
<text text-anchor="start" x="-68" y="143.7" font-family="Times,serif" font-size="14.00">set_main_client</text>
</g>
<!-- ShoppingCartsController -->
<g id="node7" class="node"><title>ShoppingCartsController</title>
<path fill="none" stroke="black" d="M107,94.5C107,94.5 235,94.5 235,94.5 241,94.5 247,88.5 247,82.5 247,82.5 247,-136.5 247,-136.5 247,-142.5 241,-148.5 235,-148.5 235,-148.5 107,-148.5 107,-148.5 101,-148.5 95,-142.5 95,-136.5 95,-136.5 95,82.5 95,82.5 95,88.5 101,94.5 107,94.5"/>
<text text-anchor="middle" x="171" y="-133.3" font-family="Times,serif" font-size="14.00">ShoppingCartsController</text>
<polyline fill="none" stroke="black" points="95,-125.5 247,-125.5 "/>
<text text-anchor="start" x="103" y="-110.3" font-family="Times,serif" font-size="14.00">buy</text>
<text text-anchor="start" x="103" y="-95.3" font-family="Times,serif" font-size="14.00">create</text>
<text text-anchor="start" x="103" y="-80.3" font-family="Times,serif" font-size="14.00">destroy</text>
<text text-anchor="start" x="103" y="-65.3" font-family="Times,serif" font-size="14.00">edit</text>
<text text-anchor="start" x="103" y="-50.3" font-family="Times,serif" font-size="14.00">index</text>
<text text-anchor="start" x="103" y="-35.3" font-family="Times,serif" font-size="14.00">new</text>
<text text-anchor="start" x="103" y="-20.3" font-family="Times,serif" font-size="14.00">show</text>
<text text-anchor="start" x="103" y="-5.3" font-family="Times,serif" font-size="14.00">update</text>
<polyline fill="none" stroke="black" points="95,2.5 247,2.5 "/>
<polyline fill="none" stroke="black" points="95,26.5 247,26.5 "/>
<text text-anchor="start" x="103" y="41.7" font-family="Times,serif" font-size="14.00">_layout</text>
<text text-anchor="start" x="103" y="56.7" font-family="Times,serif" font-size="14.00">set_new_product_cart</text>
<text text-anchor="start" x="103" y="71.7" font-family="Times,serif" font-size="14.00">set_shopping_cart</text>
<text text-anchor="start" x="103" y="86.7" font-family="Times,serif" font-size="14.00">shopping_cart_params</text>
</g>
<!-- CategoryProductsController -->
<g id="node8" class="node"><title>CategoryProductsController</title>
<path fill="none" stroke="black" d="M-102.5,-152.5C-102.5,-152.5 42.5,-152.5 42.5,-152.5 48.5,-152.5 54.5,-158.5 54.5,-164.5 54.5,-164.5 54.5,-353.5 54.5,-353.5 54.5,-359.5 48.5,-365.5 42.5,-365.5 42.5,-365.5 -102.5,-365.5 -102.5,-365.5 -108.5,-365.5 -114.5,-359.5 -114.5,-353.5 -114.5,-353.5 -114.5,-164.5 -114.5,-164.5 -114.5,-158.5 -108.5,-152.5 -102.5,-152.5"/>
<text text-anchor="middle" x="-30" y="-350.3" font-family="Times,serif" font-size="14.00">CategoryProductsController</text>
<polyline fill="none" stroke="black" points="-114.5,-342.5 54.5,-342.5 "/>
<text text-anchor="start" x="-106.5" y="-327.3" font-family="Times,serif" font-size="14.00">create</text>
<text text-anchor="start" x="-106.5" y="-312.3" font-family="Times,serif" font-size="14.00">destroy</text>
<text text-anchor="start" x="-106.5" y="-297.3" font-family="Times,serif" font-size="14.00">edit</text>
<text text-anchor="start" x="-106.5" y="-282.3" font-family="Times,serif" font-size="14.00">index</text>
<text text-anchor="start" x="-106.5" y="-267.3" font-family="Times,serif" font-size="14.00">new</text>
<text text-anchor="start" x="-106.5" y="-252.3" font-family="Times,serif" font-size="14.00">show</text>
<text text-anchor="start" x="-106.5" y="-237.3" font-family="Times,serif" font-size="14.00">update</text>
<polyline fill="none" stroke="black" points="-114.5,-229.5 54.5,-229.5 "/>
<polyline fill="none" stroke="black" points="-114.5,-205.5 54.5,-205.5 "/>
<text text-anchor="start" x="-106.5" y="-190.3" font-family="Times,serif" font-size="14.00">_layout</text>
<text text-anchor="start" x="-106.5" y="-175.3" font-family="Times,serif" font-size="14.00">category_product_params</text>
<text text-anchor="start" x="-106.5" y="-160.3" font-family="Times,serif" font-size="14.00">set_category_product</text>
</g>
<!-- ProductsController -->
<g id="node9" class="node"><title>ProductsController</title>
<path fill="none" stroke="black" d="M202.5,-191C202.5,-191 297.5,-191 297.5,-191 303.5,-191 309.5,-197 309.5,-203 309.5,-203 309.5,-437 309.5,-437 309.5,-443 303.5,-449 297.5,-449 297.5,-449 202.5,-449 202.5,-449 196.5,-449 190.5,-443 190.5,-437 190.5,-437 190.5,-203 190.5,-203 190.5,-197 196.5,-191 202.5,-191"/>
<text text-anchor="middle" x="250" y="-433.8" font-family="Times,serif" font-size="14.00">ProductsController</text>
<polyline fill="none" stroke="black" points="190.5,-426 309.5,-426 "/>
<text text-anchor="start" x="198.5" y="-410.8" font-family="Times,serif" font-size="14.00">buy</text>
<text text-anchor="start" x="198.5" y="-395.8" font-family="Times,serif" font-size="14.00">create</text>
<text text-anchor="start" x="198.5" y="-380.8" font-family="Times,serif" font-size="14.00">destroy</text>
<text text-anchor="start" x="198.5" y="-365.8" font-family="Times,serif" font-size="14.00">edit</text>
<text text-anchor="start" x="198.5" y="-350.8" font-family="Times,serif" font-size="14.00">index</text>
<text text-anchor="start" x="198.5" y="-335.8" font-family="Times,serif" font-size="14.00">new</text>
<text text-anchor="start" x="198.5" y="-320.8" font-family="Times,serif" font-size="14.00">show</text>
<text text-anchor="start" x="198.5" y="-305.8" font-family="Times,serif" font-size="14.00">update</text>
<polyline fill="none" stroke="black" points="190.5,-298 309.5,-298 "/>
<polyline fill="none" stroke="black" points="190.5,-274 309.5,-274 "/>
<text text-anchor="start" x="198.5" y="-258.8" font-family="Times,serif" font-size="14.00">_layout</text>
<text text-anchor="start" x="198.5" y="-243.8" font-family="Times,serif" font-size="14.00">product_params</text>
<text text-anchor="start" x="198.5" y="-228.8" font-family="Times,serif" font-size="14.00">set_consumer</text>
<text text-anchor="start" x="198.5" y="-213.8" font-family="Times,serif" font-size="14.00">set_product</text>
<text text-anchor="start" x="198.5" y="-198.8" font-family="Times,serif" font-size="14.00">set_professional</text>
</g>
<!-- PicturesController -->
<g id="node10" class="node"><title>PicturesController</title>
<path fill="none" stroke="black" d="M-425,-437.5C-425,-437.5 -333,-437.5 -333,-437.5 -327,-437.5 -321,-443.5 -321,-449.5 -321,-449.5 -321,-638.5 -321,-638.5 -321,-644.5 -327,-650.5 -333,-650.5 -333,-650.5 -425,-650.5 -425,-650.5 -431,-650.5 -437,-644.5 -437,-638.5 -437,-638.5 -437,-449.5 -437,-449.5 -437,-443.5 -431,-437.5 -425,-437.5"/>
<text text-anchor="middle" x="-379" y="-635.3" font-family="Times,serif" font-size="14.00">PicturesController</text>
<polyline fill="none" stroke="black" points="-437,-627.5 -321,-627.5 "/>
<text text-anchor="start" x="-429" y="-612.3" font-family="Times,serif" font-size="14.00">create</text>
<text text-anchor="start" x="-429" y="-597.3" font-family="Times,serif" font-size="14.00">destroy</text>
<text text-anchor="start" x="-429" y="-582.3" font-family="Times,serif" font-size="14.00">edit</text>
<text text-anchor="start" x="-429" y="-567.3" font-family="Times,serif" font-size="14.00">index</text>
<text text-anchor="start" x="-429" y="-552.3" font-family="Times,serif" font-size="14.00">new</text>
<text text-anchor="start" x="-429" y="-537.3" font-family="Times,serif" font-size="14.00">show</text>
<text text-anchor="start" x="-429" y="-522.3" font-family="Times,serif" font-size="14.00">update</text>
<polyline fill="none" stroke="black" points="-437,-514.5 -321,-514.5 "/>
<polyline fill="none" stroke="black" points="-437,-490.5 -321,-490.5 "/>
<text text-anchor="start" x="-429" y="-475.3" font-family="Times,serif" font-size="14.00">_layout</text>
<text text-anchor="start" x="-429" y="-460.3" font-family="Times,serif" font-size="14.00">picture_params</text>
<text text-anchor="start" x="-429" y="-445.3" font-family="Times,serif" font-size="14.00">set_picture</text>
</g>
<!-- Clients::RegistrationsController -->
<g id="node11" class="node"><title>Clients::RegistrationsController</title>
<path fill="none" stroke="black" d="M278,436C278,436 460,436 460,436 466,436 472,430 472,424 472,424 472,340 472,340 472,334 466,328 460,328 460,328 278,328 278,328 272,328 266,334 266,340 266,340 266,424 266,424 266,430 272,436 278,436"/>
<text text-anchor="middle" x="369" y="343.2" font-family="Times,serif" font-size="14.00">Clients::RegistrationsController</text>
<polyline fill="none" stroke="black" points="266,351 472,351 "/>
<text text-anchor="start" x="274" y="366.2" font-family="Times,serif" font-size="14.00">configure_account_update_params</text>
<text text-anchor="start" x="274" y="381.2" font-family="Times,serif" font-size="14.00">configure_sign_up_params</text>
<polyline fill="none" stroke="black" points="266,389 472,389 "/>
<polyline fill="none" stroke="black" points="266,413 472,413 "/>
<text text-anchor="start" x="274" y="428.2" font-family="Times,serif" font-size="14.00">_layout</text>
</g>
<!-- TelephonesController -->
<g id="node12" class="node"><title>TelephonesController</title>
<path fill="none" stroke="black" d="M107,341.5C107,341.5 217,341.5 217,341.5 223,341.5 229,335.5 229,329.5 229,329.5 229,140.5 229,140.5 229,134.5 223,128.5 217,128.5 217,128.5 107,128.5 107,128.5 101,128.5 95,134.5 95,140.5 95,140.5 95,329.5 95,329.5 95,335.5 101,341.5 107,341.5"/>
<text text-anchor="middle" x="162" y="143.7" font-family="Times,serif" font-size="14.00">TelephonesController</text>
<polyline fill="none" stroke="black" points="95,151.5 229,151.5 "/>
<text text-anchor="start" x="103" y="166.7" font-family="Times,serif" font-size="14.00">create</text>
<text text-anchor="start" x="103" y="181.7" font-family="Times,serif" font-size="14.00">destroy</text>
<text text-anchor="start" x="103" y="196.7" font-family="Times,serif" font-size="14.00">edit</text>
<text text-anchor="start" x="103" y="211.7" font-family="Times,serif" font-size="14.00">index</text>
<text text-anchor="start" x="103" y="226.7" font-family="Times,serif" font-size="14.00">new</text>
<text text-anchor="start" x="103" y="241.7" font-family="Times,serif" font-size="14.00">show</text>
<text text-anchor="start" x="103" y="256.7" font-family="Times,serif" font-size="14.00">update</text>
<polyline fill="none" stroke="black" points="95,264.5 229,264.5 "/>
<polyline fill="none" stroke="black" points="95,288.5 229,288.5 "/>
<text text-anchor="start" x="103" y="303.7" font-family="Times,serif" font-size="14.00">_layout</text>
<text text-anchor="start" x="103" y="318.7" font-family="Times,serif" font-size="14.00">set_telephone</text>
<text text-anchor="start" x="103" y="333.7" font-family="Times,serif" font-size="14.00">telephone_params</text>
</g>
<!-- TransactionsController -->
<g id="node13" class="node"><title>TransactionsController</title>
<path fill="none" stroke="black" d="M-272.5,-285.5C-272.5,-285.5 -155.5,-285.5 -155.5,-285.5 -149.5,-285.5 -143.5,-291.5 -143.5,-297.5 -143.5,-297.5 -143.5,-486.5 -143.5,-486.5 -143.5,-492.5 -149.5,-498.5 -155.5,-498.5 -155.5,-498.5 -272.5,-498.5 -272.5,-498.5 -278.5,-498.5 -284.5,-492.5 -284.5,-486.5 -284.5,-486.5 -284.5,-297.5 -284.5,-297.5 -284.5,-291.5 -278.5,-285.5 -272.5,-285.5"/>
<text text-anchor="middle" x="-214" y="-483.3" font-family="Times,serif" font-size="14.00">TransactionsController</text>
<polyline fill="none" stroke="black" points="-284.5,-475.5 -143.5,-475.5 "/>
<text text-anchor="start" x="-276.5" y="-460.3" font-family="Times,serif" font-size="14.00">create</text>
<text text-anchor="start" x="-276.5" y="-445.3" font-family="Times,serif" font-size="14.00">destroy</text>
<text text-anchor="start" x="-276.5" y="-430.3" font-family="Times,serif" font-size="14.00">edit</text>
<text text-anchor="start" x="-276.5" y="-415.3" font-family="Times,serif" font-size="14.00">index</text>
<text text-anchor="start" x="-276.5" y="-400.3" font-family="Times,serif" font-size="14.00">new</text>
<text text-anchor="start" x="-276.5" y="-385.3" font-family="Times,serif" font-size="14.00">show</text>
<text text-anchor="start" x="-276.5" y="-370.3" font-family="Times,serif" font-size="14.00">update</text>
<polyline fill="none" stroke="black" points="-284.5,-362.5 -143.5,-362.5 "/>
<polyline fill="none" stroke="black" points="-284.5,-338.5 -143.5,-338.5 "/>
<text text-anchor="start" x="-276.5" y="-323.3" font-family="Times,serif" font-size="14.00">_layout</text>
<text text-anchor="start" x="-276.5" y="-308.3" font-family="Times,serif" font-size="14.00">set_transaction</text>
<text text-anchor="start" x="-276.5" y="-293.3" font-family="Times,serif" font-size="14.00">transaction_params</text>
</g>
<!-- WelcomeController -->
<g id="node14" class="node"><title>WelcomeController</title>
<path fill="none" stroke="black" d="M-425.5,-304.5C-425.5,-304.5 -324.5,-304.5 -324.5,-304.5 -318.5,-304.5 -312.5,-310.5 -312.5,-316.5 -312.5,-316.5 -312.5,-385.5 -312.5,-385.5 -312.5,-391.5 -318.5,-397.5 -324.5,-397.5 -324.5,-397.5 -425.5,-397.5 -425.5,-397.5 -431.5,-397.5 -437.5,-391.5 -437.5,-385.5 -437.5,-385.5 -437.5,-316.5 -437.5,-316.5 -437.5,-310.5 -431.5,-304.5 -425.5,-304.5"/>
<text text-anchor="middle" x="-375" y="-382.3" font-family="Times,serif" font-size="14.00">WelcomeController</text>
<polyline fill="none" stroke="black" points="-437.5,-374.5 -312.5,-374.5 "/>
<text text-anchor="start" x="-429.5" y="-359.3" font-family="Times,serif" font-size="14.00">index</text>
<polyline fill="none" stroke="black" points="-437.5,-351.5 -312.5,-351.5 "/>
<polyline fill="none" stroke="black" points="-437.5,-327.5 -312.5,-327.5 "/>
<text text-anchor="start" x="-429.5" y="-312.3" font-family="Times,serif" font-size="14.00">_layout</text>
</g>
<!-- ConsumersController -->
<g id="node15" class="node"><title>ConsumersController</title>
<path fill="none" stroke="black" d="M354,37.5C354,37.5 464,37.5 464,37.5 470,37.5 476,31.5 476,25.5 476,25.5 476,-163.5 476,-163.5 476,-169.5 470,-175.5 464,-175.5 464,-175.5 354,-175.5 354,-175.5 348,-175.5 342,-169.5 342,-163.5 342,-163.5 342,25.5 342,25.5 342,31.5 348,37.5 354,37.5"/>
<text text-anchor="middle" x="409" y="-160.3" font-family="Times,serif" font-size="14.00">ConsumersController</text>
<polyline fill="none" stroke="black" points="342,-152.5 476,-152.5 "/>
<text text-anchor="start" x="350" y="-137.3" font-family="Times,serif" font-size="14.00">create</text>
<text text-anchor="start" x="350" y="-122.3" font-family="Times,serif" font-size="14.00">destroy</text>
<text text-anchor="start" x="350" y="-107.3" font-family="Times,serif" font-size="14.00">edit</text>
<text text-anchor="start" x="350" y="-92.3" font-family="Times,serif" font-size="14.00">index</text>
<text text-anchor="start" x="350" y="-77.3" font-family="Times,serif" font-size="14.00">new</text>
<text text-anchor="start" x="350" y="-62.3" font-family="Times,serif" font-size="14.00">show</text>
<text text-anchor="start" x="350" y="-47.3" font-family="Times,serif" font-size="14.00">update</text>
<polyline fill="none" stroke="black" points="342,-39.5 476,-39.5 "/>
<polyline fill="none" stroke="black" points="342,-15.5 476,-15.5 "/>
<text text-anchor="start" x="350" y="-0.3" font-family="Times,serif" font-size="14.00">_layout</text>
<text text-anchor="start" x="350" y="14.7" font-family="Times,serif" font-size="14.00">consumer_params</text>
<text text-anchor="start" x="350" y="29.7" font-family="Times,serif" font-size="14.00">set_consumer</text>
</g>
<!-- KeywordsController -->
<g id="node16" class="node"><title>KeywordsController</title>
<path fill="none" stroke="black" d="M354,-209.5C354,-209.5 458,-209.5 458,-209.5 464,-209.5 470,-215.5 470,-221.5 470,-221.5 470,-410.5 470,-410.5 470,-416.5 464,-422.5 458,-422.5 458,-422.5 354,-422.5 354,-422.5 348,-422.5 342,-416.5 342,-410.5 342,-410.5 342,-221.5 342,-221.5 342,-215.5 348,-209.5 354,-209.5"/>
<text text-anchor="middle" x="406" y="-407.3" font-family="Times,serif" font-size="14.00">KeywordsController</text>
<polyline fill="none" stroke="black" points="342,-399.5 470,-399.5 "/>
<text text-anchor="start" x="350" y="-384.3" font-family="Times,serif" font-size="14.00">create</text>
<text text-anchor="start" x="350" y="-369.3" font-family="Times,serif" font-size="14.00">destroy</text>
<text text-anchor="start" x="350" y="-354.3" font-family="Times,serif" font-size="14.00">edit</text>
<text text-anchor="start" x="350" y="-339.3" font-family="Times,serif" font-size="14.00">index</text>
<text text-anchor="start" x="350" y="-324.3" font-family="Times,serif" font-size="14.00">new</text>
<text text-anchor="start" x="350" y="-309.3" font-family="Times,serif" font-size="14.00">show</text>
<text text-anchor="start" x="350" y="-294.3" font-family="Times,serif" font-size="14.00">update</text>
<polyline fill="none" stroke="black" points="342,-286.5 470,-286.5 "/>
<polyline fill="none" stroke="black" points="342,-262.5 470,-262.5 "/>
<text text-anchor="start" x="350" y="-247.3" font-family="Times,serif" font-size="14.00">_layout</text>
<text text-anchor="start" x="350" y="-232.3" font-family="Times,serif" font-size="14.00">keyword_params</text>
<text text-anchor="start" x="350" y="-217.3" font-family="Times,serif" font-size="14.00">set_keyword</text>
</g>
<!-- ApplicationController -->
<g id="node17" class="node"><title>ApplicationController</title>
<path fill="none" stroke="black" d="M468,-456.5C468,-456.5 584,-456.5 584,-456.5 590,-456.5 596,-462.5 596,-468.5 596,-468.5 596,-537.5 596,-537.5 596,-543.5 590,-549.5 584,-549.5 584,-549.5 468,-549.5 468,-549.5 462,-549.5 456,-543.5 456,-537.5 456,-537.5 456,-468.5 456,-468.5 456,-462.5 462,-456.5 468,-456.5"/>
<text text-anchor="middle" x="526" y="-534.3" font-family="Times,serif" font-size="14.00">ApplicationController</text>
<polyline fill="none" stroke="black" points="456,-526.5 596,-526.5 "/>
<text text-anchor="start" x="464" y="-511.3" font-family="Times,serif" font-size="14.00">after_sign_in_path_for</text>
<polyline fill="none" stroke="black" points="456,-503.5 596,-503.5 "/>
<polyline fill="none" stroke="black" points="456,-479.5 596,-479.5 "/>
<text text-anchor="start" x="464" y="-464.3" font-family="Times,serif" font-size="14.00">_layout</text>
</g>
<!-- AddressesController -->
<g id="node18" class="node"><title>AddressesController</title>
<path fill="none" stroke="black" d="M-178,398.5C-178,398.5 -74,398.5 -74,398.5 -68,398.5 -62,392.5 -62,386.5 -62,386.5 -62,197.5 -62,197.5 -62,191.5 -68,185.5 -74,185.5 -74,185.5 -178,185.5 -178,185.5 -184,185.5 -190,191.5 -190,197.5 -190,197.5 -190,386.5 -190,386.5 -190,392.5 -184,398.5 -178,398.5"/>
<text text-anchor="middle" x="-126" y="200.7" font-family="Times,serif" font-size="14.00">AddressesController</text>
<polyline fill="none" stroke="black" points="-190,208.5 -62,208.5 "/>
<text text-anchor="start" x="-182" y="223.7" font-family="Times,serif" font-size="14.00">create</text>
<text text-anchor="start" x="-182" y="238.7" font-family="Times,serif" font-size="14.00">destroy</text>
<text text-anchor="start" x="-182" y="253.7" font-family="Times,serif" font-size="14.00">edit</text>
<text text-anchor="start" x="-182" y="268.7" font-family="Times,serif" font-size="14.00">index</text>
<text text-anchor="start" x="-182" y="283.7" font-family="Times,serif" font-size="14.00">new</text>
<text text-anchor="start" x="-182" y="298.7" font-family="Times,serif" font-size="14.00">show</text>
<text text-anchor="start" x="-182" y="313.7" font-family="Times,serif" font-size="14.00">update</text>
<polyline fill="none" stroke="black" points="-190,321.5 -62,321.5 "/>
<polyline fill="none" stroke="black" points="-190,345.5 -62,345.5 "/>
<text text-anchor="start" x="-182" y="360.7" font-family="Times,serif" font-size="14.00">_layout</text>
<text text-anchor="start" x="-182" y="375.7" font-family="Times,serif" font-size="14.00">address_params</text>
<text text-anchor="start" x="-182" y="390.7" font-family="Times,serif" font-size="14.00">set_address</text>
</g>
<!-- CartItemsController -->
<g id="node19" class="node"><title>CartItemsController</title>
<path fill="none" stroke="black" d="M31,-399.5C31,-399.5 133,-399.5 133,-399.5 139,-399.5 145,-405.5 145,-411.5 145,-411.5 145,-600.5 145,-600.5 145,-606.5 139,-612.5 133,-612.5 133,-612.5 31,-612.5 31,-612.5 25,-612.5 19,-606.5 19,-600.5 19,-600.5 19,-411.5 19,-411.5 19,-405.5 25,-399.5 31,-399.5"/>
<text text-anchor="middle" x="82" y="-597.3" font-family="Times,serif" font-size="14.00">CartItemsController</text>
<polyline fill="none" stroke="black" points="19,-589.5 145,-589.5 "/>
<text text-anchor="start" x="27" y="-574.3" font-family="Times,serif" font-size="14.00">create</text>
<text text-anchor="start" x="27" y="-559.3" font-family="Times,serif" font-size="14.00">destroy</text>
<text text-anchor="start" x="27" y="-544.3" font-family="Times,serif" font-size="14.00">edit</text>
<text text-anchor="start" x="27" y="-529.3" font-family="Times,serif" font-size="14.00">index</text>
<text text-anchor="start" x="27" y="-514.3" font-family="Times,serif" font-size="14.00">new</text>
<text text-anchor="start" x="27" y="-499.3" font-family="Times,serif" font-size="14.00">show</text>
<text text-anchor="start" x="27" y="-484.3" font-family="Times,serif" font-size="14.00">update</text>
<polyline fill="none" stroke="black" points="19,-476.5 145,-476.5 "/>
<polyline fill="none" stroke="black" points="19,-452.5 145,-452.5 "/>
<text text-anchor="start" x="27" y="-437.3" font-family="Times,serif" font-size="14.00">_layout</text>
<text text-anchor="start" x="27" y="-422.3" font-family="Times,serif" font-size="14.00">cart_item_params</text>
<text text-anchor="start" x="27" y="-407.3" font-family="Times,serif" font-size="14.00">set_cart_item</text>
</g>
</g>
</svg>
