<?xml version="1.0" encoding="UTF-8" standalone="no"?>
<!DOCTYPE svg PUBLIC "-//W3C//DTD SVG 1.1//EN"
 "http://www.w3.org/Graphics/SVG/1.1/DTD/svg11.dtd">
<!-- Generated by graphviz version 2.38.0 (20140413.2041)
 -->
<!-- Title: controllers_diagram Pages: 1 -->
<svg width="917pt" height="1077pt"
 viewBox="0.00 0.00 917.00 1077.00" xmlns="http://www.w3.org/2000/svg" xmlns:xlink="http://www.w3.org/1999/xlink">
<g id="graph0" class="graph" transform="scale(1 1) rotate(0) translate(441 617)">
<title>controllers_diagram</title>
<polygon fill="none" stroke="none" points="-441,460 -441,-617 476,-617 476,460 -441,460"/>
<!-- _diagram_info -->
<g id="node1" class="node"><title>_diagram_info</title>
<text text-anchor="start" x="8" y="392.4" font-family="Times,serif" font-size="13.00">Controllers diagram</text>
<text text-anchor="start" x="8" y="406.4" font-family="Times,serif" font-size="13.00">Date: Oct 14 2016 &#45; 18:28</text>
<text text-anchor="start" x="8" y="420.4" font-family="Times,serif" font-size="13.00">Migration version: 20161013203116</text>
<text text-anchor="start" x="8" y="434.4" font-family="Times,serif" font-size="13.00">Generated by RailRoady 1.5.2</text>
<text text-anchor="start" x="8" y="448.4" font-family="Times,serif" font-size="13.00">http://railroady.prestonlee.com</text>
</g>
<!-- CreditCardsController -->
<g id="node2" class="node"><title>CreditCardsController</title>
<path fill="none" stroke="black" d="M-234.5,94.5C-234.5,94.5 -121.5,94.5 -121.5,94.5 -115.5,94.5 -109.5,88.5 -109.5,82.5 -109.5,82.5 -109.5,-106.5 -109.5,-106.5 -109.5,-112.5 -115.5,-118.5 -121.5,-118.5 -121.5,-118.5 -234.5,-118.5 -234.5,-118.5 -240.5,-118.5 -246.5,-112.5 -246.5,-106.5 -246.5,-106.5 -246.5,82.5 -246.5,82.5 -246.5,88.5 -240.5,94.5 -234.5,94.5"/>
<text text-anchor="middle" x="-178" y="-103.3" font-family="Times,serif" font-size="14.00">CreditCardsController</text>
<polyline fill="none" stroke="black" points="-246.5,-95.5 -109.5,-95.5 "/>
<text text-anchor="start" x="-238.5" y="-80.3" font-family="Times,serif" font-size="14.00">create</text>
<text text-anchor="start" x="-238.5" y="-65.3" font-family="Times,serif" font-size="14.00">destroy</text>
<text text-anchor="start" x="-238.5" y="-50.3" font-family="Times,serif" font-size="14.00">edit</text>
<text text-anchor="start" x="-238.5" y="-35.3" font-family="Times,serif" font-size="14.00">index</text>
<text text-anchor="start" x="-238.5" y="-20.3" font-family="Times,serif" font-size="14.00">new</text>
<text text-anchor="start" x="-238.5" y="-5.3" font-family="Times,serif" font-size="14.00">show</text>
<text text-anchor="start" x="-238.5" y="9.7" font-family="Times,serif" font-size="14.00">update</text>
<polyline fill="none" stroke="black" points="-246.5,17.5 -109.5,17.5 "/>
<polyline fill="none" stroke="black" points="-246.5,41.5 -109.5,41.5 "/>
<text text-anchor="start" x="-238.5" y="56.7" font-family="Times,serif" font-size="14.00">_layout</text>
<text text-anchor="start" x="-238.5" y="71.7" font-family="Times,serif" font-size="14.00">credit_card_params</text>
<text text-anchor="start" x="-238.5" y="86.7" font-family="Times,serif" font-size="14.00">set_credit_card</text>
</g>
<!-- ProfessionalsController -->
<g id="node3" class="node"><title>ProfessionalsController</title>
<path fill="none" stroke="black" d="M297,284.5C297,284.5 417,284.5 417,284.5 423,284.5 429,278.5 429,272.5 429,272.5 429,83.5 429,83.5 429,77.5 423,71.5 417,71.5 417,71.5 297,71.5 297,71.5 291,71.5 285,77.5 285,83.5 285,83.5 285,272.5 285,272.5 285,278.5 291,284.5 297,284.5"/>
<text text-anchor="middle" x="357" y="86.7" font-family="Times,serif" font-size="14.00">ProfessionalsController</text>
<polyline fill="none" stroke="black" points="285,94.5 429,94.5 "/>
<text text-anchor="start" x="293" y="109.7" font-family="Times,serif" font-size="14.00">create</text>
<text text-anchor="start" x="293" y="124.7" font-family="Times,serif" font-size="14.00">destroy</text>
<text text-anchor="start" x="293" y="139.7" font-family="Times,serif" font-size="14.00">edit</text>
<text text-anchor="start" x="293" y="154.7" font-family="Times,serif" font-size="14.00">index</text>
<text text-anchor="start" x="293" y="169.7" font-family="Times,serif" font-size="14.00">new</text>
<text text-anchor="start" x="293" y="184.7" font-family="Times,serif" font-size="14.00">show</text>
<text text-anchor="start" x="293" y="199.7" font-family="Times,serif" font-size="14.00">update</text>
<polyline fill="none" stroke="black" points="285,207.5 429,207.5 "/>
<polyline fill="none" stroke="black" points="285,231.5 429,231.5 "/>
<text text-anchor="start" x="293" y="246.7" font-family="Times,serif" font-size="14.00">_layout</text>
<text text-anchor="start" x="293" y="261.7" font-family="Times,serif" font-size="14.00">professional_params</text>
<text text-anchor="start" x="293" y="276.7" font-family="Times,serif" font-size="14.00">set_professional</text>
</g>
<!-- ClientsController -->
<g id="node4" class="node"><title>ClientsController</title>
<path fill="none" stroke="black" d="M-387,-0.5C-387,-0.5 -301,-0.5 -301,-0.5 -295,-0.5 -289,-6.5 -289,-12.5 -289,-12.5 -289,-201.5 -289,-201.5 -289,-207.5 -295,-213.5 -301,-213.5 -301,-213.5 -387,-213.5 -387,-213.5 -393,-213.5 -399,-207.5 -399,-201.5 -399,-201.5 -399,-12.5 -399,-12.5 -399,-6.5 -393,-0.5 -387,-0.5"/>
<text text-anchor="middle" x="-344" y="-198.3" font-family="Times,serif" font-size="14.00">ClientsController</text>
<polyline fill="none" stroke="black" points="-399,-190.5 -289,-190.5 "/>
<text text-anchor="start" x="-391" y="-175.3" font-family="Times,serif" font-size="14.00">create</text>
<text text-anchor="start" x="-391" y="-160.3" font-family="Times,serif" font-size="14.00">destroy</text>
<text text-anchor="start" x="-391" y="-145.3" font-family="Times,serif" font-size="14.00">edit</text>
<text text-anchor="start" x="-391" y="-130.3" font-family="Times,serif" font-size="14.00">index</text>
<text text-anchor="start" x="-391" y="-115.3" font-family="Times,serif" font-size="14.00">new</text>
<text text-anchor="start" x="-391" y="-100.3" font-family="Times,serif" font-size="14.00">show</text>
<text text-anchor="start" x="-391" y="-85.3" font-family="Times,serif" font-size="14.00">update</text>
<polyline fill="none" stroke="black" points="-399,-77.5 -289,-77.5 "/>
<polyline fill="none" stroke="black" points="-399,-53.5 -289,-53.5 "/>
<text text-anchor="start" x="-391" y="-38.3" font-family="Times,serif" font-size="14.00">_layout</text>
<text text-anchor="start" x="-391" y="-23.3" font-family="Times,serif" font-size="14.00">client_params</text>
<text text-anchor="start" x="-391" y="-8.3" font-family="Times,serif" font-size="14.00">set_client</text>
</g>
<!-- BankingsController -->
<g id="node5" class="node"><title>BankingsController</title>
<path fill="none" stroke="black" d="M-253.5,-267C-253.5,-267 -154.5,-267 -154.5,-267 -148.5,-267 -142.5,-273 -142.5,-279 -142.5,-279 -142.5,-483 -142.5,-483 -142.5,-489 -148.5,-495 -154.5,-495 -154.5,-495 -253.5,-495 -253.5,-495 -259.5,-495 -265.5,-489 -265.5,-483 -265.5,-483 -265.5,-279 -265.5,-279 -265.5,-273 -259.5,-267 -253.5,-267"/>
<text text-anchor="middle" x="-204" y="-479.8" font-family="Times,serif" font-size="14.00">BankingsController</text>
<polyline fill="none" stroke="black" points="-265.5,-472 -142.5,-472 "/>
<text text-anchor="start" x="-257.5" y="-456.8" font-family="Times,serif" font-size="14.00">create</text>
<text text-anchor="start" x="-257.5" y="-441.8" font-family="Times,serif" font-size="14.00">destroy</text>
<text text-anchor="start" x="-257.5" y="-426.8" font-family="Times,serif" font-size="14.00">edit</text>
<text text-anchor="start" x="-257.5" y="-411.8" font-family="Times,serif" font-size="14.00">index</text>
<text text-anchor="start" x="-257.5" y="-396.8" font-family="Times,serif" font-size="14.00">new</text>
<text text-anchor="start" x="-257.5" y="-381.8" font-family="Times,serif" font-size="14.00">show</text>
<text text-anchor="start" x="-257.5" y="-366.8" font-family="Times,serif" font-size="14.00">update</text>
<polyline fill="none" stroke="black" points="-265.5,-359 -142.5,-359 "/>
<polyline fill="none" stroke="black" points="-265.5,-335 -142.5,-335 "/>
<text text-anchor="start" x="-257.5" y="-319.8" font-family="Times,serif" font-size="14.00">_layout</text>
<text text-anchor="start" x="-257.5" y="-304.8" font-family="Times,serif" font-size="14.00">banking_params</text>
<text text-anchor="start" x="-257.5" y="-289.8" font-family="Times,serif" font-size="14.00">set_banking</text>
<text text-anchor="start" x="-257.5" y="-274.8" font-family="Times,serif" font-size="14.00">set_professional</text>
</g>
<!-- MainClientsController -->
<g id="node6" class="node"><title>MainClientsController</title>
<path fill="none" stroke="black" d="M-64,151.5C-64,151.5 52,151.5 52,151.5 58,151.5 64,145.5 64,139.5 64,139.5 64,-109.5 64,-109.5 64,-115.5 58,-121.5 52,-121.5 52,-121.5 -64,-121.5 -64,-121.5 -70,-121.5 -76,-115.5 -76,-109.5 -76,-109.5 -76,139.5 -76,139.5 -76,145.5 -70,151.5 -64,151.5"/>
<text text-anchor="middle" x="-6" y="-106.3" font-family="Times,serif" font-size="14.00">MainClientsController</text>
<polyline fill="none" stroke="black" points="-76,-98.5 64,-98.5 "/>
<text text-anchor="start" x="-68" y="-83.3" font-family="Times,serif" font-size="14.00">add_product_car</text>
<text text-anchor="start" x="-68" y="-68.3" font-family="Times,serif" font-size="14.00">create</text>
<text text-anchor="start" x="-68" y="-53.3" font-family="Times,serif" font-size="14.00">destroy</text>
<text text-anchor="start" x="-68" y="-38.3" font-family="Times,serif" font-size="14.00">edit</text>
<text text-anchor="start" x="-68" y="-23.3" font-family="Times,serif" font-size="14.00">index</text>
<text text-anchor="start" x="-68" y="-8.3" font-family="Times,serif" font-size="14.00">new</text>
<text text-anchor="start" x="-68" y="6.7" font-family="Times,serif" font-size="14.00">shoppingcart</text>
<text text-anchor="start" x="-68" y="21.7" font-family="Times,serif" font-size="14.00">shoppingcart=</text>
<text text-anchor="start" x="-68" y="36.7" font-family="Times,serif" font-size="14.00">show</text>
<text text-anchor="start" x="-68" y="51.7" font-family="Times,serif" font-size="14.00">update</text>
<polyline fill="none" stroke="black" points="-76,59.5 64,59.5 "/>
<polyline fill="none" stroke="black" points="-76,83.5 64,83.5 "/>
<text text-anchor="start" x="-68" y="98.7" font-family="Times,serif" font-size="14.00">_layout</text>
<text text-anchor="start" x="-68" y="113.7" font-family="Times,serif" font-size="14.00">load_products</text>
<text text-anchor="start" x="-68" y="128.7" font-family="Times,serif" font-size="14.00">main_client_params</text>
<text text-anchor="start" x="-68" y="143.7" font-family="Times,serif" font-size="14.00">set_main_client</text>
</g>
<!-- ShoppingCartsController -->
<g id="node7" class="node"><title>ShoppingCartsController</title>
<path fill="none" stroke="black" d="M107,94.5C107,94.5 235,94.5 235,94.5 241,94.5 247,88.5 247,82.5 247,82.5 247,-136.5 247,-136.5 247,-142.5 241,-148.5 235,-148.5 235,-148.5 107,-148.5 107,-148.5 101,-148.5 95,-142.5 95,-136.5 95,-136.5 95,82.5 95,82.5 95,88.5 101,94.5 107,94.5"/>
<text text-anchor="middle" x="171" y="-133.3" font-family="Times,serif" font-size="14.00">ShoppingCartsController</text>
<polyline fill="none" stroke="black" points="95,-125.5 247,-125.5 "/>
<text text-anchor="start" x="103" y="-110.3" font-family="Times,serif" font-size="14.00">buy</text>
<text text-anchor="start" x="103" y="-95.3" font-family="Times,serif" font-size="14.00">create</text>
<text text-anchor="start" x="103" y="-80.3" font-family="Times,serif" font-size="14.00">destroy</text>
<text text-anchor="start" x="103" y="-65.3" font-family="Times,serif" font-size="14.00">edit</text>
<text text-anchor="start" x="103" y="-50.3" font-family="Times,serif" font-size="14.00">index</text>
<text text-anchor="start" x="103" y="-35.3" font-family="Times,serif" font-size="14.00">new</text>
<text text-anchor="start" x="103" y="-20.3" font-family="Times,serif" font-size="14.00">show</text>
<text text-anchor="start" x="103" y="-5.3" font-family="Times,serif" font-size="14.00">update</text>
<polyline fill="none" stroke="black" points="95,2.5 247,2.5 "/>
<polyline fill="none" stroke="black" points="95,26.5 247,26.5 "/>
<text text-anchor="start" x="103" y="41.7" font-family="Times,serif" font-size="14.00">_layout</text>
<text text-anchor="start" x="103" y="56.7" font-family="Times,serif" font-size="14.00">set_new_product_cart</text>
<text text-anchor="start" x="103" y="71.7" font-family="Times,serif" font-size="14.00">set_shopping_cart</text>
<text text-anchor="start" x="103" y="86.7" font-family="Times,serif" font-size="14.00">shopping_cart_params</text>
</g>
<!-- CategoryProductsController -->
<g id="node8" class="node"><title>CategoryProductsController</title>
<path fill="none" stroke="black" d="M-102.5,-152.5C-102.5,-152.5 42.5,-152.5 42.5,-152.5 48.5,-152.5 54.5,-158.5 54.5,-164.5 54.5,-164.5 54.5,-353.5 54.5,-353.5 54.5,-359.5 48.5,-365.5 42.5,-365.5 42.5,-365.5 -102.5,-365.5 -102.5,-365.5 -108.5,-365.5 -114.5,-359.5 -114.5,-353.5 -114.5,-353.5 -114.5,-164.5 -114.5,-164.5 -114.5,-158.5 -108.5,-152.5 -102.5,-152.5"/>
<text text-anchor="middle" x="-30" y="-350.3" font-family="Times,serif" font-size="14.00">CategoryProductsController</text>
<polyline fill="none" stroke="black" points="-114.5,-342.5 54.5,-342.5 "/>
<text text-anchor="start" x="-106.5" y="-327.3" font-family="Times,serif" font-size="14.00">create</text>
<text text-anchor="start" x="-106.5" y="-312.3" font-family="Times,serif" font-size="14.00">destroy</text>
<text text-anchor="start" x="-106.5" y="-297.3" font-family="Times,serif" font-size="14.00">edit</text>
<text text-anchor="start" x="-106.5" y="-282.3" font-family="Times,serif" font-size="14.00">index</text>
<text text-anchor="start" x="-106.5" y="-267.3" font-family="Times,serif" font-size="14.00">new</text>
<text text-anchor="start" x="-106.5" y="-252.3" font-family="Times,serif" font-size="14.00">show</text>
<text text-anchor="start" x="-106.5" y="-237.3" font-family="Times,serif" font-size="14.00">update</text>
<polyline fill="none" stroke="black" points="-114.5,-229.5 54.5,-229.5 "/>
<polyline fill="none" stroke="black" points="-114.5,-205.5 54.5,-205.5 "/>
<text text-anchor="start" x="-106.5" y="-190.3" font-family="Times,serif" font-size="14.00">_layout</text>
<text text-anchor="start" x="-106.5" y="-175.3" font-family="Times,serif" font-size="14.00">category_product_params</text>
<text text-anchor="start" x="-106.5" y="-160.3" font-family="Times,serif" font-size="14.00">set_category_product</text>
</g>
<!-- ProductsController -->
<g id="node9" class="node"><title>ProductsController</title>
<path fill="none" stroke="black" d="M202.5,-191C202.5,-191 297.5,-191 297.5,-191 303.5,-191 309.5,-197 309.5,-203 309.5,-203 309.5,-437 309.5,-437 309.5,-443 303.5,-449 297.5,-449 297.5,-449 202.5,-449 202.5,-449 196.5,-449 190.5,-443 190.5,-437 190.5,-437 190.5,-203 190.5,-203 190.5,-197 196.5,-191 202.5,-191"/>
<text text-anchor="middle" x="250" y="-433.8" font-family="Times,serif" font-size="14.00">ProductsController</text>
<polyline fill="none" stroke="black" points="190.5,-426 309.5,-426 "/>
<text text-anchor="start" x="198.5" y="-410.8" font-family="Times,serif" font-size="14.00">buy</text>
<text text-anchor="start" x="198.5" y="-395.8" font-family="Times,serif" font-size="14.00">create</text>
<text text-anchor="start" x="198.5" y="-380.8" font-family="Times,serif" font-size="14.00">destroy</text>
<text text-anchor="start" x="198.5" y="-365.8" font-family="Times,serif" font-size="14.00">edit</text>
<text text-anchor="start" x="198.5" y="-350.8" font-family="Times,serif" font-size="14.00">index</text>
<text text-anchor="start" x="198.5" y="-335.8" font-family="Times,serif" font-size="14.00">new</text>
<text text-anchor="start" x="198.5" y="-320.8" font-family="Times,serif" font-size="14.00">show</text>
<text text-anchor="start" x="198.5" y="-305.8" font-family="Times,serif" font-size="14.00">update</text>
<polyline fill="none" stroke="black" points="190.5,-298 309.5,-298 "/>
<polyline fill="none" stroke="black" points="190.5,-274 309.5,-274 "/>
<text text-anchor="start" x="198.5" y="-258.8" font-family="Times,serif" font-size="14.00">_layout</text>
<text text-anchor="start" x="198.5" y="-243.8" font-family="Times,serif" font-size="14.00">product_params</text>
<text text-anchor="start" x="198.5" y="-228.8" font-family="Times,serif" font-size="14.00">set_consumer</text>
<text text-anchor="start" x="198.5" y="-213.8" font-family="Times,serif" font-size="14.00">set_product</text>
<text text-anchor="start" x="198.5" y="-198.8" font-family="Times,serif" font-size="14.00">set_professional</text>
</g>
<!-- PicturesController -->
<g id="node10" class="node"><title>PicturesController</title>
<path fill="none" stroke="black" d="M50,-399.5C50,-399.5 142,-399.5 142,-399.5 148,-399.5 154,-405.5 154,-411.5 154,-411.5 154,-600.5 154,-600.5 154,-606.5 148,-612.5 142,-612.5 142,-612.5 50,-612.5 50,-612.5 44,-612.5 38,-606.5 38,-600.5 38,-600.5 38,-411.5 38,-411.5 38,-405.5 44,-399.5 50,-399.5"/>
<text text-anchor="middle" x="96" y="-597.3" font-family="Times,serif" font-size="14.00">PicturesController</text>
<polyline fill="none" stroke="black" points="38,-589.5 154,-589.5 "/>
<text text-anchor="start" x="46" y="-574.3" font-family="Times,serif" font-size="14.00">create</text>
<text text-anchor="start" x="46" y="-559.3" font-family="Times,serif" font-size="14.00">destroy</text>
<text text-anchor="start" x="46" y="-544.3" font-family="Times,serif" font-size="14.00">edit</text>
<text text-anchor="start" x="46" y="-529.3" font-family="Times,serif" font-size="14.00">index</text>
<text text-anchor="start" x="46" y="-514.3" font-family="Times,serif" font-size="14.00">new</text>
<text text-anchor="start" x="46" y="-499.3" font-family="Times,serif" font-size="14.00">show</text>
<text text-anchor="start" x="46" y="-484.3" font-family="Times,serif" font-size="14.00">update</text>
<polyline fill="none" stroke="black" points="38,-476.5 154,-476.5 "/>
<polyline fill="none" stroke="black" points="38,-452.5 154,-452.5 "/>
<text text-anchor="start" x="46" y="-437.3" font-family="Times,serif" font-size="14.00">_layout</text>
<text text-anchor="start" x="46" y="-422.3" font-family="Times,serif" font-size="14.00">picture_params</text>
<text text-anchor="start" x="46" y="-407.3" font-family="Times,serif" font-size="14.00">set_picture</text>
</g>
<!-- Clients::RegistrationsController -->
<g id="node11" class="node"><title>Clients::RegistrationsController</title>
<path fill="none" stroke="black" d="M278,436C278,436 460,436 460,436 466,436 472,430 472,424 472,424 472,340 472,340 472,334 466,328 460,328 460,328 278,328 278,328 272,328 266,334 266,340 266,340 266,424 266,424 266,430 272,436 278,436"/>
<text text-anchor="middle" x="369" y="343.2" font-family="Times,serif" font-size="14.00">Clients::RegistrationsController</text>
<polyline fill="none" stroke="black" points="266,351 472,351 "/>
<text text-anchor="start" x="274" y="366.2" font-family="Times,serif" font-size="14.00">configure_account_update_params</text>
<text text-anchor="start" x="274" y="381.2" font-family="Times,serif" font-size="14.00">configure_sign_up_params</text>
<polyline fill="none" stroke="black" points="266,389 472,389 "/>
<polyline fill="none" stroke="black" points="266,413 472,413 "/>
<text text-anchor="start" x="274" y="428.2" font-family="Times,serif" font-size="14.00">_layout</text>
</g>
<!-- TelephonesController -->
<g id="node12" class="node"><title>TelephonesController</title>
<path fill="none" stroke="black" d="M-330,341.5C-330,341.5 -220,341.5 -220,341.5 -214,341.5 -208,335.5 -208,329.5 -208,329.5 -208,140.5 -208,140.5 -208,134.5 -214,128.5 -220,128.5 -220,128.5 -330,128.5 -330,128.5 -336,128.5 -342,134.5 -342,140.5 -342,140.5 -342,329.5 -342,329.5 -342,335.5 -336,341.5 -330,341.5"/>
<text text-anchor="middle" x="-275" y="143.7" font-family="Times,serif" font-size="14.00">TelephonesController</text>
<polyline fill="none" stroke="black" points="-342,151.5 -208,151.5 "/>
<text text-anchor="start" x="-334" y="166.7" font-family="Times,serif" font-size="14.00">create</text>
<text text-anchor="start" x="-334" y="181.7" font-family="Times,serif" font-size="14.00">destroy</text>
<text text-anchor="start" x="-334" y="196.7" font-family="Times,serif" font-size="14.00">edit</text>
<text text-anchor="start" x="-334" y="211.7" font-family="Times,serif" font-size="14.00">index</text>
<text text-anchor="start" x="-334" y="226.7" font-family="Times,serif" font-size="14.00">new</text>
<text text-anchor="start" x="-334" y="241.7" font-family="Times,serif" font-size="14.00">show</text>
<text text-anchor="start" x="-334" y="256.7" font-family="Times,serif" font-size="14.00">update</text>
<polyline fill="none" stroke="black" points="-342,264.5 -208,264.5 "/>
<polyline fill="none" stroke="black" points="-342,288.5 -208,288.5 "/>
<text text-anchor="start" x="-334" y="303.7" font-family="Times,serif" font-size="14.00">_layout</text>
<text text-anchor="start" x="-334" y="318.7" font-family="Times,serif" font-size="14.00">set_telephone</text>
<text text-anchor="start" x="-334" y="333.7" font-family="Times,serif" font-size="14.00">telephone_params</text>
</g>
<!-- WelcomeController -->
<g id="node13" class="node"><title>WelcomeController</title>
<path fill="none" stroke="black" d="M-102.5,-399.5C-102.5,-399.5 -1.5,-399.5 -1.5,-399.5 4.5,-399.5 10.5,-405.5 10.5,-411.5 10.5,-411.5 10.5,-480.5 10.5,-480.5 10.5,-486.5 4.5,-492.5 -1.5,-492.5 -1.5,-492.5 -102.5,-492.5 -102.5,-492.5 -108.5,-492.5 -114.5,-486.5 -114.5,-480.5 -114.5,-480.5 -114.5,-411.5 -114.5,-411.5 -114.5,-405.5 -108.5,-399.5 -102.5,-399.5"/>
<text text-anchor="middle" x="-52" y="-477.3" font-family="Times,serif" font-size="14.00">WelcomeController</text>
<polyline fill="none" stroke="black" points="-114.5,-469.5 10.5,-469.5 "/>
<text text-anchor="start" x="-106.5" y="-454.3" font-family="Times,serif" font-size="14.00">index</text>
<polyline fill="none" stroke="black" points="-114.5,-446.5 10.5,-446.5 "/>
<polyline fill="none" stroke="black" points="-114.5,-422.5 10.5,-422.5 "/>
<text text-anchor="start" x="-106.5" y="-407.3" font-family="Times,serif" font-size="14.00">_layout</text>
</g>
<!-- ConsumersController -->
<g id="node14" class="node"><title>ConsumersController</title>
<path fill="none" stroke="black" d="M107,341.5C107,341.5 217,341.5 217,341.5 223,341.5 229,335.5 229,329.5 229,329.5 229,140.5 229,140.5 229,134.5 223,128.5 217,128.5 217,128.5 107,128.5 107,128.5 101,128.5 95,134.5 95,140.5 95,140.5 95,329.5 95,329.5 95,335.5 101,341.5 107,341.5"/>
<text text-anchor="middle" x="162" y="143.7" font-family="Times,serif" font-size="14.00">ConsumersController</text>
<polyline fill="none" stroke="black" points="95,151.5 229,151.5 "/>
<text text-anchor="start" x="103" y="166.7" font-family="Times,serif" font-size="14.00">create</text>
<text text-anchor="start" x="103" y="181.7" font-family="Times,serif" font-size="14.00">destroy</text>
<text text-anchor="start" x="103" y="196.7" font-family="Times,serif" font-size="14.00">edit</text>
<text text-anchor="start" x="103" y="211.7" font-family="Times,serif" font-size="14.00">index</text>
<text text-anchor="start" x="103" y="226.7" font-family="Times,serif" font-size="14.00">new</text>
<text text-anchor="start" x="103" y="241.7" font-family="Times,serif" font-size="14.00">show</text>
<text text-anchor="start" x="103" y="256.7" font-family="Times,serif" font-size="14.00">update</text>
<polyline fill="none" stroke="black" points="95,264.5 229,264.5 "/>
<polyline fill="none" stroke="black" points="95,288.5 229,288.5 "/>
<text text-anchor="start" x="103" y="303.7" font-family="Times,serif" font-size="14.00">_layout</text>
<text text-anchor="start" x="103" y="318.7" font-family="Times,serif" font-size="14.00">consumer_params</text>
<text text-anchor="start" x="103" y="333.7" font-family="Times,serif" font-size="14.00">set_consumer</text>
</g>
<!-- KeywordsController -->
<g id="node15" class="node"><title>KeywordsController</title>
<path fill="none" stroke="black" d="M354,37.5C354,37.5 458,37.5 458,37.5 464,37.5 470,31.5 470,25.5 470,25.5 470,-163.5 470,-163.5 470,-169.5 464,-175.5 458,-175.5 458,-175.5 354,-175.5 354,-175.5 348,-175.5 342,-169.5 342,-163.5 342,-163.5 342,25.5 342,25.5 342,31.5 348,37.5 354,37.5"/>
<text text-anchor="middle" x="406" y="-160.3" font-family="Times,serif" font-size="14.00">KeywordsController</text>
<polyline fill="none" stroke="black" points="342,-152.5 470,-152.5 "/>
<text text-anchor="start" x="350" y="-137.3" font-family="Times,serif" font-size="14.00">create</text>
<text text-anchor="start" x="350" y="-122.3" font-family="Times,serif" font-size="14.00">destroy</text>
<text text-anchor="start" x="350" y="-107.3" font-family="Times,serif" font-size="14.00">edit</text>
<text text-anchor="start" x="350" y="-92.3" font-family="Times,serif" font-size="14.00">index</text>
<text text-anchor="start" x="350" y="-77.3" font-family="Times,serif" font-size="14.00">new</text>
<text text-anchor="start" x="350" y="-62.3" font-family="Times,serif" font-size="14.00">show</text>
<text text-anchor="start" x="350" y="-47.3" font-family="Times,serif" font-size="14.00">update</text>
<polyline fill="none" stroke="black" points="342,-39.5 470,-39.5 "/>
<polyline fill="none" stroke="black" points="342,-15.5 470,-15.5 "/>
<text text-anchor="start" x="350" y="-0.3" font-family="Times,serif" font-size="14.00">_layout</text>
<text text-anchor="start" x="350" y="14.7" font-family="Times,serif" font-size="14.00">keyword_params</text>
<text text-anchor="start" x="350" y="29.7" font-family="Times,serif" font-size="14.00">set_keyword</text>
</g>
<!-- ApplicationController -->
<g id="node16" class="node"><title>ApplicationController</title>
<path fill="none" stroke="black" d="M-425,-437.5C-425,-437.5 -309,-437.5 -309,-437.5 -303,-437.5 -297,-443.5 -297,-449.5 -297,-449.5 -297,-518.5 -297,-518.5 -297,-524.5 -303,-530.5 -309,-530.5 -309,-530.5 -425,-530.5 -425,-530.5 -431,-530.5 -437,-524.5 -437,-518.5 -437,-518.5 -437,-449.5 -437,-449.5 -437,-443.5 -431,-437.5 -425,-437.5"/>
<text text-anchor="middle" x="-367" y="-515.3" font-family="Times,serif" font-size="14.00">ApplicationController</text>
<polyline fill="none" stroke="black" points="-437,-507.5 -297,-507.5 "/>
<text text-anchor="start" x="-429" y="-492.3" font-family="Times,serif" font-size="14.00">after_sign_in_path_for</text>
<polyline fill="none" stroke="black" points="-437,-484.5 -297,-484.5 "/>
<polyline fill="none" stroke="black" points="-437,-460.5 -297,-460.5 "/>
<text text-anchor="start" x="-429" y="-445.3" font-family="Times,serif" font-size="14.00">_layout</text>
</g>
<!-- AddressesController -->
<g id="node17" class="node"><title>AddressesController</title>
<path fill="none" stroke="black" d="M354,-209.5C354,-209.5 458,-209.5 458,-209.5 464,-209.5 470,-215.5 470,-221.5 470,-221.5 470,-410.5 470,-410.5 470,-416.5 464,-422.5 458,-422.5 458,-422.5 354,-422.5 354,-422.5 348,-422.5 342,-416.5 342,-410.5 342,-410.5 342,-221.5 342,-221.5 342,-215.5 348,-209.5 354,-209.5"/>
<text text-anchor="middle" x="406" y="-407.3" font-family="Times,serif" font-size="14.00">AddressesController</text>
<polyline fill="none" stroke="black" points="342,-399.5 470,-399.5 "/>
<text text-anchor="start" x="350" y="-384.3" font-family="Times,serif" font-size="14.00">create</text>
<text text-anchor="start" x="350" y="-369.3" font-family="Times,serif" font-size="14.00">destroy</text>
<text text-anchor="start" x="350" y="-354.3" font-family="Times,serif" font-size="14.00">edit</text>
<text text-anchor="start" x="350" y="-339.3" font-family="Times,serif" font-size="14.00">index</text>
<text text-anchor="start" x="350" y="-324.3" font-family="Times,serif" font-size="14.00">new</text>
<text text-anchor="start" x="350" y="-309.3" font-family="Times,serif" font-size="14.00">show</text>
<text text-anchor="start" x="350" y="-294.3" font-family="Times,serif" font-size="14.00">update</text>
<polyline fill="none" stroke="black" points="342,-286.5 470,-286.5 "/>
<polyline fill="none" stroke="black" points="342,-262.5 470,-262.5 "/>
<text text-anchor="start" x="350" y="-247.3" font-family="Times,serif" font-size="14.00">_layout</text>
<text text-anchor="start" x="350" y="-232.3" font-family="Times,serif" font-size="14.00">address_params</text>
<text text-anchor="start" x="350" y="-217.3" font-family="Times,serif" font-size="14.00">set_address</text>
</g>
<!-- CartItemsController -->
<g id="node18" class="node"><title>CartItemsController</title>
<path fill="none" stroke="black" d="M-159,398.5C-159,398.5 -57,398.5 -57,398.5 -51,398.5 -45,392.5 -45,386.5 -45,386.5 -45,197.5 -45,197.5 -45,191.5 -51,185.5 -57,185.5 -57,185.5 -159,185.5 -159,185.5 -165,185.5 -171,191.5 -171,197.5 -171,197.5 -171,386.5 -171,386.5 -171,392.5 -165,398.5 -159,398.5"/>
<text text-anchor="middle" x="-108" y="200.7" font-family="Times,serif" font-size="14.00">CartItemsController</text>
<polyline fill="none" stroke="black" points="-171,208.5 -45,208.5 "/>
<text text-anchor="start" x="-163" y="223.7" font-family="Times,serif" font-size="14.00">create</text>
<text text-anchor="start" x="-163" y="238.7" font-family="Times,serif" font-size="14.00">destroy</text>
<text text-anchor="start" x="-163" y="253.7" font-family="Times,serif" font-size="14.00">edit</text>
<text text-anchor="start" x="-163" y="268.7" font-family="Times,serif" font-size="14.00">index</text>
<text text-anchor="start" x="-163" y="283.7" font-family="Times,serif" font-size="14.00">new</text>
<text text-anchor="start" x="-163" y="298.7" font-family="Times,serif" font-size="14.00">show</text>
<text text-anchor="start" x="-163" y="313.7" font-family="Times,serif" font-size="14.00">update</text>
<polyline fill="none" stroke="black" points="-171,321.5 -45,321.5 "/>
<polyline fill="none" stroke="black" points="-171,345.5 -45,345.5 "/>
<text text-anchor="start" x="-163" y="360.7" font-family="Times,serif" font-size="14.00">_layout</text>
<text text-anchor="start" x="-163" y="375.7" font-family="Times,serif" font-size="14.00">cart_item_params</text>
<text text-anchor="start" x="-163" y="390.7" font-family="Times,serif" font-size="14.00">set_cart_item</text>
</g>
</g>
</svg>
