<?xml version="1.0" encoding="UTF-8" standalone="no"?>
<!DOCTYPE svg PUBLIC "-//W3C//DTD SVG 1.1//EN"
 "http://www.w3.org/Graphics/SVG/1.1/DTD/svg11.dtd">
<!-- Generated by graphviz version 2.38.0 (20140413.2041)
 -->
<!-- Title: controllers_diagram Pages: 1 -->
<svg width="907pt" height="982pt"
 viewBox="0.00 0.00 906.50 982.00" xmlns="http://www.w3.org/2000/svg" xmlns:xlink="http://www.w3.org/1999/xlink">
<g id="graph0" class="graph" transform="scale(1 1) rotate(0) translate(365.5 598)">
<title>controllers_diagram</title>
<polygon fill="none" stroke="none" points="-365.5,384 -365.5,-598 541,-598 541,384 -365.5,384"/>
<!-- _diagram_info -->
<g id="node1" class="node"><title>_diagram_info</title>
<text text-anchor="start" x="331" y="31.4" font-family="Times,serif" font-size="13.00">Controllers diagram</text>
<text text-anchor="start" x="331" y="45.4" font-family="Times,serif" font-size="13.00">Date: Nov 04 2016 &#45; 11:05</text>
<text text-anchor="start" x="331" y="59.4" font-family="Times,serif" font-size="13.00">Migration version: 20161104005028</text>
<text text-anchor="start" x="331" y="73.4" font-family="Times,serif" font-size="13.00">Generated by RailRoady 1.5.2</text>
<text text-anchor="start" x="331" y="87.4" font-family="Times,serif" font-size="13.00">http://railroady.prestonlee.com</text>
</g>
<!-- CreditCardsController -->
<g id="node2" class="node"><title>CreditCardsController</title>
<path fill="none" stroke="black" d="M145.5,-133.5C145.5,-133.5 258.5,-133.5 258.5,-133.5 264.5,-133.5 270.5,-139.5 270.5,-145.5 270.5,-145.5 270.5,-334.5 270.5,-334.5 270.5,-340.5 264.5,-346.5 258.5,-346.5 258.5,-346.5 145.5,-346.5 145.5,-346.5 139.5,-346.5 133.5,-340.5 133.5,-334.5 133.5,-334.5 133.5,-145.5 133.5,-145.5 133.5,-139.5 139.5,-133.5 145.5,-133.5"/>
<text text-anchor="middle" x="202" y="-331.3" font-family="Times,serif" font-size="14.00">CreditCardsController</text>
<polyline fill="none" stroke="black" points="133.5,-323.5 270.5,-323.5 "/>
<text text-anchor="start" x="141.5" y="-308.3" font-family="Times,serif" font-size="14.00">create</text>
<text text-anchor="start" x="141.5" y="-293.3" font-family="Times,serif" font-size="14.00">destroy</text>
<text text-anchor="start" x="141.5" y="-278.3" font-family="Times,serif" font-size="14.00">edit</text>
<text text-anchor="start" x="141.5" y="-263.3" font-family="Times,serif" font-size="14.00">index</text>
<text text-anchor="start" x="141.5" y="-248.3" font-family="Times,serif" font-size="14.00">new</text>
<text text-anchor="start" x="141.5" y="-233.3" font-family="Times,serif" font-size="14.00">show</text>
<text text-anchor="start" x="141.5" y="-218.3" font-family="Times,serif" font-size="14.00">update</text>
<polyline fill="none" stroke="black" points="133.5,-210.5 270.5,-210.5 "/>
<polyline fill="none" stroke="black" points="133.5,-186.5 270.5,-186.5 "/>
<text text-anchor="start" x="141.5" y="-171.3" font-family="Times,serif" font-size="14.00">_layout</text>
<text text-anchor="start" x="141.5" y="-156.3" font-family="Times,serif" font-size="14.00">credit_card_params</text>
<text text-anchor="start" x="141.5" y="-141.3" font-family="Times,serif" font-size="14.00">set_credit_card</text>
</g>
<!-- ProfessionalsController -->
<g id="node3" class="node"><title>ProfessionalsController</title>
<path fill="none" stroke="black" d="M-45,-152.5C-45,-152.5 75,-152.5 75,-152.5 81,-152.5 87,-158.5 87,-164.5 87,-164.5 87,-353.5 87,-353.5 87,-359.5 81,-365.5 75,-365.5 75,-365.5 -45,-365.5 -45,-365.5 -51,-365.5 -57,-359.5 -57,-353.5 -57,-353.5 -57,-164.5 -57,-164.5 -57,-158.5 -51,-152.5 -45,-152.5"/>
<text text-anchor="middle" x="15" y="-350.3" font-family="Times,serif" font-size="14.00">ProfessionalsController</text>
<polyline fill="none" stroke="black" points="-57,-342.5 87,-342.5 "/>
<text text-anchor="start" x="-49" y="-327.3" font-family="Times,serif" font-size="14.00">create</text>
<text text-anchor="start" x="-49" y="-312.3" font-family="Times,serif" font-size="14.00">destroy</text>
<text text-anchor="start" x="-49" y="-297.3" font-family="Times,serif" font-size="14.00">edit</text>
<text text-anchor="start" x="-49" y="-282.3" font-family="Times,serif" font-size="14.00">index</text>
<text text-anchor="start" x="-49" y="-267.3" font-family="Times,serif" font-size="14.00">new</text>
<text text-anchor="start" x="-49" y="-252.3" font-family="Times,serif" font-size="14.00">show</text>
<text text-anchor="start" x="-49" y="-237.3" font-family="Times,serif" font-size="14.00">update</text>
<polyline fill="none" stroke="black" points="-57,-229.5 87,-229.5 "/>
<polyline fill="none" stroke="black" points="-57,-205.5 87,-205.5 "/>
<text text-anchor="start" x="-49" y="-190.3" font-family="Times,serif" font-size="14.00">_layout</text>
<text text-anchor="start" x="-49" y="-175.3" font-family="Times,serif" font-size="14.00">professional_params</text>
<text text-anchor="start" x="-49" y="-160.3" font-family="Times,serif" font-size="14.00">set_professional</text>
</g>
<!-- ClientsController -->
<g id="node4" class="node"><title>ClientsController</title>
<path fill="none" stroke="black" d="M-349,-361.5C-349,-361.5 -263,-361.5 -263,-361.5 -257,-361.5 -251,-367.5 -251,-373.5 -251,-373.5 -251,-562.5 -251,-562.5 -251,-568.5 -257,-574.5 -263,-574.5 -263,-574.5 -349,-574.5 -349,-574.5 -355,-574.5 -361,-568.5 -361,-562.5 -361,-562.5 -361,-373.5 -361,-373.5 -361,-367.5 -355,-361.5 -349,-361.5"/>
<text text-anchor="middle" x="-306" y="-559.3" font-family="Times,serif" font-size="14.00">ClientsController</text>
<polyline fill="none" stroke="black" points="-361,-551.5 -251,-551.5 "/>
<text text-anchor="start" x="-353" y="-536.3" font-family="Times,serif" font-size="14.00">create</text>
<text text-anchor="start" x="-353" y="-521.3" font-family="Times,serif" font-size="14.00">destroy</text>
<text text-anchor="start" x="-353" y="-506.3" font-family="Times,serif" font-size="14.00">edit</text>
<text text-anchor="start" x="-353" y="-491.3" font-family="Times,serif" font-size="14.00">index</text>
<text text-anchor="start" x="-353" y="-476.3" font-family="Times,serif" font-size="14.00">new</text>
<text text-anchor="start" x="-353" y="-461.3" font-family="Times,serif" font-size="14.00">show</text>
<text text-anchor="start" x="-353" y="-446.3" font-family="Times,serif" font-size="14.00">update</text>
<polyline fill="none" stroke="black" points="-361,-438.5 -251,-438.5 "/>
<polyline fill="none" stroke="black" points="-361,-414.5 -251,-414.5 "/>
<text text-anchor="start" x="-353" y="-399.3" font-family="Times,serif" font-size="14.00">_layout</text>
<text text-anchor="start" x="-353" y="-384.3" font-family="Times,serif" font-size="14.00">client_params</text>
<text text-anchor="start" x="-353" y="-369.3" font-family="Times,serif" font-size="14.00">set_client</text>
</g>
<!-- BankingsController -->
<g id="node5" class="node"><title>BankingsController</title>
<path fill="none" stroke="black" d="M-196.5,-210C-196.5,-210 -97.5,-210 -97.5,-210 -91.5,-210 -85.5,-216 -85.5,-222 -85.5,-222 -85.5,-426 -85.5,-426 -85.5,-432 -91.5,-438 -97.5,-438 -97.5,-438 -196.5,-438 -196.5,-438 -202.5,-438 -208.5,-432 -208.5,-426 -208.5,-426 -208.5,-222 -208.5,-222 -208.5,-216 -202.5,-210 -196.5,-210"/>
<text text-anchor="middle" x="-147" y="-422.8" font-family="Times,serif" font-size="14.00">BankingsController</text>
<polyline fill="none" stroke="black" points="-208.5,-415 -85.5,-415 "/>
<text text-anchor="start" x="-200.5" y="-399.8" font-family="Times,serif" font-size="14.00">create</text>
<text text-anchor="start" x="-200.5" y="-384.8" font-family="Times,serif" font-size="14.00">destroy</text>
<text text-anchor="start" x="-200.5" y="-369.8" font-family="Times,serif" font-size="14.00">edit</text>
<text text-anchor="start" x="-200.5" y="-354.8" font-family="Times,serif" font-size="14.00">index</text>
<text text-anchor="start" x="-200.5" y="-339.8" font-family="Times,serif" font-size="14.00">new</text>
<text text-anchor="start" x="-200.5" y="-324.8" font-family="Times,serif" font-size="14.00">show</text>
<text text-anchor="start" x="-200.5" y="-309.8" font-family="Times,serif" font-size="14.00">update</text>
<polyline fill="none" stroke="black" points="-208.5,-302 -85.5,-302 "/>
<polyline fill="none" stroke="black" points="-208.5,-278 -85.5,-278 "/>
<text text-anchor="start" x="-200.5" y="-262.8" font-family="Times,serif" font-size="14.00">_layout</text>
<text text-anchor="start" x="-200.5" y="-247.8" font-family="Times,serif" font-size="14.00">banking_params</text>
<text text-anchor="start" x="-200.5" y="-232.8" font-family="Times,serif" font-size="14.00">set_banking</text>
<text text-anchor="start" x="-200.5" y="-217.8" font-family="Times,serif" font-size="14.00">set_professional</text>
</g>
<!-- ShoppingCartsController -->
<g id="node6" class="node"><title>ShoppingCartsController</title>
<path fill="none" stroke="black" d="M-64,132.5C-64,132.5 64,132.5 64,132.5 70,132.5 76,126.5 76,120.5 76,120.5 76,-98.5 76,-98.5 76,-104.5 70,-110.5 64,-110.5 64,-110.5 -64,-110.5 -64,-110.5 -70,-110.5 -76,-104.5 -76,-98.5 -76,-98.5 -76,120.5 -76,120.5 -76,126.5 -70,132.5 -64,132.5"/>
<text text-anchor="middle" x="0" y="-95.3" font-family="Times,serif" font-size="14.00">ShoppingCartsController</text>
<polyline fill="none" stroke="black" points="-76,-87.5 76,-87.5 "/>
<text text-anchor="start" x="-68" y="-72.3" font-family="Times,serif" font-size="14.00">buy</text>
<text text-anchor="start" x="-68" y="-57.3" font-family="Times,serif" font-size="14.00">create</text>
<text text-anchor="start" x="-68" y="-42.3" font-family="Times,serif" font-size="14.00">destroy</text>
<text text-anchor="start" x="-68" y="-27.3" font-family="Times,serif" font-size="14.00">edit</text>
<text text-anchor="start" x="-68" y="-12.3" font-family="Times,serif" font-size="14.00">index</text>
<text text-anchor="start" x="-68" y="2.7" font-family="Times,serif" font-size="14.00">new</text>
<text text-anchor="start" x="-68" y="17.7" font-family="Times,serif" font-size="14.00">show</text>
<text text-anchor="start" x="-68" y="32.7" font-family="Times,serif" font-size="14.00">update</text>
<polyline fill="none" stroke="black" points="-76,40.5 76,40.5 "/>
<polyline fill="none" stroke="black" points="-76,64.5 76,64.5 "/>
<text text-anchor="start" x="-68" y="79.7" font-family="Times,serif" font-size="14.00">_layout</text>
<text text-anchor="start" x="-68" y="94.7" font-family="Times,serif" font-size="14.00">set_new_product_cart</text>
<text text-anchor="start" x="-68" y="109.7" font-family="Times,serif" font-size="14.00">set_shopping_cart</text>
<text text-anchor="start" x="-68" y="124.7" font-family="Times,serif" font-size="14.00">shopping_cart_params</text>
</g>
<!-- CategoryProductsController -->
<g id="node7" class="node"><title>CategoryProductsController</title>
<path fill="none" stroke="black" d="M125.5,113.5C125.5,113.5 270.5,113.5 270.5,113.5 276.5,113.5 282.5,107.5 282.5,101.5 282.5,101.5 282.5,-87.5 282.5,-87.5 282.5,-93.5 276.5,-99.5 270.5,-99.5 270.5,-99.5 125.5,-99.5 125.5,-99.5 119.5,-99.5 113.5,-93.5 113.5,-87.5 113.5,-87.5 113.5,101.5 113.5,101.5 113.5,107.5 119.5,113.5 125.5,113.5"/>
<text text-anchor="middle" x="198" y="-84.3" font-family="Times,serif" font-size="14.00">CategoryProductsController</text>
<polyline fill="none" stroke="black" points="113.5,-76.5 282.5,-76.5 "/>
<text text-anchor="start" x="121.5" y="-61.3" font-family="Times,serif" font-size="14.00">create</text>
<text text-anchor="start" x="121.5" y="-46.3" font-family="Times,serif" font-size="14.00">destroy</text>
<text text-anchor="start" x="121.5" y="-31.3" font-family="Times,serif" font-size="14.00">edit</text>
<text text-anchor="start" x="121.5" y="-16.3" font-family="Times,serif" font-size="14.00">index</text>
<text text-anchor="start" x="121.5" y="-1.3" font-family="Times,serif" font-size="14.00">new</text>
<text text-anchor="start" x="121.5" y="13.7" font-family="Times,serif" font-size="14.00">show</text>
<text text-anchor="start" x="121.5" y="28.7" font-family="Times,serif" font-size="14.00">update</text>
<polyline fill="none" stroke="black" points="113.5,36.5 282.5,36.5 "/>
<polyline fill="none" stroke="black" points="113.5,60.5 282.5,60.5 "/>
<text text-anchor="start" x="121.5" y="75.7" font-family="Times,serif" font-size="14.00">_layout</text>
<text text-anchor="start" x="121.5" y="90.7" font-family="Times,serif" font-size="14.00">category_product_params</text>
<text text-anchor="start" x="121.5" y="105.7" font-family="Times,serif" font-size="14.00">set_category_product</text>
</g>
<!-- PicturesController -->
<g id="node8" class="node"><title>PicturesController</title>
<path fill="none" stroke="black" d="M392,-380.5C392,-380.5 484,-380.5 484,-380.5 490,-380.5 496,-386.5 496,-392.5 496,-392.5 496,-581.5 496,-581.5 496,-587.5 490,-593.5 484,-593.5 484,-593.5 392,-593.5 392,-593.5 386,-593.5 380,-587.5 380,-581.5 380,-581.5 380,-392.5 380,-392.5 380,-386.5 386,-380.5 392,-380.5"/>
<text text-anchor="middle" x="438" y="-578.3" font-family="Times,serif" font-size="14.00">PicturesController</text>
<polyline fill="none" stroke="black" points="380,-570.5 496,-570.5 "/>
<text text-anchor="start" x="388" y="-555.3" font-family="Times,serif" font-size="14.00">create</text>
<text text-anchor="start" x="388" y="-540.3" font-family="Times,serif" font-size="14.00">destroy</text>
<text text-anchor="start" x="388" y="-525.3" font-family="Times,serif" font-size="14.00">edit</text>
<text text-anchor="start" x="388" y="-510.3" font-family="Times,serif" font-size="14.00">index</text>
<text text-anchor="start" x="388" y="-495.3" font-family="Times,serif" font-size="14.00">new</text>
<text text-anchor="start" x="388" y="-480.3" font-family="Times,serif" font-size="14.00">show</text>
<text text-anchor="start" x="388" y="-465.3" font-family="Times,serif" font-size="14.00">update</text>
<polyline fill="none" stroke="black" points="380,-457.5 496,-457.5 "/>
<polyline fill="none" stroke="black" points="380,-433.5 496,-433.5 "/>
<text text-anchor="start" x="388" y="-418.3" font-family="Times,serif" font-size="14.00">_layout</text>
<text text-anchor="start" x="388" y="-403.3" font-family="Times,serif" font-size="14.00">picture_params</text>
<text text-anchor="start" x="388" y="-388.3" font-family="Times,serif" font-size="14.00">set_picture</text>
</g>
<!-- Clients::RegistrationsController -->
<g id="node9" class="node"><title>Clients::RegistrationsController</title>
<path fill="none" stroke="black" d="M126,284C126,284 308,284 308,284 314,284 320,278 320,272 320,272 320,158 320,158 320,152 314,146 308,146 308,146 126,146 126,146 120,146 114,152 114,158 114,158 114,272 114,272 114,278 120,284 126,284"/>
<text text-anchor="middle" x="217" y="161.2" font-family="Times,serif" font-size="14.00">Clients::RegistrationsController</text>
<polyline fill="none" stroke="black" points="114,169 320,169 "/>
<text text-anchor="start" x="122" y="184.2" font-family="Times,serif" font-size="14.00">configure_account_update_params</text>
<text text-anchor="start" x="122" y="199.2" font-family="Times,serif" font-size="14.00">configure_sign_up_params</text>
<text text-anchor="start" x="122" y="214.2" font-family="Times,serif" font-size="14.00">create</text>
<text text-anchor="start" x="122" y="229.2" font-family="Times,serif" font-size="14.00">new</text>
<polyline fill="none" stroke="black" points="114,237 320,237 "/>
<polyline fill="none" stroke="black" points="114,261 320,261 "/>
<text text-anchor="start" x="122" y="276.2" font-family="Times,serif" font-size="14.00">_layout</text>
</g>
<!-- TelephonesController -->
<g id="node10" class="node"><title>TelephonesController</title>
<path fill="none" stroke="black" d="M-235,37.5C-235,37.5 -125,37.5 -125,37.5 -119,37.5 -113,31.5 -113,25.5 -113,25.5 -113,-163.5 -113,-163.5 -113,-169.5 -119,-175.5 -125,-175.5 -125,-175.5 -235,-175.5 -235,-175.5 -241,-175.5 -247,-169.5 -247,-163.5 -247,-163.5 -247,25.5 -247,25.5 -247,31.5 -241,37.5 -235,37.5"/>
<text text-anchor="middle" x="-180" y="-160.3" font-family="Times,serif" font-size="14.00">TelephonesController</text>
<polyline fill="none" stroke="black" points="-247,-152.5 -113,-152.5 "/>
<text text-anchor="start" x="-239" y="-137.3" font-family="Times,serif" font-size="14.00">create</text>
<text text-anchor="start" x="-239" y="-122.3" font-family="Times,serif" font-size="14.00">destroy</text>
<text text-anchor="start" x="-239" y="-107.3" font-family="Times,serif" font-size="14.00">edit</text>
<text text-anchor="start" x="-239" y="-92.3" font-family="Times,serif" font-size="14.00">index</text>
<text text-anchor="start" x="-239" y="-77.3" font-family="Times,serif" font-size="14.00">new</text>
<text text-anchor="start" x="-239" y="-62.3" font-family="Times,serif" font-size="14.00">show</text>
<text text-anchor="start" x="-239" y="-47.3" font-family="Times,serif" font-size="14.00">update</text>
<polyline fill="none" stroke="black" points="-247,-39.5 -113,-39.5 "/>
<polyline fill="none" stroke="black" points="-247,-15.5 -113,-15.5 "/>
<text text-anchor="start" x="-239" y="-0.3" font-family="Times,serif" font-size="14.00">_layout</text>
<text text-anchor="start" x="-239" y="14.7" font-family="Times,serif" font-size="14.00">set_telephone</text>
<text text-anchor="start" x="-239" y="29.7" font-family="Times,serif" font-size="14.00">telephone_params</text>
</g>
<!-- WelcomeController -->
<g id="node11" class="node"><title>WelcomeController</title>
<path fill="none" stroke="black" d="M-349.5,-209.5C-349.5,-209.5 -248.5,-209.5 -248.5,-209.5 -242.5,-209.5 -236.5,-215.5 -236.5,-221.5 -236.5,-221.5 -236.5,-320.5 -236.5,-320.5 -236.5,-326.5 -242.5,-332.5 -248.5,-332.5 -248.5,-332.5 -349.5,-332.5 -349.5,-332.5 -355.5,-332.5 -361.5,-326.5 -361.5,-320.5 -361.5,-320.5 -361.5,-221.5 -361.5,-221.5 -361.5,-215.5 -355.5,-209.5 -349.5,-209.5"/>
<text text-anchor="middle" x="-299" y="-317.3" font-family="Times,serif" font-size="14.00">WelcomeController</text>
<polyline fill="none" stroke="black" points="-361.5,-309.5 -236.5,-309.5 "/>
<text text-anchor="start" x="-353.5" y="-294.3" font-family="Times,serif" font-size="14.00">filter</text>
<text text-anchor="start" x="-353.5" y="-279.3" font-family="Times,serif" font-size="14.00">index</text>
<text text-anchor="start" x="-353.5" y="-264.3" font-family="Times,serif" font-size="14.00">redirect</text>
<polyline fill="none" stroke="black" points="-361.5,-256.5 -236.5,-256.5 "/>
<polyline fill="none" stroke="black" points="-361.5,-232.5 -236.5,-232.5 "/>
<text text-anchor="start" x="-353.5" y="-217.3" font-family="Times,serif" font-size="14.00">_layout</text>
</g>
<!-- EventsController -->
<g id="node12" class="node"><title>EventsController</title>
<path fill="none" stroke="black" d="M240.5,-380.5C240.5,-380.5 325.5,-380.5 325.5,-380.5 331.5,-380.5 337.5,-386.5 337.5,-392.5 337.5,-392.5 337.5,-581.5 337.5,-581.5 337.5,-587.5 331.5,-593.5 325.5,-593.5 325.5,-593.5 240.5,-593.5 240.5,-593.5 234.5,-593.5 228.5,-587.5 228.5,-581.5 228.5,-581.5 228.5,-392.5 228.5,-392.5 228.5,-386.5 234.5,-380.5 240.5,-380.5"/>
<text text-anchor="middle" x="283" y="-578.3" font-family="Times,serif" font-size="14.00">EventsController</text>
<polyline fill="none" stroke="black" points="228.5,-570.5 337.5,-570.5 "/>
<text text-anchor="start" x="236.5" y="-555.3" font-family="Times,serif" font-size="14.00">create</text>
<text text-anchor="start" x="236.5" y="-540.3" font-family="Times,serif" font-size="14.00">destroy</text>
<text text-anchor="start" x="236.5" y="-525.3" font-family="Times,serif" font-size="14.00">edit</text>
<text text-anchor="start" x="236.5" y="-510.3" font-family="Times,serif" font-size="14.00">index</text>
<text text-anchor="start" x="236.5" y="-495.3" font-family="Times,serif" font-size="14.00">new</text>
<text text-anchor="start" x="236.5" y="-480.3" font-family="Times,serif" font-size="14.00">show</text>
<text text-anchor="start" x="236.5" y="-465.3" font-family="Times,serif" font-size="14.00">update</text>
<polyline fill="none" stroke="black" points="228.5,-457.5 337.5,-457.5 "/>
<polyline fill="none" stroke="black" points="228.5,-433.5 337.5,-433.5 "/>
<text text-anchor="start" x="236.5" y="-418.3" font-family="Times,serif" font-size="14.00">_layout</text>
<text text-anchor="start" x="236.5" y="-403.3" font-family="Times,serif" font-size="14.00">event_params</text>
<text text-anchor="start" x="236.5" y="-388.3" font-family="Times,serif" font-size="14.00">set_event</text>
</g>
<!-- KeywordsController -->
<g id="node13" class="node"><title>KeywordsController</title>
<path fill="none" stroke="black" d="M-273,284.5C-273,284.5 -169,284.5 -169,284.5 -163,284.5 -157,278.5 -157,272.5 -157,272.5 -157,83.5 -157,83.5 -157,77.5 -163,71.5 -169,71.5 -169,71.5 -273,71.5 -273,71.5 -279,71.5 -285,77.5 -285,83.5 -285,83.5 -285,272.5 -285,272.5 -285,278.5 -279,284.5 -273,284.5"/>
<text text-anchor="middle" x="-221" y="86.7" font-family="Times,serif" font-size="14.00">KeywordsController</text>
<polyline fill="none" stroke="black" points="-285,94.5 -157,94.5 "/>
<text text-anchor="start" x="-277" y="109.7" font-family="Times,serif" font-size="14.00">create</text>
<text text-anchor="start" x="-277" y="124.7" font-family="Times,serif" font-size="14.00">destroy</text>
<text text-anchor="start" x="-277" y="139.7" font-family="Times,serif" font-size="14.00">edit</text>
<text text-anchor="start" x="-277" y="154.7" font-family="Times,serif" font-size="14.00">index</text>
<text text-anchor="start" x="-277" y="169.7" font-family="Times,serif" font-size="14.00">new</text>
<text text-anchor="start" x="-277" y="184.7" font-family="Times,serif" font-size="14.00">show</text>
<text text-anchor="start" x="-277" y="199.7" font-family="Times,serif" font-size="14.00">update</text>
<polyline fill="none" stroke="black" points="-285,207.5 -157,207.5 "/>
<polyline fill="none" stroke="black" points="-285,231.5 -157,231.5 "/>
<text text-anchor="start" x="-277" y="246.7" font-family="Times,serif" font-size="14.00">_layout</text>
<text text-anchor="start" x="-277" y="261.7" font-family="Times,serif" font-size="14.00">keyword_params</text>
<text text-anchor="start" x="-277" y="276.7" font-family="Times,serif" font-size="14.00">set_keyword</text>
</g>
<!-- ApplicationController -->
<g id="node14" class="node"><title>ApplicationController</title>
<path fill="none" stroke="black" d="M69,-399.5C69,-399.5 185,-399.5 185,-399.5 191,-399.5 197,-405.5 197,-411.5 197,-411.5 197,-480.5 197,-480.5 197,-486.5 191,-492.5 185,-492.5 185,-492.5 69,-492.5 69,-492.5 63,-492.5 57,-486.5 57,-480.5 57,-480.5 57,-411.5 57,-411.5 57,-405.5 63,-399.5 69,-399.5"/>
<text text-anchor="middle" x="127" y="-477.3" font-family="Times,serif" font-size="14.00">ApplicationController</text>
<polyline fill="none" stroke="black" points="57,-469.5 197,-469.5 "/>
<text text-anchor="start" x="65" y="-454.3" font-family="Times,serif" font-size="14.00">after_sign_in_path_for</text>
<polyline fill="none" stroke="black" points="57,-446.5 197,-446.5 "/>
<polyline fill="none" stroke="black" points="57,-422.5 197,-422.5 "/>
<text text-anchor="start" x="65" y="-407.3" font-family="Times,serif" font-size="14.00">_layout</text>
</g>
<!-- AddressesController -->
<g id="node15" class="node"><title>AddressesController</title>
<path fill="none" stroke="black" d="M316,-133.5C316,-133.5 420,-133.5 420,-133.5 426,-133.5 432,-139.5 432,-145.5 432,-145.5 432,-334.5 432,-334.5 432,-340.5 426,-346.5 420,-346.5 420,-346.5 316,-346.5 316,-346.5 310,-346.5 304,-340.5 304,-334.5 304,-334.5 304,-145.5 304,-145.5 304,-139.5 310,-133.5 316,-133.5"/>
<text text-anchor="middle" x="368" y="-331.3" font-family="Times,serif" font-size="14.00">AddressesController</text>
<polyline fill="none" stroke="black" points="304,-323.5 432,-323.5 "/>
<text text-anchor="start" x="312" y="-308.3" font-family="Times,serif" font-size="14.00">create</text>
<text text-anchor="start" x="312" y="-293.3" font-family="Times,serif" font-size="14.00">destroy</text>
<text text-anchor="start" x="312" y="-278.3" font-family="Times,serif" font-size="14.00">edit</text>
<text text-anchor="start" x="312" y="-263.3" font-family="Times,serif" font-size="14.00">index</text>
<text text-anchor="start" x="312" y="-248.3" font-family="Times,serif" font-size="14.00">new</text>
<text text-anchor="start" x="312" y="-233.3" font-family="Times,serif" font-size="14.00">show</text>
<text text-anchor="start" x="312" y="-218.3" font-family="Times,serif" font-size="14.00">update</text>
<polyline fill="none" stroke="black" points="304,-210.5 432,-210.5 "/>
<polyline fill="none" stroke="black" points="304,-186.5 432,-186.5 "/>
<text text-anchor="start" x="312" y="-171.3" font-family="Times,serif" font-size="14.00">_layout</text>
<text text-anchor="start" x="312" y="-156.3" font-family="Times,serif" font-size="14.00">address_params</text>
<text text-anchor="start" x="312" y="-141.3" font-family="Times,serif" font-size="14.00">set_address</text>
</g>
<!-- PaymentsController -->
<g id="node16" class="node"><title>PaymentsController</title>
<path fill="none" stroke="black" d="M372.5,360C372.5,360 473.5,360 473.5,360 479.5,360 485.5,354 485.5,348 485.5,348 485.5,144 485.5,144 485.5,138 479.5,132 473.5,132 473.5,132 372.5,132 372.5,132 366.5,132 360.5,138 360.5,144 360.5,144 360.5,348 360.5,348 360.5,354 366.5,360 372.5,360"/>
<text text-anchor="middle" x="423" y="147.2" font-family="Times,serif" font-size="14.00">PaymentsController</text>
<polyline fill="none" stroke="black" points="360.5,155 485.5,155 "/>
<text text-anchor="start" x="368.5" y="170.2" font-family="Times,serif" font-size="14.00">create</text>
<text text-anchor="start" x="368.5" y="185.2" font-family="Times,serif" font-size="14.00">destroy</text>
<text text-anchor="start" x="368.5" y="200.2" font-family="Times,serif" font-size="14.00">edit</text>
<text text-anchor="start" x="368.5" y="215.2" font-family="Times,serif" font-size="14.00">index</text>
<text text-anchor="start" x="368.5" y="230.2" font-family="Times,serif" font-size="14.00">new</text>
<text text-anchor="start" x="368.5" y="245.2" font-family="Times,serif" font-size="14.00">show</text>
<text text-anchor="start" x="368.5" y="260.2" font-family="Times,serif" font-size="14.00">update</text>
<polyline fill="none" stroke="black" points="360.5,268 485.5,268 "/>
<polyline fill="none" stroke="black" points="360.5,292 485.5,292 "/>
<text text-anchor="start" x="368.5" y="307.2" font-family="Times,serif" font-size="14.00">_layout</text>
<text text-anchor="start" x="368.5" y="322.2" font-family="Times,serif" font-size="14.00">payment_params</text>
<text text-anchor="start" x="368.5" y="337.2" font-family="Times,serif" font-size="14.00">set_payment</text>
<text text-anchor="start" x="368.5" y="352.2" font-family="Times,serif" font-size="14.00">set_shopping_cart</text>
</g>
<!-- CartItemsController -->
<g id="node17" class="node"><title>CartItemsController</title>
<path fill="none" stroke="black" d="M-102,379.5C-102,379.5 0,379.5 0,379.5 6,379.5 12,373.5 12,367.5 12,367.5 12,178.5 12,178.5 12,172.5 6,166.5 0,166.5 0,166.5 -102,166.5 -102,166.5 -108,166.5 -114,172.5 -114,178.5 -114,178.5 -114,367.5 -114,367.5 -114,373.5 -108,379.5 -102,379.5"/>
<text text-anchor="middle" x="-51" y="181.7" font-family="Times,serif" font-size="14.00">CartItemsController</text>
<polyline fill="none" stroke="black" points="-114,189.5 12,189.5 "/>
<text text-anchor="start" x="-106" y="204.7" font-family="Times,serif" font-size="14.00">create</text>
<text text-anchor="start" x="-106" y="219.7" font-family="Times,serif" font-size="14.00">destroy</text>
<text text-anchor="start" x="-106" y="234.7" font-family="Times,serif" font-size="14.00">edit</text>
<text text-anchor="start" x="-106" y="249.7" font-family="Times,serif" font-size="14.00">index</text>
<text text-anchor="start" x="-106" y="264.7" font-family="Times,serif" font-size="14.00">new</text>
<text text-anchor="start" x="-106" y="279.7" font-family="Times,serif" font-size="14.00">show</text>
<text text-anchor="start" x="-106" y="294.7" font-family="Times,serif" font-size="14.00">update</text>
<polyline fill="none" stroke="black" points="-114,302.5 12,302.5 "/>
<polyline fill="none" stroke="black" points="-114,326.5 12,326.5 "/>
<text text-anchor="start" x="-106" y="341.7" font-family="Times,serif" font-size="14.00">_layout</text>
<text text-anchor="start" x="-106" y="356.7" font-family="Times,serif" font-size="14.00">cart_item_params</text>
<text text-anchor="start" x="-106" y="371.7" font-family="Times,serif" font-size="14.00">set_cart_item</text>
</g>
</g>
</svg>
