<?xml version="1.0" encoding="UTF-8" standalone="no"?>
<!DOCTYPE svg PUBLIC "-//W3C//DTD SVG 1.1//EN"
 "http://www.w3.org/Graphics/SVG/1.1/DTD/svg11.dtd">
<!-- Generated by graphviz version 2.38.0 (20140413.2041)
 -->
<!-- Title: models_diagram Pages: 1 -->
<svg width="1348pt" height="949pt"
 viewBox="0.00 0.00 1348.00 949.00" xmlns="http://www.w3.org/2000/svg" xmlns:xlink="http://www.w3.org/1999/xlink">
<g id="graph0" class="graph" transform="scale(1 1) rotate(0) translate(4 945)">
<title>models_diagram</title>
<polygon fill="none" stroke="none" points="-4,4 -4,-945 1344,-945 1344,4 -4,4"/>
<!-- _diagram_info -->
<g id="node1" class="node"><title>_diagram_info</title>
<text text-anchor="start" x="406" y="-829.6" font-family="Times,serif" font-size="13.00">Models diagram</text>
<text text-anchor="start" x="406" y="-815.6" font-family="Times,serif" font-size="13.00">Date: Oct 15 2016 &#45; 01:04</text>
<text text-anchor="start" x="406" y="-801.6" font-family="Times,serif" font-size="13.00">Migration version: 20161014220607</text>
<text text-anchor="start" x="406" y="-787.6" font-family="Times,serif" font-size="13.00">Generated by RailRoady 1.5.2</text>
<text text-anchor="start" x="406" y="-773.6" font-family="Times,serif" font-size="13.00">http://railroady.prestonlee.com</text>
</g>
<!-- Consumer -->
<g id="node2" class="node"><title>Consumer</title>
<path fill="none" stroke="black" d="M808,-474C808,-474 1028,-474 1028,-474 1034,-474 1040,-480 1040,-486 1040,-486 1040,-553 1040,-553 1040,-559 1034,-565 1028,-565 1028,-565 808,-565 808,-565 802,-565 796,-559 796,-553 796,-553 796,-486 796,-486 796,-480 802,-474 808,-474"/>
<text text-anchor="middle" x="918" y="-549.8" font-family="Times,serif" font-size="14.00">Consumer</text>
<polyline fill="none" stroke="black" points="796,-542 1040,-542 "/>
<text text-anchor="start" x="804" y="-526.8" font-family="Times,serif" font-size="14.00">id :integer</text>
<text text-anchor="start" x="804" y="-511.8" font-family="Times,serif" font-size="14.00">client_id :integer</text>
<text text-anchor="start" x="804" y="-496.8" font-family="Times,serif" font-size="14.00">created_at :timestamp without time zone</text>
<text text-anchor="start" x="804" y="-481.8" font-family="Times,serif" font-size="14.00">updated_at :timestamp without time zone</text>
</g>
<!-- ShoppingCart -->
<g id="node4" class="node"><title>ShoppingCart</title>
<path fill="none" stroke="black" d="M846,-196C846,-196 1066,-196 1066,-196 1072,-196 1078,-202 1078,-208 1078,-208 1078,-350 1078,-350 1078,-356 1072,-362 1066,-362 1066,-362 846,-362 846,-362 840,-362 834,-356 834,-350 834,-350 834,-208 834,-208 834,-202 840,-196 846,-196"/>
<text text-anchor="middle" x="956" y="-346.8" font-family="Times,serif" font-size="14.00">ShoppingCart</text>
<polyline fill="none" stroke="black" points="834,-339 1078,-339 "/>
<text text-anchor="start" x="842" y="-323.8" font-family="Times,serif" font-size="14.00">id :integer</text>
<text text-anchor="start" x="842" y="-308.8" font-family="Times,serif" font-size="14.00">consumer_id :integer</text>
<text text-anchor="start" x="842" y="-293.8" font-family="Times,serif" font-size="14.00">status :integer</text>
<text text-anchor="start" x="842" y="-278.8" font-family="Times,serif" font-size="14.00">fees :double precision</text>
<text text-anchor="start" x="842" y="-263.8" font-family="Times,serif" font-size="14.00">gain :double precision</text>
<text text-anchor="start" x="842" y="-248.8" font-family="Times,serif" font-size="14.00">promotion_discount :double precision</text>
<text text-anchor="start" x="842" y="-233.8" font-family="Times,serif" font-size="14.00">total_paid :double precision</text>
<text text-anchor="start" x="842" y="-218.8" font-family="Times,serif" font-size="14.00">created_at :timestamp without time zone</text>
<text text-anchor="start" x="842" y="-203.8" font-family="Times,serif" font-size="14.00">updated_at :timestamp without time zone</text>
</g>
<!-- Consumer&#45;&gt;ShoppingCart -->
<g id="edge3" class="edge"><title>Consumer&#45;&gt;ShoppingCart</title>
<path fill="none" stroke="#902636" d="M926.37,-465.965C930.752,-438.466 936.245,-403.99 941.307,-372.216"/>
<ellipse fill="none" stroke="#902636" cx="925.732" cy="-469.97" rx="4.00001" ry="4.00001"/>
<polygon fill="#902636" stroke="#902636" points="941.36,-371.883 947.378,-362.715 942.147,-366.945 942.934,-362.007 942.934,-362.007 942.934,-362.007 942.147,-366.945 938.49,-361.299 941.36,-371.883 941.36,-371.883"/>
</g>
<!-- CreditCard -->
<g id="node13" class="node"><title>CreditCard</title>
<path fill="none" stroke="black" d="M1108,-196C1108,-196 1328,-196 1328,-196 1334,-196 1340,-202 1340,-208 1340,-208 1340,-350 1340,-350 1340,-356 1334,-362 1328,-362 1328,-362 1108,-362 1108,-362 1102,-362 1096,-356 1096,-350 1096,-350 1096,-208 1096,-208 1096,-202 1102,-196 1108,-196"/>
<text text-anchor="middle" x="1218" y="-346.8" font-family="Times,serif" font-size="14.00">CreditCard</text>
<polyline fill="none" stroke="black" points="1096,-339 1340,-339 "/>
<text text-anchor="start" x="1104" y="-323.8" font-family="Times,serif" font-size="14.00">id :integer</text>
<text text-anchor="start" x="1104" y="-308.8" font-family="Times,serif" font-size="14.00">consumer_id :integer</text>
<text text-anchor="start" x="1104" y="-293.8" font-family="Times,serif" font-size="14.00">name :character varying</text>
<text text-anchor="start" x="1104" y="-278.8" font-family="Times,serif" font-size="14.00">number :integer</text>
<text text-anchor="start" x="1104" y="-263.8" font-family="Times,serif" font-size="14.00">digit :integer</text>
<text text-anchor="start" x="1104" y="-248.8" font-family="Times,serif" font-size="14.00">flag :character varying</text>
<text text-anchor="start" x="1104" y="-233.8" font-family="Times,serif" font-size="14.00">expiration :character varying</text>
<text text-anchor="start" x="1104" y="-218.8" font-family="Times,serif" font-size="14.00">created_at :timestamp without time zone</text>
<text text-anchor="start" x="1104" y="-203.8" font-family="Times,serif" font-size="14.00">updated_at :timestamp without time zone</text>
</g>
<!-- Consumer&#45;&gt;CreditCard -->
<g id="edge1" class="edge"><title>Consumer&#45;&gt;CreditCard</title>
<path fill="none" stroke="#6d7604" d="M974.65,-468.364C997.454,-448.575 1024.19,-425.866 1049,-406 1064.47,-393.617 1080.95,-380.835 1097.33,-368.379"/>
<ellipse fill="none" stroke="#6d7604" cx="971.346" cy="-471.238" rx="4.00002" ry="4.00002"/>
<polygon fill="#6d7604" stroke="#6d7604" points="1097.39,-368.334 1108.08,-365.879 1101.37,-365.314 1105.36,-362.293 1105.36,-362.293 1105.36,-362.293 1101.37,-365.314 1102.64,-358.707 1097.39,-368.334 1097.39,-368.334"/>
</g>
<!-- Transaction -->
<g id="node17" class="node"><title>Transaction</title>
<ellipse fill="none" stroke="black" cx="655" cy="-76" rx="51.9908" ry="18"/>
<text text-anchor="middle" x="655" y="-72.3" font-family="Times,serif" font-size="14.00">Transaction</text>
</g>
<!-- Consumer&#45;&gt;Transaction -->
<g id="edge2" class="edge"><title>Consumer&#45;&gt;Transaction</title>
<path fill="none" stroke="#278903" d="M879.477,-467.119C860.517,-439.587 838.822,-404.34 825,-370 794.145,-293.344 832.353,-257.075 787,-188 771.772,-164.807 757.56,-169.463 736,-152 715.779,-135.621 694.221,-115.518 678.434,-100.249"/>
<ellipse fill="none" stroke="#278903" cx="881.946" cy="-470.665" rx="4.00002" ry="4.00002"/>
<polygon fill="#278903" stroke="#278903" points="678.34,-100.157 674.318,-89.9556 674.759,-96.668 671.178,-93.1786 671.178,-93.1786 671.178,-93.1786 674.759,-96.668 668.037,-96.4016 678.34,-100.157 678.34,-100.157"/>
</g>
<!-- Picture -->
<g id="node3" class="node"><title>Picture</title>
<path fill="none" stroke="black" d="M274,-0.5C274,-0.5 534,-0.5 534,-0.5 540,-0.5 546,-6.5 546,-12.5 546,-12.5 546,-139.5 546,-139.5 546,-145.5 540,-151.5 534,-151.5 534,-151.5 274,-151.5 274,-151.5 268,-151.5 262,-145.5 262,-139.5 262,-139.5 262,-12.5 262,-12.5 262,-6.5 268,-0.5 274,-0.5"/>
<text text-anchor="middle" x="404" y="-136.3" font-family="Times,serif" font-size="14.00">Picture</text>
<polyline fill="none" stroke="black" points="262,-128.5 546,-128.5 "/>
<text text-anchor="start" x="270" y="-113.3" font-family="Times,serif" font-size="14.00">id :integer</text>
<text text-anchor="start" x="270" y="-98.3" font-family="Times,serif" font-size="14.00">product_id :integer</text>
<text text-anchor="start" x="270" y="-83.3" font-family="Times,serif" font-size="14.00">created_at :timestamp without time zone</text>
<text text-anchor="start" x="270" y="-68.3" font-family="Times,serif" font-size="14.00">updated_at :timestamp without time zone</text>
<text text-anchor="start" x="270" y="-53.3" font-family="Times,serif" font-size="14.00">image_file_name :character varying</text>
<text text-anchor="start" x="270" y="-38.3" font-family="Times,serif" font-size="14.00">image_content_type :character varying</text>
<text text-anchor="start" x="270" y="-23.3" font-family="Times,serif" font-size="14.00">image_file_size :integer</text>
<text text-anchor="start" x="270" y="-8.3" font-family="Times,serif" font-size="14.00">image_updated_at :timestamp without time zone</text>
</g>
<!-- Payment -->
<g id="node7" class="node"><title>Payment</title>
<path fill="none" stroke="black" d="M1029,-8C1029,-8 1249,-8 1249,-8 1255,-8 1261,-14 1261,-20 1261,-20 1261,-132 1261,-132 1261,-138 1255,-144 1249,-144 1249,-144 1029,-144 1029,-144 1023,-144 1017,-138 1017,-132 1017,-132 1017,-20 1017,-20 1017,-14 1023,-8 1029,-8"/>
<text text-anchor="middle" x="1139" y="-128.8" font-family="Times,serif" font-size="14.00">Payment</text>
<polyline fill="none" stroke="black" points="1017,-121 1261,-121 "/>
<text text-anchor="start" x="1025" y="-105.8" font-family="Times,serif" font-size="14.00">id :integer</text>
<text text-anchor="start" x="1025" y="-90.8" font-family="Times,serif" font-size="14.00">shopping_cart_id :integer</text>
<text text-anchor="start" x="1025" y="-75.8" font-family="Times,serif" font-size="14.00">credit_card_id :integer</text>
<text text-anchor="start" x="1025" y="-60.8" font-family="Times,serif" font-size="14.00">number_quotas :integer</text>
<text text-anchor="start" x="1025" y="-45.8" font-family="Times,serif" font-size="14.00">quota_value :numeric</text>
<text text-anchor="start" x="1025" y="-30.8" font-family="Times,serif" font-size="14.00">created_at :timestamp without time zone</text>
<text text-anchor="start" x="1025" y="-15.8" font-family="Times,serif" font-size="14.00">updated_at :timestamp without time zone</text>
</g>
<!-- ShoppingCart&#45;&gt;Payment -->
<g id="edge5" class="edge"><title>ShoppingCart&#45;&gt;Payment</title>
<path fill="none" stroke="#bc99f6" d="M1036.25,-189.86C1048.27,-176.654 1060.56,-163.159 1072.26,-150.306"/>
<ellipse fill="none" stroke="#bc99f6" cx="1033.39" cy="-192.998" rx="4.00002" ry="4.00002"/>
<ellipse fill="#bc99f6" stroke="#bc99f6" cx="1075.26" cy="-147.01" rx="4.00002" ry="4.00002"/>
</g>
<!-- CartItem -->
<g id="node15" class="node"><title>CartItem</title>
<path fill="none" stroke="black" d="M757,-8C757,-8 977,-8 977,-8 983,-8 989,-14 989,-20 989,-20 989,-132 989,-132 989,-138 983,-144 977,-144 977,-144 757,-144 757,-144 751,-144 745,-138 745,-132 745,-132 745,-20 745,-20 745,-14 751,-8 757,-8"/>
<text text-anchor="middle" x="867" y="-128.8" font-family="Times,serif" font-size="14.00">CartItem</text>
<polyline fill="none" stroke="black" points="745,-121 989,-121 "/>
<text text-anchor="start" x="753" y="-105.8" font-family="Times,serif" font-size="14.00">id :integer</text>
<text text-anchor="start" x="753" y="-90.8" font-family="Times,serif" font-size="14.00">shopping_cart_id :integer</text>
<text text-anchor="start" x="753" y="-75.8" font-family="Times,serif" font-size="14.00">product_id :integer</text>
<text text-anchor="start" x="753" y="-60.8" font-family="Times,serif" font-size="14.00">quantity :double precision</text>
<text text-anchor="start" x="753" y="-45.8" font-family="Times,serif" font-size="14.00">unitary_price :double precision</text>
<text text-anchor="start" x="753" y="-30.8" font-family="Times,serif" font-size="14.00">created_at :timestamp without time zone</text>
<text text-anchor="start" x="753" y="-15.8" font-family="Times,serif" font-size="14.00">updated_at :timestamp without time zone</text>
</g>
<!-- ShoppingCart&#45;&gt;CartItem -->
<g id="edge4" class="edge"><title>ShoppingCart&#45;&gt;CartItem</title>
<path fill="none" stroke="#c4d9d5" d="M916.431,-188.636C911.197,-176.817 905.872,-164.79 900.749,-153.22"/>
<ellipse fill="none" stroke="#c4d9d5" cx="918.052" cy="-192.298" rx="4.00002" ry="4.00002"/>
<polygon fill="#c4d9d5" stroke="#c4d9d5" points="900.738,-153.196 900.804,-142.23 898.714,-148.624 896.69,-144.052 896.69,-144.052 896.69,-144.052 898.714,-148.624 892.575,-145.874 900.738,-153.196 900.738,-153.196"/>
</g>
<!-- Keyword -->
<g id="node5" class="node"><title>Keyword</title>
<path fill="none" stroke="black" d="M12,-23C12,-23 232,-23 232,-23 238,-23 244,-29 244,-35 244,-35 244,-117 244,-117 244,-123 238,-129 232,-129 232,-129 12,-129 12,-129 6,-129 0,-123 0,-117 0,-117 0,-35 0,-35 0,-29 6,-23 12,-23"/>
<text text-anchor="middle" x="122" y="-113.8" font-family="Times,serif" font-size="14.00">Keyword</text>
<polyline fill="none" stroke="black" points="0,-106 244,-106 "/>
<text text-anchor="start" x="8" y="-90.8" font-family="Times,serif" font-size="14.00">id :integer</text>
<text text-anchor="start" x="8" y="-75.8" font-family="Times,serif" font-size="14.00">product_id :integer</text>
<text text-anchor="start" x="8" y="-60.8" font-family="Times,serif" font-size="14.00">word :character varying</text>
<text text-anchor="start" x="8" y="-45.8" font-family="Times,serif" font-size="14.00">created_at :timestamp without time zone</text>
<text text-anchor="start" x="8" y="-30.8" font-family="Times,serif" font-size="14.00">updated_at :timestamp without time zone</text>
</g>
<!-- Address -->
<g id="node6" class="node"><title>Address</title>
<path fill="none" stroke="black" d="M1070,-406.5C1070,-406.5 1290,-406.5 1290,-406.5 1296,-406.5 1302,-412.5 1302,-418.5 1302,-418.5 1302,-620.5 1302,-620.5 1302,-626.5 1296,-632.5 1290,-632.5 1290,-632.5 1070,-632.5 1070,-632.5 1064,-632.5 1058,-626.5 1058,-620.5 1058,-620.5 1058,-418.5 1058,-418.5 1058,-412.5 1064,-406.5 1070,-406.5"/>
<text text-anchor="middle" x="1180" y="-617.3" font-family="Times,serif" font-size="14.00">Address</text>
<polyline fill="none" stroke="black" points="1058,-609.5 1302,-609.5 "/>
<text text-anchor="start" x="1066" y="-594.3" font-family="Times,serif" font-size="14.00">id :integer</text>
<text text-anchor="start" x="1066" y="-579.3" font-family="Times,serif" font-size="14.00">client_id :integer</text>
<text text-anchor="start" x="1066" y="-564.3" font-family="Times,serif" font-size="14.00">cep :character varying(11)</text>
<text text-anchor="start" x="1066" y="-549.3" font-family="Times,serif" font-size="14.00">street :character varying</text>
<text text-anchor="start" x="1066" y="-534.3" font-family="Times,serif" font-size="14.00">number :integer</text>
<text text-anchor="start" x="1066" y="-519.3" font-family="Times,serif" font-size="14.00">complement :character varying</text>
<text text-anchor="start" x="1066" y="-504.3" font-family="Times,serif" font-size="14.00">neighborhood :character varying</text>
<text text-anchor="start" x="1066" y="-489.3" font-family="Times,serif" font-size="14.00">city :character varying</text>
<text text-anchor="start" x="1066" y="-474.3" font-family="Times,serif" font-size="14.00">country :character varying</text>
<text text-anchor="start" x="1066" y="-459.3" font-family="Times,serif" font-size="14.00">address_type :integer</text>
<text text-anchor="start" x="1066" y="-444.3" font-family="Times,serif" font-size="14.00">delivery_radius :double precision</text>
<text text-anchor="start" x="1066" y="-429.3" font-family="Times,serif" font-size="14.00">created_at :timestamp without time zone</text>
<text text-anchor="start" x="1066" y="-414.3" font-family="Times,serif" font-size="14.00">updated_at :timestamp without time zone</text>
</g>
<!-- ApplicationRecord -->
<g id="node8" class="node"><title>ApplicationRecord</title>
<ellipse fill="none" stroke="black" cx="1039" cy="-805" rx="77.1866" ry="18"/>
<text text-anchor="middle" x="1039" y="-801.3" font-family="Times,serif" font-size="14.00">ApplicationRecord</text>
</g>
<!-- CategoryProduct -->
<g id="node9" class="node"><title>CategoryProduct</title>
<path fill="none" stroke="black" d="M284,-474C284,-474 504,-474 504,-474 510,-474 516,-480 516,-486 516,-486 516,-553 516,-553 516,-559 510,-565 504,-565 504,-565 284,-565 284,-565 278,-565 272,-559 272,-553 272,-553 272,-486 272,-486 272,-480 278,-474 284,-474"/>
<text text-anchor="middle" x="394" y="-549.8" font-family="Times,serif" font-size="14.00">CategoryProduct</text>
<polyline fill="none" stroke="black" points="272,-542 516,-542 "/>
<text text-anchor="start" x="280" y="-526.8" font-family="Times,serif" font-size="14.00">id :integer</text>
<text text-anchor="start" x="280" y="-511.8" font-family="Times,serif" font-size="14.00">name :character varying</text>
<text text-anchor="start" x="280" y="-496.8" font-family="Times,serif" font-size="14.00">created_at :timestamp without time zone</text>
<text text-anchor="start" x="280" y="-481.8" font-family="Times,serif" font-size="14.00">updated_at :timestamp without time zone</text>
</g>
<!-- Product -->
<g id="node16" class="node"><title>Product</title>
<path fill="none" stroke="black" d="M284,-188.5C284,-188.5 504,-188.5 504,-188.5 510,-188.5 516,-194.5 516,-200.5 516,-200.5 516,-357.5 516,-357.5 516,-363.5 510,-369.5 504,-369.5 504,-369.5 284,-369.5 284,-369.5 278,-369.5 272,-363.5 272,-357.5 272,-357.5 272,-200.5 272,-200.5 272,-194.5 278,-188.5 284,-188.5"/>
<text text-anchor="middle" x="394" y="-354.3" font-family="Times,serif" font-size="14.00">Product</text>
<polyline fill="none" stroke="black" points="272,-346.5 516,-346.5 "/>
<text text-anchor="start" x="280" y="-331.3" font-family="Times,serif" font-size="14.00">id :integer</text>
<text text-anchor="start" x="280" y="-316.3" font-family="Times,serif" font-size="14.00">professional_id :integer</text>
<text text-anchor="start" x="280" y="-301.3" font-family="Times,serif" font-size="14.00">category_product_id :integer</text>
<text text-anchor="start" x="280" y="-286.3" font-family="Times,serif" font-size="14.00">name :character varying</text>
<text text-anchor="start" x="280" y="-271.3" font-family="Times,serif" font-size="14.00">description :text</text>
<text text-anchor="start" x="280" y="-256.3" font-family="Times,serif" font-size="14.00">price :double precision</text>
<text text-anchor="start" x="280" y="-241.3" font-family="Times,serif" font-size="14.00">rating :integer</text>
<text text-anchor="start" x="280" y="-226.3" font-family="Times,serif" font-size="14.00">maxQuantity :integer</text>
<text text-anchor="start" x="280" y="-211.3" font-family="Times,serif" font-size="14.00">created_at :timestamp without time zone</text>
<text text-anchor="start" x="280" y="-196.3" font-family="Times,serif" font-size="14.00">updated_at :timestamp without time zone</text>
</g>
<!-- CategoryProduct&#45;&gt;Product -->
<g id="edge6" class="edge"><title>CategoryProduct&#45;&gt;Product</title>
<path fill="none" stroke="#32f28b" d="M394,-465.801C394,-440.604 394,-409.574 394,-380.14"/>
<ellipse fill="none" stroke="#32f28b" cx="394" cy="-469.92" rx="4" ry="4"/>
<polygon fill="#32f28b" stroke="#32f28b" points="394,-379.808 398.5,-369.807 394,-374.808 394,-369.808 394,-369.808 394,-369.808 394,-374.808 389.5,-369.808 394,-379.808 394,-379.808"/>
</g>
<!-- Client -->
<g id="node10" class="node"><title>Client</title>
<path fill="none" stroke="black" d="M642.5,-669.5C642.5,-669.5 931.5,-669.5 931.5,-669.5 937.5,-669.5 943.5,-675.5 943.5,-681.5 943.5,-681.5 943.5,-928.5 943.5,-928.5 943.5,-934.5 937.5,-940.5 931.5,-940.5 931.5,-940.5 642.5,-940.5 642.5,-940.5 636.5,-940.5 630.5,-934.5 630.5,-928.5 630.5,-928.5 630.5,-681.5 630.5,-681.5 630.5,-675.5 636.5,-669.5 642.5,-669.5"/>
<text text-anchor="middle" x="787" y="-925.3" font-family="Times,serif" font-size="14.00">Client</text>
<polyline fill="none" stroke="black" points="630.5,-917.5 943.5,-917.5 "/>
<text text-anchor="start" x="638.5" y="-902.3" font-family="Times,serif" font-size="14.00">id :integer</text>
<text text-anchor="start" x="638.5" y="-887.3" font-family="Times,serif" font-size="14.00">login :character varying</text>
<text text-anchor="start" x="638.5" y="-872.3" font-family="Times,serif" font-size="14.00">name :character varying</text>
<text text-anchor="start" x="638.5" y="-857.3" font-family="Times,serif" font-size="14.00">cpf :character varying(11)</text>
<text text-anchor="start" x="638.5" y="-842.3" font-family="Times,serif" font-size="14.00">created_at :timestamp without time zone</text>
<text text-anchor="start" x="638.5" y="-827.3" font-family="Times,serif" font-size="14.00">updated_at :timestamp without time zone</text>
<text text-anchor="start" x="638.5" y="-812.3" font-family="Times,serif" font-size="14.00">email :character varying</text>
<text text-anchor="start" x="638.5" y="-797.3" font-family="Times,serif" font-size="14.00">encrypted_password :character varying</text>
<text text-anchor="start" x="638.5" y="-782.3" font-family="Times,serif" font-size="14.00">reset_password_token :character varying</text>
<text text-anchor="start" x="638.5" y="-767.3" font-family="Times,serif" font-size="14.00">reset_password_sent_at :timestamp without time zone</text>
<text text-anchor="start" x="638.5" y="-752.3" font-family="Times,serif" font-size="14.00">remember_created_at :timestamp without time zone</text>
<text text-anchor="start" x="638.5" y="-737.3" font-family="Times,serif" font-size="14.00">sign_in_count :integer</text>
<text text-anchor="start" x="638.5" y="-722.3" font-family="Times,serif" font-size="14.00">current_sign_in_at :timestamp without time zone</text>
<text text-anchor="start" x="638.5" y="-707.3" font-family="Times,serif" font-size="14.00">last_sign_in_at :timestamp without time zone</text>
<text text-anchor="start" x="638.5" y="-692.3" font-family="Times,serif" font-size="14.00">current_sign_in_ip :inet</text>
<text text-anchor="start" x="638.5" y="-677.3" font-family="Times,serif" font-size="14.00">last_sign_in_ip :inet</text>
</g>
<!-- Client&#45;&gt;Consumer -->
<g id="edge9" class="edge"><title>Client&#45;&gt;Consumer</title>
<path fill="none" stroke="#fa6272" d="M852.7,-661.816C867.47,-629.854 882.225,-597.921 893.963,-572.518"/>
<ellipse fill="none" stroke="#fa6272" cx="850.917" cy="-665.676" rx="4.00002" ry="4.00002"/>
<ellipse fill="#fa6272" stroke="#fa6272" cx="895.671" cy="-568.823" rx="4.00002" ry="4.00002"/>
</g>
<!-- Client&#45;&gt;Address -->
<g id="edge8" class="edge"><title>Client&#45;&gt;Address</title>
<path fill="none" stroke="#4608c0" d="M950.704,-670.327C951.469,-669.881 952.235,-669.439 953,-669 992.527,-646.328 1009.78,-656.2 1049,-633 1049.09,-632.945 1049.19,-632.89 1049.28,-632.835"/>
<ellipse fill="none" stroke="#4608c0" cx="947.254" cy="-672.381" rx="4.00002" ry="4.00002"/>
<polygon fill="#4608c0" stroke="#4608c0" points="1049.37,-632.777 1060.25,-631.369 1053.63,-630.157 1057.89,-627.536 1057.89,-627.536 1057.89,-627.536 1053.63,-630.157 1055.53,-623.704 1049.37,-632.777 1049.37,-632.777"/>
</g>
<!-- Telephone -->
<g id="node11" class="node"><title>Telephone</title>
<path fill="none" stroke="black" d="M22,-466.5C22,-466.5 242,-466.5 242,-466.5 248,-466.5 254,-472.5 254,-478.5 254,-478.5 254,-560.5 254,-560.5 254,-566.5 248,-572.5 242,-572.5 242,-572.5 22,-572.5 22,-572.5 16,-572.5 10,-566.5 10,-560.5 10,-560.5 10,-478.5 10,-478.5 10,-472.5 16,-466.5 22,-466.5"/>
<text text-anchor="middle" x="132" y="-557.3" font-family="Times,serif" font-size="14.00">Telephone</text>
<polyline fill="none" stroke="black" points="10,-549.5 254,-549.5 "/>
<text text-anchor="start" x="18" y="-534.3" font-family="Times,serif" font-size="14.00">id :integer</text>
<text text-anchor="start" x="18" y="-519.3" font-family="Times,serif" font-size="14.00">client_id :integer</text>
<text text-anchor="start" x="18" y="-504.3" font-family="Times,serif" font-size="14.00">telephone :integer</text>
<text text-anchor="start" x="18" y="-489.3" font-family="Times,serif" font-size="14.00">created_at :timestamp without time zone</text>
<text text-anchor="start" x="18" y="-474.3" font-family="Times,serif" font-size="14.00">updated_at :timestamp without time zone</text>
</g>
<!-- Client&#45;&gt;Telephone -->
<g id="edge7" class="edge"><title>Client&#45;&gt;Telephone</title>
<path fill="none" stroke="#08e78b" d="M623.082,-669.872C622.389,-669.578 621.695,-669.287 621,-669 473.186,-607.982 409.984,-695.994 263,-633 234.531,-620.799 207.704,-600.122 185.83,-579.798"/>
<ellipse fill="none" stroke="#08e78b" cx="626.833" cy="-671.543" rx="4.00002" ry="4.00002"/>
<polygon fill="#08e78b" stroke="#08e78b" points="185.55,-579.531 181.407,-569.378 181.928,-576.085 178.305,-572.638 178.305,-572.638 178.305,-572.638 181.928,-576.085 175.204,-575.898 185.55,-579.531 185.55,-579.531"/>
</g>
<!-- Professional -->
<g id="node12" class="node"><title>Professional</title>
<path fill="none" stroke="black" d="M546,-474C546,-474 766,-474 766,-474 772,-474 778,-480 778,-486 778,-486 778,-553 778,-553 778,-559 772,-565 766,-565 766,-565 546,-565 546,-565 540,-565 534,-559 534,-553 534,-553 534,-486 534,-486 534,-480 540,-474 546,-474"/>
<text text-anchor="middle" x="656" y="-549.8" font-family="Times,serif" font-size="14.00">Professional</text>
<polyline fill="none" stroke="black" points="534,-542 778,-542 "/>
<text text-anchor="start" x="542" y="-526.8" font-family="Times,serif" font-size="14.00">id :integer</text>
<text text-anchor="start" x="542" y="-511.8" font-family="Times,serif" font-size="14.00">client_id :integer</text>
<text text-anchor="start" x="542" y="-496.8" font-family="Times,serif" font-size="14.00">created_at :timestamp without time zone</text>
<text text-anchor="start" x="542" y="-481.8" font-family="Times,serif" font-size="14.00">updated_at :timestamp without time zone</text>
</g>
<!-- Client&#45;&gt;Professional -->
<g id="edge10" class="edge"><title>Client&#45;&gt;Professional</title>
<path fill="none" stroke="#6ac25d" d="M721.3,-661.816C706.53,-629.854 691.775,-597.921 680.037,-572.518"/>
<ellipse fill="none" stroke="#6ac25d" cx="723.083" cy="-665.676" rx="4.00002" ry="4.00002"/>
<ellipse fill="#6ac25d" stroke="#6ac25d" cx="678.329" cy="-568.823" rx="4.00002" ry="4.00002"/>
</g>
<!-- Banking -->
<g id="node14" class="node"><title>Banking</title>
<path fill="none" stroke="black" d="M546,-211C546,-211 766,-211 766,-211 772,-211 778,-217 778,-223 778,-223 778,-335 778,-335 778,-341 772,-347 766,-347 766,-347 546,-347 546,-347 540,-347 534,-341 534,-335 534,-335 534,-223 534,-223 534,-217 540,-211 546,-211"/>
<text text-anchor="middle" x="656" y="-331.8" font-family="Times,serif" font-size="14.00">Banking</text>
<polyline fill="none" stroke="black" points="534,-324 778,-324 "/>
<text text-anchor="start" x="542" y="-308.8" font-family="Times,serif" font-size="14.00">id :integer</text>
<text text-anchor="start" x="542" y="-293.8" font-family="Times,serif" font-size="14.00">professional_id :integer</text>
<text text-anchor="start" x="542" y="-278.8" font-family="Times,serif" font-size="14.00">bank :integer</text>
<text text-anchor="start" x="542" y="-263.8" font-family="Times,serif" font-size="14.00">agency :integer</text>
<text text-anchor="start" x="542" y="-248.8" font-family="Times,serif" font-size="14.00">account :integer</text>
<text text-anchor="start" x="542" y="-233.8" font-family="Times,serif" font-size="14.00">created_at :timestamp without time zone</text>
<text text-anchor="start" x="542" y="-218.8" font-family="Times,serif" font-size="14.00">updated_at :timestamp without time zone</text>
</g>
<!-- Professional&#45;&gt;Banking -->
<g id="edge11" class="edge"><title>Professional&#45;&gt;Banking</title>
<path fill="none" stroke="#8231fa" d="M656,-465.759C656,-434.025 656,-393.053 656,-357.665"/>
<ellipse fill="none" stroke="#8231fa" cx="656" cy="-469.92" rx="4" ry="4"/>
<polygon fill="#8231fa" stroke="#8231fa" points="656,-357.363 660.5,-347.363 656,-352.363 656,-347.363 656,-347.363 656,-347.363 656,-352.363 651.5,-347.363 656,-357.363 656,-357.363"/>
</g>
<!-- Professional&#45;&gt;Product -->
<g id="edge12" class="edge"><title>Professional&#45;&gt;Product</title>
<path fill="none" stroke="#19e7da" d="M600.861,-468.307C571.629,-441.697 534.708,-408.088 500.176,-376.653"/>
<ellipse fill="none" stroke="#19e7da" cx="604.069" cy="-471.227" rx="4.00002" ry="4.00002"/>
<polygon fill="#19e7da" stroke="#19e7da" points="499.781,-376.293 495.416,-366.234 496.084,-372.928 492.386,-369.562 492.386,-369.562 492.386,-369.562 496.084,-372.928 489.357,-372.889 499.781,-376.293 499.781,-376.293"/>
</g>
<!-- CreditCard&#45;&gt;Payment -->
<g id="edge13" class="edge"><title>CreditCard&#45;&gt;Payment</title>
<path fill="none" stroke="#0b8c9d" d="M1182.72,-188.227C1178.16,-176.627 1173.52,-164.834 1169.06,-153.476"/>
<ellipse fill="none" stroke="#0b8c9d" cx="1184.29" cy="-192.233" rx="4.00001" ry="4.00001"/>
<polygon fill="#0b8c9d" stroke="#0b8c9d" points="1169.01,-153.359 1169.54,-142.406 1167.18,-148.705 1165.35,-144.052 1165.35,-144.052 1165.35,-144.052 1167.18,-148.705 1161.17,-145.698 1169.01,-153.359 1169.01,-153.359"/>
</g>
<!-- Product&#45;&gt;Picture -->
<g id="edge16" class="edge"><title>Product&#45;&gt;Picture</title>
<path fill="none" stroke="#cbe2f7" d="M398.86,-180.313C399.167,-174.153 399.474,-167.979 399.777,-161.883"/>
<ellipse fill="none" stroke="#cbe2f7" cx="398.658" cy="-184.38" rx="4" ry="4"/>
<polygon fill="#cbe2f7" stroke="#cbe2f7" points="399.786,-161.703 404.777,-151.939 400.034,-156.709 400.283,-151.715 400.283,-151.715 400.283,-151.715 400.034,-156.709 395.788,-151.491 399.786,-161.703 399.786,-161.703"/>
</g>
<!-- Product&#45;&gt;Keyword -->
<g id="edge15" class="edge"><title>Product&#45;&gt;Keyword</title>
<path fill="none" stroke="#3344ea" d="M266.262,-183.606C243.815,-167.018 221.066,-150.207 200.474,-134.99"/>
<ellipse fill="none" stroke="#3344ea" cx="269.5" cy="-185.998" rx="4.00002" ry="4.00002"/>
<polygon fill="#3344ea" stroke="#3344ea" points="200.436,-134.962 195.068,-125.4 196.415,-131.99 192.394,-129.019 192.394,-129.019 192.394,-129.019 196.415,-131.99 189.719,-132.638 200.436,-134.962 200.436,-134.962"/>
</g>
<!-- Product&#45;&gt;CartItem -->
<g id="edge17" class="edge"><title>Product&#45;&gt;CartItem</title>
<path fill="none" stroke="#e4beda" d="M523.627,-188.576C524.084,-188.383 524.542,-188.19 525,-188 604.761,-154.828 634.101,-179.472 716,-152 722.433,-149.842 728.938,-147.46 735.451,-144.913"/>
<ellipse fill="none" stroke="#e4beda" cx="519.87" cy="-190.242" rx="4.00002" ry="4.00002"/>
<polygon fill="#e4beda" stroke="#e4beda" points="735.716,-144.806 746.673,-145.242 740.353,-142.937 744.991,-141.068 744.991,-141.068 744.991,-141.068 740.353,-142.937 743.308,-136.894 735.716,-144.806 735.716,-144.806"/>
</g>
<!-- Product&#45;&gt;Transaction -->
<g id="edge14" class="edge"><title>Product&#45;&gt;Transaction</title>
<path fill="none" stroke="#ddb785" d="M516.767,-183.455C557.686,-151.943 599.622,-119.647 626.408,-99.019"/>
<ellipse fill="none" stroke="#ddb785" cx="513.548" cy="-185.934" rx="4.00002" ry="4.00002"/>
<polygon fill="#ddb785" stroke="#ddb785" points="626.629,-98.8488 637.298,-96.3126 630.591,-95.798 634.552,-92.7473 634.552,-92.7473 634.552,-92.7473 630.591,-95.798 631.806,-89.182 626.629,-98.8488 626.629,-98.8488"/>
</g>
</g>
</svg>
