<?xml version="1.0" encoding="UTF-8" standalone="no"?>
<!DOCTYPE svg PUBLIC "-//W3C//DTD SVG 1.1//EN"
 "http://www.w3.org/Graphics/SVG/1.1/DTD/svg11.dtd">
<!-- Generated by graphviz version 2.38.0 (20140413.2041)
 -->
<!-- Title: models_diagram Pages: 1 -->
<svg width="1310pt" height="949pt"
 viewBox="0.00 0.00 1310.00 949.00" xmlns="http://www.w3.org/2000/svg" xmlns:xlink="http://www.w3.org/1999/xlink">
<g id="graph0" class="graph" transform="scale(1 1) rotate(0) translate(4 945)">
<title>models_diagram</title>
<polygon fill="none" stroke="none" points="-4,4 -4,-945 1306,-945 1306,4 -4,4"/>
<!-- _diagram_info -->
<g id="node1" class="node"><title>_diagram_info</title>
<text text-anchor="start" x="406" y="-829.6" font-family="Times,serif" font-size="13.00">Models diagram</text>
<text text-anchor="start" x="406" y="-815.6" font-family="Times,serif" font-size="13.00">Date: Oct 14 2016 &#45; 18:31</text>
<text text-anchor="start" x="406" y="-801.6" font-family="Times,serif" font-size="13.00">Migration version: 20161013203116</text>
<text text-anchor="start" x="406" y="-787.6" font-family="Times,serif" font-size="13.00">Generated by RailRoady 1.5.2</text>
<text text-anchor="start" x="406" y="-773.6" font-family="Times,serif" font-size="13.00">http://railroady.prestonlee.com</text>
</g>
<!-- Consumer -->
<g id="node2" class="node"><title>Consumer</title>
<path fill="none" stroke="black" d="M808,-474C808,-474 1028,-474 1028,-474 1034,-474 1040,-480 1040,-486 1040,-486 1040,-553 1040,-553 1040,-559 1034,-565 1028,-565 1028,-565 808,-565 808,-565 802,-565 796,-559 796,-553 796,-553 796,-486 796,-486 796,-480 802,-474 808,-474"/>
<text text-anchor="middle" x="918" y="-549.8" font-family="Times,serif" font-size="14.00">Consumer</text>
<polyline fill="none" stroke="black" points="796,-542 1040,-542 "/>
<text text-anchor="start" x="804" y="-526.8" font-family="Times,serif" font-size="14.00">id :integer</text>
<text text-anchor="start" x="804" y="-511.8" font-family="Times,serif" font-size="14.00">client_id :integer</text>
<text text-anchor="start" x="804" y="-496.8" font-family="Times,serif" font-size="14.00">created_at :timestamp without time zone</text>
<text text-anchor="start" x="804" y="-481.8" font-family="Times,serif" font-size="14.00">updated_at :timestamp without time zone</text>
</g>
<!-- ShoppingCart -->
<g id="node4" class="node"><title>ShoppingCart</title>
<path fill="none" stroke="black" d="M939,-196C939,-196 1159,-196 1159,-196 1165,-196 1171,-202 1171,-208 1171,-208 1171,-350 1171,-350 1171,-356 1165,-362 1159,-362 1159,-362 939,-362 939,-362 933,-362 927,-356 927,-350 927,-350 927,-208 927,-208 927,-202 933,-196 939,-196"/>
<text text-anchor="middle" x="1049" y="-346.8" font-family="Times,serif" font-size="14.00">ShoppingCart</text>
<polyline fill="none" stroke="black" points="927,-339 1171,-339 "/>
<text text-anchor="start" x="935" y="-323.8" font-family="Times,serif" font-size="14.00">id :integer</text>
<text text-anchor="start" x="935" y="-308.8" font-family="Times,serif" font-size="14.00">consumer_id :integer</text>
<text text-anchor="start" x="935" y="-293.8" font-family="Times,serif" font-size="14.00">status :integer</text>
<text text-anchor="start" x="935" y="-278.8" font-family="Times,serif" font-size="14.00">fees :double precision</text>
<text text-anchor="start" x="935" y="-263.8" font-family="Times,serif" font-size="14.00">gain :double precision</text>
<text text-anchor="start" x="935" y="-248.8" font-family="Times,serif" font-size="14.00">promotion_discount :double precision</text>
<text text-anchor="start" x="935" y="-233.8" font-family="Times,serif" font-size="14.00">total_paid :double precision</text>
<text text-anchor="start" x="935" y="-218.8" font-family="Times,serif" font-size="14.00">created_at :timestamp without time zone</text>
<text text-anchor="start" x="935" y="-203.8" font-family="Times,serif" font-size="14.00">updated_at :timestamp without time zone</text>
</g>
<!-- Consumer&#45;&gt;ShoppingCart -->
<g id="edge3" class="edge"><title>Consumer&#45;&gt;ShoppingCart</title>
<path fill="none" stroke="#97dd68" d="M946.429,-466.741C961.785,-438.784 981.194,-403.448 998.986,-371.057"/>
<ellipse fill="none" stroke="#97dd68" cx="944.412" cy="-470.414" rx="4.00002" ry="4.00002"/>
<polygon fill="#97dd68" stroke="#97dd68" points="999.142,-370.772 1007.9,-364.174 1001.55,-366.39 1003.96,-362.007 1003.96,-362.007 1003.96,-362.007 1001.55,-366.39 1000.01,-359.841 999.142,-370.772 999.142,-370.772"/>
</g>
<!-- CreditCard -->
<g id="node12" class="node"><title>CreditCard</title>
<path fill="none" stroke="black" d="M677,-196C677,-196 897,-196 897,-196 903,-196 909,-202 909,-208 909,-208 909,-350 909,-350 909,-356 903,-362 897,-362 897,-362 677,-362 677,-362 671,-362 665,-356 665,-350 665,-350 665,-208 665,-208 665,-202 671,-196 677,-196"/>
<text text-anchor="middle" x="787" y="-346.8" font-family="Times,serif" font-size="14.00">CreditCard</text>
<polyline fill="none" stroke="black" points="665,-339 909,-339 "/>
<text text-anchor="start" x="673" y="-323.8" font-family="Times,serif" font-size="14.00">id :integer</text>
<text text-anchor="start" x="673" y="-308.8" font-family="Times,serif" font-size="14.00">consumer_id :integer</text>
<text text-anchor="start" x="673" y="-293.8" font-family="Times,serif" font-size="14.00">name :character varying</text>
<text text-anchor="start" x="673" y="-278.8" font-family="Times,serif" font-size="14.00">number :integer</text>
<text text-anchor="start" x="673" y="-263.8" font-family="Times,serif" font-size="14.00">digit :integer</text>
<text text-anchor="start" x="673" y="-248.8" font-family="Times,serif" font-size="14.00">flag :character varying</text>
<text text-anchor="start" x="673" y="-233.8" font-family="Times,serif" font-size="14.00">expiration :character varying</text>
<text text-anchor="start" x="673" y="-218.8" font-family="Times,serif" font-size="14.00">created_at :timestamp without time zone</text>
<text text-anchor="start" x="673" y="-203.8" font-family="Times,serif" font-size="14.00">updated_at :timestamp without time zone</text>
</g>
<!-- Consumer&#45;&gt;CreditCard -->
<g id="edge1" class="edge"><title>Consumer&#45;&gt;CreditCard</title>
<path fill="none" stroke="#009ace" d="M889.571,-466.741C874.215,-438.784 854.806,-403.448 837.014,-371.057"/>
<ellipse fill="none" stroke="#009ace" cx="891.588" cy="-470.414" rx="4.00002" ry="4.00002"/>
<polygon fill="#009ace" stroke="#009ace" points="836.858,-370.772 835.988,-359.841 834.451,-366.39 832.044,-362.007 832.044,-362.007 832.044,-362.007 834.451,-366.39 828.1,-364.174 836.858,-370.772 836.858,-370.772"/>
</g>
<!-- Transaction -->
<g id="node16" class="node"><title>Transaction</title>
<ellipse fill="none" stroke="black" cx="1118" cy="-76" rx="51.9908" ry="18"/>
<text text-anchor="middle" x="1118" y="-72.3" font-family="Times,serif" font-size="14.00">Transaction</text>
</g>
<!-- Consumer&#45;&gt;Transaction -->
<g id="edge2" class="edge"><title>Consumer&#45;&gt;Transaction</title>
<path fill="none" stroke="#aee329" d="M966.178,-468.037C989.402,-446.236 1018.75,-422.091 1049,-406 1102.31,-377.643 1143.4,-418.02 1180,-370 1242.7,-287.742 1170.52,-156.405 1135.22,-101.931"/>
<ellipse fill="none" stroke="#aee329" cx="963" cy="-471.061" rx="4.00002" ry="4.00002"/>
<polygon fill="#aee329" stroke="#aee329" points="1135.21,-101.914 1133.45,-91.0895 1132.45,-97.7417 1129.7,-93.5698 1129.7,-93.5698 1129.7,-93.5698 1132.45,-97.7417 1125.94,-96.05 1135.21,-101.914 1135.21,-101.914"/>
</g>
<!-- Picture -->
<g id="node3" class="node"><title>Picture</title>
<path fill="none" stroke="black" d="M274,-0.5C274,-0.5 534,-0.5 534,-0.5 540,-0.5 546,-6.5 546,-12.5 546,-12.5 546,-139.5 546,-139.5 546,-145.5 540,-151.5 534,-151.5 534,-151.5 274,-151.5 274,-151.5 268,-151.5 262,-145.5 262,-139.5 262,-139.5 262,-12.5 262,-12.5 262,-6.5 268,-0.5 274,-0.5"/>
<text text-anchor="middle" x="404" y="-136.3" font-family="Times,serif" font-size="14.00">Picture</text>
<polyline fill="none" stroke="black" points="262,-128.5 546,-128.5 "/>
<text text-anchor="start" x="270" y="-113.3" font-family="Times,serif" font-size="14.00">id :integer</text>
<text text-anchor="start" x="270" y="-98.3" font-family="Times,serif" font-size="14.00">product_id :integer</text>
<text text-anchor="start" x="270" y="-83.3" font-family="Times,serif" font-size="14.00">created_at :timestamp without time zone</text>
<text text-anchor="start" x="270" y="-68.3" font-family="Times,serif" font-size="14.00">updated_at :timestamp without time zone</text>
<text text-anchor="start" x="270" y="-53.3" font-family="Times,serif" font-size="14.00">image_file_name :character varying</text>
<text text-anchor="start" x="270" y="-38.3" font-family="Times,serif" font-size="14.00">image_content_type :character varying</text>
<text text-anchor="start" x="270" y="-23.3" font-family="Times,serif" font-size="14.00">image_file_size :integer</text>
<text text-anchor="start" x="270" y="-8.3" font-family="Times,serif" font-size="14.00">image_updated_at :timestamp without time zone</text>
</g>
<!-- CartItem -->
<g id="node14" class="node"><title>CartItem</title>
<path fill="none" stroke="black" d="M736,-8C736,-8 956,-8 956,-8 962,-8 968,-14 968,-20 968,-20 968,-132 968,-132 968,-138 962,-144 956,-144 956,-144 736,-144 736,-144 730,-144 724,-138 724,-132 724,-132 724,-20 724,-20 724,-14 730,-8 736,-8"/>
<text text-anchor="middle" x="846" y="-128.8" font-family="Times,serif" font-size="14.00">CartItem</text>
<polyline fill="none" stroke="black" points="724,-121 968,-121 "/>
<text text-anchor="start" x="732" y="-105.8" font-family="Times,serif" font-size="14.00">id :integer</text>
<text text-anchor="start" x="732" y="-90.8" font-family="Times,serif" font-size="14.00">shopping_cart_id :integer</text>
<text text-anchor="start" x="732" y="-75.8" font-family="Times,serif" font-size="14.00">product_id :integer</text>
<text text-anchor="start" x="732" y="-60.8" font-family="Times,serif" font-size="14.00">quantity :double precision</text>
<text text-anchor="start" x="732" y="-45.8" font-family="Times,serif" font-size="14.00">unitary_price :double precision</text>
<text text-anchor="start" x="732" y="-30.8" font-family="Times,serif" font-size="14.00">created_at :timestamp without time zone</text>
<text text-anchor="start" x="732" y="-15.8" font-family="Times,serif" font-size="14.00">updated_at :timestamp without time zone</text>
</g>
<!-- ShoppingCart&#45;&gt;CartItem -->
<g id="edge4" class="edge"><title>ShoppingCart&#45;&gt;CartItem</title>
<path fill="none" stroke="#6c3e8d" d="M960.395,-190.268C947.313,-177.315 933.94,-164.073 921.165,-151.424"/>
<ellipse fill="none" stroke="#6c3e8d" cx="963.297" cy="-193.141" rx="4.00002" ry="4.00002"/>
<polygon fill="#6c3e8d" stroke="#6c3e8d" points="920.825,-151.088 916.885,-140.854 917.272,-147.57 913.719,-144.052 913.719,-144.052 913.719,-144.052 917.272,-147.57 910.553,-147.249 920.825,-151.088 920.825,-151.088"/>
</g>
<!-- Keyword -->
<g id="node5" class="node"><title>Keyword</title>
<path fill="none" stroke="black" d="M12,-23C12,-23 232,-23 232,-23 238,-23 244,-29 244,-35 244,-35 244,-117 244,-117 244,-123 238,-129 232,-129 232,-129 12,-129 12,-129 6,-129 0,-123 0,-117 0,-117 0,-35 0,-35 0,-29 6,-23 12,-23"/>
<text text-anchor="middle" x="122" y="-113.8" font-family="Times,serif" font-size="14.00">Keyword</text>
<polyline fill="none" stroke="black" points="0,-106 244,-106 "/>
<text text-anchor="start" x="8" y="-90.8" font-family="Times,serif" font-size="14.00">id :integer</text>
<text text-anchor="start" x="8" y="-75.8" font-family="Times,serif" font-size="14.00">product_id :integer</text>
<text text-anchor="start" x="8" y="-60.8" font-family="Times,serif" font-size="14.00">word :character varying</text>
<text text-anchor="start" x="8" y="-45.8" font-family="Times,serif" font-size="14.00">created_at :timestamp without time zone</text>
<text text-anchor="start" x="8" y="-30.8" font-family="Times,serif" font-size="14.00">updated_at :timestamp without time zone</text>
</g>
<!-- Address -->
<g id="node6" class="node"><title>Address</title>
<path fill="none" stroke="black" d="M1070,-406.5C1070,-406.5 1290,-406.5 1290,-406.5 1296,-406.5 1302,-412.5 1302,-418.5 1302,-418.5 1302,-620.5 1302,-620.5 1302,-626.5 1296,-632.5 1290,-632.5 1290,-632.5 1070,-632.5 1070,-632.5 1064,-632.5 1058,-626.5 1058,-620.5 1058,-620.5 1058,-418.5 1058,-418.5 1058,-412.5 1064,-406.5 1070,-406.5"/>
<text text-anchor="middle" x="1180" y="-617.3" font-family="Times,serif" font-size="14.00">Address</text>
<polyline fill="none" stroke="black" points="1058,-609.5 1302,-609.5 "/>
<text text-anchor="start" x="1066" y="-594.3" font-family="Times,serif" font-size="14.00">id :integer</text>
<text text-anchor="start" x="1066" y="-579.3" font-family="Times,serif" font-size="14.00">client_id :integer</text>
<text text-anchor="start" x="1066" y="-564.3" font-family="Times,serif" font-size="14.00">cep :character varying(11)</text>
<text text-anchor="start" x="1066" y="-549.3" font-family="Times,serif" font-size="14.00">street :character varying</text>
<text text-anchor="start" x="1066" y="-534.3" font-family="Times,serif" font-size="14.00">number :integer</text>
<text text-anchor="start" x="1066" y="-519.3" font-family="Times,serif" font-size="14.00">complement :character varying</text>
<text text-anchor="start" x="1066" y="-504.3" font-family="Times,serif" font-size="14.00">neighborhood :character varying</text>
<text text-anchor="start" x="1066" y="-489.3" font-family="Times,serif" font-size="14.00">city :character varying</text>
<text text-anchor="start" x="1066" y="-474.3" font-family="Times,serif" font-size="14.00">country :character varying</text>
<text text-anchor="start" x="1066" y="-459.3" font-family="Times,serif" font-size="14.00">address_type :integer</text>
<text text-anchor="start" x="1066" y="-444.3" font-family="Times,serif" font-size="14.00">delivery_radius :double precision</text>
<text text-anchor="start" x="1066" y="-429.3" font-family="Times,serif" font-size="14.00">created_at :timestamp without time zone</text>
<text text-anchor="start" x="1066" y="-414.3" font-family="Times,serif" font-size="14.00">updated_at :timestamp without time zone</text>
</g>
<!-- ApplicationRecord -->
<g id="node7" class="node"><title>ApplicationRecord</title>
<ellipse fill="none" stroke="black" cx="1039" cy="-805" rx="77.1866" ry="18"/>
<text text-anchor="middle" x="1039" y="-801.3" font-family="Times,serif" font-size="14.00">ApplicationRecord</text>
</g>
<!-- CategoryProduct -->
<g id="node8" class="node"><title>CategoryProduct</title>
<path fill="none" stroke="black" d="M22,-474C22,-474 242,-474 242,-474 248,-474 254,-480 254,-486 254,-486 254,-553 254,-553 254,-559 248,-565 242,-565 242,-565 22,-565 22,-565 16,-565 10,-559 10,-553 10,-553 10,-486 10,-486 10,-480 16,-474 22,-474"/>
<text text-anchor="middle" x="132" y="-549.8" font-family="Times,serif" font-size="14.00">CategoryProduct</text>
<polyline fill="none" stroke="black" points="10,-542 254,-542 "/>
<text text-anchor="start" x="18" y="-526.8" font-family="Times,serif" font-size="14.00">id :integer</text>
<text text-anchor="start" x="18" y="-511.8" font-family="Times,serif" font-size="14.00">name :character varying</text>
<text text-anchor="start" x="18" y="-496.8" font-family="Times,serif" font-size="14.00">created_at :timestamp without time zone</text>
<text text-anchor="start" x="18" y="-481.8" font-family="Times,serif" font-size="14.00">updated_at :timestamp without time zone</text>
</g>
<!-- Product -->
<g id="node15" class="node"><title>Product</title>
<path fill="none" stroke="black" d="M153,-188.5C153,-188.5 373,-188.5 373,-188.5 379,-188.5 385,-194.5 385,-200.5 385,-200.5 385,-357.5 385,-357.5 385,-363.5 379,-369.5 373,-369.5 373,-369.5 153,-369.5 153,-369.5 147,-369.5 141,-363.5 141,-357.5 141,-357.5 141,-200.5 141,-200.5 141,-194.5 147,-188.5 153,-188.5"/>
<text text-anchor="middle" x="263" y="-354.3" font-family="Times,serif" font-size="14.00">Product</text>
<polyline fill="none" stroke="black" points="141,-346.5 385,-346.5 "/>
<text text-anchor="start" x="149" y="-331.3" font-family="Times,serif" font-size="14.00">id :integer</text>
<text text-anchor="start" x="149" y="-316.3" font-family="Times,serif" font-size="14.00">professional_id :integer</text>
<text text-anchor="start" x="149" y="-301.3" font-family="Times,serif" font-size="14.00">category_product_id :integer</text>
<text text-anchor="start" x="149" y="-286.3" font-family="Times,serif" font-size="14.00">name :character varying</text>
<text text-anchor="start" x="149" y="-271.3" font-family="Times,serif" font-size="14.00">description :text</text>
<text text-anchor="start" x="149" y="-256.3" font-family="Times,serif" font-size="14.00">price :double precision</text>
<text text-anchor="start" x="149" y="-241.3" font-family="Times,serif" font-size="14.00">rating :integer</text>
<text text-anchor="start" x="149" y="-226.3" font-family="Times,serif" font-size="14.00">maxQuantity :integer</text>
<text text-anchor="start" x="149" y="-211.3" font-family="Times,serif" font-size="14.00">created_at :timestamp without time zone</text>
<text text-anchor="start" x="149" y="-196.3" font-family="Times,serif" font-size="14.00">updated_at :timestamp without time zone</text>
</g>
<!-- CategoryProduct&#45;&gt;Product -->
<g id="edge5" class="edge"><title>CategoryProduct&#45;&gt;Product</title>
<path fill="none" stroke="#440046" d="M160.35,-466.885C174.517,-441.092 192.149,-408.992 208.78,-378.713"/>
<ellipse fill="none" stroke="#440046" cx="158.412" cy="-470.414" rx="4.00002" ry="4.00002"/>
<polygon fill="#440046" stroke="#440046" points="208.857,-378.572 217.616,-371.974 211.265,-374.19 213.672,-369.808 213.672,-369.808 213.672,-369.808 211.265,-374.19 209.728,-367.641 208.857,-378.572 208.857,-378.572"/>
</g>
<!-- Client -->
<g id="node9" class="node"><title>Client</title>
<path fill="none" stroke="black" d="M642.5,-669.5C642.5,-669.5 931.5,-669.5 931.5,-669.5 937.5,-669.5 943.5,-675.5 943.5,-681.5 943.5,-681.5 943.5,-928.5 943.5,-928.5 943.5,-934.5 937.5,-940.5 931.5,-940.5 931.5,-940.5 642.5,-940.5 642.5,-940.5 636.5,-940.5 630.5,-934.5 630.5,-928.5 630.5,-928.5 630.5,-681.5 630.5,-681.5 630.5,-675.5 636.5,-669.5 642.5,-669.5"/>
<text text-anchor="middle" x="787" y="-925.3" font-family="Times,serif" font-size="14.00">Client</text>
<polyline fill="none" stroke="black" points="630.5,-917.5 943.5,-917.5 "/>
<text text-anchor="start" x="638.5" y="-902.3" font-family="Times,serif" font-size="14.00">id :integer</text>
<text text-anchor="start" x="638.5" y="-887.3" font-family="Times,serif" font-size="14.00">login :character varying</text>
<text text-anchor="start" x="638.5" y="-872.3" font-family="Times,serif" font-size="14.00">name :character varying</text>
<text text-anchor="start" x="638.5" y="-857.3" font-family="Times,serif" font-size="14.00">cpf :character varying(11)</text>
<text text-anchor="start" x="638.5" y="-842.3" font-family="Times,serif" font-size="14.00">created_at :timestamp without time zone</text>
<text text-anchor="start" x="638.5" y="-827.3" font-family="Times,serif" font-size="14.00">updated_at :timestamp without time zone</text>
<text text-anchor="start" x="638.5" y="-812.3" font-family="Times,serif" font-size="14.00">email :character varying</text>
<text text-anchor="start" x="638.5" y="-797.3" font-family="Times,serif" font-size="14.00">encrypted_password :character varying</text>
<text text-anchor="start" x="638.5" y="-782.3" font-family="Times,serif" font-size="14.00">reset_password_token :character varying</text>
<text text-anchor="start" x="638.5" y="-767.3" font-family="Times,serif" font-size="14.00">reset_password_sent_at :timestamp without time zone</text>
<text text-anchor="start" x="638.5" y="-752.3" font-family="Times,serif" font-size="14.00">remember_created_at :timestamp without time zone</text>
<text text-anchor="start" x="638.5" y="-737.3" font-family="Times,serif" font-size="14.00">sign_in_count :integer</text>
<text text-anchor="start" x="638.5" y="-722.3" font-family="Times,serif" font-size="14.00">current_sign_in_at :timestamp without time zone</text>
<text text-anchor="start" x="638.5" y="-707.3" font-family="Times,serif" font-size="14.00">last_sign_in_at :timestamp without time zone</text>
<text text-anchor="start" x="638.5" y="-692.3" font-family="Times,serif" font-size="14.00">current_sign_in_ip :inet</text>
<text text-anchor="start" x="638.5" y="-677.3" font-family="Times,serif" font-size="14.00">last_sign_in_ip :inet</text>
</g>
<!-- Client&#45;&gt;Consumer -->
<g id="edge8" class="edge"><title>Client&#45;&gt;Consumer</title>
<path fill="none" stroke="#b9ccd9" d="M852.7,-661.816C867.47,-629.854 882.225,-597.921 893.963,-572.518"/>
<ellipse fill="none" stroke="#b9ccd9" cx="850.917" cy="-665.676" rx="4.00002" ry="4.00002"/>
<ellipse fill="#b9ccd9" stroke="#b9ccd9" cx="895.671" cy="-568.823" rx="4.00002" ry="4.00002"/>
</g>
<!-- Client&#45;&gt;Address -->
<g id="edge7" class="edge"><title>Client&#45;&gt;Address</title>
<path fill="none" stroke="#88f0b7" d="M950.704,-670.327C951.469,-669.881 952.235,-669.439 953,-669 992.527,-646.328 1009.78,-656.2 1049,-633 1049.09,-632.945 1049.19,-632.89 1049.28,-632.835"/>
<ellipse fill="none" stroke="#88f0b7" cx="947.254" cy="-672.381" rx="4.00002" ry="4.00002"/>
<polygon fill="#88f0b7" stroke="#88f0b7" points="1049.37,-632.777 1060.25,-631.369 1053.63,-630.157 1057.89,-627.536 1057.89,-627.536 1057.89,-627.536 1053.63,-630.157 1055.53,-623.704 1049.37,-632.777 1049.37,-632.777"/>
</g>
<!-- Telephone -->
<g id="node10" class="node"><title>Telephone</title>
<path fill="none" stroke="black" d="M284,-466.5C284,-466.5 504,-466.5 504,-466.5 510,-466.5 516,-472.5 516,-478.5 516,-478.5 516,-560.5 516,-560.5 516,-566.5 510,-572.5 504,-572.5 504,-572.5 284,-572.5 284,-572.5 278,-572.5 272,-566.5 272,-560.5 272,-560.5 272,-478.5 272,-478.5 272,-472.5 278,-466.5 284,-466.5"/>
<text text-anchor="middle" x="394" y="-557.3" font-family="Times,serif" font-size="14.00">Telephone</text>
<polyline fill="none" stroke="black" points="272,-549.5 516,-549.5 "/>
<text text-anchor="start" x="280" y="-534.3" font-family="Times,serif" font-size="14.00">id :integer</text>
<text text-anchor="start" x="280" y="-519.3" font-family="Times,serif" font-size="14.00">client_id :integer</text>
<text text-anchor="start" x="280" y="-504.3" font-family="Times,serif" font-size="14.00">telephone :integer</text>
<text text-anchor="start" x="280" y="-489.3" font-family="Times,serif" font-size="14.00">created_at :timestamp without time zone</text>
<text text-anchor="start" x="280" y="-474.3" font-family="Times,serif" font-size="14.00">updated_at :timestamp without time zone</text>
</g>
<!-- Client&#45;&gt;Telephone -->
<g id="edge6" class="edge"><title>Client&#45;&gt;Telephone</title>
<path fill="none" stroke="#47e3b3" d="M623.296,-670.327C622.531,-669.881 621.765,-669.439 621,-669 581.473,-646.328 564.22,-656.2 525,-633 499.952,-618.183 475.062,-598.426 453.814,-579.606"/>
<ellipse fill="none" stroke="#47e3b3" cx="626.746" cy="-672.381" rx="4.00002" ry="4.00002"/>
<polygon fill="#47e3b3" stroke="#47e3b3" points="453.595,-579.41 449.164,-569.379 449.876,-576.068 446.157,-572.726 446.157,-572.726 446.157,-572.726 449.876,-576.068 443.149,-576.073 453.595,-579.41 453.595,-579.41"/>
</g>
<!-- Professional -->
<g id="node11" class="node"><title>Professional</title>
<path fill="none" stroke="black" d="M546,-474C546,-474 766,-474 766,-474 772,-474 778,-480 778,-486 778,-486 778,-553 778,-553 778,-559 772,-565 766,-565 766,-565 546,-565 546,-565 540,-565 534,-559 534,-553 534,-553 534,-486 534,-486 534,-480 540,-474 546,-474"/>
<text text-anchor="middle" x="656" y="-549.8" font-family="Times,serif" font-size="14.00">Professional</text>
<polyline fill="none" stroke="black" points="534,-542 778,-542 "/>
<text text-anchor="start" x="542" y="-526.8" font-family="Times,serif" font-size="14.00">id :integer</text>
<text text-anchor="start" x="542" y="-511.8" font-family="Times,serif" font-size="14.00">client_id :integer</text>
<text text-anchor="start" x="542" y="-496.8" font-family="Times,serif" font-size="14.00">created_at :timestamp without time zone</text>
<text text-anchor="start" x="542" y="-481.8" font-family="Times,serif" font-size="14.00">updated_at :timestamp without time zone</text>
</g>
<!-- Client&#45;&gt;Professional -->
<g id="edge9" class="edge"><title>Client&#45;&gt;Professional</title>
<path fill="none" stroke="#2b1352" d="M721.3,-661.816C706.53,-629.854 691.775,-597.921 680.037,-572.518"/>
<ellipse fill="none" stroke="#2b1352" cx="723.083" cy="-665.676" rx="4.00002" ry="4.00002"/>
<ellipse fill="#2b1352" stroke="#2b1352" cx="678.329" cy="-568.823" rx="4.00002" ry="4.00002"/>
</g>
<!-- Banking -->
<g id="node13" class="node"><title>Banking</title>
<path fill="none" stroke="black" d="M415,-211C415,-211 635,-211 635,-211 641,-211 647,-217 647,-223 647,-223 647,-335 647,-335 647,-341 641,-347 635,-347 635,-347 415,-347 415,-347 409,-347 403,-341 403,-335 403,-335 403,-223 403,-223 403,-217 409,-211 415,-211"/>
<text text-anchor="middle" x="525" y="-331.8" font-family="Times,serif" font-size="14.00">Banking</text>
<polyline fill="none" stroke="black" points="403,-324 647,-324 "/>
<text text-anchor="start" x="411" y="-308.8" font-family="Times,serif" font-size="14.00">id :integer</text>
<text text-anchor="start" x="411" y="-293.8" font-family="Times,serif" font-size="14.00">professional_id :integer</text>
<text text-anchor="start" x="411" y="-278.8" font-family="Times,serif" font-size="14.00">bank :integer</text>
<text text-anchor="start" x="411" y="-263.8" font-family="Times,serif" font-size="14.00">agency :integer</text>
<text text-anchor="start" x="411" y="-248.8" font-family="Times,serif" font-size="14.00">account :integer</text>
<text text-anchor="start" x="411" y="-233.8" font-family="Times,serif" font-size="14.00">created_at :timestamp without time zone</text>
<text text-anchor="start" x="411" y="-218.8" font-family="Times,serif" font-size="14.00">updated_at :timestamp without time zone</text>
</g>
<!-- Professional&#45;&gt;Banking -->
<g id="edge10" class="edge"><title>Professional&#45;&gt;Banking</title>
<path fill="none" stroke="#8d1c81" d="M627.515,-466.64C609.808,-434.402 586.728,-392.382 566.952,-356.378"/>
<ellipse fill="none" stroke="#8d1c81" cx="629.588" cy="-470.414" rx="4.00002" ry="4.00002"/>
<polygon fill="#8d1c81" stroke="#8d1c81" points="566.815,-356.128 565.945,-345.197 564.408,-351.746 562,-347.363 562,-347.363 562,-347.363 564.408,-351.746 558.056,-349.53 566.815,-356.128 566.815,-356.128"/>
</g>
<!-- Professional&#45;&gt;Product -->
<g id="edge11" class="edge"><title>Professional&#45;&gt;Product</title>
<path fill="none" stroke="#244df5" d="M607.822,-468.037C584.598,-446.236 555.248,-422.091 525,-406 474.399,-379.083 451.163,-393.76 394.711,-369.972"/>
<ellipse fill="none" stroke="#244df5" cx="611" cy="-471.061" rx="4.00002" ry="4.00002"/>
<polygon fill="#244df5" stroke="#244df5" points="394.493,-369.875 387.185,-361.7 389.925,-367.843 385.356,-365.812 385.356,-365.812 385.356,-365.812 389.925,-367.843 383.527,-369.923 394.493,-369.875 394.493,-369.875"/>
</g>
<!-- Product&#45;&gt;Picture -->
<g id="edge14" class="edge"><title>Product&#45;&gt;Picture</title>
<path fill="none" stroke="#b09d77" d="M330.515,-181.756C335.603,-174.502 340.712,-167.218 345.736,-160.057"/>
<ellipse fill="none" stroke="#b09d77" cx="328.168" cy="-185.1" rx="4.00002" ry="4.00002"/>
<polygon fill="#b09d77" stroke="#b09d77" points="345.845,-159.902 355.272,-154.299 348.717,-155.808 351.588,-151.715 351.588,-151.715 351.588,-151.715 348.717,-155.808 347.904,-149.131 345.845,-159.902 345.845,-159.902"/>
</g>
<!-- Product&#45;&gt;Keyword -->
<g id="edge13" class="edge"><title>Product&#45;&gt;Keyword</title>
<path fill="none" stroke="#637c9b" d="M195.442,-181.694C184.887,-166.648 174.244,-151.476 164.462,-137.531"/>
<ellipse fill="none" stroke="#637c9b" cx="197.832" cy="-185.1" rx="4.00002" ry="4.00002"/>
<polygon fill="#637c9b" stroke="#637c9b" points="164.234,-137.205 162.175,-126.434 161.362,-133.112 158.491,-129.019 158.491,-129.019 158.491,-129.019 161.362,-133.112 154.807,-131.603 164.234,-137.205 164.234,-137.205"/>
</g>
<!-- Product&#45;&gt;CartItem -->
<g id="edge15" class="edge"><title>Product&#45;&gt;CartItem</title>
<path fill="none" stroke="#13e2a6" d="M392.636,-188.599C393.091,-188.398 393.545,-188.198 394,-188 461.217,-158.707 483.712,-169.152 555,-152 607.072,-139.472 664.175,-124.931 713.902,-112.006"/>
<ellipse fill="none" stroke="#13e2a6" cx="388.902" cy="-190.322" rx="4.00002" ry="4.00002"/>
<polygon fill="#13e2a6" stroke="#13e2a6" points="714.067,-111.963 724.878,-113.799 718.906,-110.704 723.745,-109.444 723.745,-109.444 723.745,-109.444 718.906,-110.704 722.611,-105.089 714.067,-111.963 714.067,-111.963"/>
</g>
<!-- Product&#45;&gt;Transaction -->
<g id="edge12" class="edge"><title>Product&#45;&gt;Transaction</title>
<path fill="none" stroke="#32ca4a" d="M392.594,-188.491C393.063,-188.325 393.531,-188.162 394,-188 639.444,-103.431 727.168,-222.56 977,-152 1017.93,-140.44 1060.44,-115.804 1087.93,-97.9143"/>
<ellipse fill="none" stroke="#32ca4a" cx="388.762" cy="-189.941" rx="4.00001" ry="4.00001"/>
<polygon fill="#32ca4a" stroke="#32ca4a" points="1087.97,-97.8877 1098.8,-96.1203 1092.14,-95.1278 1096.31,-92.3679 1096.31,-92.3679 1096.31,-92.3679 1092.14,-95.1278 1093.83,-88.6155 1087.97,-97.8877 1087.97,-97.8877"/>
</g>
</g>
</svg>
