<?xml version="1.0" encoding="UTF-8" standalone="no"?>
<!DOCTYPE svg PUBLIC "-//W3C//DTD SVG 1.1//EN"
 "http://www.w3.org/Graphics/SVG/1.1/DTD/svg11.dtd">
<!-- Generated by graphviz version 2.38.0 (20140413.2041)
 -->
<!-- Title: models_diagram Pages: 1 -->
<svg width="1562pt" height="949pt"
 viewBox="0.00 0.00 1562.00 949.00" xmlns="http://www.w3.org/2000/svg" xmlns:xlink="http://www.w3.org/1999/xlink">
<g id="graph0" class="graph" transform="scale(1 1) rotate(0) translate(4 945)">
<title>models_diagram</title>
<polygon fill="none" stroke="none" points="-4,4 -4,-945 1558,-945 1558,4 -4,4"/>
<!-- _diagram_info -->
<g id="node1" class="node"><title>_diagram_info</title>
<text text-anchor="start" x="396" y="-829.6" font-family="Times,serif" font-size="13.00">Models diagram</text>
<text text-anchor="start" x="396" y="-815.6" font-family="Times,serif" font-size="13.00">Date: Oct 17 2016 &#45; 16:28</text>
<text text-anchor="start" x="396" y="-801.6" font-family="Times,serif" font-size="13.00">Migration version: 20161014220607</text>
<text text-anchor="start" x="396" y="-787.6" font-family="Times,serif" font-size="13.00">Generated by RailRoady 1.5.2</text>
<text text-anchor="start" x="396" y="-773.6" font-family="Times,serif" font-size="13.00">http://railroady.prestonlee.com</text>
</g>
<!-- Consumer -->
<g id="node2" class="node"><title>Consumer</title>
<path fill="none" stroke="black" d="M1060,-474C1060,-474 1280,-474 1280,-474 1286,-474 1292,-480 1292,-486 1292,-486 1292,-553 1292,-553 1292,-559 1286,-565 1280,-565 1280,-565 1060,-565 1060,-565 1054,-565 1048,-559 1048,-553 1048,-553 1048,-486 1048,-486 1048,-480 1054,-474 1060,-474"/>
<text text-anchor="middle" x="1170" y="-549.8" font-family="Times,serif" font-size="14.00">Consumer</text>
<polyline fill="none" stroke="black" points="1048,-542 1292,-542 "/>
<text text-anchor="start" x="1056" y="-526.8" font-family="Times,serif" font-size="14.00">id :integer</text>
<text text-anchor="start" x="1056" y="-511.8" font-family="Times,serif" font-size="14.00">client_id :integer</text>
<text text-anchor="start" x="1056" y="-496.8" font-family="Times,serif" font-size="14.00">created_at :timestamp without time zone</text>
<text text-anchor="start" x="1056" y="-481.8" font-family="Times,serif" font-size="14.00">updated_at :timestamp without time zone</text>
</g>
<!-- ShoppingCart -->
<g id="node4" class="node"><title>ShoppingCart</title>
<path fill="none" stroke="black" d="M1060,-196C1060,-196 1280,-196 1280,-196 1286,-196 1292,-202 1292,-208 1292,-208 1292,-350 1292,-350 1292,-356 1286,-362 1280,-362 1280,-362 1060,-362 1060,-362 1054,-362 1048,-356 1048,-350 1048,-350 1048,-208 1048,-208 1048,-202 1054,-196 1060,-196"/>
<text text-anchor="middle" x="1170" y="-346.8" font-family="Times,serif" font-size="14.00">ShoppingCart</text>
<polyline fill="none" stroke="black" points="1048,-339 1292,-339 "/>
<text text-anchor="start" x="1056" y="-323.8" font-family="Times,serif" font-size="14.00">id :integer</text>
<text text-anchor="start" x="1056" y="-308.8" font-family="Times,serif" font-size="14.00">consumer_id :integer</text>
<text text-anchor="start" x="1056" y="-293.8" font-family="Times,serif" font-size="14.00">status :integer</text>
<text text-anchor="start" x="1056" y="-278.8" font-family="Times,serif" font-size="14.00">fees :double precision</text>
<text text-anchor="start" x="1056" y="-263.8" font-family="Times,serif" font-size="14.00">gain :double precision</text>
<text text-anchor="start" x="1056" y="-248.8" font-family="Times,serif" font-size="14.00">promotion_discount :double precision</text>
<text text-anchor="start" x="1056" y="-233.8" font-family="Times,serif" font-size="14.00">total_paid :double precision</text>
<text text-anchor="start" x="1056" y="-218.8" font-family="Times,serif" font-size="14.00">created_at :timestamp without time zone</text>
<text text-anchor="start" x="1056" y="-203.8" font-family="Times,serif" font-size="14.00">updated_at :timestamp without time zone</text>
</g>
<!-- Consumer&#45;&gt;ShoppingCart -->
<g id="edge2" class="edge"><title>Consumer&#45;&gt;ShoppingCart</title>
<path fill="none" stroke="#0dfa2a" d="M1170,-465.575C1170,-438.129 1170,-403.808 1170,-372.172"/>
<ellipse fill="none" stroke="#0dfa2a" cx="1170" cy="-469.92" rx="4" ry="4"/>
<polygon fill="#0dfa2a" stroke="#0dfa2a" points="1170,-372.007 1174.5,-362.007 1170,-367.007 1170,-362.007 1170,-362.007 1170,-362.007 1170,-367.007 1165.5,-362.007 1170,-372.007 1170,-372.007"/>
</g>
<!-- CreditCard -->
<g id="node13" class="node"><title>CreditCard</title>
<path fill="none" stroke="black" d="M1322,-196C1322,-196 1542,-196 1542,-196 1548,-196 1554,-202 1554,-208 1554,-208 1554,-350 1554,-350 1554,-356 1548,-362 1542,-362 1542,-362 1322,-362 1322,-362 1316,-362 1310,-356 1310,-350 1310,-350 1310,-208 1310,-208 1310,-202 1316,-196 1322,-196"/>
<text text-anchor="middle" x="1432" y="-346.8" font-family="Times,serif" font-size="14.00">CreditCard</text>
<polyline fill="none" stroke="black" points="1310,-339 1554,-339 "/>
<text text-anchor="start" x="1318" y="-323.8" font-family="Times,serif" font-size="14.00">id :integer</text>
<text text-anchor="start" x="1318" y="-308.8" font-family="Times,serif" font-size="14.00">consumer_id :integer</text>
<text text-anchor="start" x="1318" y="-293.8" font-family="Times,serif" font-size="14.00">name :character varying</text>
<text text-anchor="start" x="1318" y="-278.8" font-family="Times,serif" font-size="14.00">number :integer</text>
<text text-anchor="start" x="1318" y="-263.8" font-family="Times,serif" font-size="14.00">digit :integer</text>
<text text-anchor="start" x="1318" y="-248.8" font-family="Times,serif" font-size="14.00">flag :character varying</text>
<text text-anchor="start" x="1318" y="-233.8" font-family="Times,serif" font-size="14.00">expiration :character varying</text>
<text text-anchor="start" x="1318" y="-218.8" font-family="Times,serif" font-size="14.00">created_at :timestamp without time zone</text>
<text text-anchor="start" x="1318" y="-203.8" font-family="Times,serif" font-size="14.00">updated_at :timestamp without time zone</text>
</g>
<!-- Consumer&#45;&gt;CreditCard -->
<g id="edge1" class="edge"><title>Consumer&#45;&gt;CreditCard</title>
<path fill="none" stroke="#c7e5d2" d="M1225.17,-468.282C1256.75,-439.532 1297.3,-402.618 1334.12,-369.103"/>
<ellipse fill="none" stroke="#c7e5d2" cx="1221.93" cy="-471.227" rx="4.00002" ry="4.00002"/>
<polygon fill="#c7e5d2" stroke="#c7e5d2" points="1334.52,-368.739 1344.94,-365.335 1338.22,-365.373 1341.91,-362.007 1341.91,-362.007 1341.91,-362.007 1338.22,-365.373 1338.88,-358.679 1334.52,-368.739 1334.52,-368.739"/>
</g>
<!-- Picture -->
<g id="node3" class="node"><title>Picture</title>
<path fill="none" stroke="black" d="M300,-0.5C300,-0.5 560,-0.5 560,-0.5 566,-0.5 572,-6.5 572,-12.5 572,-12.5 572,-139.5 572,-139.5 572,-145.5 566,-151.5 560,-151.5 560,-151.5 300,-151.5 300,-151.5 294,-151.5 288,-145.5 288,-139.5 288,-139.5 288,-12.5 288,-12.5 288,-6.5 294,-0.5 300,-0.5"/>
<text text-anchor="middle" x="430" y="-136.3" font-family="Times,serif" font-size="14.00">Picture</text>
<polyline fill="none" stroke="black" points="288,-128.5 572,-128.5 "/>
<text text-anchor="start" x="296" y="-113.3" font-family="Times,serif" font-size="14.00">id :integer</text>
<text text-anchor="start" x="296" y="-98.3" font-family="Times,serif" font-size="14.00">product_id :integer</text>
<text text-anchor="start" x="296" y="-83.3" font-family="Times,serif" font-size="14.00">created_at :timestamp without time zone</text>
<text text-anchor="start" x="296" y="-68.3" font-family="Times,serif" font-size="14.00">updated_at :timestamp without time zone</text>
<text text-anchor="start" x="296" y="-53.3" font-family="Times,serif" font-size="14.00">image_file_name :character varying</text>
<text text-anchor="start" x="296" y="-38.3" font-family="Times,serif" font-size="14.00">image_content_type :character varying</text>
<text text-anchor="start" x="296" y="-23.3" font-family="Times,serif" font-size="14.00">image_file_size :integer</text>
<text text-anchor="start" x="296" y="-8.3" font-family="Times,serif" font-size="14.00">image_updated_at :timestamp without time zone</text>
</g>
<!-- Payment -->
<g id="node7" class="node"><title>Payment</title>
<path fill="none" stroke="black" d="M1256,-8C1256,-8 1476,-8 1476,-8 1482,-8 1488,-14 1488,-20 1488,-20 1488,-132 1488,-132 1488,-138 1482,-144 1476,-144 1476,-144 1256,-144 1256,-144 1250,-144 1244,-138 1244,-132 1244,-132 1244,-20 1244,-20 1244,-14 1250,-8 1256,-8"/>
<text text-anchor="middle" x="1366" y="-128.8" font-family="Times,serif" font-size="14.00">Payment</text>
<polyline fill="none" stroke="black" points="1244,-121 1488,-121 "/>
<text text-anchor="start" x="1252" y="-105.8" font-family="Times,serif" font-size="14.00">id :integer</text>
<text text-anchor="start" x="1252" y="-90.8" font-family="Times,serif" font-size="14.00">shopping_cart_id :integer</text>
<text text-anchor="start" x="1252" y="-75.8" font-family="Times,serif" font-size="14.00">credit_card_id :integer</text>
<text text-anchor="start" x="1252" y="-60.8" font-family="Times,serif" font-size="14.00">number_quotas :integer</text>
<text text-anchor="start" x="1252" y="-45.8" font-family="Times,serif" font-size="14.00">quota_value :numeric</text>
<text text-anchor="start" x="1252" y="-30.8" font-family="Times,serif" font-size="14.00">created_at :timestamp without time zone</text>
<text text-anchor="start" x="1252" y="-15.8" font-family="Times,serif" font-size="14.00">updated_at :timestamp without time zone</text>
</g>
<!-- ShoppingCart&#45;&gt;Payment -->
<g id="edge4" class="edge"><title>ShoppingCart&#45;&gt;Payment</title>
<path fill="none" stroke="#128a4c" d="M1255.95,-189.86C1268.94,-176.534 1282.22,-162.914 1294.86,-149.956"/>
<ellipse fill="none" stroke="#128a4c" cx="1252.8" cy="-193.092" rx="4.00002" ry="4.00002"/>
<ellipse fill="#128a4c" stroke="#128a4c" cx="1297.82" cy="-146.916" rx="4.00002" ry="4.00002"/>
</g>
<!-- CartItem -->
<g id="node15" class="node"><title>CartItem</title>
<path fill="none" stroke="black" d="M929,-8C929,-8 1149,-8 1149,-8 1155,-8 1161,-14 1161,-20 1161,-20 1161,-132 1161,-132 1161,-138 1155,-144 1149,-144 1149,-144 929,-144 929,-144 923,-144 917,-138 917,-132 917,-132 917,-20 917,-20 917,-14 923,-8 929,-8"/>
<text text-anchor="middle" x="1039" y="-128.8" font-family="Times,serif" font-size="14.00">CartItem</text>
<polyline fill="none" stroke="black" points="917,-121 1161,-121 "/>
<text text-anchor="start" x="925" y="-105.8" font-family="Times,serif" font-size="14.00">id :integer</text>
<text text-anchor="start" x="925" y="-90.8" font-family="Times,serif" font-size="14.00">shopping_cart_id :integer</text>
<text text-anchor="start" x="925" y="-75.8" font-family="Times,serif" font-size="14.00">product_id :integer</text>
<text text-anchor="start" x="925" y="-60.8" font-family="Times,serif" font-size="14.00">quantity :double precision</text>
<text text-anchor="start" x="925" y="-45.8" font-family="Times,serif" font-size="14.00">unitary_price :double precision</text>
<text text-anchor="start" x="925" y="-30.8" font-family="Times,serif" font-size="14.00">created_at :timestamp without time zone</text>
<text text-anchor="start" x="925" y="-15.8" font-family="Times,serif" font-size="14.00">updated_at :timestamp without time zone</text>
</g>
<!-- ShoppingCart&#45;&gt;CartItem -->
<g id="edge3" class="edge"><title>ShoppingCart&#45;&gt;CartItem</title>
<path fill="none" stroke="#33115d" d="M1112.02,-189.044C1104.1,-176.887 1096.03,-164.501 1088.28,-152.611"/>
<ellipse fill="none" stroke="#33115d" cx="1114.34" cy="-192.605" rx="4.00002" ry="4.00002"/>
<polygon fill="#33115d" stroke="#33115d" points="1088.16,-152.43 1086.47,-141.595 1085.43,-148.241 1082.7,-144.052 1082.7,-144.052 1082.7,-144.052 1085.43,-148.241 1078.93,-146.509 1088.16,-152.43 1088.16,-152.43"/>
</g>
<!-- Keyword -->
<g id="node5" class="node"><title>Keyword</title>
<path fill="none" stroke="black" d="M602,-23C602,-23 822,-23 822,-23 828,-23 834,-29 834,-35 834,-35 834,-117 834,-117 834,-123 828,-129 822,-129 822,-129 602,-129 602,-129 596,-129 590,-123 590,-117 590,-117 590,-35 590,-35 590,-29 596,-23 602,-23"/>
<text text-anchor="middle" x="712" y="-113.8" font-family="Times,serif" font-size="14.00">Keyword</text>
<polyline fill="none" stroke="black" points="590,-106 834,-106 "/>
<text text-anchor="start" x="598" y="-90.8" font-family="Times,serif" font-size="14.00">id :integer</text>
<text text-anchor="start" x="598" y="-75.8" font-family="Times,serif" font-size="14.00">product_id :integer</text>
<text text-anchor="start" x="598" y="-60.8" font-family="Times,serif" font-size="14.00">word :character varying</text>
<text text-anchor="start" x="598" y="-45.8" font-family="Times,serif" font-size="14.00">created_at :timestamp without time zone</text>
<text text-anchor="start" x="598" y="-30.8" font-family="Times,serif" font-size="14.00">updated_at :timestamp without time zone</text>
</g>
<!-- Address -->
<g id="node6" class="node"><title>Address</title>
<path fill="none" stroke="black" d="M274,-406.5C274,-406.5 494,-406.5 494,-406.5 500,-406.5 506,-412.5 506,-418.5 506,-418.5 506,-620.5 506,-620.5 506,-626.5 500,-632.5 494,-632.5 494,-632.5 274,-632.5 274,-632.5 268,-632.5 262,-626.5 262,-620.5 262,-620.5 262,-418.5 262,-418.5 262,-412.5 268,-406.5 274,-406.5"/>
<text text-anchor="middle" x="384" y="-617.3" font-family="Times,serif" font-size="14.00">Address</text>
<polyline fill="none" stroke="black" points="262,-609.5 506,-609.5 "/>
<text text-anchor="start" x="270" y="-594.3" font-family="Times,serif" font-size="14.00">id :integer</text>
<text text-anchor="start" x="270" y="-579.3" font-family="Times,serif" font-size="14.00">client_id :integer</text>
<text text-anchor="start" x="270" y="-564.3" font-family="Times,serif" font-size="14.00">cep :character varying(11)</text>
<text text-anchor="start" x="270" y="-549.3" font-family="Times,serif" font-size="14.00">street :character varying</text>
<text text-anchor="start" x="270" y="-534.3" font-family="Times,serif" font-size="14.00">number :integer</text>
<text text-anchor="start" x="270" y="-519.3" font-family="Times,serif" font-size="14.00">complement :character varying</text>
<text text-anchor="start" x="270" y="-504.3" font-family="Times,serif" font-size="14.00">neighborhood :character varying</text>
<text text-anchor="start" x="270" y="-489.3" font-family="Times,serif" font-size="14.00">city :character varying</text>
<text text-anchor="start" x="270" y="-474.3" font-family="Times,serif" font-size="14.00">country :character varying</text>
<text text-anchor="start" x="270" y="-459.3" font-family="Times,serif" font-size="14.00">address_type :integer</text>
<text text-anchor="start" x="270" y="-444.3" font-family="Times,serif" font-size="14.00">delivery_radius :double precision</text>
<text text-anchor="start" x="270" y="-429.3" font-family="Times,serif" font-size="14.00">created_at :timestamp without time zone</text>
<text text-anchor="start" x="270" y="-414.3" font-family="Times,serif" font-size="14.00">updated_at :timestamp without time zone</text>
</g>
<!-- ApplicationRecord -->
<g id="node8" class="node"><title>ApplicationRecord</title>
<ellipse fill="none" stroke="black" cx="1029" cy="-805" rx="77.1866" ry="18"/>
<text text-anchor="middle" x="1029" y="-801.3" font-family="Times,serif" font-size="14.00">ApplicationRecord</text>
</g>
<!-- CategoryProduct -->
<g id="node9" class="node"><title>CategoryProduct</title>
<path fill="none" stroke="black" d="M12,-474C12,-474 232,-474 232,-474 238,-474 244,-480 244,-486 244,-486 244,-553 244,-553 244,-559 238,-565 232,-565 232,-565 12,-565 12,-565 6,-565 0,-559 0,-553 0,-553 0,-486 0,-486 0,-480 6,-474 12,-474"/>
<text text-anchor="middle" x="122" y="-549.8" font-family="Times,serif" font-size="14.00">CategoryProduct</text>
<polyline fill="none" stroke="black" points="0,-542 244,-542 "/>
<text text-anchor="start" x="8" y="-526.8" font-family="Times,serif" font-size="14.00">id :integer</text>
<text text-anchor="start" x="8" y="-511.8" font-family="Times,serif" font-size="14.00">name :character varying</text>
<text text-anchor="start" x="8" y="-496.8" font-family="Times,serif" font-size="14.00">created_at :timestamp without time zone</text>
<text text-anchor="start" x="8" y="-481.8" font-family="Times,serif" font-size="14.00">updated_at :timestamp without time zone</text>
</g>
<!-- Product -->
<g id="node16" class="node"><title>Product</title>
<path fill="none" stroke="black" d="M536,-188.5C536,-188.5 756,-188.5 756,-188.5 762,-188.5 768,-194.5 768,-200.5 768,-200.5 768,-357.5 768,-357.5 768,-363.5 762,-369.5 756,-369.5 756,-369.5 536,-369.5 536,-369.5 530,-369.5 524,-363.5 524,-357.5 524,-357.5 524,-200.5 524,-200.5 524,-194.5 530,-188.5 536,-188.5"/>
<text text-anchor="middle" x="646" y="-354.3" font-family="Times,serif" font-size="14.00">Product</text>
<polyline fill="none" stroke="black" points="524,-346.5 768,-346.5 "/>
<text text-anchor="start" x="532" y="-331.3" font-family="Times,serif" font-size="14.00">id :integer</text>
<text text-anchor="start" x="532" y="-316.3" font-family="Times,serif" font-size="14.00">professional_id :integer</text>
<text text-anchor="start" x="532" y="-301.3" font-family="Times,serif" font-size="14.00">category_product_id :integer</text>
<text text-anchor="start" x="532" y="-286.3" font-family="Times,serif" font-size="14.00">name :character varying</text>
<text text-anchor="start" x="532" y="-271.3" font-family="Times,serif" font-size="14.00">description :text</text>
<text text-anchor="start" x="532" y="-256.3" font-family="Times,serif" font-size="14.00">price :double precision</text>
<text text-anchor="start" x="532" y="-241.3" font-family="Times,serif" font-size="14.00">rating :integer</text>
<text text-anchor="start" x="532" y="-226.3" font-family="Times,serif" font-size="14.00">max_quantity :integer</text>
<text text-anchor="start" x="532" y="-211.3" font-family="Times,serif" font-size="14.00">created_at :timestamp without time zone</text>
<text text-anchor="start" x="532" y="-196.3" font-family="Times,serif" font-size="14.00">updated_at :timestamp without time zone</text>
</g>
<!-- CategoryProduct&#45;&gt;Product -->
<g id="edge5" class="edge"><title>CategoryProduct&#45;&gt;Product</title>
<path fill="none" stroke="#2f00d8" d="M171.058,-468.096C194.255,-446.548 223.337,-422.589 253,-406 334.56,-360.388 435.02,-328.548 513.953,-308.286"/>
<ellipse fill="none" stroke="#2f00d8" cx="167.897" cy="-471.068" rx="4.00002" ry="4.00002"/>
<polygon fill="#2f00d8" stroke="#2f00d8" points="514.266,-308.206 525.066,-310.111 519.113,-306.978 523.96,-305.749 523.96,-305.749 523.96,-305.749 519.113,-306.978 522.854,-301.387 514.266,-308.206 514.266,-308.206"/>
</g>
<!-- Client -->
<g id="node10" class="node"><title>Client</title>
<path fill="none" stroke="black" d="M632.5,-669.5C632.5,-669.5 921.5,-669.5 921.5,-669.5 927.5,-669.5 933.5,-675.5 933.5,-681.5 933.5,-681.5 933.5,-928.5 933.5,-928.5 933.5,-934.5 927.5,-940.5 921.5,-940.5 921.5,-940.5 632.5,-940.5 632.5,-940.5 626.5,-940.5 620.5,-934.5 620.5,-928.5 620.5,-928.5 620.5,-681.5 620.5,-681.5 620.5,-675.5 626.5,-669.5 632.5,-669.5"/>
<text text-anchor="middle" x="777" y="-925.3" font-family="Times,serif" font-size="14.00">Client</text>
<polyline fill="none" stroke="black" points="620.5,-917.5 933.5,-917.5 "/>
<text text-anchor="start" x="628.5" y="-902.3" font-family="Times,serif" font-size="14.00">id :integer</text>
<text text-anchor="start" x="628.5" y="-887.3" font-family="Times,serif" font-size="14.00">login :character varying</text>
<text text-anchor="start" x="628.5" y="-872.3" font-family="Times,serif" font-size="14.00">name :character varying</text>
<text text-anchor="start" x="628.5" y="-857.3" font-family="Times,serif" font-size="14.00">cpf :character varying(11)</text>
<text text-anchor="start" x="628.5" y="-842.3" font-family="Times,serif" font-size="14.00">created_at :timestamp without time zone</text>
<text text-anchor="start" x="628.5" y="-827.3" font-family="Times,serif" font-size="14.00">updated_at :timestamp without time zone</text>
<text text-anchor="start" x="628.5" y="-812.3" font-family="Times,serif" font-size="14.00">email :character varying</text>
<text text-anchor="start" x="628.5" y="-797.3" font-family="Times,serif" font-size="14.00">encrypted_password :character varying</text>
<text text-anchor="start" x="628.5" y="-782.3" font-family="Times,serif" font-size="14.00">reset_password_token :character varying</text>
<text text-anchor="start" x="628.5" y="-767.3" font-family="Times,serif" font-size="14.00">reset_password_sent_at :timestamp without time zone</text>
<text text-anchor="start" x="628.5" y="-752.3" font-family="Times,serif" font-size="14.00">remember_created_at :timestamp without time zone</text>
<text text-anchor="start" x="628.5" y="-737.3" font-family="Times,serif" font-size="14.00">sign_in_count :integer</text>
<text text-anchor="start" x="628.5" y="-722.3" font-family="Times,serif" font-size="14.00">current_sign_in_at :timestamp without time zone</text>
<text text-anchor="start" x="628.5" y="-707.3" font-family="Times,serif" font-size="14.00">last_sign_in_at :timestamp without time zone</text>
<text text-anchor="start" x="628.5" y="-692.3" font-family="Times,serif" font-size="14.00">current_sign_in_ip :inet</text>
<text text-anchor="start" x="628.5" y="-677.3" font-family="Times,serif" font-size="14.00">last_sign_in_ip :inet</text>
</g>
<!-- Client&#45;&gt;Consumer -->
<g id="edge8" class="edge"><title>Client&#45;&gt;Consumer</title>
<path fill="none" stroke="#b6939f" d="M940.704,-670.327C941.469,-669.881 942.235,-669.439 943,-669 982.527,-646.328 999.78,-656.2 1039,-633 1068.02,-615.837 1096.82,-592.045 1119.99,-570.759"/>
<ellipse fill="none" stroke="#b6939f" cx="937.254" cy="-672.381" rx="4.00002" ry="4.00002"/>
<ellipse fill="#b6939f" stroke="#b6939f" cx="1123.14" cy="-567.841" rx="4.00002" ry="4.00002"/>
</g>
<!-- Client&#45;&gt;Address -->
<g id="edge7" class="edge"><title>Client&#45;&gt;Address</title>
<path fill="none" stroke="#9b9099" d="M613.296,-670.327C612.531,-669.881 611.765,-669.439 611,-669 571.473,-646.328 554.22,-656.2 515,-633 514.907,-632.945 514.815,-632.89 514.722,-632.835"/>
<ellipse fill="none" stroke="#9b9099" cx="616.746" cy="-672.381" rx="4.00002" ry="4.00002"/>
<polygon fill="#9b9099" stroke="#9b9099" points="514.627,-632.777 508.469,-623.704 510.369,-630.157 506.111,-627.536 506.111,-627.536 506.111,-627.536 510.369,-630.157 503.752,-631.369 514.627,-632.777 514.627,-632.777"/>
</g>
<!-- Telephone -->
<g id="node11" class="node"><title>Telephone</title>
<path fill="none" stroke="black" d="M536,-466.5C536,-466.5 756,-466.5 756,-466.5 762,-466.5 768,-472.5 768,-478.5 768,-478.5 768,-560.5 768,-560.5 768,-566.5 762,-572.5 756,-572.5 756,-572.5 536,-572.5 536,-572.5 530,-572.5 524,-566.5 524,-560.5 524,-560.5 524,-478.5 524,-478.5 524,-472.5 530,-466.5 536,-466.5"/>
<text text-anchor="middle" x="646" y="-557.3" font-family="Times,serif" font-size="14.00">Telephone</text>
<polyline fill="none" stroke="black" points="524,-549.5 768,-549.5 "/>
<text text-anchor="start" x="532" y="-534.3" font-family="Times,serif" font-size="14.00">id :integer</text>
<text text-anchor="start" x="532" y="-519.3" font-family="Times,serif" font-size="14.00">client_id :integer</text>
<text text-anchor="start" x="532" y="-504.3" font-family="Times,serif" font-size="14.00">telephone :integer</text>
<text text-anchor="start" x="532" y="-489.3" font-family="Times,serif" font-size="14.00">created_at :timestamp without time zone</text>
<text text-anchor="start" x="532" y="-474.3" font-family="Times,serif" font-size="14.00">updated_at :timestamp without time zone</text>
</g>
<!-- Client&#45;&gt;Telephone -->
<g id="edge6" class="edge"><title>Client&#45;&gt;Telephone</title>
<path fill="none" stroke="#0a2b33" d="M711.231,-661.667C698.267,-633.613 685.318,-605.59 674.414,-581.992"/>
<ellipse fill="none" stroke="#0a2b33" cx="713.083" cy="-665.676" rx="4.00002" ry="4.00002"/>
<polygon fill="#0a2b33" stroke="#0a2b33" points="674.38,-581.917 674.27,-570.951 672.282,-577.378 670.185,-572.839 670.185,-572.839 670.185,-572.839 672.282,-577.378 666.1,-574.727 674.38,-581.917 674.38,-581.917"/>
</g>
<!-- Professional -->
<g id="node12" class="node"><title>Professional</title>
<path fill="none" stroke="black" d="M798,-474C798,-474 1018,-474 1018,-474 1024,-474 1030,-480 1030,-486 1030,-486 1030,-553 1030,-553 1030,-559 1024,-565 1018,-565 1018,-565 798,-565 798,-565 792,-565 786,-559 786,-553 786,-553 786,-486 786,-486 786,-480 792,-474 798,-474"/>
<text text-anchor="middle" x="908" y="-549.8" font-family="Times,serif" font-size="14.00">Professional</text>
<polyline fill="none" stroke="black" points="786,-542 1030,-542 "/>
<text text-anchor="start" x="794" y="-526.8" font-family="Times,serif" font-size="14.00">id :integer</text>
<text text-anchor="start" x="794" y="-511.8" font-family="Times,serif" font-size="14.00">client_id :integer</text>
<text text-anchor="start" x="794" y="-496.8" font-family="Times,serif" font-size="14.00">created_at :timestamp without time zone</text>
<text text-anchor="start" x="794" y="-481.8" font-family="Times,serif" font-size="14.00">updated_at :timestamp without time zone</text>
</g>
<!-- Client&#45;&gt;Professional -->
<g id="edge9" class="edge"><title>Client&#45;&gt;Professional</title>
<path fill="none" stroke="#e21c22" d="M842.7,-661.816C857.47,-629.854 872.225,-597.921 883.963,-572.518"/>
<ellipse fill="none" stroke="#e21c22" cx="840.917" cy="-665.676" rx="4.00002" ry="4.00002"/>
<ellipse fill="#e21c22" stroke="#e21c22" cx="885.671" cy="-568.823" rx="4.00002" ry="4.00002"/>
</g>
<!-- Banking -->
<g id="node14" class="node"><title>Banking</title>
<path fill="none" stroke="black" d="M798,-211C798,-211 1018,-211 1018,-211 1024,-211 1030,-217 1030,-223 1030,-223 1030,-335 1030,-335 1030,-341 1024,-347 1018,-347 1018,-347 798,-347 798,-347 792,-347 786,-341 786,-335 786,-335 786,-223 786,-223 786,-217 792,-211 798,-211"/>
<text text-anchor="middle" x="908" y="-331.8" font-family="Times,serif" font-size="14.00">Banking</text>
<polyline fill="none" stroke="black" points="786,-324 1030,-324 "/>
<text text-anchor="start" x="794" y="-308.8" font-family="Times,serif" font-size="14.00">id :integer</text>
<text text-anchor="start" x="794" y="-293.8" font-family="Times,serif" font-size="14.00">professional_id :integer</text>
<text text-anchor="start" x="794" y="-278.8" font-family="Times,serif" font-size="14.00">bank :integer</text>
<text text-anchor="start" x="794" y="-263.8" font-family="Times,serif" font-size="14.00">agency :integer</text>
<text text-anchor="start" x="794" y="-248.8" font-family="Times,serif" font-size="14.00">account :integer</text>
<text text-anchor="start" x="794" y="-233.8" font-family="Times,serif" font-size="14.00">created_at :timestamp without time zone</text>
<text text-anchor="start" x="794" y="-218.8" font-family="Times,serif" font-size="14.00">updated_at :timestamp without time zone</text>
</g>
<!-- Professional&#45;&gt;Banking -->
<g id="edge10" class="edge"><title>Professional&#45;&gt;Banking</title>
<path fill="none" stroke="#f2e7ed" d="M908,-465.759C908,-434.025 908,-393.053 908,-357.665"/>
<ellipse fill="none" stroke="#f2e7ed" cx="908" cy="-469.92" rx="4" ry="4"/>
<polygon fill="#f2e7ed" stroke="#f2e7ed" points="908,-357.363 912.5,-347.363 908,-352.363 908,-347.363 908,-347.363 908,-347.363 908,-352.363 903.5,-347.363 908,-357.363 908,-357.363"/>
</g>
<!-- Professional&#45;&gt;Product -->
<g id="edge11" class="edge"><title>Professional&#45;&gt;Product</title>
<path fill="none" stroke="#8534ad" d="M852.861,-468.307C823.629,-441.697 786.708,-408.088 752.176,-376.653"/>
<ellipse fill="none" stroke="#8534ad" cx="856.069" cy="-471.227" rx="4.00002" ry="4.00002"/>
<polygon fill="#8534ad" stroke="#8534ad" points="751.781,-376.293 747.416,-366.234 748.084,-372.928 744.386,-369.562 744.386,-369.562 744.386,-369.562 748.084,-372.928 741.357,-372.889 751.781,-376.293 751.781,-376.293"/>
</g>
<!-- CreditCard&#45;&gt;Payment -->
<g id="edge12" class="edge"><title>CreditCard&#45;&gt;Payment</title>
<path fill="none" stroke="#390f2c" d="M1402.52,-188.227C1398.75,-176.743 1394.92,-165.07 1391.22,-153.817"/>
<ellipse fill="none" stroke="#390f2c" cx="1403.81" cy="-192.155" rx="4.00001" ry="4.00001"/>
<polygon fill="#390f2c" stroke="#390f2c" points="1391.14,-153.553 1392.29,-142.648 1389.58,-148.802 1388.02,-144.052 1388.02,-144.052 1388.02,-144.052 1389.58,-148.802 1383.74,-145.456 1391.14,-153.553 1391.14,-153.553"/>
</g>
<!-- Product&#45;&gt;Picture -->
<g id="edge14" class="edge"><title>Product&#45;&gt;Picture</title>
<path fill="none" stroke="#eb7ace" d="M543.812,-182.909C535.109,-174.81 526.355,-166.664 517.777,-158.682"/>
<ellipse fill="none" stroke="#eb7ace" cx="546.758" cy="-185.65" rx="4.00002" ry="4.00002"/>
<polygon fill="#eb7ace" stroke="#eb7ace" points="517.611,-158.527 513.356,-148.421 513.951,-155.121 510.291,-151.715 510.291,-151.715 510.291,-151.715 513.951,-155.121 507.225,-155.009 517.611,-158.527 517.611,-158.527"/>
</g>
<!-- Product&#45;&gt;Keyword -->
<g id="edge13" class="edge"><title>Product&#45;&gt;Keyword</title>
<path fill="none" stroke="#36d096" d="M677.937,-180.738C682.655,-166.369 687.402,-151.913 691.792,-138.544"/>
<ellipse fill="none" stroke="#36d096" cx="676.677" cy="-184.575" rx="4.00001" ry="4.00001"/>
<polygon fill="#36d096" stroke="#36d096" points="691.799,-138.52 699.195,-130.423 693.359,-133.769 694.919,-129.019 694.919,-129.019 694.919,-129.019 693.359,-133.769 690.644,-127.615 691.799,-138.52 691.799,-138.52"/>
</g>
<!-- Product&#45;&gt;CartItem -->
<g id="edge15" class="edge"><title>Product&#45;&gt;CartItem</title>
<path fill="none" stroke="#3ccc6d" d="M775.365,-188.9C775.911,-188.598 776.456,-188.298 777,-188 818.267,-165.383 865.101,-144.229 907.644,-126.58"/>
<ellipse fill="none" stroke="#3ccc6d" cx="771.734" cy="-190.947" rx="4.00002" ry="4.00002"/>
<polygon fill="#3ccc6d" stroke="#3ccc6d" points="907.689,-126.561 918.649,-126.913 912.312,-124.656 916.935,-122.752 916.935,-122.752 916.935,-122.752 912.312,-124.656 915.221,-118.591 907.689,-126.561 907.689,-126.561"/>
</g>
</g>
</svg>
