<?xml version="1.0" encoding="UTF-8" standalone="no"?>
<!DOCTYPE svg PUBLIC "-//W3C//DTD SVG 1.1//EN"
 "http://www.w3.org/Graphics/SVG/1.1/DTD/svg11.dtd">
<!-- Generated by graphviz version 2.38.0 (20140413.2041)
 -->
<!-- Title: models_diagram Pages: 1 -->
<svg width="1376pt" height="716pt"
 viewBox="0.00 0.00 1376.34 716.00" xmlns="http://www.w3.org/2000/svg" xmlns:xlink="http://www.w3.org/1999/xlink">
<g id="graph0" class="graph" transform="scale(1 1) rotate(0) translate(4 712)">
<title>models_diagram</title>
<polygon fill="none" stroke="none" points="-4,4 -4,-712 1372.34,-712 1372.34,4 -4,4"/>
<!-- _diagram_info -->
<g id="node1" class="node"><title>_diagram_info</title>
<text text-anchor="start" x="151" y="-596.6" font-family="Times,serif" font-size="13.00">Models diagram</text>
<text text-anchor="start" x="151" y="-582.6" font-family="Times,serif" font-size="13.00">Date: Oct 03 2016 &#45; 22:31</text>
<text text-anchor="start" x="151" y="-568.6" font-family="Times,serif" font-size="13.00">Migration version: 20161001020249</text>
<text text-anchor="start" x="151" y="-554.6" font-family="Times,serif" font-size="13.00">Generated by RailRoady 1.5.2</text>
<text text-anchor="start" x="151" y="-540.6" font-family="Times,serif" font-size="13.00">http://railroady.prestonlee.com</text>
</g>
<!-- Consumer -->
<g id="node2" class="node"><title>Consumer</title>
<path fill="none" stroke="black" d="M12,-256C12,-256 232,-256 232,-256 238,-256 244,-262 244,-268 244,-268 244,-335 244,-335 244,-341 238,-347 232,-347 232,-347 12,-347 12,-347 6,-347 0,-341 0,-335 0,-335 0,-268 0,-268 0,-262 6,-256 12,-256"/>
<text text-anchor="middle" x="122" y="-331.8" font-family="Times,serif" font-size="14.00">Consumer</text>
<polyline fill="none" stroke="black" points="0,-324 244,-324 "/>
<text text-anchor="start" x="8" y="-308.8" font-family="Times,serif" font-size="14.00">id :integer</text>
<text text-anchor="start" x="8" y="-293.8" font-family="Times,serif" font-size="14.00">client_id :integer</text>
<text text-anchor="start" x="8" y="-278.8" font-family="Times,serif" font-size="14.00">created_at :timestamp without time zone</text>
<text text-anchor="start" x="8" y="-263.8" font-family="Times,serif" font-size="14.00">updated_at :timestamp without time zone</text>
</g>
<!-- Transaction -->
<g id="node7" class="node"><title>Transaction</title>
<path fill="none" stroke="black" d="M274,-8C274,-8 494,-8 494,-8 500,-8 506,-14 506,-20 506,-20 506,-147 506,-147 506,-153 500,-159 494,-159 494,-159 274,-159 274,-159 268,-159 262,-153 262,-147 262,-147 262,-20 262,-20 262,-14 268,-8 274,-8"/>
<text text-anchor="middle" x="384" y="-143.8" font-family="Times,serif" font-size="14.00">Transaction</text>
<polyline fill="none" stroke="black" points="262,-136 506,-136 "/>
<text text-anchor="start" x="270" y="-120.8" font-family="Times,serif" font-size="14.00">id :integer</text>
<text text-anchor="start" x="270" y="-105.8" font-family="Times,serif" font-size="14.00">product_id :integer</text>
<text text-anchor="start" x="270" y="-90.8" font-family="Times,serif" font-size="14.00">consumer_id :integer</text>
<text text-anchor="start" x="270" y="-75.8" font-family="Times,serif" font-size="14.00">amount :double precision</text>
<text text-anchor="start" x="270" y="-60.8" font-family="Times,serif" font-size="14.00">unitary_price :double precision</text>
<text text-anchor="start" x="270" y="-45.8" font-family="Times,serif" font-size="14.00">total_price :double precision</text>
<text text-anchor="start" x="270" y="-30.8" font-family="Times,serif" font-size="14.00">created_at :timestamp without time zone</text>
<text text-anchor="start" x="270" y="-15.8" font-family="Times,serif" font-size="14.00">updated_at :timestamp without time zone</text>
</g>
<!-- Consumer&#45;&gt;Transaction -->
<g id="edge2" class="edge"><title>Consumer&#45;&gt;Transaction</title>
<path fill="none" stroke="#e69cae" d="M182.743,-250.422C213.294,-225.234 251.085,-194.079 285.64,-165.591"/>
<ellipse fill="none" stroke="#e69cae" cx="179.373" cy="-253.2" rx="4.00002" ry="4.00002"/>
<polygon fill="#e69cae" stroke="#e69cae" points="285.704,-165.538 296.283,-162.649 289.562,-162.357 293.42,-159.176 293.42,-159.176 293.42,-159.176 289.562,-162.357 290.558,-155.704 285.704,-165.538 285.704,-165.538"/>
</g>
<!-- CreditCard -->
<g id="node10" class="node"><title>CreditCard</title>
<path fill="none" stroke="black" d="M12,-0.5C12,-0.5 232,-0.5 232,-0.5 238,-0.5 244,-6.5 244,-12.5 244,-12.5 244,-154.5 244,-154.5 244,-160.5 238,-166.5 232,-166.5 232,-166.5 12,-166.5 12,-166.5 6,-166.5 0,-160.5 0,-154.5 0,-154.5 0,-12.5 0,-12.5 0,-6.5 6,-0.5 12,-0.5"/>
<text text-anchor="middle" x="122" y="-151.3" font-family="Times,serif" font-size="14.00">CreditCard</text>
<polyline fill="none" stroke="black" points="0,-143.5 244,-143.5 "/>
<text text-anchor="start" x="8" y="-128.3" font-family="Times,serif" font-size="14.00">id :integer</text>
<text text-anchor="start" x="8" y="-113.3" font-family="Times,serif" font-size="14.00">consumer_id :integer</text>
<text text-anchor="start" x="8" y="-98.3" font-family="Times,serif" font-size="14.00">name :character varying</text>
<text text-anchor="start" x="8" y="-83.3" font-family="Times,serif" font-size="14.00">number :integer</text>
<text text-anchor="start" x="8" y="-68.3" font-family="Times,serif" font-size="14.00">digit :integer</text>
<text text-anchor="start" x="8" y="-53.3" font-family="Times,serif" font-size="14.00">flag :character varying</text>
<text text-anchor="start" x="8" y="-38.3" font-family="Times,serif" font-size="14.00">expiration :character varying</text>
<text text-anchor="start" x="8" y="-23.3" font-family="Times,serif" font-size="14.00">created_at :timestamp without time zone</text>
<text text-anchor="start" x="8" y="-8.3" font-family="Times,serif" font-size="14.00">updated_at :timestamp without time zone</text>
</g>
<!-- Consumer&#45;&gt;CreditCard -->
<g id="edge1" class="edge"><title>Consumer&#45;&gt;CreditCard</title>
<path fill="none" stroke="#e12a7f" d="M122,-247.696C122,-226.395 122,-201.177 122,-177.014"/>
<ellipse fill="none" stroke="#e12a7f" cx="122" cy="-251.745" rx="4" ry="4"/>
<polygon fill="#e12a7f" stroke="#e12a7f" points="122,-176.738 126.5,-166.738 122,-171.738 122,-166.738 122,-166.738 122,-166.738 122,-171.738 117.5,-166.738 122,-176.738 122,-176.738"/>
</g>
<!-- Keyword -->
<g id="node3" class="node"><title>Keyword</title>
<path fill="none" stroke="black" d="M536,-30.5C536,-30.5 756,-30.5 756,-30.5 762,-30.5 768,-36.5 768,-42.5 768,-42.5 768,-124.5 768,-124.5 768,-130.5 762,-136.5 756,-136.5 756,-136.5 536,-136.5 536,-136.5 530,-136.5 524,-130.5 524,-124.5 524,-124.5 524,-42.5 524,-42.5 524,-36.5 530,-30.5 536,-30.5"/>
<text text-anchor="middle" x="646" y="-121.3" font-family="Times,serif" font-size="14.00">Keyword</text>
<polyline fill="none" stroke="black" points="524,-113.5 768,-113.5 "/>
<text text-anchor="start" x="532" y="-98.3" font-family="Times,serif" font-size="14.00">id :integer</text>
<text text-anchor="start" x="532" y="-83.3" font-family="Times,serif" font-size="14.00">product_id :integer</text>
<text text-anchor="start" x="532" y="-68.3" font-family="Times,serif" font-size="14.00">word :character varying</text>
<text text-anchor="start" x="532" y="-53.3" font-family="Times,serif" font-size="14.00">created_at :timestamp without time zone</text>
<text text-anchor="start" x="532" y="-38.3" font-family="Times,serif" font-size="14.00">updated_at :timestamp without time zone</text>
</g>
<!-- Address -->
<g id="node4" class="node"><title>Address</title>
<path fill="none" stroke="black" d="M798,-203.5C798,-203.5 1018,-203.5 1018,-203.5 1024,-203.5 1030,-209.5 1030,-215.5 1030,-215.5 1030,-387.5 1030,-387.5 1030,-393.5 1024,-399.5 1018,-399.5 1018,-399.5 798,-399.5 798,-399.5 792,-399.5 786,-393.5 786,-387.5 786,-387.5 786,-215.5 786,-215.5 786,-209.5 792,-203.5 798,-203.5"/>
<text text-anchor="middle" x="908" y="-384.3" font-family="Times,serif" font-size="14.00">Address</text>
<polyline fill="none" stroke="black" points="786,-376.5 1030,-376.5 "/>
<text text-anchor="start" x="794" y="-361.3" font-family="Times,serif" font-size="14.00">id :integer</text>
<text text-anchor="start" x="794" y="-346.3" font-family="Times,serif" font-size="14.00">client_id :integer</text>
<text text-anchor="start" x="794" y="-331.3" font-family="Times,serif" font-size="14.00">cep :integer</text>
<text text-anchor="start" x="794" y="-316.3" font-family="Times,serif" font-size="14.00">street :character varying</text>
<text text-anchor="start" x="794" y="-301.3" font-family="Times,serif" font-size="14.00">number :integer</text>
<text text-anchor="start" x="794" y="-286.3" font-family="Times,serif" font-size="14.00">complement :character varying</text>
<text text-anchor="start" x="794" y="-271.3" font-family="Times,serif" font-size="14.00">neighborhood :character varying</text>
<text text-anchor="start" x="794" y="-256.3" font-family="Times,serif" font-size="14.00">city :character varying</text>
<text text-anchor="start" x="794" y="-241.3" font-family="Times,serif" font-size="14.00">country :character varying</text>
<text text-anchor="start" x="794" y="-226.3" font-family="Times,serif" font-size="14.00">created_at :timestamp without time zone</text>
<text text-anchor="start" x="794" y="-211.3" font-family="Times,serif" font-size="14.00">updated_at :timestamp without time zone</text>
</g>
<!-- ApplicationRecord -->
<g id="node5" class="node"><title>ApplicationRecord</title>
<ellipse fill="none" stroke="black" cx="1291" cy="-572" rx="77.1866" ry="18"/>
<text text-anchor="middle" x="1291" y="-568.3" font-family="Times,serif" font-size="14.00">ApplicationRecord</text>
</g>
<!-- Client -->
<g id="node6" class="node"><title>Client</title>
<path fill="none" stroke="black" d="M894.5,-436.5C894.5,-436.5 1183.5,-436.5 1183.5,-436.5 1189.5,-436.5 1195.5,-442.5 1195.5,-448.5 1195.5,-448.5 1195.5,-695.5 1195.5,-695.5 1195.5,-701.5 1189.5,-707.5 1183.5,-707.5 1183.5,-707.5 894.5,-707.5 894.5,-707.5 888.5,-707.5 882.5,-701.5 882.5,-695.5 882.5,-695.5 882.5,-448.5 882.5,-448.5 882.5,-442.5 888.5,-436.5 894.5,-436.5"/>
<text text-anchor="middle" x="1039" y="-692.3" font-family="Times,serif" font-size="14.00">Client</text>
<polyline fill="none" stroke="black" points="882.5,-684.5 1195.5,-684.5 "/>
<text text-anchor="start" x="890.5" y="-669.3" font-family="Times,serif" font-size="14.00">id :integer</text>
<text text-anchor="start" x="890.5" y="-654.3" font-family="Times,serif" font-size="14.00">login :character varying</text>
<text text-anchor="start" x="890.5" y="-639.3" font-family="Times,serif" font-size="14.00">name :character varying</text>
<text text-anchor="start" x="890.5" y="-624.3" font-family="Times,serif" font-size="14.00">cpf :character varying(11)</text>
<text text-anchor="start" x="890.5" y="-609.3" font-family="Times,serif" font-size="14.00">created_at :timestamp without time zone</text>
<text text-anchor="start" x="890.5" y="-594.3" font-family="Times,serif" font-size="14.00">updated_at :timestamp without time zone</text>
<text text-anchor="start" x="890.5" y="-579.3" font-family="Times,serif" font-size="14.00">email :character varying</text>
<text text-anchor="start" x="890.5" y="-564.3" font-family="Times,serif" font-size="14.00">encrypted_password :character varying</text>
<text text-anchor="start" x="890.5" y="-549.3" font-family="Times,serif" font-size="14.00">reset_password_token :character varying</text>
<text text-anchor="start" x="890.5" y="-534.3" font-family="Times,serif" font-size="14.00">reset_password_sent_at :timestamp without time zone</text>
<text text-anchor="start" x="890.5" y="-519.3" font-family="Times,serif" font-size="14.00">remember_created_at :timestamp without time zone</text>
<text text-anchor="start" x="890.5" y="-504.3" font-family="Times,serif" font-size="14.00">sign_in_count :integer</text>
<text text-anchor="start" x="890.5" y="-489.3" font-family="Times,serif" font-size="14.00">current_sign_in_at :timestamp without time zone</text>
<text text-anchor="start" x="890.5" y="-474.3" font-family="Times,serif" font-size="14.00">last_sign_in_at :timestamp without time zone</text>
<text text-anchor="start" x="890.5" y="-459.3" font-family="Times,serif" font-size="14.00">current_sign_in_ip :inet</text>
<text text-anchor="start" x="890.5" y="-444.3" font-family="Times,serif" font-size="14.00">last_sign_in_ip :inet</text>
</g>
<!-- Client&#45;&gt;Address -->
<g id="edge4" class="edge"><title>Client&#45;&gt;Address</title>
<path fill="none" stroke="#a8fb65" d="M969.756,-429.077C966.406,-422.21 963.069,-415.37 959.78,-408.629"/>
<ellipse fill="none" stroke="#a8fb65" cx="971.554" cy="-432.762" rx="4.00002" ry="4.00002"/>
<polygon fill="#a8fb65" stroke="#a8fb65" points="959.713,-408.492 959.373,-397.532 957.521,-403.999 955.328,-399.505 955.328,-399.505 955.328,-399.505 957.521,-403.999 951.284,-401.478 959.713,-408.492 959.713,-408.492"/>
</g>
<!-- Telephone -->
<g id="node8" class="node"><title>Telephone</title>
<path fill="none" stroke="black" d="M1060,-248.5C1060,-248.5 1280,-248.5 1280,-248.5 1286,-248.5 1292,-254.5 1292,-260.5 1292,-260.5 1292,-342.5 1292,-342.5 1292,-348.5 1286,-354.5 1280,-354.5 1280,-354.5 1060,-354.5 1060,-354.5 1054,-354.5 1048,-348.5 1048,-342.5 1048,-342.5 1048,-260.5 1048,-260.5 1048,-254.5 1054,-248.5 1060,-248.5"/>
<text text-anchor="middle" x="1170" y="-339.3" font-family="Times,serif" font-size="14.00">Telephone</text>
<polyline fill="none" stroke="black" points="1048,-331.5 1292,-331.5 "/>
<text text-anchor="start" x="1056" y="-316.3" font-family="Times,serif" font-size="14.00">id :integer</text>
<text text-anchor="start" x="1056" y="-301.3" font-family="Times,serif" font-size="14.00">client_id :integer</text>
<text text-anchor="start" x="1056" y="-286.3" font-family="Times,serif" font-size="14.00">telephone :integer</text>
<text text-anchor="start" x="1056" y="-271.3" font-family="Times,serif" font-size="14.00">created_at :timestamp without time zone</text>
<text text-anchor="start" x="1056" y="-256.3" font-family="Times,serif" font-size="14.00">updated_at :timestamp without time zone</text>
</g>
<!-- Client&#45;&gt;Telephone -->
<g id="edge3" class="edge"><title>Client&#45;&gt;Telephone</title>
<path fill="none" stroke="#ab9050" d="M1108.34,-428.872C1119.51,-405.985 1130.53,-383.405 1140.09,-363.804"/>
<ellipse fill="none" stroke="#ab9050" cx="1106.45" cy="-432.762" rx="4.00002" ry="4.00002"/>
<polygon fill="#ab9050" stroke="#ab9050" points="1140.13,-363.713 1148.56,-356.699 1142.33,-359.22 1144.52,-354.726 1144.52,-354.726 1144.52,-354.726 1142.33,-359.22 1140.47,-352.753 1140.13,-363.713 1140.13,-363.713"/>
</g>
<!-- Professional -->
<g id="node9" class="node"><title>Professional</title>
<path fill="none" stroke="black" d="M387,-526.5C387,-526.5 607,-526.5 607,-526.5 613,-526.5 619,-532.5 619,-538.5 619,-538.5 619,-605.5 619,-605.5 619,-611.5 613,-617.5 607,-617.5 607,-617.5 387,-617.5 387,-617.5 381,-617.5 375,-611.5 375,-605.5 375,-605.5 375,-538.5 375,-538.5 375,-532.5 381,-526.5 387,-526.5"/>
<text text-anchor="middle" x="497" y="-602.3" font-family="Times,serif" font-size="14.00">Professional</text>
<polyline fill="none" stroke="black" points="375,-594.5 619,-594.5 "/>
<text text-anchor="start" x="383" y="-579.3" font-family="Times,serif" font-size="14.00">id :integer</text>
<text text-anchor="start" x="383" y="-564.3" font-family="Times,serif" font-size="14.00">client_id :integer</text>
<text text-anchor="start" x="383" y="-549.3" font-family="Times,serif" font-size="14.00">created_at :timestamp without time zone</text>
<text text-anchor="start" x="383" y="-534.3" font-family="Times,serif" font-size="14.00">updated_at :timestamp without time zone</text>
</g>
<!-- Banking -->
<g id="node11" class="node"><title>Banking</title>
<path fill="none" stroke="black" d="M274,-233.5C274,-233.5 494,-233.5 494,-233.5 500,-233.5 506,-239.5 506,-245.5 506,-245.5 506,-357.5 506,-357.5 506,-363.5 500,-369.5 494,-369.5 494,-369.5 274,-369.5 274,-369.5 268,-369.5 262,-363.5 262,-357.5 262,-357.5 262,-245.5 262,-245.5 262,-239.5 268,-233.5 274,-233.5"/>
<text text-anchor="middle" x="384" y="-354.3" font-family="Times,serif" font-size="14.00">Banking</text>
<polyline fill="none" stroke="black" points="262,-346.5 506,-346.5 "/>
<text text-anchor="start" x="270" y="-331.3" font-family="Times,serif" font-size="14.00">id :integer</text>
<text text-anchor="start" x="270" y="-316.3" font-family="Times,serif" font-size="14.00">professional_id :integer</text>
<text text-anchor="start" x="270" y="-301.3" font-family="Times,serif" font-size="14.00">bank :integer</text>
<text text-anchor="start" x="270" y="-286.3" font-family="Times,serif" font-size="14.00">agency :integer</text>
<text text-anchor="start" x="270" y="-271.3" font-family="Times,serif" font-size="14.00">account :integer</text>
<text text-anchor="start" x="270" y="-256.3" font-family="Times,serif" font-size="14.00">created_at :timestamp without time zone</text>
<text text-anchor="start" x="270" y="-241.3" font-family="Times,serif" font-size="14.00">updated_at :timestamp without time zone</text>
</g>
<!-- Professional&#45;&gt;Banking -->
<g id="edge5" class="edge"><title>Professional&#45;&gt;Banking</title>
<path fill="none" stroke="#a31a46" d="M475.071,-518.894C458.346,-479.153 435.055,-423.811 416.214,-379.043"/>
<ellipse fill="none" stroke="#a31a46" cx="476.662" cy="-522.674" rx="4.00002" ry="4.00002"/>
<polygon fill="#a31a46" stroke="#a31a46" points="416.144,-378.877 416.412,-367.915 414.204,-374.269 412.265,-369.66 412.265,-369.66 412.265,-369.66 414.204,-374.269 408.117,-371.406 416.144,-378.877 416.144,-378.877"/>
</g>
<!-- Product -->
<g id="node12" class="node"><title>Product</title>
<path fill="none" stroke="black" d="M536,-226C536,-226 756,-226 756,-226 762,-226 768,-232 768,-238 768,-238 768,-365 768,-365 768,-371 762,-377 756,-377 756,-377 536,-377 536,-377 530,-377 524,-371 524,-365 524,-365 524,-238 524,-238 524,-232 530,-226 536,-226"/>
<text text-anchor="middle" x="646" y="-361.8" font-family="Times,serif" font-size="14.00">Product</text>
<polyline fill="none" stroke="black" points="524,-354 768,-354 "/>
<text text-anchor="start" x="532" y="-338.8" font-family="Times,serif" font-size="14.00">id :integer</text>
<text text-anchor="start" x="532" y="-323.8" font-family="Times,serif" font-size="14.00">professional_id :integer</text>
<text text-anchor="start" x="532" y="-308.8" font-family="Times,serif" font-size="14.00">name :character varying</text>
<text text-anchor="start" x="532" y="-293.8" font-family="Times,serif" font-size="14.00">description :text</text>
<text text-anchor="start" x="532" y="-278.8" font-family="Times,serif" font-size="14.00">price :double precision</text>
<text text-anchor="start" x="532" y="-263.8" font-family="Times,serif" font-size="14.00">rating :integer</text>
<text text-anchor="start" x="532" y="-248.8" font-family="Times,serif" font-size="14.00">created_at :timestamp without time zone</text>
<text text-anchor="start" x="532" y="-233.8" font-family="Times,serif" font-size="14.00">updated_at :timestamp without time zone</text>
</g>
<!-- Professional&#45;&gt;Product -->
<g id="edge6" class="edge"><title>Professional&#45;&gt;Product</title>
<path fill="none" stroke="#b4bcba" d="M525.7,-519.282C546.628,-481.57 575.434,-429.661 599.612,-386.093"/>
<ellipse fill="none" stroke="#b4bcba" cx="523.713" cy="-522.864" rx="4.00002" ry="4.00002"/>
<polygon fill="#b4bcba" stroke="#b4bcba" points="599.686,-385.958 608.473,-379.398 602.112,-381.586 604.538,-377.214 604.538,-377.214 604.538,-377.214 602.112,-381.586 600.604,-375.031 599.686,-385.958 599.686,-385.958"/>
</g>
<!-- Product&#45;&gt;Keyword -->
<g id="edge8" class="edge"><title>Product&#45;&gt;Keyword</title>
<path fill="none" stroke="#222693" d="M646,-217.86C646,-194.317 646,-169.069 646,-146.945"/>
<ellipse fill="none" stroke="#222693" cx="646" cy="-221.863" rx="4" ry="4"/>
<polygon fill="#222693" stroke="#222693" points="646,-146.687 650.5,-136.687 646,-141.687 646,-136.687 646,-136.687 646,-136.687 646,-141.687 641.5,-136.687 646,-146.687 646,-146.687"/>
</g>
<!-- Product&#45;&gt;Transaction -->
<g id="edge7" class="edge"><title>Product&#45;&gt;Transaction</title>
<path fill="none" stroke="#f0e3a1" d="M549.29,-220.77C527.512,-202.815 504.374,-183.74 482.523,-165.725"/>
<ellipse fill="none" stroke="#f0e3a1" cx="552.381" cy="-223.318" rx="4.00002" ry="4.00002"/>
<polygon fill="#f0e3a1" stroke="#f0e3a1" points="482.252,-165.502 477.399,-155.668 478.394,-162.321 474.536,-159.14 474.536,-159.14 474.536,-159.14 478.394,-162.321 471.673,-162.613 482.252,-165.502 482.252,-165.502"/>
</g>
</g>
</svg>
