<?xml version="1.0" encoding="UTF-8" standalone="no"?>
<!DOCTYPE svg PUBLIC "-//W3C//DTD SVG 1.1//EN"
 "http://www.w3.org/Graphics/SVG/1.1/DTD/svg11.dtd">
<!-- Generated by graphviz version 2.38.0 (20140413.2041)
 -->
<!-- Title: models_diagram Pages: 1 -->
<svg width="610pt" height="302pt"
 viewBox="0.00 0.00 610.19 302.00" xmlns="http://www.w3.org/2000/svg" xmlns:xlink="http://www.w3.org/1999/xlink">
<g id="graph0" class="graph" transform="scale(1 1) rotate(0) translate(4 298)">
<title>models_diagram</title>
<polygon fill="none" stroke="none" points="-4,4 -4,-298 606.189,-298 606.189,4 -4,4"/>
<!-- _diagram_info -->
<g id="node1" class="node"><title>_diagram_info</title>
<text text-anchor="start" x="130.194" y="-279.6" font-family="Times,serif" font-size="13.00">Models diagram</text>
<text text-anchor="start" x="130.194" y="-265.6" font-family="Times,serif" font-size="13.00">Date: Oct 14 2016 &#45; 18:31</text>
<text text-anchor="start" x="130.194" y="-251.6" font-family="Times,serif" font-size="13.00">Migration version: 20161013203116</text>
<text text-anchor="start" x="130.194" y="-237.6" font-family="Times,serif" font-size="13.00">Generated by RailRoady 1.5.2</text>
<text text-anchor="start" x="130.194" y="-223.6" font-family="Times,serif" font-size="13.00">http://railroady.prestonlee.com</text>
</g>
<!-- Consumer -->
<g id="node2" class="node"><title>Consumer</title>
<ellipse fill="none" stroke="black" cx="445.194" cy="-162" rx="47.3916" ry="18"/>
<text text-anchor="middle" x="445.194" y="-158.3" font-family="Times,serif" font-size="14.00">Consumer</text>
</g>
<!-- ShoppingCart -->
<g id="node4" class="node"><title>ShoppingCart</title>
<ellipse fill="none" stroke="black" cx="503.194" cy="-90" rx="59.5901" ry="18"/>
<text text-anchor="middle" x="503.194" y="-86.3" font-family="Times,serif" font-size="14.00">ShoppingCart</text>
</g>
<!-- Consumer&#45;&gt;ShoppingCart -->
<g id="edge3" class="edge"><title>Consumer&#45;&gt;ShoppingCart</title>
<path fill="none" stroke="#a2fba0" d="M464.091,-138.194C469.952,-131.119 476.443,-123.285 482.425,-116.066"/>
<ellipse fill="none" stroke="#a2fba0" cx="461.491" cy="-141.331" rx="4.00002" ry="4.00002"/>
<polygon fill="#a2fba0" stroke="#a2fba0" points="482.764,-115.656 492.609,-110.827 485.954,-111.806 489.144,-107.956 489.144,-107.956 489.144,-107.956 485.954,-111.806 485.679,-105.085 482.764,-115.656 482.764,-115.656"/>
</g>
<!-- CreditCard -->
<g id="node12" class="node"><title>CreditCard</title>
<ellipse fill="none" stroke="black" cx="375.194" cy="-90" rx="50.0912" ry="18"/>
<text text-anchor="middle" x="375.194" y="-86.3" font-family="Times,serif" font-size="14.00">CreditCard</text>
</g>
<!-- Consumer&#45;&gt;CreditCard -->
<g id="edge1" class="edge"><title>Consumer&#45;&gt;CreditCard</title>
<path fill="none" stroke="#22a65e" d="M423.126,-138.932C415.398,-131.204 406.691,-122.498 398.84,-114.646"/>
<ellipse fill="none" stroke="#22a65e" cx="426.13" cy="-141.936" rx="4.00002" ry="4.00002"/>
<polygon fill="#22a65e" stroke="#22a65e" points="398.412,-114.218 394.523,-103.965 394.877,-110.683 391.341,-107.147 391.341,-107.147 391.341,-107.147 394.877,-110.683 388.159,-110.329 398.412,-114.218 398.412,-114.218"/>
</g>
<!-- Transaction -->
<g id="node16" class="node"><title>Transaction</title>
<ellipse fill="none" stroke="black" cx="550.194" cy="-18" rx="51.9908" ry="18"/>
<text text-anchor="middle" x="550.194" y="-14.3" font-family="Times,serif" font-size="14.00">Transaction</text>
</g>
<!-- Consumer&#45;&gt;Transaction -->
<g id="edge2" class="edge"><title>Consumer&#45;&gt;Transaction</title>
<path fill="none" stroke="#d334a6" d="M486.644,-146.307C521.707,-133.461 567.067,-115.694 572.194,-108 584.802,-89.0767 576.486,-63.5567 566.674,-44.6961"/>
<ellipse fill="none" stroke="#d334a6" cx="482.645" cy="-147.762" rx="4.00001" ry="4.00001"/>
<polygon fill="#d334a6" stroke="#d334a6" points="566.559,-44.4917 565.59,-33.5687 564.113,-40.1312 561.666,-35.7707 561.666,-35.7707 561.666,-35.7707 564.113,-40.1312 557.741,-37.9727 566.559,-44.4917 566.559,-44.4917"/>
</g>
<!-- Picture -->
<g id="node3" class="node"><title>Picture</title>
<ellipse fill="none" stroke="black" cx="219.194" cy="-18" rx="35.9954" ry="18"/>
<text text-anchor="middle" x="219.194" y="-14.3" font-family="Times,serif" font-size="14.00">Picture</text>
</g>
<!-- CartItem -->
<g id="node14" class="node"><title>CartItem</title>
<ellipse fill="none" stroke="black" cx="397.194" cy="-18" rx="42.4939" ry="18"/>
<text text-anchor="middle" x="397.194" y="-14.3" font-family="Times,serif" font-size="14.00">CartItem</text>
</g>
<!-- ShoppingCart&#45;&gt;CartItem -->
<g id="edge4" class="edge"><title>ShoppingCart&#45;&gt;CartItem</title>
<path fill="none" stroke="#5647ba" d="M472.348,-68.63C458.217,-59.2985 441.524,-48.2749 427.464,-38.99"/>
<ellipse fill="none" stroke="#5647ba" cx="476.067" cy="-71.0864" rx="4.00002" ry="4.00002"/>
<polygon fill="#5647ba" stroke="#5647ba" points="427.441,-38.9749 421.577,-29.7091 423.269,-36.2196 419.097,-33.4642 419.097,-33.4642 419.097,-33.4642 423.269,-36.2196 416.617,-37.2193 427.441,-38.9749 427.441,-38.9749"/>
</g>
<!-- Keyword -->
<g id="node5" class="node"><title>Keyword</title>
<ellipse fill="none" stroke="black" cx="122.194" cy="-18" rx="43.5923" ry="18"/>
<text text-anchor="middle" x="122.194" y="-14.3" font-family="Times,serif" font-size="14.00">Keyword</text>
</g>
<!-- Address -->
<g id="node6" class="node"><title>Address</title>
<ellipse fill="none" stroke="black" cx="550.194" cy="-162" rx="39.7935" ry="18"/>
<text text-anchor="middle" x="550.194" y="-158.3" font-family="Times,serif" font-size="14.00">Address</text>
</g>
<!-- ApplicationRecord -->
<g id="node7" class="node"><title>ApplicationRecord</title>
<ellipse fill="none" stroke="black" cx="514.194" cy="-255" rx="77.1866" ry="18"/>
<text text-anchor="middle" x="514.194" y="-251.3" font-family="Times,serif" font-size="14.00">ApplicationRecord</text>
</g>
<!-- CategoryProduct -->
<g id="node8" class="node"><title>CategoryProduct</title>
<ellipse fill="none" stroke="black" cx="70.1938" cy="-162" rx="70.3881" ry="18"/>
<text text-anchor="middle" x="70.1938" y="-158.3" font-family="Times,serif" font-size="14.00">CategoryProduct</text>
</g>
<!-- Product -->
<g id="node15" class="node"><title>Product</title>
<ellipse fill="none" stroke="black" cx="170.194" cy="-90" rx="38.1938" ry="18"/>
<text text-anchor="middle" x="170.194" y="-86.3" font-family="Times,serif" font-size="14.00">Product</text>
</g>
<!-- CategoryProduct&#45;&gt;Product -->
<g id="edge5" class="edge"><title>CategoryProduct&#45;&gt;Product</title>
<path fill="none" stroke="#69d431" d="M99.9982,-140.137C112.96,-131.064 128.098,-120.467 140.991,-111.442"/>
<ellipse fill="none" stroke="#69d431" cx="96.6641" cy="-142.471" rx="4.00002" ry="4.00002"/>
<polygon fill="#69d431" stroke="#69d431" points="141.312,-111.217 152.085,-109.169 145.408,-108.35 149.504,-105.483 149.504,-105.483 149.504,-105.483 145.408,-108.35 146.923,-101.796 141.312,-111.217 141.312,-111.217"/>
</g>
<!-- Client -->
<g id="node9" class="node"><title>Client</title>
<ellipse fill="none" stroke="black" cx="386.194" cy="-255" rx="32.4942" ry="18"/>
<text text-anchor="middle" x="386.194" y="-251.3" font-family="Times,serif" font-size="14.00">Client</text>
</g>
<!-- Client&#45;&gt;Consumer -->
<g id="edge8" class="edge"><title>Client&#45;&gt;Consumer</title>
<path fill="none" stroke="#28a79c" d="M401.241,-230.791C410.04,-217.221 421.116,-200.137 429.948,-186.515"/>
<ellipse fill="none" stroke="#28a79c" cx="398.918" cy="-234.375" rx="4.00002" ry="4.00002"/>
<ellipse fill="#28a79c" stroke="#28a79c" cx="432.162" cy="-183.1" rx="4.00002" ry="4.00002"/>
</g>
<!-- Client&#45;&gt;Address -->
<g id="edge7" class="edge"><title>Client&#45;&gt;Address</title>
<path fill="none" stroke="#39520c" d="M406.888,-232.836C413.356,-226.916 420.756,-220.795 428.194,-216 453.724,-199.541 485.228,-186.003 509.827,-176.73"/>
<ellipse fill="none" stroke="#39520c" cx="403.668" cy="-235.885" rx="4.00002" ry="4.00002"/>
<polygon fill="#39520c" stroke="#39520c" points="509.844,-176.724 520.783,-177.488 514.536,-174.995 519.227,-173.266 519.227,-173.266 519.227,-173.266 514.536,-174.995 517.671,-169.043 509.844,-176.724 509.844,-176.724"/>
</g>
<!-- Telephone -->
<g id="node10" class="node"><title>Telephone</title>
<ellipse fill="none" stroke="black" cx="206.194" cy="-162" rx="48.1917" ry="18"/>
<text text-anchor="middle" x="206.194" y="-158.3" font-family="Times,serif" font-size="14.00">Telephone</text>
</g>
<!-- Client&#45;&gt;Telephone -->
<g id="edge6" class="edge"><title>Client&#45;&gt;Telephone</title>
<path fill="none" stroke="#e1764e" d="M366.192,-232.602C359.884,-226.674 352.613,-220.609 345.194,-216 328.92,-205.891 284.827,-189.699 250.623,-177.87"/>
<ellipse fill="none" stroke="#e1764e" cx="369.29" cy="-235.629" rx="4.00002" ry="4.00002"/>
<polygon fill="#e1764e" stroke="#e1764e" points="250.278,-177.751 242.281,-170.248 245.548,-176.128 240.819,-174.504 240.819,-174.504 240.819,-174.504 245.548,-176.128 239.358,-178.761 250.278,-177.751 250.278,-177.751"/>
</g>
<!-- Professional -->
<g id="node11" class="node"><title>Professional</title>
<ellipse fill="none" stroke="black" cx="326.194" cy="-162" rx="53.8905" ry="18"/>
<text text-anchor="middle" x="326.194" y="-158.3" font-family="Times,serif" font-size="14.00">Professional</text>
</g>
<!-- Client&#45;&gt;Professional -->
<g id="edge9" class="edge"><title>Client&#45;&gt;Professional</title>
<path fill="none" stroke="#3662e5" d="M370.891,-230.791C361.944,-217.221 350.68,-200.137 341.698,-186.515"/>
<ellipse fill="none" stroke="#3662e5" cx="373.265" cy="-234.392" rx="4.00002" ry="4.00002"/>
<ellipse fill="#3662e5" stroke="#3662e5" cx="339.435" cy="-183.083" rx="4.00002" ry="4.00002"/>
</g>
<!-- Banking -->
<g id="node13" class="node"><title>Banking</title>
<ellipse fill="none" stroke="black" cx="267.194" cy="-90" rx="40.0939" ry="18"/>
<text text-anchor="middle" x="267.194" y="-86.3" font-family="Times,serif" font-size="14.00">Banking</text>
</g>
<!-- Professional&#45;&gt;Banking -->
<g id="edge10" class="edge"><title>Professional&#45;&gt;Banking</title>
<path fill="none" stroke="#64b1e4" d="M307.055,-138.293C300.73,-130.789 293.677,-122.421 287.283,-114.835"/>
<ellipse fill="none" stroke="#64b1e4" cx="309.634" cy="-141.352" rx="4.00002" ry="4.00002"/>
<polygon fill="#64b1e4" stroke="#64b1e4" points="287.114,-114.634 284.11,-104.088 283.892,-110.811 280.669,-106.988 280.669,-106.988 280.669,-106.988 283.892,-110.811 277.229,-109.888 287.114,-114.634 287.114,-114.634"/>
</g>
<!-- Professional&#45;&gt;Product -->
<g id="edge11" class="edge"><title>Professional&#45;&gt;Product</title>
<path fill="none" stroke="#530dc4" d="M288.056,-143.887C263.156,-132.714 230.846,-118.216 206.353,-107.225"/>
<ellipse fill="none" stroke="#530dc4" cx="291.724" cy="-145.533" rx="4.00002" ry="4.00002"/>
<polygon fill="#530dc4" stroke="#530dc4" points="206.172,-107.144 198.891,-98.9446 201.61,-105.097 197.049,-103.05 197.049,-103.05 197.049,-103.05 201.61,-105.097 195.206,-107.156 206.172,-107.144 206.172,-107.144"/>
</g>
<!-- Product&#45;&gt;Picture -->
<g id="edge14" class="edge"><title>Product&#45;&gt;Picture</title>
<path fill="none" stroke="#8654ed" d="M186.251,-66.0612C191.336,-58.7973 196.973,-50.7437 202.126,-43.3822"/>
<ellipse fill="none" stroke="#8654ed" cx="183.852" cy="-69.4877" rx="4.00002" ry="4.00002"/>
<polygon fill="#8654ed" stroke="#8654ed" points="202.156,-43.3396 211.577,-37.7279 205.023,-39.2435 207.891,-35.1473 207.891,-35.1473 207.891,-35.1473 205.023,-39.2435 204.204,-32.5667 202.156,-43.3396 202.156,-43.3396"/>
</g>
<!-- Product&#45;&gt;Keyword -->
<g id="edge13" class="edge"><title>Product&#45;&gt;Keyword</title>
<path fill="none" stroke="#a3124b" d="M154.533,-66.1611C149.735,-59.1636 144.428,-51.4255 139.526,-44.2755"/>
<ellipse fill="none" stroke="#a3124b" cx="156.799" cy="-69.4657" rx="4.00002" ry="4.00002"/>
<polygon fill="#a3124b" stroke="#a3124b" points="139.255,-43.8807 137.311,-33.0885 136.427,-39.7571 133.6,-35.6334 133.6,-35.6334 133.6,-35.6334 136.427,-39.7571 129.888,-38.1783 139.255,-43.8807 139.255,-43.8807"/>
</g>
<!-- Product&#45;&gt;CartItem -->
<g id="edge15" class="edge"><title>Product&#45;&gt;CartItem</title>
<path fill="none" stroke="#cb0d8d" d="M207.143,-75.6948C210.867,-74.4196 214.599,-73.1677 218.194,-72 263.838,-57.1713 316.568,-41.7645 352.915,-31.4098"/>
<ellipse fill="none" stroke="#cb0d8d" cx="203.336" cy="-77.0151" rx="4.00001" ry="4.00001"/>
<polygon fill="#cb0d8d" stroke="#cb0d8d" points="353.093,-31.3593 363.942,-32.9568 357.903,-29.9936 362.713,-28.6279 362.713,-28.6279 362.713,-28.6279 357.903,-29.9936 361.484,-24.299 353.093,-31.3593 353.093,-31.3593"/>
</g>
<!-- Product&#45;&gt;Transaction -->
<g id="edge12" class="edge"><title>Product&#45;&gt;Transaction</title>
<path fill="none" stroke="#abf9af" d="M206.685,-75.2918C210.541,-74.0793 214.428,-72.9528 218.194,-72 318.5,-46.6203 346.052,-52.5051 448.194,-36 463.169,-33.5801 479.372,-30.9055 494.36,-28.408"/>
<ellipse fill="none" stroke="#abf9af" cx="202.662" cy="-76.6197" rx="4.00001" ry="4.00001"/>
<polygon fill="#abf9af" stroke="#abf9af" points="494.648,-28.3599 505.253,-31.1512 499.58,-27.5363 504.512,-26.7126 504.512,-26.7126 504.512,-26.7126 499.58,-27.5363 503.77,-22.2741 494.648,-28.3599 494.648,-28.3599"/>
</g>
</g>
</svg>
