<?xml version="1.0" encoding="UTF-8" standalone="no"?>
<!DOCTYPE svg PUBLIC "-//W3C//DTD SVG 1.1//EN"
 "http://www.w3.org/Graphics/SVG/1.1/DTD/svg11.dtd">
<!-- Generated by graphviz version 2.38.0 (20140413.2041)
 -->
<!-- Title: models_diagram Pages: 1 -->
<svg width="821pt" height="230pt"
 viewBox="0.00 0.00 821.35 230.00" xmlns="http://www.w3.org/2000/svg" xmlns:xlink="http://www.w3.org/1999/xlink">
<g id="graph0" class="graph" transform="scale(1 1) rotate(0) translate(4 226)">
<title>models_diagram</title>
<polygon fill="none" stroke="none" points="-4,4 -4,-226 817.345,-226 817.345,4 -4,4"/>
<!-- _diagram_info -->
<g id="node1" class="node"><title>_diagram_info</title>
<text text-anchor="start" x="8" y="-207.6" font-family="Times,serif" font-size="13.00">Models diagram</text>
<text text-anchor="start" x="8" y="-193.6" font-family="Times,serif" font-size="13.00">Date: Oct 17 2016 &#45; 21:05</text>
<text text-anchor="start" x="8" y="-179.6" font-family="Times,serif" font-size="13.00">Migration version: 20160922010222</text>
<text text-anchor="start" x="8" y="-165.6" font-family="Times,serif" font-size="13.00">Generated by RailRoady 1.5.2</text>
<text text-anchor="start" x="8" y="-151.6" font-family="Times,serif" font-size="13.00">http://railroady.prestonlee.com</text>
</g>
<!-- Consumer -->
<g id="node2" class="node"><title>Consumer</title>
<ellipse fill="none" stroke="black" cx="131" cy="-90" rx="47.3916" ry="18"/>
<text text-anchor="middle" x="131" y="-86.3" font-family="Times,serif" font-size="14.00">Consumer</text>
</g>
<!-- Transaction -->
<g id="node7" class="node"><title>Transaction</title>
<ellipse fill="none" stroke="black" cx="292" cy="-18" rx="51.9908" ry="18"/>
<text text-anchor="middle" x="292" y="-14.3" font-family="Times,serif" font-size="14.00">Transaction</text>
</g>
<!-- Consumer&#45;&gt;Transaction -->
<g id="edge2" class="edge"><title>Consumer&#45;&gt;Transaction</title>
<path fill="none" stroke="#df14c0" d="M168.54,-72.6781C193.42,-61.8609 226.043,-47.6771 251.505,-36.6064"/>
<ellipse fill="none" stroke="#df14c0" cx="164.574" cy="-74.4027" rx="4.00002" ry="4.00002"/>
<polygon fill="#df14c0" stroke="#df14c0" points="251.712,-36.5167 262.677,-36.6562 256.297,-34.5231 260.882,-32.5294 260.882,-32.5294 260.882,-32.5294 256.297,-34.5231 259.088,-28.4026 251.712,-36.5167 251.712,-36.5167"/>
</g>
<!-- CreditCard -->
<g id="node10" class="node"><title>CreditCard</title>
<ellipse fill="none" stroke="black" cx="131" cy="-18" rx="50.0912" ry="18"/>
<text text-anchor="middle" x="131" y="-14.3" font-family="Times,serif" font-size="14.00">CreditCard</text>
</g>
<!-- Consumer&#45;&gt;CreditCard -->
<g id="edge1" class="edge"><title>Consumer&#45;&gt;CreditCard</title>
<path fill="none" stroke="#4287e0" d="M131,-63.6398C131,-58.0629 131,-52.1319 131,-46.4761"/>
<ellipse fill="none" stroke="#4287e0" cx="131" cy="-67.6966" rx="4" ry="4"/>
<polygon fill="#4287e0" stroke="#4287e0" points="131,-46.1043 135.5,-36.1043 131,-41.1043 131,-36.1043 131,-36.1043 131,-36.1043 131,-41.1043 126.5,-36.1044 131,-46.1043 131,-46.1043"/>
</g>
<!-- Address -->
<g id="node3" class="node"><title>Address</title>
<ellipse fill="none" stroke="black" cx="430" cy="-90" rx="39.7935" ry="18"/>
<text text-anchor="middle" x="430" y="-86.3" font-family="Times,serif" font-size="14.00">Address</text>
</g>
<!-- ApplicationRecord -->
<g id="node4" class="node"><title>ApplicationRecord</title>
<ellipse fill="none" stroke="black" cx="615" cy="-183" rx="77.1866" ry="18"/>
<text text-anchor="middle" x="615" y="-179.3" font-family="Times,serif" font-size="14.00">ApplicationRecord</text>
</g>
<!-- MainClient -->
<g id="node5" class="node"><title>MainClient</title>
<ellipse fill="none" stroke="black" cx="762" cy="-183" rx="51.1914" ry="18"/>
<text text-anchor="middle" x="762" y="-179.3" font-family="Times,serif" font-size="14.00">MainClient</text>
</g>
<!-- Client -->
<g id="node6" class="node"><title>Client</title>
<ellipse fill="none" stroke="black" cx="487" cy="-183" rx="32.4942" ry="18"/>
<text text-anchor="middle" x="487" y="-179.3" font-family="Times,serif" font-size="14.00">Client</text>
</g>
<!-- Client&#45;&gt;Address -->
<g id="edge4" class="edge"><title>Client&#45;&gt;Address</title>
<path fill="none" stroke="#efd4e5" d="M472.434,-158.745C464.268,-145.709 454.079,-129.442 445.731,-116.115"/>
<ellipse fill="none" stroke="#efd4e5" cx="474.686" cy="-162.341" rx="4.00002" ry="4.00002"/>
<polygon fill="#efd4e5" stroke="#efd4e5" points="445.603,-115.91 444.108,-105.046 442.949,-111.672 440.294,-107.435 440.294,-107.435 440.294,-107.435 442.949,-111.672 436.481,-109.824 445.603,-115.91 445.603,-115.91"/>
</g>
<!-- Telephone -->
<g id="node8" class="node"><title>Telephone</title>
<ellipse fill="none" stroke="black" cx="536" cy="-90" rx="48.1917" ry="18"/>
<text text-anchor="middle" x="536" y="-86.3" font-family="Times,serif" font-size="14.00">Telephone</text>
</g>
<!-- Client&#45;&gt;Telephone -->
<g id="edge3" class="edge"><title>Client&#45;&gt;Telephone</title>
<path fill="none" stroke="#977519" d="M499.937,-157.974C506.769,-145.286 515.158,-129.707 522.124,-116.769"/>
<ellipse fill="none" stroke="#977519" cx="497.884" cy="-161.787" rx="4.00002" ry="4.00002"/>
<polygon fill="#977519" stroke="#977519" points="522.163,-116.698 530.866,-110.027 524.533,-112.296 526.904,-107.893 526.904,-107.893 526.904,-107.893 524.533,-112.296 522.942,-105.76 522.163,-116.698 522.163,-116.698"/>
</g>
<!-- Professional -->
<g id="node9" class="node"><title>Professional</title>
<ellipse fill="none" stroke="black" cx="286" cy="-183" rx="53.8905" ry="18"/>
<text text-anchor="middle" x="286" y="-179.3" font-family="Times,serif" font-size="14.00">Professional</text>
</g>
<!-- Banking -->
<g id="node11" class="node"><title>Banking</title>
<ellipse fill="none" stroke="black" cx="237" cy="-90" rx="40.0939" ry="18"/>
<text text-anchor="middle" x="237" y="-86.3" font-family="Times,serif" font-size="14.00">Banking</text>
</g>
<!-- Professional&#45;&gt;Banking -->
<g id="edge5" class="edge"><title>Professional&#45;&gt;Banking</title>
<path fill="none" stroke="#d1b28c" d="M272.828,-157.538C266.064,-144.976 257.823,-129.672 250.951,-116.909"/>
<ellipse fill="none" stroke="#d1b28c" cx="274.887" cy="-161.362" rx="4.00002" ry="4.00002"/>
<polygon fill="#d1b28c" stroke="#d1b28c" points="250.751,-116.537 249.972,-105.599 248.38,-112.135 246.01,-107.732 246.01,-107.732 246.01,-107.732 248.38,-112.135 242.048,-109.866 250.751,-116.537 250.751,-116.537"/>
</g>
<!-- Product -->
<g id="node12" class="node"><title>Product</title>
<ellipse fill="none" stroke="black" cx="334" cy="-90" rx="38.1938" ry="18"/>
<text text-anchor="middle" x="334" y="-86.3" font-family="Times,serif" font-size="14.00">Product</text>
</g>
<!-- Professional&#45;&gt;Product -->
<g id="edge6" class="edge"><title>Professional&#45;&gt;Product</title>
<path fill="none" stroke="#71d5af" d="M298.903,-157.538C305.529,-144.976 313.602,-129.672 320.334,-116.909"/>
<ellipse fill="none" stroke="#71d5af" cx="296.895" cy="-161.346" rx="4.00002" ry="4.00002"/>
<polygon fill="#71d5af" stroke="#71d5af" points="320.509,-116.577 329.154,-109.832 322.841,-112.155 325.174,-107.732 325.174,-107.732 325.174,-107.732 322.841,-112.155 321.194,-105.633 320.509,-116.577 320.509,-116.577"/>
</g>
<!-- Product&#45;&gt;Transaction -->
<g id="edge7" class="edge"><title>Product&#45;&gt;Transaction</title>
<path fill="none" stroke="#d05450" d="M319.808,-65.3464C315.831,-58.7188 311.49,-51.4827 307.444,-44.7405"/>
<ellipse fill="none" stroke="#d05450" cx="321.989" cy="-68.981" rx="4.00002" ry="4.00002"/>
<polygon fill="#d05450" stroke="#d05450" points="307.319,-44.5312 306.032,-33.641 304.746,-40.2437 302.174,-35.9562 302.174,-35.9562 302.174,-35.9562 304.746,-40.2437 298.315,-38.2715 307.319,-44.5312 307.319,-44.5312"/>
</g>
</g>
</svg>
