<?xml version="1.0" encoding="UTF-8" standalone="no"?>
<!DOCTYPE svg PUBLIC "-//W3C//DTD SVG 1.1//EN"
 "http://www.w3.org/Graphics/SVG/1.1/DTD/svg11.dtd">
<!-- Generated by graphviz version 2.38.0 (20140413.2041)
 -->
<!-- Title: models_diagram Pages: 1 -->
<svg width="729pt" height="302pt"
 viewBox="0.00 0.00 729.24 302.00" xmlns="http://www.w3.org/2000/svg" xmlns:xlink="http://www.w3.org/1999/xlink">
<g id="graph0" class="graph" transform="scale(1 1) rotate(0) translate(4 298)">
<title>models_diagram</title>
<polygon fill="none" stroke="none" points="-4,4 -4,-298 725.239,-298 725.239,4 -4,4"/>
<!-- _diagram_info -->
<g id="node1" class="node"><title>_diagram_info</title>
<text text-anchor="start" x="129.194" y="-279.6" font-family="Times,serif" font-size="13.00">Models diagram</text>
<text text-anchor="start" x="129.194" y="-265.6" font-family="Times,serif" font-size="13.00">Date: Nov 02 2016 &#45; 18:22</text>
<text text-anchor="start" x="129.194" y="-251.6" font-family="Times,serif" font-size="13.00">Migration version: 20161102200708</text>
<text text-anchor="start" x="129.194" y="-237.6" font-family="Times,serif" font-size="13.00">Generated by RailRoady 1.5.2</text>
<text text-anchor="start" x="129.194" y="-223.6" font-family="Times,serif" font-size="13.00">http://railroady.prestonlee.com</text>
</g>
<!-- Consumer -->
<g id="node2" class="node"><title>Consumer</title>
<ellipse fill="none" stroke="black" cx="543.194" cy="-162" rx="47.3916" ry="18"/>
<text text-anchor="middle" x="543.194" y="-158.3" font-family="Times,serif" font-size="14.00">Consumer</text>
</g>
<!-- ShoppingCart -->
<g id="node4" class="node"><title>ShoppingCart</title>
<ellipse fill="none" stroke="black" cx="543.194" cy="-90" rx="59.5901" ry="18"/>
<text text-anchor="middle" x="543.194" y="-86.3" font-family="Times,serif" font-size="14.00">ShoppingCart</text>
</g>
<!-- Consumer&#45;&gt;ShoppingCart -->
<g id="edge2" class="edge"><title>Consumer&#45;&gt;ShoppingCart</title>
<path fill="none" stroke="#6acaf5" d="M543.194,-135.64C543.194,-130.063 543.194,-124.132 543.194,-118.476"/>
<ellipse fill="none" stroke="#6acaf5" cx="543.194" cy="-139.697" rx="4" ry="4"/>
<polygon fill="#6acaf5" stroke="#6acaf5" points="543.194,-118.104 547.694,-108.104 543.194,-113.104 543.194,-108.104 543.194,-108.104 543.194,-108.104 543.194,-113.104 538.694,-108.104 543.194,-118.104 543.194,-118.104"/>
</g>
<!-- Event -->
<g id="node10" class="node"><title>Event</title>
<ellipse fill="none" stroke="black" cx="434.194" cy="-90" rx="31.3957" ry="18"/>
<text text-anchor="middle" x="434.194" y="-86.3" font-family="Times,serif" font-size="14.00">Event</text>
</g>
<!-- Consumer&#45;&gt;Event -->
<g id="edge3" class="edge"><title>Consumer&#45;&gt;Event</title>
<path fill="none" stroke="#370a96" d="M512.916,-141.555C497.295,-131.524 478.341,-119.351 462.946,-109.465"/>
<ellipse fill="none" stroke="#370a96" cx="516.712" cy="-143.993" rx="4.00002" ry="4.00002"/>
<polygon fill="#370a96" stroke="#370a96" points="462.759,-109.345 456.777,-100.155 458.552,-106.643 454.345,-103.941 454.345,-103.941 454.345,-103.941 458.552,-106.643 451.913,-107.728 462.759,-109.345 462.759,-109.345"/>
</g>
<!-- CreditCard -->
<g id="node14" class="node"><title>CreditCard</title>
<ellipse fill="none" stroke="black" cx="671.194" cy="-90" rx="50.0912" ry="18"/>
<text text-anchor="middle" x="671.194" y="-86.3" font-family="Times,serif" font-size="14.00">CreditCard</text>
</g>
<!-- Consumer&#45;&gt;CreditCard -->
<g id="edge1" class="edge"><title>Consumer&#45;&gt;CreditCard</title>
<path fill="none" stroke="#b573fe" d="M576.372,-142.856C594.709,-132.827 617.482,-120.374 636.114,-110.184"/>
<ellipse fill="none" stroke="#b573fe" cx="572.606" cy="-144.915" rx="4.00002" ry="4.00002"/>
<polygon fill="#b573fe" stroke="#b573fe" points="636.117,-110.183 647.049,-109.333 640.503,-107.784 644.89,-105.385 644.89,-105.385 644.89,-105.385 640.503,-107.784 642.731,-101.437 636.117,-110.183 636.117,-110.183"/>
</g>
<!-- Picture -->
<g id="node3" class="node"><title>Picture</title>
<ellipse fill="none" stroke="black" cx="115.194" cy="-18" rx="35.9954" ry="18"/>
<text text-anchor="middle" x="115.194" y="-14.3" font-family="Times,serif" font-size="14.00">Picture</text>
</g>
<!-- Payment -->
<g id="node7" class="node"><title>Payment</title>
<ellipse fill="none" stroke="black" cx="594.194" cy="-18" rx="42.4939" ry="18"/>
<text text-anchor="middle" x="594.194" y="-14.3" font-family="Times,serif" font-size="14.00">Payment</text>
</g>
<!-- ShoppingCart&#45;&gt;Payment -->
<g id="edge5" class="edge"><title>ShoppingCart&#45;&gt;Payment</title>
<path fill="none" stroke="#aed6fb" d="M560.343,-65.4624C565.868,-57.8782 571.982,-49.4867 577.476,-41.9458"/>
<ellipse fill="none" stroke="#aed6fb" cx="557.895" cy="-68.822" rx="4.00002" ry="4.00002"/>
<ellipse fill="#aed6fb" stroke="#aed6fb" cx="579.958" cy="-38.54" rx="4.00002" ry="4.00002"/>
</g>
<!-- CartItem -->
<g id="node16" class="node"><title>CartItem</title>
<ellipse fill="none" stroke="black" cx="380.194" cy="-18" rx="42.4939" ry="18"/>
<text text-anchor="middle" x="380.194" y="-14.3" font-family="Times,serif" font-size="14.00">CartItem</text>
</g>
<!-- ShoppingCart&#45;&gt;CartItem -->
<g id="edge4" class="edge"><title>ShoppingCart&#45;&gt;CartItem</title>
<path fill="none" stroke="#bc9655" d="M502.624,-71.5775C476.737,-60.4603 443.409,-46.1476 418.064,-35.2631"/>
<ellipse fill="none" stroke="#bc9655" cx="506.533" cy="-73.256" rx="4.00002" ry="4.00002"/>
<polygon fill="#bc9655" stroke="#bc9655" points="417.961,-35.2192 410.548,-27.1383 413.367,-33.2462 408.773,-31.2732 408.773,-31.2732 408.773,-31.2732 413.367,-33.2462 406.997,-35.408 417.961,-35.2192 417.961,-35.2192"/>
</g>
<!-- Keyword -->
<g id="node5" class="node"><title>Keyword</title>
<ellipse fill="none" stroke="black" cx="212.194" cy="-18" rx="43.5923" ry="18"/>
<text text-anchor="middle" x="212.194" y="-14.3" font-family="Times,serif" font-size="14.00">Keyword</text>
</g>
<!-- Address -->
<g id="node6" class="node"><title>Address</title>
<ellipse fill="none" stroke="black" cx="438.194" cy="-162" rx="39.7935" ry="18"/>
<text text-anchor="middle" x="438.194" y="-158.3" font-family="Times,serif" font-size="14.00">Address</text>
</g>
<!-- Address&#45;&gt;Event -->
<g id="edge6" class="edge"><title>Address&#45;&gt;Event</title>
<path fill="none" stroke="#b1389d" d="M436.745,-135.64C436.426,-130.063 436.087,-124.132 435.764,-118.476"/>
<ellipse fill="none" stroke="#b1389d" cx="436.977" cy="-139.703" rx="4" ry="4"/>
<polygon fill="#b1389d" stroke="#b1389d" points="435.742,-118.088 439.664,-107.848 435.456,-113.096 435.171,-108.104 435.171,-108.104 435.171,-108.104 435.456,-113.096 430.678,-108.361 435.742,-118.088 435.742,-118.088"/>
</g>
<!-- ApplicationRecord -->
<g id="node8" class="node"><title>ApplicationRecord</title>
<ellipse fill="none" stroke="black" cx="513.194" cy="-255" rx="77.1866" ry="18"/>
<text text-anchor="middle" x="513.194" y="-251.3" font-family="Times,serif" font-size="14.00">ApplicationRecord</text>
</g>
<!-- CategoryProduct -->
<g id="node9" class="node"><title>CategoryProduct</title>
<ellipse fill="none" stroke="black" cx="70.1938" cy="-162" rx="70.3881" ry="18"/>
<text text-anchor="middle" x="70.1938" y="-158.3" font-family="Times,serif" font-size="14.00">CategoryProduct</text>
</g>
<!-- Product -->
<g id="node17" class="node"><title>Product</title>
<ellipse fill="none" stroke="black" cx="163.194" cy="-90" rx="38.1938" ry="18"/>
<text text-anchor="middle" x="163.194" y="-86.3" font-family="Times,serif" font-size="14.00">Product</text>
</g>
<!-- CategoryProduct&#45;&gt;Product -->
<g id="edge7" class="edge"><title>CategoryProduct&#45;&gt;Product</title>
<path fill="none" stroke="#c2cd36" d="M98.2639,-139.872C110.053,-130.998 123.728,-120.705 135.479,-111.86"/>
<ellipse fill="none" stroke="#c2cd36" cx="94.9595" cy="-142.359" rx="4.00002" ry="4.00002"/>
<polygon fill="#c2cd36" stroke="#c2cd36" points="135.652,-111.731 146.347,-109.312 139.646,-108.724 143.641,-105.717 143.641,-105.717 143.641,-105.717 139.646,-108.724 140.935,-102.122 135.652,-111.731 135.652,-111.731"/>
</g>
<!-- Client -->
<g id="node11" class="node"><title>Client</title>
<ellipse fill="none" stroke="black" cx="385.194" cy="-255" rx="32.4942" ry="18"/>
<text text-anchor="middle" x="385.194" y="-251.3" font-family="Times,serif" font-size="14.00">Client</text>
</g>
<!-- Client&#45;&gt;Consumer -->
<g id="edge10" class="edge"><title>Client&#45;&gt;Consumer</title>
<path fill="none" stroke="#657dce" d="M405.945,-232.924C412.415,-227.006 419.801,-220.865 427.194,-216 450.708,-200.527 479.474,-187.351 502.478,-178.007"/>
<ellipse fill="none" stroke="#657dce" cx="402.723" cy="-235.967" rx="4.00002" ry="4.00002"/>
<ellipse fill="#657dce" stroke="#657dce" cx="506.327" cy="-176.471" rx="4.00001" ry="4.00001"/>
</g>
<!-- Client&#45;&gt;Address -->
<g id="edge9" class="edge"><title>Client&#45;&gt;Address</title>
<path fill="none" stroke="#e131c3" d="M398.711,-230.791C406.252,-217.843 415.656,-201.697 423.394,-188.411"/>
<ellipse fill="none" stroke="#e131c3" cx="396.682" cy="-234.275" rx="4.00002" ry="4.00002"/>
<polygon fill="#e131c3" stroke="#e131c3" points="423.409,-188.385 432.33,-182.009 425.925,-184.064 428.442,-179.744 428.442,-179.744 428.442,-179.744 425.925,-184.064 424.553,-177.479 423.409,-188.385 423.409,-188.385"/>
</g>
<!-- Telephone -->
<g id="node12" class="node"><title>Telephone</title>
<ellipse fill="none" stroke="black" cx="332.194" cy="-162" rx="48.1917" ry="18"/>
<text text-anchor="middle" x="332.194" y="-158.3" font-family="Times,serif" font-size="14.00">Telephone</text>
</g>
<!-- Client&#45;&gt;Telephone -->
<g id="edge8" class="edge"><title>Client&#45;&gt;Telephone</title>
<path fill="none" stroke="#a0d858" d="M371.676,-230.791C364.135,-217.843 354.732,-201.697 346.993,-188.411"/>
<ellipse fill="none" stroke="#a0d858" cx="373.705" cy="-234.275" rx="4.00002" ry="4.00002"/>
<polygon fill="#a0d858" stroke="#a0d858" points="346.979,-188.385 345.834,-177.479 344.462,-184.064 341.946,-179.744 341.946,-179.744 341.946,-179.744 344.462,-184.064 338.057,-182.009 346.979,-188.385 346.979,-188.385"/>
</g>
<!-- Professional -->
<g id="node13" class="node"><title>Professional</title>
<ellipse fill="none" stroke="black" cx="212.194" cy="-162" rx="53.8905" ry="18"/>
<text text-anchor="middle" x="212.194" y="-158.3" font-family="Times,serif" font-size="14.00">Professional</text>
</g>
<!-- Client&#45;&gt;Professional -->
<g id="edge11" class="edge"><title>Client&#45;&gt;Professional</title>
<path fill="none" stroke="#c5ce76" d="M365.141,-232.683C358.831,-226.758 351.573,-220.674 344.194,-216 317.82,-199.294 285.303,-186.163 259.143,-177.15"/>
<ellipse fill="none" stroke="#c5ce76" cx="368.24" cy="-235.705" rx="4.00002" ry="4.00002"/>
<ellipse fill="#c5ce76" stroke="#c5ce76" cx="255.032" cy="-175.764" rx="4.00001" ry="4.00001"/>
</g>
<!-- Banking -->
<g id="node15" class="node"><title>Banking</title>
<ellipse fill="none" stroke="black" cx="260.194" cy="-90" rx="40.0939" ry="18"/>
<text text-anchor="middle" x="260.194" y="-86.3" font-family="Times,serif" font-size="14.00">Banking</text>
</g>
<!-- Professional&#45;&gt;Banking -->
<g id="edge12" class="edge"><title>Professional&#45;&gt;Banking</title>
<path fill="none" stroke="#1e1d9b" d="M228.53,-137.176C233.273,-130.26 238.461,-122.693 243.241,-115.723"/>
<ellipse fill="none" stroke="#1e1d9b" cx="226.075" cy="-140.756" rx="4.00002" ry="4.00002"/>
<polygon fill="#1e1d9b" stroke="#1e1d9b" points="243.357,-115.554 252.723,-109.852 246.184,-111.431 249.012,-107.307 249.012,-107.307 249.012,-107.307 246.184,-111.431 245.301,-104.762 243.357,-115.554 243.357,-115.554"/>
</g>
<!-- Professional&#45;&gt;Product -->
<g id="edge13" class="edge"><title>Professional&#45;&gt;Product</title>
<path fill="none" stroke="#63966a" d="M195.962,-137.812C191.075,-130.831 185.691,-123.138 180.723,-116.042"/>
<ellipse fill="none" stroke="#63966a" cx="198.288" cy="-141.134" rx="4.00002" ry="4.00002"/>
<polygon fill="#63966a" stroke="#63966a" points="180.457,-115.662 178.409,-104.889 177.59,-111.566 174.723,-107.47 174.723,-107.47 174.723,-107.47 177.59,-111.566 171.036,-110.051 180.457,-115.662 180.457,-115.662"/>
</g>
<!-- CreditCard&#45;&gt;Payment -->
<g id="edge14" class="edge"><title>CreditCard&#45;&gt;Payment</title>
<path fill="none" stroke="#a34249" d="M647.485,-67.4461C638.448,-59.2309 628.129,-49.85 618.993,-41.5451"/>
<ellipse fill="none" stroke="#a34249" cx="650.762" cy="-70.4252" rx="4.00002" ry="4.00002"/>
<polygon fill="#a34249" stroke="#a34249" points="618.731,-41.3069 614.359,-31.2504 615.032,-37.9435 611.332,-34.5801 611.332,-34.5801 611.332,-34.5801 615.032,-37.9435 608.305,-37.9098 618.731,-41.3069 618.731,-41.3069"/>
</g>
<!-- Product&#45;&gt;Picture -->
<g id="edge16" class="edge"><title>Product&#45;&gt;Picture</title>
<path fill="none" stroke="#c97d7c" d="M147.464,-66.0612C142.592,-58.9552 137.201,-51.0934 132.243,-43.8633"/>
<ellipse fill="none" stroke="#c97d7c" cx="149.799" cy="-69.4657" rx="4.00002" ry="4.00002"/>
<polygon fill="#c97d7c" stroke="#c97d7c" points="131.922,-43.3946 129.977,-32.6024 129.094,-39.271 126.266,-35.1473 126.266,-35.1473 126.266,-35.1473 129.094,-39.271 122.555,-37.6922 131.922,-43.3946 131.922,-43.3946"/>
</g>
<!-- Product&#45;&gt;Keyword -->
<g id="edge15" class="edge"><title>Product&#45;&gt;Keyword</title>
<path fill="none" stroke="#b33766" d="M179.181,-66.1611C184.079,-59.1636 189.496,-51.4255 194.501,-44.2755"/>
<ellipse fill="none" stroke="#b33766" cx="176.852" cy="-69.4877" rx="4.00002" ry="4.00002"/>
<polygon fill="#b33766" stroke="#b33766" points="194.816,-43.8257 204.237,-38.214 197.683,-39.7296 200.55,-35.6334 200.55,-35.6334 200.55,-35.6334 197.683,-39.7296 196.864,-33.0528 194.816,-43.8257 194.816,-43.8257"/>
</g>
<!-- Product&#45;&gt;CartItem -->
<g id="edge17" class="edge"><title>Product&#45;&gt;CartItem</title>
<path fill="none" stroke="#53aed8" d="M200.162,-75.7547C203.883,-74.4675 207.609,-73.1965 211.194,-72 253.802,-57.779 302.812,-42.5302 337.044,-32.0571"/>
<ellipse fill="none" stroke="#53aed8" cx="196.358" cy="-77.0826" rx="4.00001" ry="4.00001"/>
<polygon fill="#53aed8" stroke="#53aed8" points="337.165,-32.0204 348.043,-33.4048 341.947,-30.5606 346.729,-29.1009 346.729,-29.1009 346.729,-29.1009 341.947,-30.5606 345.415,-24.7969 337.165,-32.0204 337.165,-32.0204"/>
</g>
</g>
</svg>
