<?xml version="1.0" encoding="UTF-8" standalone="no"?>
<!DOCTYPE svg PUBLIC "-//W3C//DTD SVG 1.1//EN"
 "http://www.w3.org/Graphics/SVG/1.1/DTD/svg11.dtd">
<!-- Generated by graphviz version 2.38.0 (20140413.2041)
 -->
<!-- Title: models_diagram Pages: 1 -->
<svg width="724pt" height="302pt"
 viewBox="0.00 0.00 724.39 302.00" xmlns="http://www.w3.org/2000/svg" xmlns:xlink="http://www.w3.org/1999/xlink">
<g id="graph0" class="graph" transform="scale(1 1) rotate(0) translate(4 298)">
<title>models_diagram</title>
<polygon fill="none" stroke="none" points="-4,4 -4,-298 720.391,-298 720.391,4 -4,4"/>
<!-- _diagram_info -->
<g id="node1" class="node"><title>_diagram_info</title>
<text text-anchor="start" x="134.046" y="-279.6" font-family="Times,serif" font-size="13.00">Models diagram</text>
<text text-anchor="start" x="134.046" y="-265.6" font-family="Times,serif" font-size="13.00">Date: Oct 12 2016 &#45; 21:52</text>
<text text-anchor="start" x="134.046" y="-251.6" font-family="Times,serif" font-size="13.00">Migration version: 20161004024401</text>
<text text-anchor="start" x="134.046" y="-237.6" font-family="Times,serif" font-size="13.00">Generated by RailRoady 1.5.2</text>
<text text-anchor="start" x="134.046" y="-223.6" font-family="Times,serif" font-size="13.00">http://railroady.prestonlee.com</text>
</g>
<!-- Consumer -->
<g id="node2" class="node"><title>Consumer</title>
<ellipse fill="none" stroke="black" cx="196.046" cy="-162" rx="47.3916" ry="18"/>
<text text-anchor="middle" x="196.046" y="-158.3" font-family="Times,serif" font-size="14.00">Consumer</text>
</g>
<!-- ShoppingCart -->
<g id="node4" class="node"><title>ShoppingCart</title>
<ellipse fill="none" stroke="black" cx="178.046" cy="-90" rx="59.5901" ry="18"/>
<text text-anchor="middle" x="178.046" y="-86.3" font-family="Times,serif" font-size="14.00">ShoppingCart</text>
</g>
<!-- Consumer&#45;&gt;ShoppingCart -->
<g id="edge3" class="edge"><title>Consumer&#45;&gt;ShoppingCart</title>
<path fill="none" stroke="#91bd6e" d="M189.686,-136.267C188.199,-130.485 186.606,-124.291 185.091,-118.4"/>
<ellipse fill="none" stroke="#91bd6e" cx="190.692" cy="-140.181" rx="4.00001" ry="4.00001"/>
<polygon fill="#91bd6e" stroke="#91bd6e" points="184.978,-117.96 186.846,-107.155 183.733,-113.118 182.488,-108.275 182.488,-108.275 182.488,-108.275 183.733,-113.118 178.13,-109.396 184.978,-117.96 184.978,-117.96"/>
</g>
<!-- Transaction -->
<g id="node10" class="node"><title>Transaction</title>
<ellipse fill="none" stroke="black" cx="316.046" cy="-18" rx="51.9908" ry="18"/>
<text text-anchor="middle" x="316.046" y="-14.3" font-family="Times,serif" font-size="14.00">Transaction</text>
</g>
<!-- Consumer&#45;&gt;Transaction -->
<g id="edge2" class="edge"><title>Consumer&#45;&gt;Transaction</title>
<path fill="none" stroke="#a9648f" d="M218.359,-138.873C227.486,-129.554 238.003,-118.46 247.046,-108 265.066,-87.1543 284.158,-62.2862 297.679,-44.1427"/>
<ellipse fill="none" stroke="#a9648f" cx="215.402" cy="-141.87" rx="4.00002" ry="4.00002"/>
<polygon fill="#a9648f" stroke="#a9648f" points="297.889,-43.8594 307.457,-38.5015 300.865,-39.8413 303.841,-35.8232 303.841,-35.8232 303.841,-35.8232 300.865,-39.8413 300.225,-33.145 297.889,-43.8594 297.889,-43.8594"/>
</g>
<!-- CreditCard -->
<g id="node13" class="node"><title>CreditCard</title>
<ellipse fill="none" stroke="black" cx="50.0456" cy="-90" rx="50.0912" ry="18"/>
<text text-anchor="middle" x="50.0456" y="-86.3" font-family="Times,serif" font-size="14.00">CreditCard</text>
</g>
<!-- Consumer&#45;&gt;CreditCard -->
<g id="edge1" class="edge"><title>Consumer&#45;&gt;CreditCard</title>
<path fill="none" stroke="#a68527" d="M160.397,-143.908C138.472,-133.396 110.395,-119.935 88.0491,-109.221"/>
<ellipse fill="none" stroke="#a68527" cx="164.288" cy="-145.774" rx="4.00002" ry="4.00002"/>
<polygon fill="#a68527" stroke="#a68527" points="87.8749,-109.137 80.8033,-100.756 83.3664,-106.976 78.8578,-104.814 78.8578,-104.814 78.8578,-104.814 83.3664,-106.976 76.9123,-108.872 87.8749,-109.137 87.8749,-109.137"/>
</g>
<!-- Picture -->
<g id="node3" class="node"><title>Picture</title>
<ellipse fill="none" stroke="black" cx="426.046" cy="-18" rx="35.9954" ry="18"/>
<text text-anchor="middle" x="426.046" y="-14.3" font-family="Times,serif" font-size="14.00">Picture</text>
</g>
<!-- CartItem -->
<g id="node15" class="node"><title>CartItem</title>
<ellipse fill="none" stroke="black" cx="195.046" cy="-18" rx="42.4939" ry="18"/>
<text text-anchor="middle" x="195.046" y="-14.3" font-family="Times,serif" font-size="14.00">CartItem</text>
</g>
<!-- ShoppingCart&#45;&gt;CartItem -->
<g id="edge4" class="edge"><title>ShoppingCart&#45;&gt;CartItem</title>
<path fill="none" stroke="#caaf64" d="M184.136,-63.9197C185.537,-58.1539 187.032,-51.9967 188.453,-46.1479"/>
<ellipse fill="none" stroke="#caaf64" cx="183.192" cy="-67.8096" rx="4.00001" ry="4.00001"/>
<polygon fill="#caaf64" stroke="#caaf64" points="188.532,-45.8219 195.265,-37.1664 189.712,-40.9631 190.892,-36.1043 190.892,-36.1043 190.892,-36.1043 189.712,-40.9631 186.519,-35.0423 188.532,-45.8219 188.532,-45.8219"/>
</g>
<!-- Keyword -->
<g id="node5" class="node"><title>Keyword</title>
<ellipse fill="none" stroke="black" cx="523.046" cy="-18" rx="43.5923" ry="18"/>
<text text-anchor="middle" x="523.046" y="-14.3" font-family="Times,serif" font-size="14.00">Keyword</text>
</g>
<!-- Address -->
<g id="node6" class="node"><title>Address</title>
<ellipse fill="none" stroke="black" cx="446.046" cy="-162" rx="39.7935" ry="18"/>
<text text-anchor="middle" x="446.046" y="-158.3" font-family="Times,serif" font-size="14.00">Address</text>
</g>
<!-- ApplicationRecord -->
<g id="node7" class="node"><title>ApplicationRecord</title>
<ellipse fill="none" stroke="black" cx="518.046" cy="-255" rx="77.1866" ry="18"/>
<text text-anchor="middle" x="518.046" y="-251.3" font-family="Times,serif" font-size="14.00">ApplicationRecord</text>
</g>
<!-- MainClient -->
<g id="node8" class="node"><title>MainClient</title>
<ellipse fill="none" stroke="black" cx="665.046" cy="-255" rx="51.1914" ry="18"/>
<text text-anchor="middle" x="665.046" y="-251.3" font-family="Times,serif" font-size="14.00">MainClient</text>
</g>
<!-- Client -->
<g id="node9" class="node"><title>Client</title>
<ellipse fill="none" stroke="black" cx="390.046" cy="-255" rx="32.4942" ry="18"/>
<text text-anchor="middle" x="390.046" y="-251.3" font-family="Times,serif" font-size="14.00">Client</text>
</g>
<!-- Client&#45;&gt;Consumer -->
<g id="edge7" class="edge"><title>Client&#45;&gt;Consumer</title>
<path fill="none" stroke="#c4fe20" d="M370.132,-232.457C363.826,-226.525 356.535,-220.494 349.046,-216 316.158,-196.266 274.867,-182.512 243.471,-173.97"/>
<ellipse fill="none" stroke="#c4fe20" cx="373.226" cy="-235.493" rx="4.00002" ry="4.00002"/>
<ellipse fill="#c4fe20" stroke="#c4fe20" cx="239.58" cy="-172.937" rx="4.00001" ry="4.00001"/>
</g>
<!-- Client&#45;&gt;Address -->
<g id="edge6" class="edge"><title>Client&#45;&gt;Address</title>
<path fill="none" stroke="#9ae7a0" d="M404.356,-230.745C412.379,-217.709 422.389,-201.442 430.59,-188.115"/>
<ellipse fill="none" stroke="#9ae7a0" cx="402.154" cy="-234.324" rx="4.00002" ry="4.00002"/>
<polygon fill="#9ae7a0" stroke="#9ae7a0" points="430.691,-187.952 439.764,-181.793 433.311,-183.693 435.932,-179.435 435.932,-179.435 435.932,-179.435 433.311,-183.693 432.099,-177.076 430.691,-187.952 430.691,-187.952"/>
</g>
<!-- Telephone -->
<g id="node11" class="node"><title>Telephone</title>
<ellipse fill="none" stroke="black" cx="552.046" cy="-162" rx="48.1917" ry="18"/>
<text text-anchor="middle" x="552.046" y="-158.3" font-family="Times,serif" font-size="14.00">Telephone</text>
</g>
<!-- Client&#45;&gt;Telephone -->
<g id="edge5" class="edge"><title>Client&#45;&gt;Telephone</title>
<path fill="none" stroke="#704144" d="M410.758,-232.865C417.227,-226.945 424.622,-220.818 432.046,-216 455.804,-200.58 484.8,-187.634 508.336,-178.398"/>
<ellipse fill="none" stroke="#704144" cx="407.537" cy="-235.911" rx="4.00002" ry="4.00002"/>
<polygon fill="#704144" stroke="#704144" points="508.39,-178.377 519.338,-178.996 513.058,-176.586 517.726,-174.794 517.726,-174.794 517.726,-174.794 513.058,-176.586 516.113,-170.593 508.39,-178.377 508.39,-178.377"/>
</g>
<!-- Professional -->
<g id="node12" class="node"><title>Professional</title>
<ellipse fill="none" stroke="black" cx="334.046" cy="-162" rx="53.8905" ry="18"/>
<text text-anchor="middle" x="334.046" y="-158.3" font-family="Times,serif" font-size="14.00">Professional</text>
</g>
<!-- Client&#45;&gt;Professional -->
<g id="edge8" class="edge"><title>Client&#45;&gt;Professional</title>
<path fill="none" stroke="#841537" d="M375.763,-230.791C367.489,-217.345 357.092,-200.451 348.748,-186.891"/>
<ellipse fill="none" stroke="#841537" cx="377.937" cy="-234.324" rx="4.00002" ry="4.00002"/>
<ellipse fill="#841537" stroke="#841537" cx="346.446" cy="-183.15" rx="4.00002" ry="4.00002"/>
</g>
<!-- Banking -->
<g id="node14" class="node"><title>Banking</title>
<ellipse fill="none" stroke="black" cx="334.046" cy="-90" rx="40.0939" ry="18"/>
<text text-anchor="middle" x="334.046" y="-86.3" font-family="Times,serif" font-size="14.00">Banking</text>
</g>
<!-- Professional&#45;&gt;Banking -->
<g id="edge9" class="edge"><title>Professional&#45;&gt;Banking</title>
<path fill="none" stroke="#abadda" d="M334.046,-135.64C334.046,-130.063 334.046,-124.132 334.046,-118.476"/>
<ellipse fill="none" stroke="#abadda" cx="334.046" cy="-139.697" rx="4" ry="4"/>
<polygon fill="#abadda" stroke="#abadda" points="334.046,-118.104 338.546,-108.104 334.046,-113.104 334.046,-108.104 334.046,-108.104 334.046,-108.104 334.046,-113.104 329.546,-108.104 334.046,-118.104 334.046,-118.104"/>
</g>
<!-- Product -->
<g id="node16" class="node"><title>Product</title>
<ellipse fill="none" stroke="black" cx="431.046" cy="-90" rx="38.1938" ry="18"/>
<text text-anchor="middle" x="431.046" y="-86.3" font-family="Times,serif" font-size="14.00">Product</text>
</g>
<!-- Professional&#45;&gt;Product -->
<g id="edge10" class="edge"><title>Professional&#45;&gt;Product</title>
<path fill="none" stroke="#90590e" d="M362.45,-140.502C375.08,-131.388 389.918,-120.679 402.558,-111.558"/>
<ellipse fill="none" stroke="#90590e" cx="358.817" cy="-143.124" rx="4.00002" ry="4.00002"/>
<polygon fill="#90590e" stroke="#90590e" points="402.794,-111.388 413.536,-109.185 406.848,-108.462 410.903,-105.536 410.903,-105.536 410.903,-105.536 406.848,-108.462 408.27,-101.887 402.794,-111.388 402.794,-111.388"/>
</g>
<!-- Product&#45;&gt;Picture -->
<g id="edge13" class="edge"><title>Product&#45;&gt;Picture</title>
<path fill="none" stroke="#8f12fa" d="M429.234,-63.6398C428.836,-58.0629 428.412,-52.1319 428.008,-46.4761"/>
<ellipse fill="none" stroke="#8f12fa" cx="429.525" cy="-67.7068" rx="4" ry="4"/>
<polygon fill="#8f12fa" stroke="#8f12fa" points="427.98,-46.0789 431.756,-35.7837 427.624,-41.0916 427.267,-36.1043 427.267,-36.1043 427.267,-36.1043 427.624,-41.0916 422.779,-36.425 427.98,-46.0789 427.98,-46.0789"/>
</g>
<!-- Product&#45;&gt;Keyword -->
<g id="edge12" class="edge"><title>Product&#45;&gt;Keyword</title>
<path fill="none" stroke="#b844a0" d="M457.029,-69.2299C468.945,-60.1634 483.087,-49.4031 495.22,-40.172"/>
<ellipse fill="none" stroke="#b844a0" cx="453.74" cy="-71.7327" rx="4.00002" ry="4.00002"/>
<polygon fill="#b844a0" stroke="#b844a0" points="495.287,-40.1204 505.971,-37.6464 499.267,-37.0928 503.246,-34.0651 503.246,-34.0651 503.246,-34.0651 499.267,-37.0928 500.521,-30.4839 495.287,-40.1204 495.287,-40.1204"/>
</g>
<!-- Product&#45;&gt;Transaction -->
<g id="edge11" class="edge"><title>Product&#45;&gt;Transaction</title>
<path fill="none" stroke="#282a38" d="M401.421,-70.9675C385.567,-61.3174 365.984,-49.3973 349.574,-39.4085"/>
<ellipse fill="none" stroke="#282a38" cx="405.183" cy="-73.2573" rx="4.00002" ry="4.00002"/>
<polygon fill="#282a38" stroke="#282a38" points="349.369,-39.2841 343.167,-30.2407 345.098,-36.6844 340.827,-34.0846 340.827,-34.0846 340.827,-34.0846 345.098,-36.6844 338.488,-37.9285 349.369,-39.2841 349.369,-39.2841"/>
</g>
<!-- Product&#45;&gt;CartItem -->
<g id="edge14" class="edge"><title>Product&#45;&gt;CartItem</title>
<path fill="none" stroke="#051dac" d="M394.113,-75.6435C390.386,-74.3785 386.648,-73.1431 383.046,-72 326.717,-54.1257 311.919,-52.0549 255.046,-36 249.836,-34.5293 244.372,-32.9846 238.953,-31.451"/>
<ellipse fill="none" stroke="#051dac" cx="397.922" cy="-76.9572" rx="4.00001" ry="4.00001"/>
<polygon fill="#051dac" stroke="#051dac" points="238.932,-31.445 230.536,-24.3908 234.121,-30.0828 229.31,-28.7205 229.31,-28.7205 229.31,-28.7205 234.121,-30.0828 228.084,-33.0503 238.932,-31.445 238.932,-31.445"/>
</g>
</g>
</svg>
