<?xml version="1.0" encoding="UTF-8" standalone="no"?>
<!DOCTYPE svg PUBLIC "-//W3C//DTD SVG 1.1//EN"
 "http://www.w3.org/Graphics/SVG/1.1/DTD/svg11.dtd">
<!-- Generated by graphviz version 2.38.0 (20140413.2041)
 -->
<!-- Title: models_diagram Pages: 1 -->
<svg width="821pt" height="230pt"
 viewBox="0.00 0.00 821.35 230.00" xmlns="http://www.w3.org/2000/svg" xmlns:xlink="http://www.w3.org/1999/xlink">
<g id="graph0" class="graph" transform="scale(1 1) rotate(0) translate(4 226)">
<title>models_diagram</title>
<polygon fill="none" stroke="none" points="-4,4 -4,-226 817.345,-226 817.345,4 -4,4"/>
<!-- _diagram_info -->
<g id="node1" class="node"><title>_diagram_info</title>
<text text-anchor="start" x="8" y="-207.6" font-family="Times,serif" font-size="13.00">Models diagram</text>
<text text-anchor="start" x="8" y="-193.6" font-family="Times,serif" font-size="13.00">Date: Oct 03 2016 &#45; 22:32</text>
<text text-anchor="start" x="8" y="-179.6" font-family="Times,serif" font-size="13.00">Migration version: 20161001020249</text>
<text text-anchor="start" x="8" y="-165.6" font-family="Times,serif" font-size="13.00">Generated by RailRoady 1.5.2</text>
<text text-anchor="start" x="8" y="-151.6" font-family="Times,serif" font-size="13.00">http://railroady.prestonlee.com</text>
</g>
<!-- Consumer -->
<g id="node2" class="node"><title>Consumer</title>
<ellipse fill="none" stroke="black" cx="116" cy="-90" rx="47.3916" ry="18"/>
<text text-anchor="middle" x="116" y="-86.3" font-family="Times,serif" font-size="14.00">Consumer</text>
</g>
<!-- Transaction -->
<g id="node8" class="node"><title>Transaction</title>
<ellipse fill="none" stroke="black" cx="228" cy="-18" rx="51.9908" ry="18"/>
<text text-anchor="middle" x="228" y="-14.3" font-family="Times,serif" font-size="14.00">Transaction</text>
</g>
<!-- Consumer&#45;&gt;Transaction -->
<g id="edge2" class="edge"><title>Consumer&#45;&gt;Transaction</title>
<path fill="none" stroke="#1f13d1" d="M146.395,-70.0031C161.464,-60.585 179.685,-49.1969 195.083,-39.5728"/>
<ellipse fill="none" stroke="#1f13d1" cx="142.871" cy="-72.2057" rx="4.00002" ry="4.00002"/>
<polygon fill="#1f13d1" stroke="#1f13d1" points="195.298,-39.4385 206.164,-37.9544 199.538,-36.7885 203.778,-34.1384 203.778,-34.1384 203.778,-34.1384 199.538,-36.7885 201.393,-30.3224 195.298,-39.4385 195.298,-39.4385"/>
</g>
<!-- CreditCard -->
<g id="node11" class="node"><title>CreditCard</title>
<ellipse fill="none" stroke="black" cx="108" cy="-18" rx="50.0912" ry="18"/>
<text text-anchor="middle" x="108" y="-14.3" font-family="Times,serif" font-size="14.00">CreditCard</text>
</g>
<!-- Consumer&#45;&gt;CreditCard -->
<g id="edge1" class="edge"><title>Consumer&#45;&gt;CreditCard</title>
<path fill="none" stroke="#22fcc1" d="M113.102,-63.6398C112.448,-57.92 111.752,-51.8276 111.09,-46.0416"/>
<ellipse fill="none" stroke="#22fcc1" cx="113.568" cy="-67.7225" rx="4.00001" ry="4.00001"/>
<polygon fill="#22fcc1" stroke="#22fcc1" points="111.09,-46.0397 114.426,-35.5933 110.523,-41.072 109.955,-36.1043 109.955,-36.1043 109.955,-36.1043 110.523,-41.072 105.484,-36.6153 111.09,-46.0397 111.09,-46.0397"/>
</g>
<!-- Keyword -->
<g id="node3" class="node"><title>Keyword</title>
<ellipse fill="none" stroke="black" cx="342" cy="-18" rx="43.5923" ry="18"/>
<text text-anchor="middle" x="342" y="-14.3" font-family="Times,serif" font-size="14.00">Keyword</text>
</g>
<!-- Address -->
<g id="node4" class="node"><title>Address</title>
<ellipse fill="none" stroke="black" cx="430" cy="-90" rx="39.7935" ry="18"/>
<text text-anchor="middle" x="430" y="-86.3" font-family="Times,serif" font-size="14.00">Address</text>
</g>
<!-- ApplicationRecord -->
<g id="node5" class="node"><title>ApplicationRecord</title>
<ellipse fill="none" stroke="black" cx="615" cy="-183" rx="77.1866" ry="18"/>
<text text-anchor="middle" x="615" y="-179.3" font-family="Times,serif" font-size="14.00">ApplicationRecord</text>
</g>
<!-- MainClient -->
<g id="node6" class="node"><title>MainClient</title>
<ellipse fill="none" stroke="black" cx="762" cy="-183" rx="51.1914" ry="18"/>
<text text-anchor="middle" x="762" y="-179.3" font-family="Times,serif" font-size="14.00">MainClient</text>
</g>
<!-- Client -->
<g id="node7" class="node"><title>Client</title>
<ellipse fill="none" stroke="black" cx="487" cy="-183" rx="32.4942" ry="18"/>
<text text-anchor="middle" x="487" y="-179.3" font-family="Times,serif" font-size="14.00">Client</text>
</g>
<!-- Client&#45;&gt;Address -->
<g id="edge4" class="edge"><title>Client&#45;&gt;Address</title>
<path fill="none" stroke="#5b61d1" d="M472.434,-158.745C464.268,-145.709 454.079,-129.442 445.731,-116.115"/>
<ellipse fill="none" stroke="#5b61d1" cx="474.686" cy="-162.341" rx="4.00002" ry="4.00002"/>
<polygon fill="#5b61d1" stroke="#5b61d1" points="445.603,-115.91 444.108,-105.046 442.949,-111.672 440.294,-107.435 440.294,-107.435 440.294,-107.435 442.949,-111.672 436.481,-109.824 445.603,-115.91 445.603,-115.91"/>
</g>
<!-- Telephone -->
<g id="node9" class="node"><title>Telephone</title>
<ellipse fill="none" stroke="black" cx="536" cy="-90" rx="48.1917" ry="18"/>
<text text-anchor="middle" x="536" y="-86.3" font-family="Times,serif" font-size="14.00">Telephone</text>
</g>
<!-- Client&#45;&gt;Telephone -->
<g id="edge3" class="edge"><title>Client&#45;&gt;Telephone</title>
<path fill="none" stroke="#867252" d="M499.937,-157.974C506.769,-145.286 515.158,-129.707 522.124,-116.769"/>
<ellipse fill="none" stroke="#867252" cx="497.884" cy="-161.787" rx="4.00002" ry="4.00002"/>
<polygon fill="#867252" stroke="#867252" points="522.163,-116.698 530.866,-110.027 524.533,-112.296 526.904,-107.893 526.904,-107.893 526.904,-107.893 524.533,-112.296 522.942,-105.76 522.163,-116.698 522.163,-116.698"/>
</g>
<!-- Professional -->
<g id="node10" class="node"><title>Professional</title>
<ellipse fill="none" stroke="black" cx="286" cy="-183" rx="53.8905" ry="18"/>
<text text-anchor="middle" x="286" y="-179.3" font-family="Times,serif" font-size="14.00">Professional</text>
</g>
<!-- Banking -->
<g id="node12" class="node"><title>Banking</title>
<ellipse fill="none" stroke="black" cx="237" cy="-90" rx="40.0939" ry="18"/>
<text text-anchor="middle" x="237" y="-86.3" font-family="Times,serif" font-size="14.00">Banking</text>
</g>
<!-- Professional&#45;&gt;Banking -->
<g id="edge5" class="edge"><title>Professional&#45;&gt;Banking</title>
<path fill="none" stroke="#a6c0a8" d="M272.828,-157.538C266.064,-144.976 257.823,-129.672 250.951,-116.909"/>
<ellipse fill="none" stroke="#a6c0a8" cx="274.887" cy="-161.362" rx="4.00002" ry="4.00002"/>
<polygon fill="#a6c0a8" stroke="#a6c0a8" points="250.751,-116.537 249.972,-105.599 248.38,-112.135 246.01,-107.732 246.01,-107.732 246.01,-107.732 248.38,-112.135 242.048,-109.866 250.751,-116.537 250.751,-116.537"/>
</g>
<!-- Product -->
<g id="node13" class="node"><title>Product</title>
<ellipse fill="none" stroke="black" cx="334" cy="-90" rx="38.1938" ry="18"/>
<text text-anchor="middle" x="334" y="-86.3" font-family="Times,serif" font-size="14.00">Product</text>
</g>
<!-- Professional&#45;&gt;Product -->
<g id="edge6" class="edge"><title>Professional&#45;&gt;Product</title>
<path fill="none" stroke="#399765" d="M298.903,-157.538C305.529,-144.976 313.602,-129.672 320.334,-116.909"/>
<ellipse fill="none" stroke="#399765" cx="296.895" cy="-161.346" rx="4.00002" ry="4.00002"/>
<polygon fill="#399765" stroke="#399765" points="320.509,-116.577 329.154,-109.832 322.841,-112.155 325.174,-107.732 325.174,-107.732 325.174,-107.732 322.841,-112.155 321.194,-105.633 320.509,-116.577 320.509,-116.577"/>
</g>
<!-- Product&#45;&gt;Keyword -->
<g id="edge8" class="edge"><title>Product&#45;&gt;Keyword</title>
<path fill="none" stroke="#0e12c2" d="M336.898,-63.6398C337.552,-57.92 338.248,-51.8276 338.91,-46.0416"/>
<ellipse fill="none" stroke="#0e12c2" cx="336.432" cy="-67.7225" rx="4.00001" ry="4.00001"/>
<polygon fill="#0e12c2" stroke="#0e12c2" points="338.91,-46.0397 344.516,-36.6153 339.477,-41.072 340.045,-36.1043 340.045,-36.1043 340.045,-36.1043 339.477,-41.072 335.574,-35.5933 338.91,-46.0397 338.91,-46.0397"/>
</g>
<!-- Product&#45;&gt;Transaction -->
<g id="edge7" class="edge"><title>Product&#45;&gt;Transaction</title>
<path fill="none" stroke="#8d715b" d="M305.559,-70.2179C291.484,-60.9235 274.443,-49.6702 259.924,-40.0817"/>
<ellipse fill="none" stroke="#8d715b" cx="309.211" cy="-72.6302" rx="4.00002" ry="4.00002"/>
<polygon fill="#8d715b" stroke="#8d715b" points="259.603,-39.8698 253.738,-30.604 255.43,-37.1144 251.258,-34.3591 251.258,-34.3591 251.258,-34.3591 255.43,-37.1144 248.778,-38.1142 259.603,-39.8698 259.603,-39.8698"/>
</g>
</g>
</svg>
