<?xml version="1.0" encoding="UTF-8" standalone="no"?>
<!DOCTYPE svg PUBLIC "-//W3C//DTD SVG 1.1//EN"
 "http://www.w3.org/Graphics/SVG/1.1/DTD/svg11.dtd">
<!-- Generated by graphviz version 2.38.0 (20140413.2041)
 -->
<!-- Title: models_diagram Pages: 1 -->
<svg width="649pt" height="302pt"
 viewBox="0.00 0.00 649.14 302.00" xmlns="http://www.w3.org/2000/svg" xmlns:xlink="http://www.w3.org/1999/xlink">
<g id="graph0" class="graph" transform="scale(1 1) rotate(0) translate(4 298)">
<title>models_diagram</title>
<polygon fill="none" stroke="none" points="-4,4 -4,-298 645.141,-298 645.141,4 -4,4"/>
<!-- _diagram_info -->
<g id="node1" class="node"><title>_diagram_info</title>
<text text-anchor="start" x="130.096" y="-279.6" font-family="Times,serif" font-size="13.00">Models diagram</text>
<text text-anchor="start" x="130.096" y="-265.6" font-family="Times,serif" font-size="13.00">Date: Oct 17 2016 &#45; 14:47</text>
<text text-anchor="start" x="130.096" y="-251.6" font-family="Times,serif" font-size="13.00">Migration version: 20161014220607</text>
<text text-anchor="start" x="130.096" y="-237.6" font-family="Times,serif" font-size="13.00">Generated by RailRoady 1.5.2</text>
<text text-anchor="start" x="130.096" y="-223.6" font-family="Times,serif" font-size="13.00">http://railroady.prestonlee.com</text>
</g>
<!-- Consumer -->
<g id="node2" class="node"><title>Consumer</title>
<ellipse fill="none" stroke="black" cx="445.096" cy="-162" rx="47.3916" ry="18"/>
<text text-anchor="middle" x="445.096" y="-158.3" font-family="Times,serif" font-size="14.00">Consumer</text>
</g>
<!-- ShoppingCart -->
<g id="node4" class="node"><title>ShoppingCart</title>
<ellipse fill="none" stroke="black" cx="463.096" cy="-90" rx="59.5901" ry="18"/>
<text text-anchor="middle" x="463.096" y="-86.3" font-family="Times,serif" font-size="14.00">ShoppingCart</text>
</g>
<!-- Consumer&#45;&gt;ShoppingCart -->
<g id="edge3" class="edge"><title>Consumer&#45;&gt;ShoppingCart</title>
<path fill="none" stroke="#a64d74" d="M451.456,-136.267C452.943,-130.485 454.535,-124.291 456.05,-118.4"/>
<ellipse fill="none" stroke="#a64d74" cx="450.449" cy="-140.181" rx="4.00001" ry="4.00001"/>
<polygon fill="#a64d74" stroke="#a64d74" points="456.163,-117.96 463.012,-109.396 457.408,-113.118 458.654,-108.275 458.654,-108.275 458.654,-108.275 457.408,-113.118 454.295,-107.155 456.163,-117.96 456.163,-117.96"/>
</g>
<!-- CreditCard -->
<g id="node13" class="node"><title>CreditCard</title>
<ellipse fill="none" stroke="black" cx="591.096" cy="-90" rx="50.0912" ry="18"/>
<text text-anchor="middle" x="591.096" y="-86.3" font-family="Times,serif" font-size="14.00">CreditCard</text>
</g>
<!-- Consumer&#45;&gt;CreditCard -->
<g id="edge1" class="edge"><title>Consumer&#45;&gt;CreditCard</title>
<path fill="none" stroke="#51071a" d="M480.745,-143.908C502.669,-133.396 530.746,-119.935 553.092,-109.221"/>
<ellipse fill="none" stroke="#51071a" cx="476.853" cy="-145.774" rx="4.00002" ry="4.00002"/>
<polygon fill="#51071a" stroke="#51071a" points="553.266,-109.137 564.229,-108.872 557.775,-106.976 562.284,-104.814 562.284,-104.814 562.284,-104.814 557.775,-106.976 560.338,-100.756 553.266,-109.137 553.266,-109.137"/>
</g>
<!-- Transaction -->
<g id="node17" class="node"><title>Transaction</title>
<ellipse fill="none" stroke="black" cx="330.096" cy="-18" rx="51.9908" ry="18"/>
<text text-anchor="middle" x="330.096" y="-14.3" font-family="Times,serif" font-size="14.00">Transaction</text>
</g>
<!-- Consumer&#45;&gt;Transaction -->
<g id="edge2" class="edge"><title>Consumer&#45;&gt;Transaction</title>
<path fill="none" stroke="#06262f" d="M422.592,-139.035C413.436,-129.74 402.948,-118.622 394.096,-108 376.923,-87.3953 359.261,-62.5028 346.853,-44.2888"/>
<ellipse fill="none" stroke="#06262f" cx="425.565" cy="-142.021" rx="4.00002" ry="4.00002"/>
<polygon fill="#06262f" stroke="#06262f" points="346.806,-44.2191 344.939,-33.4134 344.008,-40.0755 341.209,-35.9319 341.209,-35.9319 341.209,-35.9319 344.008,-40.0755 337.48,-38.4504 346.806,-44.2191 346.806,-44.2191"/>
</g>
<!-- Picture -->
<g id="node3" class="node"><title>Picture</title>
<ellipse fill="none" stroke="black" cx="215.096" cy="-18" rx="35.9954" ry="18"/>
<text text-anchor="middle" x="215.096" y="-14.3" font-family="Times,serif" font-size="14.00">Picture</text>
</g>
<!-- Payment -->
<g id="node7" class="node"><title>Payment</title>
<ellipse fill="none" stroke="black" cx="569.096" cy="-18" rx="42.4939" ry="18"/>
<text text-anchor="middle" x="569.096" y="-14.3" font-family="Times,serif" font-size="14.00">Payment</text>
</g>
<!-- ShoppingCart&#45;&gt;Payment -->
<g id="edge5" class="edge"><title>ShoppingCart&#45;&gt;Payment</title>
<path fill="none" stroke="#9a0cd5" d="M493.942,-68.63C508.606,-58.9463 526.029,-47.4405 540.405,-37.9465"/>
<ellipse fill="none" stroke="#9a0cd5" cx="490.222" cy="-71.0864" rx="4.00002" ry="4.00002"/>
<ellipse fill="#9a0cd5" stroke="#9a0cd5" cx="543.855" cy="-35.6685" rx="4.00002" ry="4.00002"/>
</g>
<!-- CartItem -->
<g id="node15" class="node"><title>CartItem</title>
<ellipse fill="none" stroke="black" cx="446.096" cy="-18" rx="42.4939" ry="18"/>
<text text-anchor="middle" x="446.096" y="-14.3" font-family="Times,serif" font-size="14.00">CartItem</text>
</g>
<!-- ShoppingCart&#45;&gt;CartItem -->
<g id="edge4" class="edge"><title>ShoppingCart&#45;&gt;CartItem</title>
<path fill="none" stroke="#3721fb" d="M457.005,-63.9197C455.605,-58.1539 454.109,-51.9967 452.689,-46.1479"/>
<ellipse fill="none" stroke="#3721fb" cx="457.949" cy="-67.8096" rx="4.00001" ry="4.00001"/>
<polygon fill="#3721fb" stroke="#3721fb" points="452.61,-45.8219 454.623,-35.0423 451.43,-40.9631 450.25,-36.1043 450.25,-36.1043 450.25,-36.1043 451.43,-40.9631 445.877,-37.1664 452.61,-45.8219 452.61,-45.8219"/>
</g>
<!-- Keyword -->
<g id="node5" class="node"><title>Keyword</title>
<ellipse fill="none" stroke="black" cx="118.096" cy="-18" rx="43.5923" ry="18"/>
<text text-anchor="middle" x="118.096" y="-14.3" font-family="Times,serif" font-size="14.00">Keyword</text>
</g>
<!-- Address -->
<g id="node6" class="node"><title>Address</title>
<ellipse fill="none" stroke="black" cx="550.096" cy="-162" rx="39.7935" ry="18"/>
<text text-anchor="middle" x="550.096" y="-158.3" font-family="Times,serif" font-size="14.00">Address</text>
</g>
<!-- ApplicationRecord -->
<g id="node8" class="node"><title>ApplicationRecord</title>
<ellipse fill="none" stroke="black" cx="514.096" cy="-255" rx="77.1866" ry="18"/>
<text text-anchor="middle" x="514.096" y="-251.3" font-family="Times,serif" font-size="14.00">ApplicationRecord</text>
</g>
<!-- CategoryProduct -->
<g id="node9" class="node"><title>CategoryProduct</title>
<ellipse fill="none" stroke="black" cx="184.096" cy="-162" rx="70.3881" ry="18"/>
<text text-anchor="middle" x="184.096" y="-158.3" font-family="Times,serif" font-size="14.00">CategoryProduct</text>
</g>
<!-- Product -->
<g id="node16" class="node"><title>Product</title>
<ellipse fill="none" stroke="black" cx="210.096" cy="-90" rx="38.1938" ry="18"/>
<text text-anchor="middle" x="210.096" y="-86.3" font-family="Times,serif" font-size="14.00">Product</text>
</g>
<!-- CategoryProduct&#45;&gt;Product -->
<g id="edge6" class="edge"><title>CategoryProduct&#45;&gt;Product</title>
<path fill="none" stroke="#e1bb6f" d="M193.222,-136.431C195.531,-130.214 198.019,-123.514 200.357,-117.22"/>
<ellipse fill="none" stroke="#e1bb6f" cx="191.782" cy="-140.305" rx="4.00001" ry="4.00001"/>
<polygon fill="#e1bb6f" stroke="#e1bb6f" points="200.378,-117.163 208.078,-109.356 202.119,-112.476 203.86,-107.789 203.86,-107.789 203.86,-107.789 202.119,-112.476 199.641,-106.222 200.378,-117.163 200.378,-117.163"/>
</g>
<!-- Client -->
<g id="node10" class="node"><title>Client</title>
<ellipse fill="none" stroke="black" cx="386.096" cy="-255" rx="32.4942" ry="18"/>
<text text-anchor="middle" x="386.096" y="-251.3" font-family="Times,serif" font-size="14.00">Client</text>
</g>
<!-- Client&#45;&gt;Consumer -->
<g id="edge9" class="edge"><title>Client&#45;&gt;Consumer</title>
<path fill="none" stroke="#3f375e" d="M401.143,-230.791C409.942,-217.221 421.018,-200.137 429.85,-186.515"/>
<ellipse fill="none" stroke="#3f375e" cx="398.82" cy="-234.375" rx="4.00002" ry="4.00002"/>
<ellipse fill="#3f375e" stroke="#3f375e" cx="432.064" cy="-183.1" rx="4.00002" ry="4.00002"/>
</g>
<!-- Client&#45;&gt;Address -->
<g id="edge8" class="edge"><title>Client&#45;&gt;Address</title>
<path fill="none" stroke="#e1950a" d="M406.79,-232.836C413.258,-226.916 420.658,-220.795 428.096,-216 453.626,-199.541 485.13,-186.003 509.729,-176.73"/>
<ellipse fill="none" stroke="#e1950a" cx="403.57" cy="-235.885" rx="4.00002" ry="4.00002"/>
<polygon fill="#e1950a" stroke="#e1950a" points="509.746,-176.724 520.685,-177.488 514.438,-174.995 519.129,-173.266 519.129,-173.266 519.129,-173.266 514.438,-174.995 517.573,-169.043 509.746,-176.724 509.746,-176.724"/>
</g>
<!-- Telephone -->
<g id="node11" class="node"><title>Telephone</title>
<ellipse fill="none" stroke="black" cx="48.0957" cy="-162" rx="48.1917" ry="18"/>
<text text-anchor="middle" x="48.0957" y="-158.3" font-family="Times,serif" font-size="14.00">Telephone</text>
</g>
<!-- Client&#45;&gt;Telephone -->
<g id="edge7" class="edge"><title>Client&#45;&gt;Telephone</title>
<path fill="none" stroke="#642341" d="M367.69,-232.543C361.183,-226.25 353.4,-219.992 345.096,-216 247.888,-169.263 210.371,-203.472 105.096,-180 101.237,-179.14 97.2583,-178.157 93.281,-177.107"/>
<ellipse fill="none" stroke="#642341" cx="370.49" cy="-235.408" rx="4.00002" ry="4.00002"/>
<polygon fill="#642341" stroke="#642341" points="93.1053,-177.058 84.6679,-170.054 88.2865,-175.724 83.4676,-174.391 83.4676,-174.391 83.4676,-174.391 88.2865,-175.724 82.2673,-178.728 93.1053,-177.058 93.1053,-177.058"/>
</g>
<!-- Professional -->
<g id="node12" class="node"><title>Professional</title>
<ellipse fill="none" stroke="black" cx="326.096" cy="-162" rx="53.8905" ry="18"/>
<text text-anchor="middle" x="326.096" y="-158.3" font-family="Times,serif" font-size="14.00">Professional</text>
</g>
<!-- Client&#45;&gt;Professional -->
<g id="edge10" class="edge"><title>Client&#45;&gt;Professional</title>
<path fill="none" stroke="#18fac8" d="M370.793,-230.791C361.846,-217.221 350.582,-200.137 341.6,-186.515"/>
<ellipse fill="none" stroke="#18fac8" cx="373.167" cy="-234.392" rx="4.00002" ry="4.00002"/>
<ellipse fill="#18fac8" stroke="#18fac8" cx="339.337" cy="-183.083" rx="4.00002" ry="4.00002"/>
</g>
<!-- Banking -->
<g id="node14" class="node"><title>Banking</title>
<ellipse fill="none" stroke="black" cx="307.096" cy="-90" rx="40.0939" ry="18"/>
<text text-anchor="middle" x="307.096" y="-86.3" font-family="Times,serif" font-size="14.00">Banking</text>
</g>
<!-- Professional&#45;&gt;Banking -->
<g id="edge11" class="edge"><title>Professional&#45;&gt;Banking</title>
<path fill="none" stroke="#392deb" d="M319.383,-136.267C317.774,-130.34 316.048,-123.981 314.413,-117.959"/>
<ellipse fill="none" stroke="#392deb" cx="320.449" cy="-140.195" rx="4.00001" ry="4.00001"/>
<polygon fill="#392deb" stroke="#392deb" points="314.404,-117.926 316.128,-107.096 313.095,-113.101 311.785,-108.275 311.785,-108.275 311.785,-108.275 313.095,-113.101 307.442,-109.454 314.404,-117.926 314.404,-117.926"/>
</g>
<!-- Professional&#45;&gt;Product -->
<g id="edge12" class="edge"><title>Professional&#45;&gt;Product</title>
<path fill="none" stroke="#fd4c5c" d="M294.302,-141.814C277.915,-131.925 257.993,-119.904 241.642,-110.037"/>
<ellipse fill="none" stroke="#fd4c5c" cx="297.786" cy="-143.917" rx="4.00002" ry="4.00002"/>
<polygon fill="#fd4c5c" stroke="#fd4c5c" points="241.532,-109.97 235.295,-100.951 237.251,-107.387 232.97,-104.804 232.97,-104.804 232.97,-104.804 237.251,-107.387 230.645,-108.656 241.532,-109.97 241.532,-109.97"/>
</g>
<!-- CreditCard&#45;&gt;Payment -->
<g id="edge13" class="edge"><title>CreditCard&#45;&gt;Payment</title>
<path fill="none" stroke="#cc9367" d="M583.323,-64.2675C581.46,-58.34 579.461,-51.9814 577.568,-45.9587"/>
<ellipse fill="none" stroke="#cc9367" cx="584.571" cy="-68.239" rx="4.00001" ry="4.00001"/>
<polygon fill="#cc9367" stroke="#cc9367" points="577.523,-45.8152 578.818,-34.926 576.024,-41.0453 574.525,-36.2753 574.525,-36.2753 574.525,-36.2753 576.024,-41.0453 570.232,-37.6245 577.523,-45.8152 577.523,-45.8152"/>
</g>
<!-- Product&#45;&gt;Picture -->
<g id="edge16" class="edge"><title>Product&#45;&gt;Picture</title>
<path fill="none" stroke="#088d8e" d="M211.907,-63.6398C212.306,-58.0629 212.729,-52.1319 213.133,-46.4761"/>
<ellipse fill="none" stroke="#088d8e" cx="211.617" cy="-67.7068" rx="4" ry="4"/>
<polygon fill="#088d8e" stroke="#088d8e" points="213.161,-46.0789 218.363,-36.425 213.518,-41.0916 213.874,-36.1043 213.874,-36.1043 213.874,-36.1043 213.518,-41.0916 209.385,-35.7837 213.161,-46.0789 213.161,-46.0789"/>
</g>
<!-- Product&#45;&gt;Keyword -->
<g id="edge15" class="edge"><title>Product&#45;&gt;Keyword</title>
<path fill="none" stroke="#72f6c7" d="M184.112,-69.2299C172.196,-60.1634 158.054,-49.4031 145.922,-40.172"/>
<ellipse fill="none" stroke="#72f6c7" cx="187.402" cy="-71.7327" rx="4.00002" ry="4.00002"/>
<polygon fill="#72f6c7" stroke="#72f6c7" points="145.854,-40.1204 140.62,-30.4839 141.875,-37.0928 137.896,-34.0651 137.896,-34.0651 137.896,-34.0651 141.875,-37.0928 135.171,-37.6464 145.854,-40.1204 145.854,-40.1204"/>
</g>
<!-- Product&#45;&gt;CartItem -->
<g id="edge17" class="edge"><title>Product&#45;&gt;CartItem</title>
<path fill="none" stroke="#f92a32" d="M247.017,-75.6066C250.746,-74.349 254.488,-73.1254 258.096,-72 316.556,-53.7647 332.277,-53.0447 391.096,-36 395.145,-34.8264 399.354,-33.578 403.559,-32.3112"/>
<ellipse fill="none" stroke="#f92a32" cx="243.207" cy="-76.9156" rx="4.00001" ry="4.00001"/>
<polygon fill="#f92a32" stroke="#f92a32" points="403.722,-32.2616 414.6,-33.6536 408.506,-30.8052 413.289,-29.3488 413.289,-29.3488 413.289,-29.3488 408.506,-30.8052 411.978,-25.0439 403.722,-32.2616 403.722,-32.2616"/>
</g>
<!-- Product&#45;&gt;Transaction -->
<g id="edge14" class="edge"><title>Product&#45;&gt;Transaction</title>
<path fill="none" stroke="#c49f38" d="M240.248,-71.4112C257.126,-61.5656 278.233,-49.2535 295.747,-39.0369"/>
<ellipse fill="none" stroke="#c49f38" cx="236.688" cy="-73.4878" rx="4.00002" ry="4.00002"/>
<polygon fill="#c49f38" stroke="#c49f38" points="295.899,-38.9482 306.804,-37.7965 300.218,-36.4288 304.537,-33.9095 304.537,-33.9095 304.537,-33.9095 300.218,-36.4288 302.269,-30.0224 295.899,-38.9482 295.899,-38.9482"/>
</g>
</g>
</svg>
