<?xml version="1.0" encoding="UTF-8" standalone="no"?>
<!DOCTYPE svg PUBLIC "-//W3C//DTD SVG 1.1//EN"
 "http://www.w3.org/Graphics/SVG/1.1/DTD/svg11.dtd">
<!-- Generated by graphviz version 2.38.0 (20140413.2041)
 -->
<!-- Title: models_diagram Pages: 1 -->
<svg width="1854pt" height="1024pt"
 viewBox="0.00 0.00 1854.00 1024.00" xmlns="http://www.w3.org/2000/svg" xmlns:xlink="http://www.w3.org/1999/xlink">
<g id="graph0" class="graph" transform="scale(1 1) rotate(0) translate(4 1020)">
<title>models_diagram</title>
<polygon fill="none" stroke="none" points="-4,4 -4,-1020 1850,-1020 1850,4 -4,4"/>
<!-- _diagram_info -->
<g id="node1" class="node"><title>_diagram_info</title>
<text text-anchor="start" x="209" y="-874.6" font-family="Times,serif" font-size="13.00">Models diagram</text>
<text text-anchor="start" x="209" y="-860.6" font-family="Times,serif" font-size="13.00">Date: Nov 04 2016 &#45; 11:05</text>
<text text-anchor="start" x="209" y="-846.6" font-family="Times,serif" font-size="13.00">Migration version: 20161104005028</text>
<text text-anchor="start" x="209" y="-832.6" font-family="Times,serif" font-size="13.00">Generated by RailRoady 1.5.2</text>
<text text-anchor="start" x="209" y="-818.6" font-family="Times,serif" font-size="13.00">http://railroady.prestonlee.com</text>
</g>
<!-- Picture -->
<g id="node2" class="node"><title>Picture</title>
<path fill="none" stroke="black" d="M1312,-0.5C1312,-0.5 1572,-0.5 1572,-0.5 1578,-0.5 1584,-6.5 1584,-12.5 1584,-12.5 1584,-139.5 1584,-139.5 1584,-145.5 1578,-151.5 1572,-151.5 1572,-151.5 1312,-151.5 1312,-151.5 1306,-151.5 1300,-145.5 1300,-139.5 1300,-139.5 1300,-12.5 1300,-12.5 1300,-6.5 1306,-0.5 1312,-0.5"/>
<text text-anchor="middle" x="1442" y="-136.3" font-family="Times,serif" font-size="14.00">Picture</text>
<polyline fill="none" stroke="black" points="1300,-128.5 1584,-128.5 "/>
<text text-anchor="start" x="1308" y="-113.3" font-family="Times,serif" font-size="14.00">id :integer</text>
<text text-anchor="start" x="1308" y="-98.3" font-family="Times,serif" font-size="14.00">product_id :integer</text>
<text text-anchor="start" x="1308" y="-83.3" font-family="Times,serif" font-size="14.00">created_at :timestamp without time zone</text>
<text text-anchor="start" x="1308" y="-68.3" font-family="Times,serif" font-size="14.00">updated_at :timestamp without time zone</text>
<text text-anchor="start" x="1308" y="-53.3" font-family="Times,serif" font-size="14.00">image_file_name :character varying</text>
<text text-anchor="start" x="1308" y="-38.3" font-family="Times,serif" font-size="14.00">image_content_type :character varying</text>
<text text-anchor="start" x="1308" y="-23.3" font-family="Times,serif" font-size="14.00">image_file_size :integer</text>
<text text-anchor="start" x="1308" y="-8.3" font-family="Times,serif" font-size="14.00">image_updated_at :timestamp without time zone</text>
</g>
<!-- ShoppingCart -->
<g id="node3" class="node"><title>ShoppingCart</title>
<path fill="none" stroke="black" d="M873,-451.5C873,-451.5 1093,-451.5 1093,-451.5 1099,-451.5 1105,-457.5 1105,-463.5 1105,-463.5 1105,-605.5 1105,-605.5 1105,-611.5 1099,-617.5 1093,-617.5 1093,-617.5 873,-617.5 873,-617.5 867,-617.5 861,-611.5 861,-605.5 861,-605.5 861,-463.5 861,-463.5 861,-457.5 867,-451.5 873,-451.5"/>
<text text-anchor="middle" x="983" y="-602.3" font-family="Times,serif" font-size="14.00">ShoppingCart</text>
<polyline fill="none" stroke="black" points="861,-594.5 1105,-594.5 "/>
<text text-anchor="start" x="869" y="-579.3" font-family="Times,serif" font-size="14.00">id :integer</text>
<text text-anchor="start" x="869" y="-564.3" font-family="Times,serif" font-size="14.00">client_id :integer</text>
<text text-anchor="start" x="869" y="-549.3" font-family="Times,serif" font-size="14.00">status :integer</text>
<text text-anchor="start" x="869" y="-534.3" font-family="Times,serif" font-size="14.00">fees :double precision</text>
<text text-anchor="start" x="869" y="-519.3" font-family="Times,serif" font-size="14.00">gain :double precision</text>
<text text-anchor="start" x="869" y="-504.3" font-family="Times,serif" font-size="14.00">promotion_discount :double precision</text>
<text text-anchor="start" x="869" y="-489.3" font-family="Times,serif" font-size="14.00">total_paid :double precision</text>
<text text-anchor="start" x="869" y="-474.3" font-family="Times,serif" font-size="14.00">created_at :timestamp without time zone</text>
<text text-anchor="start" x="869" y="-459.3" font-family="Times,serif" font-size="14.00">updated_at :timestamp without time zone</text>
</g>
<!-- Payment -->
<g id="node6" class="node"><title>Payment</title>
<path fill="none" stroke="black" d="M667,-218.5C667,-218.5 887,-218.5 887,-218.5 893,-218.5 899,-224.5 899,-230.5 899,-230.5 899,-342.5 899,-342.5 899,-348.5 893,-354.5 887,-354.5 887,-354.5 667,-354.5 667,-354.5 661,-354.5 655,-348.5 655,-342.5 655,-342.5 655,-230.5 655,-230.5 655,-224.5 661,-218.5 667,-218.5"/>
<text text-anchor="middle" x="777" y="-339.3" font-family="Times,serif" font-size="14.00">Payment</text>
<polyline fill="none" stroke="black" points="655,-331.5 899,-331.5 "/>
<text text-anchor="start" x="663" y="-316.3" font-family="Times,serif" font-size="14.00">id :integer</text>
<text text-anchor="start" x="663" y="-301.3" font-family="Times,serif" font-size="14.00">shopping_cart_id :integer</text>
<text text-anchor="start" x="663" y="-286.3" font-family="Times,serif" font-size="14.00">credit_card_id :integer</text>
<text text-anchor="start" x="663" y="-271.3" font-family="Times,serif" font-size="14.00">number_quotas :integer</text>
<text text-anchor="start" x="663" y="-256.3" font-family="Times,serif" font-size="14.00">quota_value :numeric</text>
<text text-anchor="start" x="663" y="-241.3" font-family="Times,serif" font-size="14.00">created_at :timestamp without time zone</text>
<text text-anchor="start" x="663" y="-226.3" font-family="Times,serif" font-size="14.00">updated_at :timestamp without time zone</text>
</g>
<!-- ShoppingCart&#45;&gt;Payment -->
<g id="edge2" class="edge"><title>ShoppingCart&#45;&gt;Payment</title>
<path fill="none" stroke="#a807a1" d="M908.834,-444.933C885.734,-417.347 860.53,-387.249 838.404,-360.827"/>
<ellipse fill="none" stroke="#a807a1" cx="911.55" cy="-448.177" rx="4.00002" ry="4.00002"/>
<ellipse fill="#a807a1" stroke="#a807a1" cx="835.712" cy="-357.613" rx="4.00002" ry="4.00002"/>
</g>
<!-- CartItem -->
<g id="node15" class="node"><title>CartItem</title>
<path fill="none" stroke="black" d="M1002,-8C1002,-8 1222,-8 1222,-8 1228,-8 1234,-14 1234,-20 1234,-20 1234,-132 1234,-132 1234,-138 1228,-144 1222,-144 1222,-144 1002,-144 1002,-144 996,-144 990,-138 990,-132 990,-132 990,-20 990,-20 990,-14 996,-8 1002,-8"/>
<text text-anchor="middle" x="1112" y="-128.8" font-family="Times,serif" font-size="14.00">CartItem</text>
<polyline fill="none" stroke="black" points="990,-121 1234,-121 "/>
<text text-anchor="start" x="998" y="-105.8" font-family="Times,serif" font-size="14.00">id :integer</text>
<text text-anchor="start" x="998" y="-90.8" font-family="Times,serif" font-size="14.00">shopping_cart_id :integer</text>
<text text-anchor="start" x="998" y="-75.8" font-family="Times,serif" font-size="14.00">product_id :integer</text>
<text text-anchor="start" x="998" y="-60.8" font-family="Times,serif" font-size="14.00">quantity :double precision</text>
<text text-anchor="start" x="998" y="-45.8" font-family="Times,serif" font-size="14.00">unitary_price :double precision</text>
<text text-anchor="start" x="998" y="-30.8" font-family="Times,serif" font-size="14.00">created_at :timestamp without time zone</text>
<text text-anchor="start" x="998" y="-15.8" font-family="Times,serif" font-size="14.00">updated_at :timestamp without time zone</text>
</g>
<!-- ShoppingCart&#45;&gt;CartItem -->
<g id="edge1" class="edge"><title>ShoppingCart&#45;&gt;CartItem</title>
<path fill="none" stroke="#62a577" d="M1008.43,-443.507C1032.3,-359.027 1067.63,-234.004 1090.23,-154.022"/>
<ellipse fill="none" stroke="#62a577" cx="1007.3" cy="-447.51" rx="4.00001" ry="4.00001"/>
<polygon fill="#62a577" stroke="#62a577" points="1090.34,-153.637 1097.39,-145.238 1091.7,-148.825 1093.06,-144.014 1093.06,-144.014 1093.06,-144.014 1091.7,-148.825 1088.73,-142.79 1090.34,-153.637 1090.34,-153.637"/>
</g>
<!-- Keyword -->
<g id="node4" class="node"><title>Keyword</title>
<path fill="none" stroke="black" d="M1614,-23C1614,-23 1834,-23 1834,-23 1840,-23 1846,-29 1846,-35 1846,-35 1846,-117 1846,-117 1846,-123 1840,-129 1834,-129 1834,-129 1614,-129 1614,-129 1608,-129 1602,-123 1602,-117 1602,-117 1602,-35 1602,-35 1602,-29 1608,-23 1614,-23"/>
<text text-anchor="middle" x="1724" y="-113.8" font-family="Times,serif" font-size="14.00">Keyword</text>
<polyline fill="none" stroke="black" points="1602,-106 1846,-106 "/>
<text text-anchor="start" x="1610" y="-90.8" font-family="Times,serif" font-size="14.00">id :integer</text>
<text text-anchor="start" x="1610" y="-75.8" font-family="Times,serif" font-size="14.00">product_id :integer</text>
<text text-anchor="start" x="1610" y="-60.8" font-family="Times,serif" font-size="14.00">word :character varying</text>
<text text-anchor="start" x="1610" y="-45.8" font-family="Times,serif" font-size="14.00">created_at :timestamp without time zone</text>
<text text-anchor="start" x="1610" y="-30.8" font-family="Times,serif" font-size="14.00">updated_at :timestamp without time zone</text>
</g>
<!-- Address -->
<g id="node5" class="node"><title>Address</title>
<path fill="none" stroke="black" d="M87,-421.5C87,-421.5 307,-421.5 307,-421.5 313,-421.5 319,-427.5 319,-433.5 319,-433.5 319,-635.5 319,-635.5 319,-641.5 313,-647.5 307,-647.5 307,-647.5 87,-647.5 87,-647.5 81,-647.5 75,-641.5 75,-635.5 75,-635.5 75,-433.5 75,-433.5 75,-427.5 81,-421.5 87,-421.5"/>
<text text-anchor="middle" x="197" y="-632.3" font-family="Times,serif" font-size="14.00">Address</text>
<polyline fill="none" stroke="black" points="75,-624.5 319,-624.5 "/>
<text text-anchor="start" x="83" y="-609.3" font-family="Times,serif" font-size="14.00">id :integer</text>
<text text-anchor="start" x="83" y="-594.3" font-family="Times,serif" font-size="14.00">client_id :integer</text>
<text text-anchor="start" x="83" y="-579.3" font-family="Times,serif" font-size="14.00">cep :character varying(11)</text>
<text text-anchor="start" x="83" y="-564.3" font-family="Times,serif" font-size="14.00">street :character varying</text>
<text text-anchor="start" x="83" y="-549.3" font-family="Times,serif" font-size="14.00">number :integer</text>
<text text-anchor="start" x="83" y="-534.3" font-family="Times,serif" font-size="14.00">complement :character varying</text>
<text text-anchor="start" x="83" y="-519.3" font-family="Times,serif" font-size="14.00">neighborhood :character varying</text>
<text text-anchor="start" x="83" y="-504.3" font-family="Times,serif" font-size="14.00">city :character varying</text>
<text text-anchor="start" x="83" y="-489.3" font-family="Times,serif" font-size="14.00">country :character varying</text>
<text text-anchor="start" x="83" y="-474.3" font-family="Times,serif" font-size="14.00">address_type :integer</text>
<text text-anchor="start" x="83" y="-459.3" font-family="Times,serif" font-size="14.00">delivery_radius :double precision</text>
<text text-anchor="start" x="83" y="-444.3" font-family="Times,serif" font-size="14.00">created_at :timestamp without time zone</text>
<text text-anchor="start" x="83" y="-429.3" font-family="Times,serif" font-size="14.00">updated_at :timestamp without time zone</text>
</g>
<!-- Event -->
<g id="node9" class="node"><title>Event</title>
<path fill="none" stroke="black" d="M12,-188.5C12,-188.5 232,-188.5 232,-188.5 238,-188.5 244,-194.5 244,-200.5 244,-200.5 244,-372.5 244,-372.5 244,-378.5 238,-384.5 232,-384.5 232,-384.5 12,-384.5 12,-384.5 6,-384.5 0,-378.5 0,-372.5 0,-372.5 0,-200.5 0,-200.5 0,-194.5 6,-188.5 12,-188.5"/>
<text text-anchor="middle" x="122" y="-369.3" font-family="Times,serif" font-size="14.00">Event</text>
<polyline fill="none" stroke="black" points="0,-361.5 244,-361.5 "/>
<text text-anchor="start" x="8" y="-346.3" font-family="Times,serif" font-size="14.00">id :integer</text>
<text text-anchor="start" x="8" y="-331.3" font-family="Times,serif" font-size="14.00">client_id :integer</text>
<text text-anchor="start" x="8" y="-316.3" font-family="Times,serif" font-size="14.00">event_data :date</text>
<text text-anchor="start" x="8" y="-301.3" font-family="Times,serif" font-size="14.00">hour :time without time zone</text>
<text text-anchor="start" x="8" y="-286.3" font-family="Times,serif" font-size="14.00">attendants :integer</text>
<text text-anchor="start" x="8" y="-271.3" font-family="Times,serif" font-size="14.00">address_id :integer</text>
<text text-anchor="start" x="8" y="-256.3" font-family="Times,serif" font-size="14.00">duration :time without time zone</text>
<text text-anchor="start" x="8" y="-241.3" font-family="Times,serif" font-size="14.00">estimated_price_from :numeric</text>
<text text-anchor="start" x="8" y="-226.3" font-family="Times,serif" font-size="14.00">estimated_price_until :numeric</text>
<text text-anchor="start" x="8" y="-211.3" font-family="Times,serif" font-size="14.00">created_at :timestamp without time zone</text>
<text text-anchor="start" x="8" y="-196.3" font-family="Times,serif" font-size="14.00">updated_at :timestamp without time zone</text>
</g>
<!-- Address&#45;&gt;Event -->
<g id="edge3" class="edge"><title>Address&#45;&gt;Event</title>
<path fill="none" stroke="#0a75fb" d="M160.441,-413.586C158.514,-407.266 156.584,-400.936 154.671,-394.662"/>
<ellipse fill="none" stroke="#0a75fb" cx="161.626" cy="-417.472" rx="4.00001" ry="4.00001"/>
<polygon fill="#0a75fb" stroke="#0a75fb" points="154.599,-394.424 155.987,-383.546 153.141,-389.641 151.682,-384.858 151.682,-384.858 151.682,-384.858 153.141,-389.641 147.378,-386.171 154.599,-394.424 154.599,-394.424"/>
</g>
<!-- ApplicationRecord -->
<g id="node7" class="node"><title>ApplicationRecord</title>
<ellipse fill="none" stroke="black" cx="842" cy="-850" rx="77.1866" ry="18"/>
<text text-anchor="middle" x="842" y="-846.3" font-family="Times,serif" font-size="14.00">ApplicationRecord</text>
</g>
<!-- CategoryProduct -->
<g id="node8" class="node"><title>CategoryProduct</title>
<path fill="none" stroke="black" d="M1429,-489C1429,-489 1649,-489 1649,-489 1655,-489 1661,-495 1661,-501 1661,-501 1661,-568 1661,-568 1661,-574 1655,-580 1649,-580 1649,-580 1429,-580 1429,-580 1423,-580 1417,-574 1417,-568 1417,-568 1417,-501 1417,-501 1417,-495 1423,-489 1429,-489"/>
<text text-anchor="middle" x="1539" y="-564.8" font-family="Times,serif" font-size="14.00">CategoryProduct</text>
<polyline fill="none" stroke="black" points="1417,-557 1661,-557 "/>
<text text-anchor="start" x="1425" y="-541.8" font-family="Times,serif" font-size="14.00">id :integer</text>
<text text-anchor="start" x="1425" y="-526.8" font-family="Times,serif" font-size="14.00">name :character varying</text>
<text text-anchor="start" x="1425" y="-511.8" font-family="Times,serif" font-size="14.00">created_at :timestamp without time zone</text>
<text text-anchor="start" x="1425" y="-496.8" font-family="Times,serif" font-size="14.00">updated_at :timestamp without time zone</text>
</g>
<!-- Product -->
<g id="node16" class="node"><title>Product</title>
<path fill="none" stroke="black" d="M1381,-196C1381,-196 1601,-196 1601,-196 1607,-196 1613,-202 1613,-208 1613,-208 1613,-365 1613,-365 1613,-371 1607,-377 1601,-377 1601,-377 1381,-377 1381,-377 1375,-377 1369,-371 1369,-365 1369,-365 1369,-208 1369,-208 1369,-202 1375,-196 1381,-196"/>
<text text-anchor="middle" x="1491" y="-361.8" font-family="Times,serif" font-size="14.00">Product</text>
<polyline fill="none" stroke="black" points="1369,-354 1613,-354 "/>
<text text-anchor="start" x="1377" y="-338.8" font-family="Times,serif" font-size="14.00">id :integer</text>
<text text-anchor="start" x="1377" y="-323.8" font-family="Times,serif" font-size="14.00">professional_id :integer</text>
<text text-anchor="start" x="1377" y="-308.8" font-family="Times,serif" font-size="14.00">category_product_id :integer</text>
<text text-anchor="start" x="1377" y="-293.8" font-family="Times,serif" font-size="14.00">name :character varying</text>
<text text-anchor="start" x="1377" y="-278.8" font-family="Times,serif" font-size="14.00">description :text</text>
<text text-anchor="start" x="1377" y="-263.8" font-family="Times,serif" font-size="14.00">price :double precision</text>
<text text-anchor="start" x="1377" y="-248.8" font-family="Times,serif" font-size="14.00">rating :integer</text>
<text text-anchor="start" x="1377" y="-233.8" font-family="Times,serif" font-size="14.00">max_quantity :integer</text>
<text text-anchor="start" x="1377" y="-218.8" font-family="Times,serif" font-size="14.00">created_at :timestamp without time zone</text>
<text text-anchor="start" x="1377" y="-203.8" font-family="Times,serif" font-size="14.00">updated_at :timestamp without time zone</text>
</g>
<!-- CategoryProduct&#45;&gt;Product -->
<g id="edge4" class="edge"><title>CategoryProduct&#45;&gt;Product</title>
<path fill="none" stroke="#2680ee" d="M1528.77,-481.061C1523.42,-453.662 1516.7,-419.205 1510.41,-386.984"/>
<ellipse fill="none" stroke="#2680ee" cx="1529.54" cy="-485.025" rx="4.00001" ry="4.00001"/>
<polygon fill="#2680ee" stroke="#2680ee" points="1510.39,-386.881 1512.89,-376.204 1509.43,-381.973 1508.48,-377.066 1508.48,-377.066 1508.48,-377.066 1509.43,-381.973 1504.06,-377.928 1510.39,-386.881 1510.39,-386.881"/>
</g>
<!-- Client -->
<g id="node10" class="node"><title>Client</title>
<path fill="none" stroke="black" d="M445.5,-684.5C445.5,-684.5 734.5,-684.5 734.5,-684.5 740.5,-684.5 746.5,-690.5 746.5,-696.5 746.5,-696.5 746.5,-1003.5 746.5,-1003.5 746.5,-1009.5 740.5,-1015.5 734.5,-1015.5 734.5,-1015.5 445.5,-1015.5 445.5,-1015.5 439.5,-1015.5 433.5,-1009.5 433.5,-1003.5 433.5,-1003.5 433.5,-696.5 433.5,-696.5 433.5,-690.5 439.5,-684.5 445.5,-684.5"/>
<text text-anchor="middle" x="590" y="-1000.3" font-family="Times,serif" font-size="14.00">Client</text>
<polyline fill="none" stroke="black" points="433.5,-992.5 746.5,-992.5 "/>
<text text-anchor="start" x="441.5" y="-977.3" font-family="Times,serif" font-size="14.00">id :integer</text>
<text text-anchor="start" x="441.5" y="-962.3" font-family="Times,serif" font-size="14.00">login :character varying</text>
<text text-anchor="start" x="441.5" y="-947.3" font-family="Times,serif" font-size="14.00">name :character varying</text>
<text text-anchor="start" x="441.5" y="-932.3" font-family="Times,serif" font-size="14.00">cpf :character varying(11)</text>
<text text-anchor="start" x="441.5" y="-917.3" font-family="Times,serif" font-size="14.00">created_at :timestamp without time zone</text>
<text text-anchor="start" x="441.5" y="-902.3" font-family="Times,serif" font-size="14.00">updated_at :timestamp without time zone</text>
<text text-anchor="start" x="441.5" y="-887.3" font-family="Times,serif" font-size="14.00">email :character varying</text>
<text text-anchor="start" x="441.5" y="-872.3" font-family="Times,serif" font-size="14.00">encrypted_password :character varying</text>
<text text-anchor="start" x="441.5" y="-857.3" font-family="Times,serif" font-size="14.00">reset_password_token :character varying</text>
<text text-anchor="start" x="441.5" y="-842.3" font-family="Times,serif" font-size="14.00">reset_password_sent_at :timestamp without time zone</text>
<text text-anchor="start" x="441.5" y="-827.3" font-family="Times,serif" font-size="14.00">remember_created_at :timestamp without time zone</text>
<text text-anchor="start" x="441.5" y="-812.3" font-family="Times,serif" font-size="14.00">sign_in_count :integer</text>
<text text-anchor="start" x="441.5" y="-797.3" font-family="Times,serif" font-size="14.00">current_sign_in_at :timestamp without time zone</text>
<text text-anchor="start" x="441.5" y="-782.3" font-family="Times,serif" font-size="14.00">last_sign_in_at :timestamp without time zone</text>
<text text-anchor="start" x="441.5" y="-767.3" font-family="Times,serif" font-size="14.00">current_sign_in_ip :inet</text>
<text text-anchor="start" x="441.5" y="-752.3" font-family="Times,serif" font-size="14.00">last_sign_in_ip :inet</text>
<text text-anchor="start" x="441.5" y="-737.3" font-family="Times,serif" font-size="14.00">avatar_file_name :character varying</text>
<text text-anchor="start" x="441.5" y="-722.3" font-family="Times,serif" font-size="14.00">avatar_content_type :character varying</text>
<text text-anchor="start" x="441.5" y="-707.3" font-family="Times,serif" font-size="14.00">avatar_file_size :integer</text>
<text text-anchor="start" x="441.5" y="-692.3" font-family="Times,serif" font-size="14.00">avatar_updated_at :timestamp without time zone</text>
</g>
<!-- Client&#45;&gt;ShoppingCart -->
<g id="edge8" class="edge"><title>Client&#45;&gt;ShoppingCart</title>
<path fill="none" stroke="#518278" d="M753.334,-685.729C754.222,-685.147 755.11,-684.571 756,-684 794.35,-659.388 812.78,-671.2 852,-648 864.055,-640.869 876.072,-632.595 887.665,-623.831"/>
<ellipse fill="none" stroke="#518278" cx="749.869" cy="-688.058" rx="4.00002" ry="4.00002"/>
<polygon fill="#518278" stroke="#518278" points="887.701,-623.803 898.367,-621.256 891.66,-620.748 895.618,-617.693 895.618,-617.693 895.618,-617.693 891.66,-620.748 892.869,-614.131 887.701,-623.803 887.701,-623.803"/>
</g>
<!-- Client&#45;&gt;Address -->
<g id="edge6" class="edge"><title>Client&#45;&gt;Address</title>
<path fill="none" stroke="#e035e1" d="M426.666,-685.729C425.778,-685.147 424.89,-684.571 424,-684 385.65,-659.388 367.22,-671.2 328,-648 327.907,-647.945 327.815,-647.89 327.722,-647.835"/>
<ellipse fill="none" stroke="#e035e1" cx="430.131" cy="-688.058" rx="4.00002" ry="4.00002"/>
<polygon fill="#e035e1" stroke="#e035e1" points="327.627,-647.777 321.469,-638.704 323.369,-645.157 319.111,-642.536 319.111,-642.536 319.111,-642.536 323.369,-645.157 316.752,-646.369 327.627,-647.777 327.627,-647.777"/>
</g>
<!-- Client&#45;&gt;Event -->
<g id="edge9" class="edge"><title>Client&#45;&gt;Event</title>
<path fill="none" stroke="#182269" d="M426.046,-684.98C425.365,-684.649 424.683,-684.323 424,-684 351.703,-649.849 119.635,-707.299 66,-648 4.55518,-580.066 30.4059,-473.837 64.5306,-394.261"/>
<ellipse fill="none" stroke="#182269" cx="429.729" cy="-686.855" rx="4.00002" ry="4.00002"/>
<polygon fill="#182269" stroke="#182269" points="64.7105,-393.851 72.8488,-386.501 66.7192,-389.272 68.7279,-384.693 68.7279,-384.693 68.7279,-384.693 66.7192,-389.272 64.607,-382.886 64.7105,-393.851 64.7105,-393.851"/>
</g>
<!-- Telephone -->
<g id="node11" class="node"><title>Telephone</title>
<path fill="none" stroke="black" d="M349,-481.5C349,-481.5 569,-481.5 569,-481.5 575,-481.5 581,-487.5 581,-493.5 581,-493.5 581,-575.5 581,-575.5 581,-581.5 575,-587.5 569,-587.5 569,-587.5 349,-587.5 349,-587.5 343,-587.5 337,-581.5 337,-575.5 337,-575.5 337,-493.5 337,-493.5 337,-487.5 343,-481.5 349,-481.5"/>
<text text-anchor="middle" x="459" y="-572.3" font-family="Times,serif" font-size="14.00">Telephone</text>
<polyline fill="none" stroke="black" points="337,-564.5 581,-564.5 "/>
<text text-anchor="start" x="345" y="-549.3" font-family="Times,serif" font-size="14.00">id :integer</text>
<text text-anchor="start" x="345" y="-534.3" font-family="Times,serif" font-size="14.00">client_id :integer</text>
<text text-anchor="start" x="345" y="-519.3" font-family="Times,serif" font-size="14.00">telephone :character varying</text>
<text text-anchor="start" x="345" y="-504.3" font-family="Times,serif" font-size="14.00">created_at :timestamp without time zone</text>
<text text-anchor="start" x="345" y="-489.3" font-family="Times,serif" font-size="14.00">updated_at :timestamp without time zone</text>
</g>
<!-- Client&#45;&gt;Telephone -->
<g id="edge5" class="edge"><title>Client&#45;&gt;Telephone</title>
<path fill="none" stroke="#0ec627" d="M518.142,-677.035C506.166,-648.375 494.477,-620.4 484.695,-596.991"/>
<ellipse fill="none" stroke="#0ec627" cx="519.697" cy="-680.755" rx="4.00002" ry="4.00002"/>
<polygon fill="#0ec627" stroke="#0ec627" points="484.62,-596.813 484.917,-585.851 482.692,-592.199 480.765,-587.586 480.765,-587.586 480.765,-587.586 482.692,-592.199 476.613,-589.321 484.62,-596.813 484.62,-596.813"/>
</g>
<!-- Professional -->
<g id="node12" class="node"><title>Professional</title>
<path fill="none" stroke="black" d="M1135.5,-444C1135.5,-444 1386.5,-444 1386.5,-444 1392.5,-444 1398.5,-450 1398.5,-456 1398.5,-456 1398.5,-613 1398.5,-613 1398.5,-619 1392.5,-625 1386.5,-625 1386.5,-625 1135.5,-625 1135.5,-625 1129.5,-625 1123.5,-619 1123.5,-613 1123.5,-613 1123.5,-456 1123.5,-456 1123.5,-450 1129.5,-444 1135.5,-444"/>
<text text-anchor="middle" x="1261" y="-609.8" font-family="Times,serif" font-size="14.00">Professional</text>
<polyline fill="none" stroke="black" points="1123.5,-602 1398.5,-602 "/>
<text text-anchor="start" x="1131.5" y="-586.8" font-family="Times,serif" font-size="14.00">id :integer</text>
<text text-anchor="start" x="1131.5" y="-571.8" font-family="Times,serif" font-size="14.00">client_id :integer</text>
<text text-anchor="start" x="1131.5" y="-556.8" font-family="Times,serif" font-size="14.00">description :text</text>
<text text-anchor="start" x="1131.5" y="-541.8" font-family="Times,serif" font-size="14.00">rating :double precision</text>
<text text-anchor="start" x="1131.5" y="-526.8" font-family="Times,serif" font-size="14.00">created_at :timestamp without time zone</text>
<text text-anchor="start" x="1131.5" y="-511.8" font-family="Times,serif" font-size="14.00">updated_at :timestamp without time zone</text>
<text text-anchor="start" x="1131.5" y="-496.8" font-family="Times,serif" font-size="14.00">logo_file_name :character varying</text>
<text text-anchor="start" x="1131.5" y="-481.8" font-family="Times,serif" font-size="14.00">logo_content_type :character varying</text>
<text text-anchor="start" x="1131.5" y="-466.8" font-family="Times,serif" font-size="14.00">logo_file_size :integer</text>
<text text-anchor="start" x="1131.5" y="-451.8" font-family="Times,serif" font-size="14.00">logo_updated_at :timestamp without time zone</text>
</g>
<!-- Client&#45;&gt;Professional -->
<g id="edge10" class="edge"><title>Client&#45;&gt;Professional</title>
<path fill="none" stroke="#f3c906" d="M753.954,-684.98C754.635,-684.649 755.317,-684.323 756,-684 900.593,-615.699 965.3,-706.828 1114,-648 1126.62,-643.009 1139.07,-636.605 1151.07,-629.39"/>
<ellipse fill="none" stroke="#f3c906" cx="750.271" cy="-686.855" rx="4.00002" ry="4.00002"/>
<ellipse fill="#f3c906" stroke="#f3c906" cx="1154.68" cy="-627.157" rx="4.00002" ry="4.00002"/>
</g>
<!-- CreditCard -->
<g id="node13" class="node"><title>CreditCard</title>
<path fill="none" stroke="black" d="M611,-451.5C611,-451.5 831,-451.5 831,-451.5 837,-451.5 843,-457.5 843,-463.5 843,-463.5 843,-605.5 843,-605.5 843,-611.5 837,-617.5 831,-617.5 831,-617.5 611,-617.5 611,-617.5 605,-617.5 599,-611.5 599,-605.5 599,-605.5 599,-463.5 599,-463.5 599,-457.5 605,-451.5 611,-451.5"/>
<text text-anchor="middle" x="721" y="-602.3" font-family="Times,serif" font-size="14.00">CreditCard</text>
<polyline fill="none" stroke="black" points="599,-594.5 843,-594.5 "/>
<text text-anchor="start" x="607" y="-579.3" font-family="Times,serif" font-size="14.00">id :integer</text>
<text text-anchor="start" x="607" y="-564.3" font-family="Times,serif" font-size="14.00">client_id :integer</text>
<text text-anchor="start" x="607" y="-549.3" font-family="Times,serif" font-size="14.00">name :character varying</text>
<text text-anchor="start" x="607" y="-534.3" font-family="Times,serif" font-size="14.00">number :integer</text>
<text text-anchor="start" x="607" y="-519.3" font-family="Times,serif" font-size="14.00">digit :integer</text>
<text text-anchor="start" x="607" y="-504.3" font-family="Times,serif" font-size="14.00">flag :character varying</text>
<text text-anchor="start" x="607" y="-489.3" font-family="Times,serif" font-size="14.00">expiration :character varying</text>
<text text-anchor="start" x="607" y="-474.3" font-family="Times,serif" font-size="14.00">created_at :timestamp without time zone</text>
<text text-anchor="start" x="607" y="-459.3" font-family="Times,serif" font-size="14.00">updated_at :timestamp without time zone</text>
</g>
<!-- Client&#45;&gt;CreditCard -->
<g id="edge7" class="edge"><title>Client&#45;&gt;CreditCard</title>
<path fill="none" stroke="#8aef6c" d="M661.939,-676.841C669.069,-659.778 676.096,-642.961 682.678,-627.209"/>
<ellipse fill="none" stroke="#8aef6c" cx="660.303" cy="-680.755" rx="4.00001" ry="4.00001"/>
<polygon fill="#8aef6c" stroke="#8aef6c" points="682.86,-626.773 690.868,-619.281 684.788,-622.159 686.716,-617.546 686.716,-617.546 686.716,-617.546 684.788,-622.159 682.564,-615.811 682.86,-626.773 682.86,-626.773"/>
</g>
<!-- Banking -->
<g id="node14" class="node"><title>Banking</title>
<path fill="none" stroke="black" d="M1119,-218.5C1119,-218.5 1339,-218.5 1339,-218.5 1345,-218.5 1351,-224.5 1351,-230.5 1351,-230.5 1351,-342.5 1351,-342.5 1351,-348.5 1345,-354.5 1339,-354.5 1339,-354.5 1119,-354.5 1119,-354.5 1113,-354.5 1107,-348.5 1107,-342.5 1107,-342.5 1107,-230.5 1107,-230.5 1107,-224.5 1113,-218.5 1119,-218.5"/>
<text text-anchor="middle" x="1229" y="-339.3" font-family="Times,serif" font-size="14.00">Banking</text>
<polyline fill="none" stroke="black" points="1107,-331.5 1351,-331.5 "/>
<text text-anchor="start" x="1115" y="-316.3" font-family="Times,serif" font-size="14.00">id :integer</text>
<text text-anchor="start" x="1115" y="-301.3" font-family="Times,serif" font-size="14.00">professional_id :integer</text>
<text text-anchor="start" x="1115" y="-286.3" font-family="Times,serif" font-size="14.00">bank :integer</text>
<text text-anchor="start" x="1115" y="-271.3" font-family="Times,serif" font-size="14.00">agency :integer</text>
<text text-anchor="start" x="1115" y="-256.3" font-family="Times,serif" font-size="14.00">account :integer</text>
<text text-anchor="start" x="1115" y="-241.3" font-family="Times,serif" font-size="14.00">created_at :timestamp without time zone</text>
<text text-anchor="start" x="1115" y="-226.3" font-family="Times,serif" font-size="14.00">updated_at :timestamp without time zone</text>
</g>
<!-- Professional&#45;&gt;Banking -->
<g id="edge11" class="edge"><title>Professional&#45;&gt;Banking</title>
<path fill="none" stroke="#2ad00e" d="M1248.31,-435.969C1245.24,-412.31 1241.99,-387.335 1239.05,-364.758"/>
<ellipse fill="none" stroke="#2ad00e" cx="1248.84" cy="-440.026" rx="4.00001" ry="4.00001"/>
<polygon fill="#2ad00e" stroke="#2ad00e" points="1239.01,-364.483 1242.19,-353.986 1238.37,-359.525 1237.72,-354.567 1237.72,-354.567 1237.72,-354.567 1238.37,-359.525 1233.26,-355.147 1239.01,-364.483 1239.01,-364.483"/>
</g>
<!-- Professional&#45;&gt;Product -->
<g id="edge12" class="edge"><title>Professional&#45;&gt;Product</title>
<path fill="none" stroke="#66be9e" d="M1350.19,-438.108C1366.53,-420.625 1383.61,-402.358 1400.01,-384.82"/>
<ellipse fill="none" stroke="#66be9e" cx="1347.42" cy="-441.071" rx="4.00002" ry="4.00002"/>
<polygon fill="#66be9e" stroke="#66be9e" points="1400.16,-384.658 1410.28,-380.426 1403.58,-381.005 1406.99,-377.353 1406.99,-377.353 1406.99,-377.353 1403.58,-381.005 1403.7,-374.28 1400.16,-384.658 1400.16,-384.658"/>
</g>
<!-- CreditCard&#45;&gt;Payment -->
<g id="edge13" class="edge"><title>CreditCard&#45;&gt;Payment</title>
<path fill="none" stroke="#75b94f" d="M741.503,-443.434C747.41,-417.486 753.797,-389.427 759.504,-364.359"/>
<ellipse fill="none" stroke="#75b94f" cx="740.613" cy="-447.343" rx="4.00001" ry="4.00001"/>
<polygon fill="#75b94f" stroke="#75b94f" points="759.518,-364.297 766.125,-355.545 760.628,-359.421 761.737,-354.546 761.737,-354.546 761.737,-354.546 760.628,-359.421 757.35,-353.547 759.518,-364.297 759.518,-364.297"/>
</g>
<!-- Product&#45;&gt;Picture -->
<g id="edge15" class="edge"><title>Product&#45;&gt;Picture</title>
<path fill="none" stroke="#d62c00" d="M1468.05,-187.863C1465.97,-178.986 1463.87,-170.044 1461.81,-161.298"/>
<ellipse fill="none" stroke="#d62c00" cx="1469.02" cy="-191.973" rx="4.00001" ry="4.00001"/>
<polygon fill="#d62c00" stroke="#d62c00" points="1461.8,-161.254 1463.89,-150.489 1460.66,-156.386 1459.51,-151.519 1459.51,-151.519 1459.51,-151.519 1460.66,-156.386 1455.13,-152.548 1461.8,-161.254 1461.8,-161.254"/>
</g>
<!-- Product&#45;&gt;Keyword -->
<g id="edge14" class="edge"><title>Product&#45;&gt;Keyword</title>
<path fill="none" stroke="#b6c91b" d="M1597.14,-190.523C1617.83,-172.003 1638.97,-153.09 1657.9,-136.145"/>
<ellipse fill="none" stroke="#b6c91b" cx="1594.15" cy="-193.2" rx="4.00002" ry="4.00002"/>
<polygon fill="#b6c91b" stroke="#b6c91b" points="1658.15,-135.929 1668.6,-132.614 1661.87,-132.594 1665.6,-129.26 1665.6,-129.26 1665.6,-129.26 1661.87,-132.594 1662.6,-125.907 1658.15,-135.929 1658.15,-135.929"/>
</g>
<!-- Product&#45;&gt;CartItem -->
<g id="edge16" class="edge"><title>Product&#45;&gt;CartItem</title>
<path fill="none" stroke="#68ba69" d="M1366.03,-191.6C1364.02,-190.377 1362.01,-189.176 1360,-188 1338.11,-175.167 1290.84,-153.521 1243.37,-132.734"/>
<ellipse fill="none" stroke="#68ba69" cx="1369.49" cy="-193.737" rx="4.00002" ry="4.00002"/>
<polygon fill="#68ba69" stroke="#68ba69" points="1243.36,-132.73 1235.99,-124.604 1238.77,-130.729 1234.19,-128.728 1234.19,-128.728 1234.19,-128.728 1238.77,-130.729 1232.39,-132.852 1243.36,-132.73 1243.36,-132.73"/>
</g>
</g>
</svg>
