<?xml version="1.0" encoding="UTF-8" standalone="no"?>
<!DOCTYPE svg PUBLIC "-//W3C//DTD SVG 1.1//EN"
 "http://www.w3.org/Graphics/SVG/1.1/DTD/svg11.dtd">
<!-- Generated by graphviz version 2.38.0 (20140413.2041)
 -->
<!-- Title: models_diagram Pages: 1 -->
<svg width="1355pt" height="904pt"
 viewBox="0.00 0.00 1355.00 904.00" xmlns="http://www.w3.org/2000/svg" xmlns:xlink="http://www.w3.org/1999/xlink">
<g id="graph0" class="graph" transform="scale(1 1) rotate(0) translate(4 900)">
<title>models_diagram</title>
<polygon fill="none" stroke="none" points="-4,4 -4,-900 1351,-900 1351,4 -4,4"/>
<!-- _diagram_info -->
<g id="node1" class="node"><title>_diagram_info</title>
<text text-anchor="start" x="434" y="-784.6" font-family="Times,serif" font-size="13.00">Models diagram</text>
<text text-anchor="start" x="434" y="-770.6" font-family="Times,serif" font-size="13.00">Date: Oct 12 2016 &#45; 21:52</text>
<text text-anchor="start" x="434" y="-756.6" font-family="Times,serif" font-size="13.00">Migration version: 20161004024401</text>
<text text-anchor="start" x="434" y="-742.6" font-family="Times,serif" font-size="13.00">Generated by RailRoady 1.5.2</text>
<text text-anchor="start" x="434" y="-728.6" font-family="Times,serif" font-size="13.00">http://railroady.prestonlee.com</text>
</g>
<!-- Consumer -->
<g id="node2" class="node"><title>Consumer</title>
<path fill="none" stroke="black" d="M293,-444C293,-444 513,-444 513,-444 519,-444 525,-450 525,-456 525,-456 525,-523 525,-523 525,-529 519,-535 513,-535 513,-535 293,-535 293,-535 287,-535 281,-529 281,-523 281,-523 281,-456 281,-456 281,-450 287,-444 293,-444"/>
<text text-anchor="middle" x="403" y="-519.8" font-family="Times,serif" font-size="14.00">Consumer</text>
<polyline fill="none" stroke="black" points="281,-512 525,-512 "/>
<text text-anchor="start" x="289" y="-496.8" font-family="Times,serif" font-size="14.00">id :integer</text>
<text text-anchor="start" x="289" y="-481.8" font-family="Times,serif" font-size="14.00">client_id :integer</text>
<text text-anchor="start" x="289" y="-466.8" font-family="Times,serif" font-size="14.00">created_at :timestamp without time zone</text>
<text text-anchor="start" x="289" y="-451.8" font-family="Times,serif" font-size="14.00">updated_at :timestamp without time zone</text>
</g>
<!-- ShoppingCart -->
<g id="node4" class="node"><title>ShoppingCart</title>
<path fill="none" stroke="black" d="M274,-188.5C274,-188.5 494,-188.5 494,-188.5 500,-188.5 506,-194.5 506,-200.5 506,-200.5 506,-342.5 506,-342.5 506,-348.5 500,-354.5 494,-354.5 494,-354.5 274,-354.5 274,-354.5 268,-354.5 262,-348.5 262,-342.5 262,-342.5 262,-200.5 262,-200.5 262,-194.5 268,-188.5 274,-188.5"/>
<text text-anchor="middle" x="384" y="-339.3" font-family="Times,serif" font-size="14.00">ShoppingCart</text>
<polyline fill="none" stroke="black" points="262,-331.5 506,-331.5 "/>
<text text-anchor="start" x="270" y="-316.3" font-family="Times,serif" font-size="14.00">id :integer</text>
<text text-anchor="start" x="270" y="-301.3" font-family="Times,serif" font-size="14.00">consumer_id :integer</text>
<text text-anchor="start" x="270" y="-286.3" font-family="Times,serif" font-size="14.00">status :integer</text>
<text text-anchor="start" x="270" y="-271.3" font-family="Times,serif" font-size="14.00">fees :double precision</text>
<text text-anchor="start" x="270" y="-256.3" font-family="Times,serif" font-size="14.00">gain :double precision</text>
<text text-anchor="start" x="270" y="-241.3" font-family="Times,serif" font-size="14.00">promotion_discount :double precision</text>
<text text-anchor="start" x="270" y="-226.3" font-family="Times,serif" font-size="14.00">total_paid :double precision</text>
<text text-anchor="start" x="270" y="-211.3" font-family="Times,serif" font-size="14.00">created_at :timestamp without time zone</text>
<text text-anchor="start" x="270" y="-196.3" font-family="Times,serif" font-size="14.00">updated_at :timestamp without time zone</text>
</g>
<!-- Consumer&#45;&gt;ShoppingCart -->
<g id="edge3" class="edge"><title>Consumer&#45;&gt;ShoppingCart</title>
<path fill="none" stroke="#1994a3" d="M398.355,-435.696C396.482,-414.395 394.263,-389.177 392.138,-365.014"/>
<ellipse fill="none" stroke="#1994a3" cx="398.713" cy="-439.76" rx="4" ry="4"/>
<polygon fill="#1994a3" stroke="#1994a3" points="392.11,-364.7 395.717,-354.344 391.672,-359.719 391.234,-354.738 391.234,-354.738 391.234,-354.738 391.672,-359.719 386.751,-355.132 392.11,-364.7 392.11,-364.7"/>
</g>
<!-- Transaction -->
<g id="node9" class="node"><title>Transaction</title>
<path fill="none" stroke="black" d="M549,-0.5C549,-0.5 769,-0.5 769,-0.5 775,-0.5 781,-6.5 781,-12.5 781,-12.5 781,-139.5 781,-139.5 781,-145.5 775,-151.5 769,-151.5 769,-151.5 549,-151.5 549,-151.5 543,-151.5 537,-145.5 537,-139.5 537,-139.5 537,-12.5 537,-12.5 537,-6.5 543,-0.5 549,-0.5"/>
<text text-anchor="middle" x="659" y="-136.3" font-family="Times,serif" font-size="14.00">Transaction</text>
<polyline fill="none" stroke="black" points="537,-128.5 781,-128.5 "/>
<text text-anchor="start" x="545" y="-113.3" font-family="Times,serif" font-size="14.00">id :integer</text>
<text text-anchor="start" x="545" y="-98.3" font-family="Times,serif" font-size="14.00">product_id :integer</text>
<text text-anchor="start" x="545" y="-83.3" font-family="Times,serif" font-size="14.00">consumer_id :integer</text>
<text text-anchor="start" x="545" y="-68.3" font-family="Times,serif" font-size="14.00">amount :double precision</text>
<text text-anchor="start" x="545" y="-53.3" font-family="Times,serif" font-size="14.00">unitary_price :double precision</text>
<text text-anchor="start" x="545" y="-38.3" font-family="Times,serif" font-size="14.00">total_price :double precision</text>
<text text-anchor="start" x="545" y="-23.3" font-family="Times,serif" font-size="14.00">created_at :timestamp without time zone</text>
<text text-anchor="start" x="545" y="-8.3" font-family="Times,serif" font-size="14.00">updated_at :timestamp without time zone</text>
</g>
<!-- Consumer&#45;&gt;Transaction -->
<g id="edge2" class="edge"><title>Consumer&#45;&gt;Transaction</title>
<path fill="none" stroke="#90fe5a" d="M455.409,-437.814C476.803,-414.45 499.993,-385.222 515,-355 548.854,-286.823 516.972,-255.053 553,-188 558.268,-178.197 564.638,-168.637 571.61,-159.504"/>
<ellipse fill="none" stroke="#90fe5a" cx="452.447" cy="-441.003" rx="4.00002" ry="4.00002"/>
<polygon fill="#90fe5a" stroke="#90fe5a" points="571.67,-159.429 581.407,-154.386 574.775,-155.51 577.881,-151.591 577.881,-151.591 577.881,-151.591 574.775,-155.51 574.354,-148.797 571.67,-159.429 571.67,-159.429"/>
</g>
<!-- CreditCard -->
<g id="node12" class="node"><title>CreditCard</title>
<path fill="none" stroke="black" d="M12,-188.5C12,-188.5 232,-188.5 232,-188.5 238,-188.5 244,-194.5 244,-200.5 244,-200.5 244,-342.5 244,-342.5 244,-348.5 238,-354.5 232,-354.5 232,-354.5 12,-354.5 12,-354.5 6,-354.5 0,-348.5 0,-342.5 0,-342.5 0,-200.5 0,-200.5 0,-194.5 6,-188.5 12,-188.5"/>
<text text-anchor="middle" x="122" y="-339.3" font-family="Times,serif" font-size="14.00">CreditCard</text>
<polyline fill="none" stroke="black" points="0,-331.5 244,-331.5 "/>
<text text-anchor="start" x="8" y="-316.3" font-family="Times,serif" font-size="14.00">id :integer</text>
<text text-anchor="start" x="8" y="-301.3" font-family="Times,serif" font-size="14.00">consumer_id :integer</text>
<text text-anchor="start" x="8" y="-286.3" font-family="Times,serif" font-size="14.00">name :character varying</text>
<text text-anchor="start" x="8" y="-271.3" font-family="Times,serif" font-size="14.00">number :integer</text>
<text text-anchor="start" x="8" y="-256.3" font-family="Times,serif" font-size="14.00">digit :integer</text>
<text text-anchor="start" x="8" y="-241.3" font-family="Times,serif" font-size="14.00">flag :character varying</text>
<text text-anchor="start" x="8" y="-226.3" font-family="Times,serif" font-size="14.00">expiration :character varying</text>
<text text-anchor="start" x="8" y="-211.3" font-family="Times,serif" font-size="14.00">created_at :timestamp without time zone</text>
<text text-anchor="start" x="8" y="-196.3" font-family="Times,serif" font-size="14.00">updated_at :timestamp without time zone</text>
</g>
<!-- Consumer&#45;&gt;CreditCard -->
<g id="edge1" class="edge"><title>Consumer&#45;&gt;CreditCard</title>
<path fill="none" stroke="#6a46ef" d="M338.382,-438.829C308.291,-415.699 271.565,-387.468 236.975,-360.88"/>
<ellipse fill="none" stroke="#6a46ef" cx="341.605" cy="-441.307" rx="4.00002" ry="4.00002"/>
<polygon fill="#6a46ef" stroke="#6a46ef" points="236.63,-360.614 231.445,-350.952 232.666,-357.567 228.702,-354.52 228.702,-354.52 228.702,-354.52 232.666,-357.567 225.96,-358.088 236.63,-360.614 236.63,-360.614"/>
</g>
<!-- Picture -->
<g id="node3" class="node"><title>Picture</title>
<path fill="none" stroke="black" d="M813,-0.5C813,-0.5 1073,-0.5 1073,-0.5 1079,-0.5 1085,-6.5 1085,-12.5 1085,-12.5 1085,-139.5 1085,-139.5 1085,-145.5 1079,-151.5 1073,-151.5 1073,-151.5 813,-151.5 813,-151.5 807,-151.5 801,-145.5 801,-139.5 801,-139.5 801,-12.5 801,-12.5 801,-6.5 807,-0.5 813,-0.5"/>
<text text-anchor="middle" x="943" y="-136.3" font-family="Times,serif" font-size="14.00">Picture</text>
<polyline fill="none" stroke="black" points="801,-128.5 1085,-128.5 "/>
<text text-anchor="start" x="809" y="-113.3" font-family="Times,serif" font-size="14.00">id :integer</text>
<text text-anchor="start" x="809" y="-98.3" font-family="Times,serif" font-size="14.00">product_id :integer</text>
<text text-anchor="start" x="809" y="-83.3" font-family="Times,serif" font-size="14.00">created_at :timestamp without time zone</text>
<text text-anchor="start" x="809" y="-68.3" font-family="Times,serif" font-size="14.00">updated_at :timestamp without time zone</text>
<text text-anchor="start" x="809" y="-53.3" font-family="Times,serif" font-size="14.00">image_file_name :character varying</text>
<text text-anchor="start" x="809" y="-38.3" font-family="Times,serif" font-size="14.00">image_content_type :character varying</text>
<text text-anchor="start" x="809" y="-23.3" font-family="Times,serif" font-size="14.00">image_file_size :integer</text>
<text text-anchor="start" x="809" y="-8.3" font-family="Times,serif" font-size="14.00">image_updated_at :timestamp without time zone</text>
</g>
<!-- CartItem -->
<g id="node14" class="node"><title>CartItem</title>
<path fill="none" stroke="black" d="M283,-8C283,-8 503,-8 503,-8 509,-8 515,-14 515,-20 515,-20 515,-132 515,-132 515,-138 509,-144 503,-144 503,-144 283,-144 283,-144 277,-144 271,-138 271,-132 271,-132 271,-20 271,-20 271,-14 277,-8 283,-8"/>
<text text-anchor="middle" x="393" y="-128.8" font-family="Times,serif" font-size="14.00">CartItem</text>
<polyline fill="none" stroke="black" points="271,-121 515,-121 "/>
<text text-anchor="start" x="279" y="-105.8" font-family="Times,serif" font-size="14.00">id :integer</text>
<text text-anchor="start" x="279" y="-90.8" font-family="Times,serif" font-size="14.00">shopping_cart_id :integer</text>
<text text-anchor="start" x="279" y="-75.8" font-family="Times,serif" font-size="14.00">product_id :integer</text>
<text text-anchor="start" x="279" y="-60.8" font-family="Times,serif" font-size="14.00">quantity :double precision</text>
<text text-anchor="start" x="279" y="-45.8" font-family="Times,serif" font-size="14.00">unitary_price :double precision</text>
<text text-anchor="start" x="279" y="-30.8" font-family="Times,serif" font-size="14.00">created_at :timestamp without time zone</text>
<text text-anchor="start" x="279" y="-15.8" font-family="Times,serif" font-size="14.00">updated_at :timestamp without time zone</text>
</g>
<!-- ShoppingCart&#45;&gt;CartItem -->
<g id="edge4" class="edge"><title>ShoppingCart&#45;&gt;CartItem</title>
<path fill="none" stroke="#19edb4" d="M388.204,-180.113C388.603,-171.533 389.005,-162.885 389.398,-154.442"/>
<ellipse fill="none" stroke="#19edb4" cx="388.003" cy="-184.443" rx="4" ry="4"/>
<polygon fill="#19edb4" stroke="#19edb4" points="389.407,-154.252 394.367,-144.472 389.639,-149.258 389.871,-144.263 389.871,-144.263 389.871,-144.263 389.639,-149.258 385.376,-144.054 389.407,-154.252 389.407,-154.252"/>
</g>
<!-- Keyword -->
<g id="node5" class="node"><title>Keyword</title>
<path fill="none" stroke="black" d="M1115,-23C1115,-23 1335,-23 1335,-23 1341,-23 1347,-29 1347,-35 1347,-35 1347,-117 1347,-117 1347,-123 1341,-129 1335,-129 1335,-129 1115,-129 1115,-129 1109,-129 1103,-123 1103,-117 1103,-117 1103,-35 1103,-35 1103,-29 1109,-23 1115,-23"/>
<text text-anchor="middle" x="1225" y="-113.8" font-family="Times,serif" font-size="14.00">Keyword</text>
<polyline fill="none" stroke="black" points="1103,-106 1347,-106 "/>
<text text-anchor="start" x="1111" y="-90.8" font-family="Times,serif" font-size="14.00">id :integer</text>
<text text-anchor="start" x="1111" y="-75.8" font-family="Times,serif" font-size="14.00">product_id :integer</text>
<text text-anchor="start" x="1111" y="-60.8" font-family="Times,serif" font-size="14.00">word :character varying</text>
<text text-anchor="start" x="1111" y="-45.8" font-family="Times,serif" font-size="14.00">created_at :timestamp without time zone</text>
<text text-anchor="start" x="1111" y="-30.8" font-family="Times,serif" font-size="14.00">updated_at :timestamp without time zone</text>
</g>
<!-- Address -->
<g id="node6" class="node"><title>Address</title>
<path fill="none" stroke="black" d="M836,-391.5C836,-391.5 1056,-391.5 1056,-391.5 1062,-391.5 1068,-397.5 1068,-403.5 1068,-403.5 1068,-575.5 1068,-575.5 1068,-581.5 1062,-587.5 1056,-587.5 1056,-587.5 836,-587.5 836,-587.5 830,-587.5 824,-581.5 824,-575.5 824,-575.5 824,-403.5 824,-403.5 824,-397.5 830,-391.5 836,-391.5"/>
<text text-anchor="middle" x="946" y="-572.3" font-family="Times,serif" font-size="14.00">Address</text>
<polyline fill="none" stroke="black" points="824,-564.5 1068,-564.5 "/>
<text text-anchor="start" x="832" y="-549.3" font-family="Times,serif" font-size="14.00">id :integer</text>
<text text-anchor="start" x="832" y="-534.3" font-family="Times,serif" font-size="14.00">client_id :integer</text>
<text text-anchor="start" x="832" y="-519.3" font-family="Times,serif" font-size="14.00">cep :integer</text>
<text text-anchor="start" x="832" y="-504.3" font-family="Times,serif" font-size="14.00">street :character varying</text>
<text text-anchor="start" x="832" y="-489.3" font-family="Times,serif" font-size="14.00">number :integer</text>
<text text-anchor="start" x="832" y="-474.3" font-family="Times,serif" font-size="14.00">complement :character varying</text>
<text text-anchor="start" x="832" y="-459.3" font-family="Times,serif" font-size="14.00">neighborhood :character varying</text>
<text text-anchor="start" x="832" y="-444.3" font-family="Times,serif" font-size="14.00">city :character varying</text>
<text text-anchor="start" x="832" y="-429.3" font-family="Times,serif" font-size="14.00">country :character varying</text>
<text text-anchor="start" x="832" y="-414.3" font-family="Times,serif" font-size="14.00">created_at :timestamp without time zone</text>
<text text-anchor="start" x="832" y="-399.3" font-family="Times,serif" font-size="14.00">updated_at :timestamp without time zone</text>
</g>
<!-- ApplicationRecord -->
<g id="node7" class="node"><title>ApplicationRecord</title>
<ellipse fill="none" stroke="black" cx="1067" cy="-760" rx="77.1866" ry="18"/>
<text text-anchor="middle" x="1067" y="-756.3" font-family="Times,serif" font-size="14.00">ApplicationRecord</text>
</g>
<!-- Client -->
<g id="node8" class="node"><title>Client</title>
<path fill="none" stroke="black" d="M670.5,-624.5C670.5,-624.5 959.5,-624.5 959.5,-624.5 965.5,-624.5 971.5,-630.5 971.5,-636.5 971.5,-636.5 971.5,-883.5 971.5,-883.5 971.5,-889.5 965.5,-895.5 959.5,-895.5 959.5,-895.5 670.5,-895.5 670.5,-895.5 664.5,-895.5 658.5,-889.5 658.5,-883.5 658.5,-883.5 658.5,-636.5 658.5,-636.5 658.5,-630.5 664.5,-624.5 670.5,-624.5"/>
<text text-anchor="middle" x="815" y="-880.3" font-family="Times,serif" font-size="14.00">Client</text>
<polyline fill="none" stroke="black" points="658.5,-872.5 971.5,-872.5 "/>
<text text-anchor="start" x="666.5" y="-857.3" font-family="Times,serif" font-size="14.00">id :integer</text>
<text text-anchor="start" x="666.5" y="-842.3" font-family="Times,serif" font-size="14.00">login :character varying</text>
<text text-anchor="start" x="666.5" y="-827.3" font-family="Times,serif" font-size="14.00">name :character varying</text>
<text text-anchor="start" x="666.5" y="-812.3" font-family="Times,serif" font-size="14.00">cpf :character varying(11)</text>
<text text-anchor="start" x="666.5" y="-797.3" font-family="Times,serif" font-size="14.00">created_at :timestamp without time zone</text>
<text text-anchor="start" x="666.5" y="-782.3" font-family="Times,serif" font-size="14.00">updated_at :timestamp without time zone</text>
<text text-anchor="start" x="666.5" y="-767.3" font-family="Times,serif" font-size="14.00">email :character varying</text>
<text text-anchor="start" x="666.5" y="-752.3" font-family="Times,serif" font-size="14.00">encrypted_password :character varying</text>
<text text-anchor="start" x="666.5" y="-737.3" font-family="Times,serif" font-size="14.00">reset_password_token :character varying</text>
<text text-anchor="start" x="666.5" y="-722.3" font-family="Times,serif" font-size="14.00">reset_password_sent_at :timestamp without time zone</text>
<text text-anchor="start" x="666.5" y="-707.3" font-family="Times,serif" font-size="14.00">remember_created_at :timestamp without time zone</text>
<text text-anchor="start" x="666.5" y="-692.3" font-family="Times,serif" font-size="14.00">sign_in_count :integer</text>
<text text-anchor="start" x="666.5" y="-677.3" font-family="Times,serif" font-size="14.00">current_sign_in_at :timestamp without time zone</text>
<text text-anchor="start" x="666.5" y="-662.3" font-family="Times,serif" font-size="14.00">last_sign_in_at :timestamp without time zone</text>
<text text-anchor="start" x="666.5" y="-647.3" font-family="Times,serif" font-size="14.00">current_sign_in_ip :inet</text>
<text text-anchor="start" x="666.5" y="-632.3" font-family="Times,serif" font-size="14.00">last_sign_in_ip :inet</text>
</g>
<!-- Client&#45;&gt;Consumer -->
<g id="edge7" class="edge"><title>Client&#45;&gt;Consumer</title>
<path fill="none" stroke="#404870" d="M651.296,-625.327C650.531,-624.881 649.765,-624.439 649,-624 609.473,-601.328 593.677,-608.538 553,-588 525.503,-574.116 496.798,-556.357 471.949,-539.808"/>
<ellipse fill="none" stroke="#404870" cx="654.746" cy="-627.381" rx="4.00002" ry="4.00002"/>
<ellipse fill="#404870" stroke="#404870" cx="468.368" cy="-537.405" rx="4.00002" ry="4.00002"/>
</g>
<!-- Client&#45;&gt;Address -->
<g id="edge6" class="edge"><title>Client&#45;&gt;Address</title>
<path fill="none" stroke="#5e73e8" d="M884.244,-617.077C887.594,-610.21 890.931,-603.37 894.22,-596.629"/>
<ellipse fill="none" stroke="#5e73e8" cx="882.446" cy="-620.762" rx="4.00002" ry="4.00002"/>
<polygon fill="#5e73e8" stroke="#5e73e8" points="894.287,-596.492 902.716,-589.478 896.479,-591.999 898.672,-587.505 898.672,-587.505 898.672,-587.505 896.479,-591.999 894.627,-585.532 894.287,-596.492 894.287,-596.492"/>
</g>
<!-- Telephone -->
<g id="node10" class="node"><title>Telephone</title>
<path fill="none" stroke="black" d="M1098,-436.5C1098,-436.5 1318,-436.5 1318,-436.5 1324,-436.5 1330,-442.5 1330,-448.5 1330,-448.5 1330,-530.5 1330,-530.5 1330,-536.5 1324,-542.5 1318,-542.5 1318,-542.5 1098,-542.5 1098,-542.5 1092,-542.5 1086,-536.5 1086,-530.5 1086,-530.5 1086,-448.5 1086,-448.5 1086,-442.5 1092,-436.5 1098,-436.5"/>
<text text-anchor="middle" x="1208" y="-527.3" font-family="Times,serif" font-size="14.00">Telephone</text>
<polyline fill="none" stroke="black" points="1086,-519.5 1330,-519.5 "/>
<text text-anchor="start" x="1094" y="-504.3" font-family="Times,serif" font-size="14.00">id :integer</text>
<text text-anchor="start" x="1094" y="-489.3" font-family="Times,serif" font-size="14.00">client_id :integer</text>
<text text-anchor="start" x="1094" y="-474.3" font-family="Times,serif" font-size="14.00">telephone :integer</text>
<text text-anchor="start" x="1094" y="-459.3" font-family="Times,serif" font-size="14.00">created_at :timestamp without time zone</text>
<text text-anchor="start" x="1094" y="-444.3" font-family="Times,serif" font-size="14.00">updated_at :timestamp without time zone</text>
</g>
<!-- Client&#45;&gt;Telephone -->
<g id="edge5" class="edge"><title>Client&#45;&gt;Telephone</title>
<path fill="none" stroke="#cded43" d="M978.704,-625.327C979.469,-624.881 980.235,-624.439 981,-624 1020.53,-601.328 1036.99,-609.818 1077,-588 1097.49,-576.826 1118.35,-562.756 1137.22,-548.809"/>
<ellipse fill="none" stroke="#cded43" cx="975.254" cy="-627.381" rx="4.00002" ry="4.00002"/>
<polygon fill="#cded43" stroke="#cded43" points="1137.45,-548.632 1148.15,-546.236 1141.45,-545.633 1145.46,-542.635 1145.46,-542.635 1145.46,-542.635 1141.45,-545.633 1142.76,-539.034 1137.45,-548.632 1137.45,-548.632"/>
</g>
<!-- Professional -->
<g id="node11" class="node"><title>Professional</title>
<path fill="none" stroke="black" d="M574,-444C574,-444 794,-444 794,-444 800,-444 806,-450 806,-456 806,-456 806,-523 806,-523 806,-529 800,-535 794,-535 794,-535 574,-535 574,-535 568,-535 562,-529 562,-523 562,-523 562,-456 562,-456 562,-450 568,-444 574,-444"/>
<text text-anchor="middle" x="684" y="-519.8" font-family="Times,serif" font-size="14.00">Professional</text>
<polyline fill="none" stroke="black" points="562,-512 806,-512 "/>
<text text-anchor="start" x="570" y="-496.8" font-family="Times,serif" font-size="14.00">id :integer</text>
<text text-anchor="start" x="570" y="-481.8" font-family="Times,serif" font-size="14.00">client_id :integer</text>
<text text-anchor="start" x="570" y="-466.8" font-family="Times,serif" font-size="14.00">created_at :timestamp without time zone</text>
<text text-anchor="start" x="570" y="-451.8" font-family="Times,serif" font-size="14.00">updated_at :timestamp without time zone</text>
</g>
<!-- Client&#45;&gt;Professional -->
<g id="edge8" class="edge"><title>Client&#45;&gt;Professional</title>
<path fill="none" stroke="#5d06bb" d="M745.629,-616.817C732.699,-590.314 719.97,-564.225 709.468,-542.7"/>
<ellipse fill="none" stroke="#5d06bb" cx="747.554" cy="-620.762" rx="4.00002" ry="4.00002"/>
<ellipse fill="#5d06bb" stroke="#5d06bb" cx="707.604" cy="-538.879" rx="4.00002" ry="4.00002"/>
</g>
<!-- Banking -->
<g id="node13" class="node"><title>Banking</title>
<path fill="none" stroke="black" d="M574,-203.5C574,-203.5 794,-203.5 794,-203.5 800,-203.5 806,-209.5 806,-215.5 806,-215.5 806,-327.5 806,-327.5 806,-333.5 800,-339.5 794,-339.5 794,-339.5 574,-339.5 574,-339.5 568,-339.5 562,-333.5 562,-327.5 562,-327.5 562,-215.5 562,-215.5 562,-209.5 568,-203.5 574,-203.5"/>
<text text-anchor="middle" x="684" y="-324.3" font-family="Times,serif" font-size="14.00">Banking</text>
<polyline fill="none" stroke="black" points="562,-316.5 806,-316.5 "/>
<text text-anchor="start" x="570" y="-301.3" font-family="Times,serif" font-size="14.00">id :integer</text>
<text text-anchor="start" x="570" y="-286.3" font-family="Times,serif" font-size="14.00">professional_id :integer</text>
<text text-anchor="start" x="570" y="-271.3" font-family="Times,serif" font-size="14.00">bank :integer</text>
<text text-anchor="start" x="570" y="-256.3" font-family="Times,serif" font-size="14.00">agency :integer</text>
<text text-anchor="start" x="570" y="-241.3" font-family="Times,serif" font-size="14.00">account :integer</text>
<text text-anchor="start" x="570" y="-226.3" font-family="Times,serif" font-size="14.00">created_at :timestamp without time zone</text>
<text text-anchor="start" x="570" y="-211.3" font-family="Times,serif" font-size="14.00">updated_at :timestamp without time zone</text>
</g>
<!-- Professional&#45;&gt;Banking -->
<g id="edge9" class="edge"><title>Professional&#45;&gt;Banking</title>
<path fill="none" stroke="#6e2f81" d="M684,-435.419C684,-409.719 684,-378.364 684,-350.051"/>
<ellipse fill="none" stroke="#6e2f81" cx="684" cy="-439.745" rx="4" ry="4"/>
<polygon fill="#6e2f81" stroke="#6e2f81" points="684,-349.773 688.5,-339.773 684,-344.773 684,-339.773 684,-339.773 684,-339.773 684,-344.773 679.5,-339.773 684,-349.773 684,-349.773"/>
</g>
<!-- Product -->
<g id="node15" class="node"><title>Product</title>
<path fill="none" stroke="black" d="M836,-188.5C836,-188.5 1056,-188.5 1056,-188.5 1062,-188.5 1068,-194.5 1068,-200.5 1068,-200.5 1068,-342.5 1068,-342.5 1068,-348.5 1062,-354.5 1056,-354.5 1056,-354.5 836,-354.5 836,-354.5 830,-354.5 824,-348.5 824,-342.5 824,-342.5 824,-200.5 824,-200.5 824,-194.5 830,-188.5 836,-188.5"/>
<text text-anchor="middle" x="946" y="-339.3" font-family="Times,serif" font-size="14.00">Product</text>
<polyline fill="none" stroke="black" points="824,-331.5 1068,-331.5 "/>
<text text-anchor="start" x="832" y="-316.3" font-family="Times,serif" font-size="14.00">id :integer</text>
<text text-anchor="start" x="832" y="-301.3" font-family="Times,serif" font-size="14.00">professional_id :integer</text>
<text text-anchor="start" x="832" y="-286.3" font-family="Times,serif" font-size="14.00">name :character varying</text>
<text text-anchor="start" x="832" y="-271.3" font-family="Times,serif" font-size="14.00">description :text</text>
<text text-anchor="start" x="832" y="-256.3" font-family="Times,serif" font-size="14.00">price :double precision</text>
<text text-anchor="start" x="832" y="-241.3" font-family="Times,serif" font-size="14.00">rating :integer</text>
<text text-anchor="start" x="832" y="-226.3" font-family="Times,serif" font-size="14.00">maxQuantity :integer</text>
<text text-anchor="start" x="832" y="-211.3" font-family="Times,serif" font-size="14.00">created_at :timestamp without time zone</text>
<text text-anchor="start" x="832" y="-196.3" font-family="Times,serif" font-size="14.00">updated_at :timestamp without time zone</text>
</g>
<!-- Professional&#45;&gt;Product -->
<g id="edge10" class="edge"><title>Professional&#45;&gt;Product</title>
<path fill="none" stroke="#7f4bed" d="M744.628,-438.517C772.505,-415.534 806.428,-387.567 838.424,-361.188"/>
<ellipse fill="none" stroke="#7f4bed" cx="741.373" cy="-441.2" rx="4.00002" ry="4.00002"/>
<polygon fill="#7f4bed" stroke="#7f4bed" points="838.797,-360.881 849.375,-357.992 842.655,-357.701 846.513,-354.52 846.513,-354.52 846.513,-354.52 842.655,-357.701 843.65,-351.048 838.797,-360.881 838.797,-360.881"/>
</g>
<!-- Product&#45;&gt;Picture -->
<g id="edge13" class="edge"><title>Product&#45;&gt;Picture</title>
<path fill="none" stroke="#91a2a8" d="M944.602,-180.357C944.507,-174.171 944.41,-167.949 944.315,-161.793"/>
<ellipse fill="none" stroke="#91a2a8" cx="944.666" cy="-184.439" rx="4" ry="4"/>
<polygon fill="#91a2a8" stroke="#91a2a8" points="944.31,-161.51 948.655,-151.442 944.233,-156.511 944.155,-151.512 944.155,-151.512 944.155,-151.512 944.233,-156.511 939.656,-151.581 944.31,-161.51 944.31,-161.51"/>
</g>
<!-- Product&#45;&gt;Keyword -->
<g id="edge12" class="edge"><title>Product&#45;&gt;Keyword</title>
<path fill="none" stroke="#c4e68f" d="M1071.13,-183.717C1094.94,-167.205 1119.31,-150.302 1141.43,-134.959"/>
<ellipse fill="none" stroke="#c4e68f" cx="1067.61" cy="-186.159" rx="4.00002" ry="4.00002"/>
<polygon fill="#c4e68f" stroke="#c4e68f" points="1141.58,-134.858 1152.36,-132.856 1145.69,-132.008 1149.79,-129.159 1149.79,-129.159 1149.79,-129.159 1145.69,-132.008 1147.23,-125.461 1141.58,-134.858 1141.58,-134.858"/>
</g>
<!-- Product&#45;&gt;Transaction -->
<g id="edge11" class="edge"><title>Product&#45;&gt;Transaction</title>
<path fill="none" stroke="#a33d61" d="M817.448,-183.828C804.327,-174.982 791.037,-166.021 778.023,-157.247"/>
<ellipse fill="none" stroke="#a33d61" cx="820.97" cy="-186.202" rx="4.00002" ry="4.00002"/>
<polygon fill="#a33d61" stroke="#a33d61" points="777.807,-157.102 772.032,-147.78 773.662,-154.307 769.516,-151.512 769.516,-151.512 769.516,-151.512 773.662,-154.307 767,-155.243 777.807,-157.102 777.807,-157.102"/>
</g>
<!-- Product&#45;&gt;CartItem -->
<g id="edge14" class="edge"><title>Product&#45;&gt;CartItem</title>
<path fill="none" stroke="#74825e" d="M816.092,-188.394C815.728,-188.261 815.364,-188.13 815,-188 693.951,-144.716 650.192,-191.944 528,-152 524.167,-150.747 520.319,-149.383 516.47,-147.924"/>
<ellipse fill="none" stroke="#74825e" cx="820" cy="-189.897" rx="4.00001" ry="4.00001"/>
<polygon fill="#74825e" stroke="#74825e" points="516.2,-147.816 508.577,-139.934 511.556,-145.965 506.911,-144.114 506.911,-144.114 506.911,-144.114 511.556,-145.965 505.245,-148.294 516.2,-147.816 516.2,-147.816"/>
</g>
</g>
</svg>
