<?xml version="1.0" encoding="UTF-8" standalone="no"?>
<!DOCTYPE svg PUBLIC "-//W3C//DTD SVG 1.1//EN"
 "http://www.w3.org/Graphics/SVG/1.1/DTD/svg11.dtd">
<!-- Generated by graphviz version 2.38.0 (20140413.2041)
 -->
<!-- Title: models_diagram Pages: 1 -->
<svg width="616pt" height="302pt"
 viewBox="0.00 0.00 616.14 302.00" xmlns="http://www.w3.org/2000/svg" xmlns:xlink="http://www.w3.org/1999/xlink">
<g id="graph0" class="graph" transform="scale(1 1) rotate(0) translate(4 298)">
<title>models_diagram</title>
<polygon fill="none" stroke="none" points="-4,4 -4,-298 612.14,-298 612.14,4 -4,4"/>
<!-- _diagram_info -->
<g id="node1" class="node"><title>_diagram_info</title>
<text text-anchor="start" x="25.7947" y="-279.6" font-family="Times,serif" font-size="13.00">Models diagram</text>
<text text-anchor="start" x="25.7947" y="-265.6" font-family="Times,serif" font-size="13.00">Date: Oct 10 2016 &#45; 23:10</text>
<text text-anchor="start" x="25.7947" y="-251.6" font-family="Times,serif" font-size="13.00">Migration version: 20161004024401</text>
<text text-anchor="start" x="25.7947" y="-237.6" font-family="Times,serif" font-size="13.00">Generated by RailRoady 1.5.2</text>
<text text-anchor="start" x="25.7947" y="-223.6" font-family="Times,serif" font-size="13.00">http://railroady.prestonlee.com</text>
</g>
<!-- Consumer -->
<g id="node2" class="node"><title>Consumer</title>
<ellipse fill="none" stroke="black" cx="123.795" cy="-162" rx="47.3916" ry="18"/>
<text text-anchor="middle" x="123.795" y="-158.3" font-family="Times,serif" font-size="14.00">Consumer</text>
</g>
<!-- ShoppingCart -->
<g id="node4" class="node"><title>ShoppingCart</title>
<ellipse fill="none" stroke="black" cx="59.7947" cy="-90" rx="59.5901" ry="18"/>
<text text-anchor="middle" x="59.7947" y="-86.3" font-family="Times,serif" font-size="14.00">ShoppingCart</text>
</g>
<!-- Consumer&#45;&gt;ShoppingCart -->
<g id="edge3" class="edge"><title>Consumer&#45;&gt;ShoppingCart</title>
<path fill="none" stroke="#74a28e" d="M103.437,-138.734C96.6667,-131.329 89.0915,-123.043 82.1769,-115.481"/>
<ellipse fill="none" stroke="#74a28e" cx="106.252" cy="-141.813" rx="4.00002" ry="4.00002"/>
<polygon fill="#74a28e" stroke="#74a28e" points="81.7501,-115.014 78.3235,-104.597 78.3762,-111.324 75.0024,-107.633 75.0024,-107.633 75.0024,-107.633 78.3762,-111.324 71.6812,-110.67 81.7501,-115.014 81.7501,-115.014"/>
</g>
<!-- Transaction -->
<g id="node10" class="node"><title>Transaction</title>
<ellipse fill="none" stroke="black" cx="259.795" cy="-18" rx="51.9908" ry="18"/>
<text text-anchor="middle" x="259.795" y="-14.3" font-family="Times,serif" font-size="14.00">Transaction</text>
</g>
<!-- Consumer&#45;&gt;Transaction -->
<g id="edge2" class="edge"><title>Consumer&#45;&gt;Transaction</title>
<path fill="none" stroke="#54c147" d="M131.298,-136.015C138.09,-116.726 149.676,-90.3228 166.795,-72 180.711,-57.1053 199.775,-45.2444 217.021,-36.552"/>
<ellipse fill="none" stroke="#54c147" cx="129.954" cy="-140.01" rx="4.00001" ry="4.00001"/>
<polygon fill="#54c147" stroke="#54c147" points="217.361,-36.3884 228.323,-36.1042 221.866,-34.2191 226.371,-32.0497 226.371,-32.0497 226.371,-32.0497 221.866,-34.2191 224.418,-27.9953 217.361,-36.3884 217.361,-36.3884"/>
</g>
<!-- CreditCard -->
<g id="node13" class="node"><title>CreditCard</title>
<ellipse fill="none" stroke="black" cx="225.795" cy="-90" rx="50.0912" ry="18"/>
<text text-anchor="middle" x="225.795" y="-86.3" font-family="Times,serif" font-size="14.00">CreditCard</text>
</g>
<!-- Consumer&#45;&gt;CreditCard -->
<g id="edge1" class="edge"><title>Consumer&#45;&gt;CreditCard</title>
<path fill="none" stroke="#c656ce" d="M152.368,-141.391C165.668,-132.263 181.509,-121.392 195.067,-112.087"/>
<ellipse fill="none" stroke="#c656ce" cx="148.974" cy="-143.72" rx="4.00002" ry="4.00002"/>
<polygon fill="#c656ce" stroke="#c656ce" points="195.352,-111.892 206.144,-109.944 199.475,-109.063 203.597,-106.233 203.597,-106.233 203.597,-106.233 199.475,-109.063 201.051,-102.523 195.352,-111.892 195.352,-111.892"/>
</g>
<!-- Picture -->
<g id="node3" class="node"><title>Picture</title>
<ellipse fill="none" stroke="black" cx="405.795" cy="-18" rx="35.9954" ry="18"/>
<text text-anchor="middle" x="405.795" y="-14.3" font-family="Times,serif" font-size="14.00">Picture</text>
</g>
<!-- CartItem -->
<g id="node15" class="node"><title>CartItem</title>
<ellipse fill="none" stroke="black" cx="59.7947" cy="-18" rx="42.4939" ry="18"/>
<text text-anchor="middle" x="59.7947" y="-14.3" font-family="Times,serif" font-size="14.00">CartItem</text>
</g>
<!-- ShoppingCart&#45;&gt;CartItem -->
<g id="edge4" class="edge"><title>ShoppingCart&#45;&gt;CartItem</title>
<path fill="none" stroke="#1d211a" d="M59.7947,-63.6398C59.7947,-58.0629 59.7947,-52.1319 59.7947,-46.4761"/>
<ellipse fill="none" stroke="#1d211a" cx="59.7947" cy="-67.6966" rx="4" ry="4"/>
<polygon fill="#1d211a" stroke="#1d211a" points="59.7948,-46.1043 64.2947,-36.1043 59.7947,-41.1043 59.7947,-36.1043 59.7947,-36.1043 59.7947,-36.1043 59.7947,-41.1043 55.2947,-36.1044 59.7948,-46.1043 59.7948,-46.1043"/>
</g>
<!-- Keyword -->
<g id="node5" class="node"><title>Keyword</title>
<ellipse fill="none" stroke="black" cx="502.795" cy="-18" rx="43.5923" ry="18"/>
<text text-anchor="middle" x="502.795" y="-14.3" font-family="Times,serif" font-size="14.00">Keyword</text>
</g>
<!-- Address -->
<g id="node6" class="node"><title>Address</title>
<ellipse fill="none" stroke="black" cx="228.795" cy="-162" rx="39.7935" ry="18"/>
<text text-anchor="middle" x="228.795" y="-158.3" font-family="Times,serif" font-size="14.00">Address</text>
</g>
<!-- ApplicationRecord -->
<g id="node7" class="node"><title>ApplicationRecord</title>
<ellipse fill="none" stroke="black" cx="409.795" cy="-255" rx="77.1866" ry="18"/>
<text text-anchor="middle" x="409.795" y="-251.3" font-family="Times,serif" font-size="14.00">ApplicationRecord</text>
</g>
<!-- MainClient -->
<g id="node8" class="node"><title>MainClient</title>
<ellipse fill="none" stroke="black" cx="556.795" cy="-255" rx="51.1914" ry="18"/>
<text text-anchor="middle" x="556.795" y="-251.3" font-family="Times,serif" font-size="14.00">MainClient</text>
</g>
<!-- Client -->
<g id="node9" class="node"><title>Client</title>
<ellipse fill="none" stroke="black" cx="281.795" cy="-255" rx="32.4942" ry="18"/>
<text text-anchor="middle" x="281.795" y="-251.3" font-family="Times,serif" font-size="14.00">Client</text>
</g>
<!-- Client&#45;&gt;Consumer -->
<g id="edge7" class="edge"><title>Client&#45;&gt;Consumer</title>
<path fill="none" stroke="#fbb674" d="M261.611,-232.885C255.298,-226.965 248.07,-220.833 240.795,-216 217.182,-200.313 188.168,-187.136 164.94,-177.844"/>
<ellipse fill="none" stroke="#fbb674" cx="264.716" cy="-235.894" rx="4.00002" ry="4.00002"/>
<ellipse fill="#fbb674" stroke="#fbb674" cx="161.024" cy="-176.307" rx="4.00001" ry="4.00001"/>
</g>
<!-- Client&#45;&gt;Address -->
<g id="edge6" class="edge"><title>Client&#45;&gt;Address</title>
<path fill="none" stroke="#3eaed2" d="M268.277,-230.791C260.736,-217.843 251.333,-201.697 243.594,-188.411"/>
<ellipse fill="none" stroke="#3eaed2" cx="270.306" cy="-234.275" rx="4.00002" ry="4.00002"/>
<polygon fill="#3eaed2" stroke="#3eaed2" points="243.579,-188.385 242.435,-177.479 241.063,-184.064 238.547,-179.744 238.547,-179.744 238.547,-179.744 241.063,-184.064 234.658,-182.009 243.579,-188.385 243.579,-188.385"/>
</g>
<!-- Telephone -->
<g id="node11" class="node"><title>Telephone</title>
<ellipse fill="none" stroke="black" cx="334.795" cy="-162" rx="48.1917" ry="18"/>
<text text-anchor="middle" x="334.795" y="-158.3" font-family="Times,serif" font-size="14.00">Telephone</text>
</g>
<!-- Client&#45;&gt;Telephone -->
<g id="edge5" class="edge"><title>Client&#45;&gt;Telephone</title>
<path fill="none" stroke="#dd2e2f" d="M295.312,-230.791C302.853,-217.843 312.257,-201.697 319.995,-188.411"/>
<ellipse fill="none" stroke="#dd2e2f" cx="293.283" cy="-234.275" rx="4.00002" ry="4.00002"/>
<polygon fill="#dd2e2f" stroke="#dd2e2f" points="320.01,-188.385 328.931,-182.009 322.526,-184.064 325.043,-179.744 325.043,-179.744 325.043,-179.744 322.526,-184.064 321.154,-177.479 320.01,-188.385 320.01,-188.385"/>
</g>
<!-- Professional -->
<g id="node12" class="node"><title>Professional</title>
<ellipse fill="none" stroke="black" cx="454.795" cy="-162" rx="53.8905" ry="18"/>
<text text-anchor="middle" x="454.795" y="-158.3" font-family="Times,serif" font-size="14.00">Professional</text>
</g>
<!-- Client&#45;&gt;Professional -->
<g id="edge8" class="edge"><title>Client&#45;&gt;Professional</title>
<path fill="none" stroke="#865b74" d="M302.413,-232.717C308.879,-226.793 316.296,-220.701 323.795,-216 350.074,-199.526 382.346,-186.398 408.282,-177.328"/>
<ellipse fill="none" stroke="#865b74" cx="299.196" cy="-235.773" rx="4.00002" ry="4.00002"/>
<ellipse fill="#865b74" stroke="#865b74" cx="412.33" cy="-175.941" rx="4.00001" ry="4.00001"/>
</g>
<!-- Banking -->
<g id="node14" class="node"><title>Banking</title>
<ellipse fill="none" stroke="black" cx="357.795" cy="-90" rx="40.0939" ry="18"/>
<text text-anchor="middle" x="357.795" y="-86.3" font-family="Times,serif" font-size="14.00">Banking</text>
</g>
<!-- Professional&#45;&gt;Banking -->
<g id="edge9" class="edge"><title>Professional&#45;&gt;Banking</title>
<path fill="none" stroke="#6111ef" d="M426.438,-140.537C413.899,-131.488 399.176,-120.863 386.587,-111.778"/>
<ellipse fill="none" stroke="#6111ef" cx="430.024" cy="-143.124" rx="4.00002" ry="4.00002"/>
<polygon fill="#6111ef" stroke="#6111ef" points="386.375,-111.625 380.899,-102.124 382.32,-108.699 378.266,-105.773 378.266,-105.773 378.266,-105.773 382.32,-108.699 375.633,-109.422 386.375,-111.625 386.375,-111.625"/>
</g>
<!-- Product -->
<g id="node16" class="node"><title>Product</title>
<ellipse fill="none" stroke="black" cx="454.795" cy="-90" rx="38.1938" ry="18"/>
<text text-anchor="middle" x="454.795" y="-86.3" font-family="Times,serif" font-size="14.00">Product</text>
</g>
<!-- Professional&#45;&gt;Product -->
<g id="edge10" class="edge"><title>Professional&#45;&gt;Product</title>
<path fill="none" stroke="#790948" d="M454.795,-135.64C454.795,-130.063 454.795,-124.132 454.795,-118.476"/>
<ellipse fill="none" stroke="#790948" cx="454.795" cy="-139.697" rx="4" ry="4"/>
<polygon fill="#790948" stroke="#790948" points="454.795,-118.104 459.295,-108.104 454.795,-113.104 454.795,-108.104 454.795,-108.104 454.795,-108.104 454.795,-113.104 450.295,-108.104 454.795,-118.104 454.795,-118.104"/>
</g>
<!-- Product&#45;&gt;Picture -->
<g id="edge13" class="edge"><title>Product&#45;&gt;Picture</title>
<path fill="none" stroke="#5c4680" d="M438.738,-66.0612C433.653,-58.7973 428.015,-50.7437 422.862,-43.3822"/>
<ellipse fill="none" stroke="#5c4680" cx="441.136" cy="-69.4877" rx="4.00002" ry="4.00002"/>
<polygon fill="#5c4680" stroke="#5c4680" points="422.832,-43.3396 420.784,-32.5667 419.965,-39.2435 417.098,-35.1473 417.098,-35.1473 417.098,-35.1473 419.965,-39.2435 413.411,-37.7279 422.832,-43.3396 422.832,-43.3396"/>
</g>
<!-- Product&#45;&gt;Keyword -->
<g id="edge12" class="edge"><title>Product&#45;&gt;Keyword</title>
<path fill="none" stroke="#e79840" d="M470.456,-66.1611C475.254,-59.1636 480.56,-51.4255 485.463,-44.2755"/>
<ellipse fill="none" stroke="#e79840" cx="468.19" cy="-69.4657" rx="4.00002" ry="4.00002"/>
<polygon fill="#e79840" stroke="#e79840" points="485.734,-43.8807 495.1,-38.1783 488.561,-39.7571 491.389,-35.6334 491.389,-35.6334 491.389,-35.6334 488.561,-39.7571 487.678,-33.0885 485.734,-43.8807 485.734,-43.8807"/>
</g>
<!-- Product&#45;&gt;Transaction -->
<g id="edge11" class="edge"><title>Product&#45;&gt;Transaction</title>
<path fill="none" stroke="#924e21" d="M417.455,-75.5961C385.215,-64.0226 338.568,-47.2774 304.376,-35.0037"/>
<ellipse fill="none" stroke="#924e21" cx="421.414" cy="-77.017" rx="4.00001" ry="4.00001"/>
<polygon fill="#924e21" stroke="#924e21" points="304.053,-34.8876 296.161,-27.2735 299.347,-33.1983 294.641,-31.5089 294.641,-31.5089 294.641,-31.5089 299.347,-33.1983 293.121,-35.7443 304.053,-34.8876 304.053,-34.8876"/>
</g>
</g>
</svg>
