<?xml version="1.0" encoding="UTF-8" standalone="no"?>
<!DOCTYPE svg PUBLIC "-//W3C//DTD SVG 1.1//EN"
 "http://www.w3.org/Graphics/SVG/1.1/DTD/svg11.dtd">
<!-- Generated by graphviz version 2.38.0 (20140413.2041)
 -->
<!-- Title: models_diagram Pages: 1 -->
<svg width="1562pt" height="964pt"
 viewBox="0.00 0.00 1562.00 964.00" xmlns="http://www.w3.org/2000/svg" xmlns:xlink="http://www.w3.org/1999/xlink">
<g id="graph0" class="graph" transform="scale(1 1) rotate(0) translate(4 960)">
<title>models_diagram</title>
<polygon fill="none" stroke="none" points="-4,4 -4,-960 1558,-960 1558,4 -4,4"/>
<!-- _diagram_info -->
<g id="node1" class="node"><title>_diagram_info</title>
<text text-anchor="start" x="396" y="-844.6" font-family="Times,serif" font-size="13.00">Models diagram</text>
<text text-anchor="start" x="396" y="-830.6" font-family="Times,serif" font-size="13.00">Date: Nov 02 2016 &#45; 18:22</text>
<text text-anchor="start" x="396" y="-816.6" font-family="Times,serif" font-size="13.00">Migration version: 20161102200708</text>
<text text-anchor="start" x="396" y="-802.6" font-family="Times,serif" font-size="13.00">Generated by RailRoady 1.5.2</text>
<text text-anchor="start" x="396" y="-788.6" font-family="Times,serif" font-size="13.00">http://railroady.prestonlee.com</text>
</g>
<!-- Consumer -->
<g id="node2" class="node"><title>Consumer</title>
<path fill="none" stroke="black" d="M1060,-489C1060,-489 1280,-489 1280,-489 1286,-489 1292,-495 1292,-501 1292,-501 1292,-568 1292,-568 1292,-574 1286,-580 1280,-580 1280,-580 1060,-580 1060,-580 1054,-580 1048,-574 1048,-568 1048,-568 1048,-501 1048,-501 1048,-495 1054,-489 1060,-489"/>
<text text-anchor="middle" x="1170" y="-564.8" font-family="Times,serif" font-size="14.00">Consumer</text>
<polyline fill="none" stroke="black" points="1048,-557 1292,-557 "/>
<text text-anchor="start" x="1056" y="-541.8" font-family="Times,serif" font-size="14.00">id :integer</text>
<text text-anchor="start" x="1056" y="-526.8" font-family="Times,serif" font-size="14.00">client_id :integer</text>
<text text-anchor="start" x="1056" y="-511.8" font-family="Times,serif" font-size="14.00">created_at :timestamp without time zone</text>
<text text-anchor="start" x="1056" y="-496.8" font-family="Times,serif" font-size="14.00">updated_at :timestamp without time zone</text>
</g>
<!-- ShoppingCart -->
<g id="node4" class="node"><title>ShoppingCart</title>
<path fill="none" stroke="black" d="M1060,-203.5C1060,-203.5 1280,-203.5 1280,-203.5 1286,-203.5 1292,-209.5 1292,-215.5 1292,-215.5 1292,-357.5 1292,-357.5 1292,-363.5 1286,-369.5 1280,-369.5 1280,-369.5 1060,-369.5 1060,-369.5 1054,-369.5 1048,-363.5 1048,-357.5 1048,-357.5 1048,-215.5 1048,-215.5 1048,-209.5 1054,-203.5 1060,-203.5"/>
<text text-anchor="middle" x="1170" y="-354.3" font-family="Times,serif" font-size="14.00">ShoppingCart</text>
<polyline fill="none" stroke="black" points="1048,-346.5 1292,-346.5 "/>
<text text-anchor="start" x="1056" y="-331.3" font-family="Times,serif" font-size="14.00">id :integer</text>
<text text-anchor="start" x="1056" y="-316.3" font-family="Times,serif" font-size="14.00">consumer_id :integer</text>
<text text-anchor="start" x="1056" y="-301.3" font-family="Times,serif" font-size="14.00">status :integer</text>
<text text-anchor="start" x="1056" y="-286.3" font-family="Times,serif" font-size="14.00">fees :double precision</text>
<text text-anchor="start" x="1056" y="-271.3" font-family="Times,serif" font-size="14.00">gain :double precision</text>
<text text-anchor="start" x="1056" y="-256.3" font-family="Times,serif" font-size="14.00">promotion_discount :double precision</text>
<text text-anchor="start" x="1056" y="-241.3" font-family="Times,serif" font-size="14.00">total_paid :double precision</text>
<text text-anchor="start" x="1056" y="-226.3" font-family="Times,serif" font-size="14.00">created_at :timestamp without time zone</text>
<text text-anchor="start" x="1056" y="-211.3" font-family="Times,serif" font-size="14.00">updated_at :timestamp without time zone</text>
</g>
<!-- Consumer&#45;&gt;ShoppingCart -->
<g id="edge2" class="edge"><title>Consumer&#45;&gt;ShoppingCart</title>
<path fill="none" stroke="#ab4120" d="M1170,-480.932C1170,-451.432 1170,-413.779 1170,-379.547"/>
<ellipse fill="none" stroke="#ab4120" cx="1170" cy="-484.951" rx="4" ry="4"/>
<polygon fill="#ab4120" stroke="#ab4120" points="1170,-379.521 1174.5,-369.521 1170,-374.521 1170,-369.521 1170,-369.521 1170,-369.521 1170,-374.521 1165.5,-369.521 1170,-379.521 1170,-379.521"/>
</g>
<!-- Event -->
<g id="node10" class="node"><title>Event</title>
<path fill="none" stroke="black" d="M798,-188.5C798,-188.5 1018,-188.5 1018,-188.5 1024,-188.5 1030,-194.5 1030,-200.5 1030,-200.5 1030,-372.5 1030,-372.5 1030,-378.5 1024,-384.5 1018,-384.5 1018,-384.5 798,-384.5 798,-384.5 792,-384.5 786,-378.5 786,-372.5 786,-372.5 786,-200.5 786,-200.5 786,-194.5 792,-188.5 798,-188.5"/>
<text text-anchor="middle" x="908" y="-369.3" font-family="Times,serif" font-size="14.00">Event</text>
<polyline fill="none" stroke="black" points="786,-361.5 1030,-361.5 "/>
<text text-anchor="start" x="794" y="-346.3" font-family="Times,serif" font-size="14.00">id :integer</text>
<text text-anchor="start" x="794" y="-331.3" font-family="Times,serif" font-size="14.00">consumer_id :integer</text>
<text text-anchor="start" x="794" y="-316.3" font-family="Times,serif" font-size="14.00">event_data :date</text>
<text text-anchor="start" x="794" y="-301.3" font-family="Times,serif" font-size="14.00">hour :time without time zone</text>
<text text-anchor="start" x="794" y="-286.3" font-family="Times,serif" font-size="14.00">attendants :integer</text>
<text text-anchor="start" x="794" y="-271.3" font-family="Times,serif" font-size="14.00">address_id :integer</text>
<text text-anchor="start" x="794" y="-256.3" font-family="Times,serif" font-size="14.00">duration :time without time zone</text>
<text text-anchor="start" x="794" y="-241.3" font-family="Times,serif" font-size="14.00">estimated_price_from :numeric</text>
<text text-anchor="start" x="794" y="-226.3" font-family="Times,serif" font-size="14.00">estimated_price_until :numeric</text>
<text text-anchor="start" x="794" y="-211.3" font-family="Times,serif" font-size="14.00">created_at :timestamp without time zone</text>
<text text-anchor="start" x="794" y="-196.3" font-family="Times,serif" font-size="14.00">updated_at :timestamp without time zone</text>
</g>
<!-- Consumer&#45;&gt;Event -->
<g id="edge3" class="edge"><title>Consumer&#45;&gt;Event</title>
<path fill="none" stroke="#f9eef1" d="M1116.63,-483.385C1088.52,-456.994 1052.95,-423.6 1019.18,-391.895"/>
<ellipse fill="none" stroke="#f9eef1" cx="1119.64" cy="-486.213" rx="4.00002" ry="4.00002"/>
<polygon fill="#f9eef1" stroke="#f9eef1" points="1018.85,-391.579 1014.64,-381.453 1015.2,-388.156 1011.56,-384.734 1011.56,-384.734 1011.56,-384.734 1015.2,-388.156 1008.48,-388.015 1018.85,-391.579 1018.85,-391.579"/>
</g>
<!-- CreditCard -->
<g id="node14" class="node"><title>CreditCard</title>
<path fill="none" stroke="black" d="M1322,-203.5C1322,-203.5 1542,-203.5 1542,-203.5 1548,-203.5 1554,-209.5 1554,-215.5 1554,-215.5 1554,-357.5 1554,-357.5 1554,-363.5 1548,-369.5 1542,-369.5 1542,-369.5 1322,-369.5 1322,-369.5 1316,-369.5 1310,-363.5 1310,-357.5 1310,-357.5 1310,-215.5 1310,-215.5 1310,-209.5 1316,-203.5 1322,-203.5"/>
<text text-anchor="middle" x="1432" y="-354.3" font-family="Times,serif" font-size="14.00">CreditCard</text>
<polyline fill="none" stroke="black" points="1310,-346.5 1554,-346.5 "/>
<text text-anchor="start" x="1318" y="-331.3" font-family="Times,serif" font-size="14.00">id :integer</text>
<text text-anchor="start" x="1318" y="-316.3" font-family="Times,serif" font-size="14.00">consumer_id :integer</text>
<text text-anchor="start" x="1318" y="-301.3" font-family="Times,serif" font-size="14.00">name :character varying</text>
<text text-anchor="start" x="1318" y="-286.3" font-family="Times,serif" font-size="14.00">number :integer</text>
<text text-anchor="start" x="1318" y="-271.3" font-family="Times,serif" font-size="14.00">digit :integer</text>
<text text-anchor="start" x="1318" y="-256.3" font-family="Times,serif" font-size="14.00">flag :character varying</text>
<text text-anchor="start" x="1318" y="-241.3" font-family="Times,serif" font-size="14.00">expiration :character varying</text>
<text text-anchor="start" x="1318" y="-226.3" font-family="Times,serif" font-size="14.00">created_at :timestamp without time zone</text>
<text text-anchor="start" x="1318" y="-211.3" font-family="Times,serif" font-size="14.00">updated_at :timestamp without time zone</text>
</g>
<!-- Consumer&#45;&gt;CreditCard -->
<g id="edge1" class="edge"><title>Consumer&#45;&gt;CreditCard</title>
<path fill="none" stroke="#7da497" d="M1223.37,-483.385C1256.04,-452.717 1298.77,-412.592 1337.05,-376.65"/>
<ellipse fill="none" stroke="#7da497" cx="1220.36" cy="-486.213" rx="4.00002" ry="4.00002"/>
<polygon fill="#7da497" stroke="#7da497" points="1337.35,-376.366 1347.72,-372.802 1341,-372.944 1344.64,-369.521 1344.64,-369.521 1344.64,-369.521 1341,-372.944 1341.56,-366.241 1337.35,-376.366 1337.35,-376.366"/>
</g>
<!-- Picture -->
<g id="node3" class="node"><title>Picture</title>
<path fill="none" stroke="black" d="M52,-0.5C52,-0.5 312,-0.5 312,-0.5 318,-0.5 324,-6.5 324,-12.5 324,-12.5 324,-139.5 324,-139.5 324,-145.5 318,-151.5 312,-151.5 312,-151.5 52,-151.5 52,-151.5 46,-151.5 40,-145.5 40,-139.5 40,-139.5 40,-12.5 40,-12.5 40,-6.5 46,-0.5 52,-0.5"/>
<text text-anchor="middle" x="182" y="-136.3" font-family="Times,serif" font-size="14.00">Picture</text>
<polyline fill="none" stroke="black" points="40,-128.5 324,-128.5 "/>
<text text-anchor="start" x="48" y="-113.3" font-family="Times,serif" font-size="14.00">id :integer</text>
<text text-anchor="start" x="48" y="-98.3" font-family="Times,serif" font-size="14.00">product_id :integer</text>
<text text-anchor="start" x="48" y="-83.3" font-family="Times,serif" font-size="14.00">created_at :timestamp without time zone</text>
<text text-anchor="start" x="48" y="-68.3" font-family="Times,serif" font-size="14.00">updated_at :timestamp without time zone</text>
<text text-anchor="start" x="48" y="-53.3" font-family="Times,serif" font-size="14.00">image_file_name :character varying</text>
<text text-anchor="start" x="48" y="-38.3" font-family="Times,serif" font-size="14.00">image_content_type :character varying</text>
<text text-anchor="start" x="48" y="-23.3" font-family="Times,serif" font-size="14.00">image_file_size :integer</text>
<text text-anchor="start" x="48" y="-8.3" font-family="Times,serif" font-size="14.00">image_updated_at :timestamp without time zone</text>
</g>
<!-- Payment -->
<g id="node7" class="node"><title>Payment</title>
<path fill="none" stroke="black" d="M1070,-8C1070,-8 1290,-8 1290,-8 1296,-8 1302,-14 1302,-20 1302,-20 1302,-132 1302,-132 1302,-138 1296,-144 1290,-144 1290,-144 1070,-144 1070,-144 1064,-144 1058,-138 1058,-132 1058,-132 1058,-20 1058,-20 1058,-14 1064,-8 1070,-8"/>
<text text-anchor="middle" x="1180" y="-128.8" font-family="Times,serif" font-size="14.00">Payment</text>
<polyline fill="none" stroke="black" points="1058,-121 1302,-121 "/>
<text text-anchor="start" x="1066" y="-105.8" font-family="Times,serif" font-size="14.00">id :integer</text>
<text text-anchor="start" x="1066" y="-90.8" font-family="Times,serif" font-size="14.00">shopping_cart_id :integer</text>
<text text-anchor="start" x="1066" y="-75.8" font-family="Times,serif" font-size="14.00">credit_card_id :integer</text>
<text text-anchor="start" x="1066" y="-60.8" font-family="Times,serif" font-size="14.00">number_quotas :integer</text>
<text text-anchor="start" x="1066" y="-45.8" font-family="Times,serif" font-size="14.00">quota_value :numeric</text>
<text text-anchor="start" x="1066" y="-30.8" font-family="Times,serif" font-size="14.00">created_at :timestamp without time zone</text>
<text text-anchor="start" x="1066" y="-15.8" font-family="Times,serif" font-size="14.00">updated_at :timestamp without time zone</text>
</g>
<!-- ShoppingCart&#45;&gt;Payment -->
<g id="edge5" class="edge"><title>ShoppingCart&#45;&gt;Payment</title>
<path fill="none" stroke="#dd5f16" d="M1174.34,-195.069C1175.02,-180.809 1175.72,-166.197 1176.39,-152.328"/>
<ellipse fill="none" stroke="#dd5f16" cx="1174.13" cy="-199.399" rx="4" ry="4"/>
<ellipse fill="#dd5f16" stroke="#dd5f16" cx="1176.58" cy="-148.251" rx="4" ry="4"/>
</g>
<!-- CartItem -->
<g id="node16" class="node"><title>CartItem</title>
<path fill="none" stroke="black" d="M744,-8C744,-8 964,-8 964,-8 970,-8 976,-14 976,-20 976,-20 976,-132 976,-132 976,-138 970,-144 964,-144 964,-144 744,-144 744,-144 738,-144 732,-138 732,-132 732,-132 732,-20 732,-20 732,-14 738,-8 744,-8"/>
<text text-anchor="middle" x="854" y="-128.8" font-family="Times,serif" font-size="14.00">CartItem</text>
<polyline fill="none" stroke="black" points="732,-121 976,-121 "/>
<text text-anchor="start" x="740" y="-105.8" font-family="Times,serif" font-size="14.00">id :integer</text>
<text text-anchor="start" x="740" y="-90.8" font-family="Times,serif" font-size="14.00">shopping_cart_id :integer</text>
<text text-anchor="start" x="740" y="-75.8" font-family="Times,serif" font-size="14.00">product_id :integer</text>
<text text-anchor="start" x="740" y="-60.8" font-family="Times,serif" font-size="14.00">quantity :double precision</text>
<text text-anchor="start" x="740" y="-45.8" font-family="Times,serif" font-size="14.00">unitary_price :double precision</text>
<text text-anchor="start" x="740" y="-30.8" font-family="Times,serif" font-size="14.00">created_at :timestamp without time zone</text>
<text text-anchor="start" x="740" y="-15.8" font-family="Times,serif" font-size="14.00">updated_at :timestamp without time zone</text>
</g>
<!-- ShoppingCart&#45;&gt;CartItem -->
<g id="edge4" class="edge"><title>ShoppingCart&#45;&gt;CartItem</title>
<path fill="none" stroke="#7dca95" d="M1054.58,-198.634C1049.34,-194.999 1044.13,-191.439 1039,-188 1019.8,-175.143 999.115,-162.036 978.77,-149.548"/>
<ellipse fill="none" stroke="#7dca95" cx="1057.94" cy="-200.985" rx="4.00002" ry="4.00002"/>
<polygon fill="#7dca95" stroke="#7dca95" points="978.61,-149.45 972.423,-140.396 974.343,-146.843 970.077,-144.236 970.077,-144.236 970.077,-144.236 974.343,-146.843 967.73,-148.076 978.61,-149.45 978.61,-149.45"/>
</g>
<!-- Keyword -->
<g id="node5" class="node"><title>Keyword</title>
<path fill="none" stroke="black" d="M354,-23C354,-23 574,-23 574,-23 580,-23 586,-29 586,-35 586,-35 586,-117 586,-117 586,-123 580,-129 574,-129 574,-129 354,-129 354,-129 348,-129 342,-123 342,-117 342,-117 342,-35 342,-35 342,-29 348,-23 354,-23"/>
<text text-anchor="middle" x="464" y="-113.8" font-family="Times,serif" font-size="14.00">Keyword</text>
<polyline fill="none" stroke="black" points="342,-106 586,-106 "/>
<text text-anchor="start" x="350" y="-90.8" font-family="Times,serif" font-size="14.00">id :integer</text>
<text text-anchor="start" x="350" y="-75.8" font-family="Times,serif" font-size="14.00">product_id :integer</text>
<text text-anchor="start" x="350" y="-60.8" font-family="Times,serif" font-size="14.00">word :character varying</text>
<text text-anchor="start" x="350" y="-45.8" font-family="Times,serif" font-size="14.00">created_at :timestamp without time zone</text>
<text text-anchor="start" x="350" y="-30.8" font-family="Times,serif" font-size="14.00">updated_at :timestamp without time zone</text>
</g>
<!-- Address -->
<g id="node6" class="node"><title>Address</title>
<path fill="none" stroke="black" d="M798,-421.5C798,-421.5 1018,-421.5 1018,-421.5 1024,-421.5 1030,-427.5 1030,-433.5 1030,-433.5 1030,-635.5 1030,-635.5 1030,-641.5 1024,-647.5 1018,-647.5 1018,-647.5 798,-647.5 798,-647.5 792,-647.5 786,-641.5 786,-635.5 786,-635.5 786,-433.5 786,-433.5 786,-427.5 792,-421.5 798,-421.5"/>
<text text-anchor="middle" x="908" y="-632.3" font-family="Times,serif" font-size="14.00">Address</text>
<polyline fill="none" stroke="black" points="786,-624.5 1030,-624.5 "/>
<text text-anchor="start" x="794" y="-609.3" font-family="Times,serif" font-size="14.00">id :integer</text>
<text text-anchor="start" x="794" y="-594.3" font-family="Times,serif" font-size="14.00">client_id :integer</text>
<text text-anchor="start" x="794" y="-579.3" font-family="Times,serif" font-size="14.00">cep :character varying(11)</text>
<text text-anchor="start" x="794" y="-564.3" font-family="Times,serif" font-size="14.00">street :character varying</text>
<text text-anchor="start" x="794" y="-549.3" font-family="Times,serif" font-size="14.00">number :integer</text>
<text text-anchor="start" x="794" y="-534.3" font-family="Times,serif" font-size="14.00">complement :character varying</text>
<text text-anchor="start" x="794" y="-519.3" font-family="Times,serif" font-size="14.00">neighborhood :character varying</text>
<text text-anchor="start" x="794" y="-504.3" font-family="Times,serif" font-size="14.00">city :character varying</text>
<text text-anchor="start" x="794" y="-489.3" font-family="Times,serif" font-size="14.00">country :character varying</text>
<text text-anchor="start" x="794" y="-474.3" font-family="Times,serif" font-size="14.00">address_type :integer</text>
<text text-anchor="start" x="794" y="-459.3" font-family="Times,serif" font-size="14.00">delivery_radius :double precision</text>
<text text-anchor="start" x="794" y="-444.3" font-family="Times,serif" font-size="14.00">created_at :timestamp without time zone</text>
<text text-anchor="start" x="794" y="-429.3" font-family="Times,serif" font-size="14.00">updated_at :timestamp without time zone</text>
</g>
<!-- Address&#45;&gt;Event -->
<g id="edge6" class="edge"><title>Address&#45;&gt;Event</title>
<path fill="none" stroke="#6bf171" d="M908,-413.014C908,-406.966 908,-400.911 908,-394.906"/>
<ellipse fill="none" stroke="#6bf171" cx="908" cy="-417.298" rx="4" ry="4"/>
<polygon fill="#6bf171" stroke="#6bf171" points="908,-394.858 912.5,-384.858 908,-389.858 908,-384.858 908,-384.858 908,-384.858 908,-389.858 903.5,-384.858 908,-394.858 908,-394.858"/>
</g>
<!-- ApplicationRecord -->
<g id="node8" class="node"><title>ApplicationRecord</title>
<ellipse fill="none" stroke="black" cx="1029" cy="-820" rx="77.1866" ry="18"/>
<text text-anchor="middle" x="1029" y="-816.3" font-family="Times,serif" font-size="14.00">ApplicationRecord</text>
</g>
<!-- CategoryProduct -->
<g id="node9" class="node"><title>CategoryProduct</title>
<path fill="none" stroke="black" d="M12,-489C12,-489 232,-489 232,-489 238,-489 244,-495 244,-501 244,-501 244,-568 244,-568 244,-574 238,-580 232,-580 232,-580 12,-580 12,-580 6,-580 0,-574 0,-568 0,-568 0,-501 0,-501 0,-495 6,-489 12,-489"/>
<text text-anchor="middle" x="122" y="-564.8" font-family="Times,serif" font-size="14.00">CategoryProduct</text>
<polyline fill="none" stroke="black" points="0,-557 244,-557 "/>
<text text-anchor="start" x="8" y="-541.8" font-family="Times,serif" font-size="14.00">id :integer</text>
<text text-anchor="start" x="8" y="-526.8" font-family="Times,serif" font-size="14.00">name :character varying</text>
<text text-anchor="start" x="8" y="-511.8" font-family="Times,serif" font-size="14.00">created_at :timestamp without time zone</text>
<text text-anchor="start" x="8" y="-496.8" font-family="Times,serif" font-size="14.00">updated_at :timestamp without time zone</text>
</g>
<!-- Product -->
<g id="node17" class="node"><title>Product</title>
<path fill="none" stroke="black" d="M77,-196C77,-196 297,-196 297,-196 303,-196 309,-202 309,-208 309,-208 309,-365 309,-365 309,-371 303,-377 297,-377 297,-377 77,-377 77,-377 71,-377 65,-371 65,-365 65,-365 65,-208 65,-208 65,-202 71,-196 77,-196"/>
<text text-anchor="middle" x="187" y="-361.8" font-family="Times,serif" font-size="14.00">Product</text>
<polyline fill="none" stroke="black" points="65,-354 309,-354 "/>
<text text-anchor="start" x="73" y="-338.8" font-family="Times,serif" font-size="14.00">id :integer</text>
<text text-anchor="start" x="73" y="-323.8" font-family="Times,serif" font-size="14.00">professional_id :integer</text>
<text text-anchor="start" x="73" y="-308.8" font-family="Times,serif" font-size="14.00">category_product_id :integer</text>
<text text-anchor="start" x="73" y="-293.8" font-family="Times,serif" font-size="14.00">name :character varying</text>
<text text-anchor="start" x="73" y="-278.8" font-family="Times,serif" font-size="14.00">description :text</text>
<text text-anchor="start" x="73" y="-263.8" font-family="Times,serif" font-size="14.00">price :double precision</text>
<text text-anchor="start" x="73" y="-248.8" font-family="Times,serif" font-size="14.00">rating :integer</text>
<text text-anchor="start" x="73" y="-233.8" font-family="Times,serif" font-size="14.00">max_quantity :integer</text>
<text text-anchor="start" x="73" y="-218.8" font-family="Times,serif" font-size="14.00">created_at :timestamp without time zone</text>
<text text-anchor="start" x="73" y="-203.8" font-family="Times,serif" font-size="14.00">updated_at :timestamp without time zone</text>
</g>
<!-- CategoryProduct&#45;&gt;Product -->
<g id="edge7" class="edge"><title>CategoryProduct&#45;&gt;Product</title>
<path fill="none" stroke="#53e568" d="M135.856,-481.061C143.095,-453.662 152.2,-419.205 160.714,-386.984"/>
<ellipse fill="none" stroke="#53e568" cx="134.793" cy="-485.084" rx="4.00001" ry="4.00001"/>
<polygon fill="#53e568" stroke="#53e568" points="160.78,-386.734 167.685,-378.216 162.057,-381.9 163.334,-377.066 163.334,-377.066 163.334,-377.066 162.057,-381.9 158.983,-375.916 160.78,-386.734 160.78,-386.734"/>
</g>
<!-- Client -->
<g id="node11" class="node"><title>Client</title>
<path fill="none" stroke="black" d="M632.5,-684.5C632.5,-684.5 921.5,-684.5 921.5,-684.5 927.5,-684.5 933.5,-690.5 933.5,-696.5 933.5,-696.5 933.5,-943.5 933.5,-943.5 933.5,-949.5 927.5,-955.5 921.5,-955.5 921.5,-955.5 632.5,-955.5 632.5,-955.5 626.5,-955.5 620.5,-949.5 620.5,-943.5 620.5,-943.5 620.5,-696.5 620.5,-696.5 620.5,-690.5 626.5,-684.5 632.5,-684.5"/>
<text text-anchor="middle" x="777" y="-940.3" font-family="Times,serif" font-size="14.00">Client</text>
<polyline fill="none" stroke="black" points="620.5,-932.5 933.5,-932.5 "/>
<text text-anchor="start" x="628.5" y="-917.3" font-family="Times,serif" font-size="14.00">id :integer</text>
<text text-anchor="start" x="628.5" y="-902.3" font-family="Times,serif" font-size="14.00">login :character varying</text>
<text text-anchor="start" x="628.5" y="-887.3" font-family="Times,serif" font-size="14.00">name :character varying</text>
<text text-anchor="start" x="628.5" y="-872.3" font-family="Times,serif" font-size="14.00">cpf :character varying(11)</text>
<text text-anchor="start" x="628.5" y="-857.3" font-family="Times,serif" font-size="14.00">created_at :timestamp without time zone</text>
<text text-anchor="start" x="628.5" y="-842.3" font-family="Times,serif" font-size="14.00">updated_at :timestamp without time zone</text>
<text text-anchor="start" x="628.5" y="-827.3" font-family="Times,serif" font-size="14.00">email :character varying</text>
<text text-anchor="start" x="628.5" y="-812.3" font-family="Times,serif" font-size="14.00">encrypted_password :character varying</text>
<text text-anchor="start" x="628.5" y="-797.3" font-family="Times,serif" font-size="14.00">reset_password_token :character varying</text>
<text text-anchor="start" x="628.5" y="-782.3" font-family="Times,serif" font-size="14.00">reset_password_sent_at :timestamp without time zone</text>
<text text-anchor="start" x="628.5" y="-767.3" font-family="Times,serif" font-size="14.00">remember_created_at :timestamp without time zone</text>
<text text-anchor="start" x="628.5" y="-752.3" font-family="Times,serif" font-size="14.00">sign_in_count :integer</text>
<text text-anchor="start" x="628.5" y="-737.3" font-family="Times,serif" font-size="14.00">current_sign_in_at :timestamp without time zone</text>
<text text-anchor="start" x="628.5" y="-722.3" font-family="Times,serif" font-size="14.00">last_sign_in_at :timestamp without time zone</text>
<text text-anchor="start" x="628.5" y="-707.3" font-family="Times,serif" font-size="14.00">current_sign_in_ip :inet</text>
<text text-anchor="start" x="628.5" y="-692.3" font-family="Times,serif" font-size="14.00">last_sign_in_ip :inet</text>
</g>
<!-- Client&#45;&gt;Consumer -->
<g id="edge10" class="edge"><title>Client&#45;&gt;Consumer</title>
<path fill="none" stroke="#6b2f3e" d="M940.704,-685.327C941.469,-684.881 942.235,-684.439 943,-684 982.527,-661.328 999.78,-671.2 1039,-648 1068.02,-630.837 1096.82,-607.045 1119.99,-585.759"/>
<ellipse fill="none" stroke="#6b2f3e" cx="937.254" cy="-687.381" rx="4.00002" ry="4.00002"/>
<ellipse fill="#6b2f3e" stroke="#6b2f3e" cx="1123.14" cy="-582.841" rx="4.00002" ry="4.00002"/>
</g>
<!-- Client&#45;&gt;Address -->
<g id="edge9" class="edge"><title>Client&#45;&gt;Address</title>
<path fill="none" stroke="#492a00" d="M842.701,-676.814C845.744,-670.229 848.787,-663.645 851.802,-657.119"/>
<ellipse fill="none" stroke="#492a00" cx="840.917" cy="-680.676" rx="4.00002" ry="4.00002"/>
<polygon fill="#492a00" stroke="#492a00" points="852.003,-656.683 860.283,-649.493 854.101,-652.144 856.198,-647.606 856.198,-647.606 856.198,-647.606 854.101,-652.144 852.113,-645.718 852.003,-656.683 852.003,-656.683"/>
</g>
<!-- Telephone -->
<g id="node12" class="node"><title>Telephone</title>
<path fill="none" stroke="black" d="M536,-481.5C536,-481.5 756,-481.5 756,-481.5 762,-481.5 768,-487.5 768,-493.5 768,-493.5 768,-575.5 768,-575.5 768,-581.5 762,-587.5 756,-587.5 756,-587.5 536,-587.5 536,-587.5 530,-587.5 524,-581.5 524,-575.5 524,-575.5 524,-493.5 524,-493.5 524,-487.5 530,-481.5 536,-481.5"/>
<text text-anchor="middle" x="646" y="-572.3" font-family="Times,serif" font-size="14.00">Telephone</text>
<polyline fill="none" stroke="black" points="524,-564.5 768,-564.5 "/>
<text text-anchor="start" x="532" y="-549.3" font-family="Times,serif" font-size="14.00">id :integer</text>
<text text-anchor="start" x="532" y="-534.3" font-family="Times,serif" font-size="14.00">client_id :integer</text>
<text text-anchor="start" x="532" y="-519.3" font-family="Times,serif" font-size="14.00">telephone :character varying</text>
<text text-anchor="start" x="532" y="-504.3" font-family="Times,serif" font-size="14.00">created_at :timestamp without time zone</text>
<text text-anchor="start" x="532" y="-489.3" font-family="Times,serif" font-size="14.00">updated_at :timestamp without time zone</text>
</g>
<!-- Client&#45;&gt;Telephone -->
<g id="edge8" class="edge"><title>Client&#45;&gt;Telephone</title>
<path fill="none" stroke="#7cbe9f" d="M711.231,-676.667C698.267,-648.613 685.318,-620.59 674.414,-596.992"/>
<ellipse fill="none" stroke="#7cbe9f" cx="713.083" cy="-680.676" rx="4.00002" ry="4.00002"/>
<polygon fill="#7cbe9f" stroke="#7cbe9f" points="674.38,-596.917 674.27,-585.951 672.282,-592.378 670.185,-587.839 670.185,-587.839 670.185,-587.839 672.282,-592.378 666.1,-589.727 674.38,-596.917 674.38,-596.917"/>
</g>
<!-- Professional -->
<g id="node13" class="node"><title>Professional</title>
<path fill="none" stroke="black" d="M274,-489C274,-489 494,-489 494,-489 500,-489 506,-495 506,-501 506,-501 506,-568 506,-568 506,-574 500,-580 494,-580 494,-580 274,-580 274,-580 268,-580 262,-574 262,-568 262,-568 262,-501 262,-501 262,-495 268,-489 274,-489"/>
<text text-anchor="middle" x="384" y="-564.8" font-family="Times,serif" font-size="14.00">Professional</text>
<polyline fill="none" stroke="black" points="262,-557 506,-557 "/>
<text text-anchor="start" x="270" y="-541.8" font-family="Times,serif" font-size="14.00">id :integer</text>
<text text-anchor="start" x="270" y="-526.8" font-family="Times,serif" font-size="14.00">client_id :integer</text>
<text text-anchor="start" x="270" y="-511.8" font-family="Times,serif" font-size="14.00">created_at :timestamp without time zone</text>
<text text-anchor="start" x="270" y="-496.8" font-family="Times,serif" font-size="14.00">updated_at :timestamp without time zone</text>
</g>
<!-- Client&#45;&gt;Professional -->
<g id="edge11" class="edge"><title>Client&#45;&gt;Professional</title>
<path fill="none" stroke="#7d3b27" d="M613.296,-685.327C612.531,-684.881 611.765,-684.439 611,-684 571.473,-661.328 554.22,-671.2 515,-648 485.985,-630.837 457.184,-607.045 434.007,-585.759"/>
<ellipse fill="none" stroke="#7d3b27" cx="616.746" cy="-687.381" rx="4.00002" ry="4.00002"/>
<ellipse fill="#7d3b27" stroke="#7d3b27" cx="430.864" cy="-582.841" rx="4.00002" ry="4.00002"/>
</g>
<!-- Banking -->
<g id="node15" class="node"><title>Banking</title>
<path fill="none" stroke="black" d="M339,-218.5C339,-218.5 559,-218.5 559,-218.5 565,-218.5 571,-224.5 571,-230.5 571,-230.5 571,-342.5 571,-342.5 571,-348.5 565,-354.5 559,-354.5 559,-354.5 339,-354.5 339,-354.5 333,-354.5 327,-348.5 327,-342.5 327,-342.5 327,-230.5 327,-230.5 327,-224.5 333,-218.5 339,-218.5"/>
<text text-anchor="middle" x="449" y="-339.3" font-family="Times,serif" font-size="14.00">Banking</text>
<polyline fill="none" stroke="black" points="327,-331.5 571,-331.5 "/>
<text text-anchor="start" x="335" y="-316.3" font-family="Times,serif" font-size="14.00">id :integer</text>
<text text-anchor="start" x="335" y="-301.3" font-family="Times,serif" font-size="14.00">professional_id :integer</text>
<text text-anchor="start" x="335" y="-286.3" font-family="Times,serif" font-size="14.00">bank :integer</text>
<text text-anchor="start" x="335" y="-271.3" font-family="Times,serif" font-size="14.00">agency :integer</text>
<text text-anchor="start" x="335" y="-256.3" font-family="Times,serif" font-size="14.00">account :integer</text>
<text text-anchor="start" x="335" y="-241.3" font-family="Times,serif" font-size="14.00">created_at :timestamp without time zone</text>
<text text-anchor="start" x="335" y="-226.3" font-family="Times,serif" font-size="14.00">updated_at :timestamp without time zone</text>
</g>
<!-- Professional&#45;&gt;Banking -->
<g id="edge12" class="edge"><title>Professional&#45;&gt;Banking</title>
<path fill="none" stroke="#61fe46" d="M397.917,-480.829C406.842,-447.051 418.583,-402.616 428.558,-364.864"/>
<ellipse fill="none" stroke="#61fe46" cx="396.793" cy="-485.084" rx="4.00001" ry="4.00001"/>
<polygon fill="#61fe46" stroke="#61fe46" points="428.632,-364.584 435.537,-356.066 429.909,-359.75 431.187,-354.916 431.187,-354.916 431.187,-354.916 429.909,-359.75 426.836,-353.767 428.632,-364.584 428.632,-364.584"/>
</g>
<!-- Professional&#45;&gt;Product -->
<g id="edge13" class="edge"><title>Professional&#45;&gt;Product</title>
<path fill="none" stroke="#e20e33" d="M343.236,-482.597C320.664,-454.41 291.839,-418.416 265.11,-385.038"/>
<ellipse fill="none" stroke="#e20e33" cx="345.824" cy="-485.829" rx="4.00002" ry="4.00002"/>
<polygon fill="#e20e33" stroke="#e20e33" points="264.976,-384.872 262.238,-374.253 261.851,-380.969 258.726,-377.066 258.726,-377.066 258.726,-377.066 261.851,-380.969 255.213,-379.879 264.976,-384.872 264.976,-384.872"/>
</g>
<!-- CreditCard&#45;&gt;Payment -->
<g id="edge14" class="edge"><title>CreditCard&#45;&gt;Payment</title>
<path fill="none" stroke="#2b6441" d="M1326.35,-198.087C1307.32,-182.34 1287.65,-166.066 1269.14,-150.754"/>
<ellipse fill="none" stroke="#2b6441" cx="1329.68" cy="-200.845" rx="4.00002" ry="4.00002"/>
<polygon fill="#2b6441" stroke="#2b6441" points="1268.99,-150.63 1264.16,-140.788 1265.14,-147.443 1261.29,-144.255 1261.29,-144.255 1261.29,-144.255 1265.14,-147.443 1258.42,-147.723 1268.99,-150.63 1268.99,-150.63"/>
</g>
<!-- Product&#45;&gt;Picture -->
<g id="edge16" class="edge"><title>Product&#45;&gt;Picture</title>
<path fill="none" stroke="#2d2f34" d="M184.659,-187.863C184.448,-179.081 184.236,-170.237 184.028,-161.58"/>
<ellipse fill="none" stroke="#2d2f34" cx="184.755" cy="-191.868" rx="4" ry="4"/>
<polygon fill="#2d2f34" stroke="#2d2f34" points="184.027,-161.516 188.286,-151.411 183.907,-156.517 183.787,-151.519 183.787,-151.519 183.787,-151.519 183.907,-156.517 179.288,-151.627 184.027,-161.516 184.027,-161.516"/>
</g>
<!-- Product&#45;&gt;Keyword -->
<g id="edge15" class="edge"><title>Product&#45;&gt;Keyword</title>
<path fill="none" stroke="#c8eba9" d="M312.825,-190.791C337.858,-171.948 363.448,-152.686 386.287,-135.495"/>
<ellipse fill="none" stroke="#c8eba9" cx="309.276" cy="-193.462" rx="4.00002" ry="4.00002"/>
<polygon fill="#c8eba9" stroke="#c8eba9" points="386.581,-135.274 397.277,-132.856 390.576,-132.267 394.57,-129.26 394.57,-129.26 394.57,-129.26 390.576,-132.267 391.864,-125.665 386.581,-135.274 386.581,-135.274"/>
</g>
<!-- Product&#45;&gt;CartItem -->
<g id="edge17" class="edge"><title>Product&#45;&gt;CartItem</title>
<path fill="none" stroke="#3c0258" d="M308.006,-192.363C311.324,-190.812 314.657,-189.353 318,-188 433.081,-141.429 473.467,-177.339 595,-152 636.789,-143.287 681.671,-131.265 722.138,-119.397"/>
<ellipse fill="none" stroke="#3c0258" cx="304.365" cy="-194.144" rx="4.00002" ry="4.00002"/>
<polygon fill="#3c0258" stroke="#3c0258" points="722.192,-119.381 733.057,-120.863 726.987,-117.964 731.782,-116.547 731.782,-116.547 731.782,-116.547 726.987,-117.964 730.507,-112.232 722.192,-119.381 722.192,-119.381"/>
</g>
</g>
</svg>
