<?xml version="1.0" encoding="UTF-8" standalone="no"?>
<!DOCTYPE svg PUBLIC "-//W3C//DTD SVG 1.1//EN"
 "http://www.w3.org/Graphics/SVG/1.1/DTD/svg11.dtd">
<!-- Generated by graphviz version 2.38.0 (20140413.2041)
 -->
<!-- Title: models_diagram Pages: 1 -->
<svg width="802pt" height="302pt"
 viewBox="0.00 0.00 802.19 302.00" xmlns="http://www.w3.org/2000/svg" xmlns:xlink="http://www.w3.org/1999/xlink">
<g id="graph0" class="graph" transform="scale(1 1) rotate(0) translate(4 298)">
<title>models_diagram</title>
<polygon fill="none" stroke="none" points="-4,4 -4,-298 798.194,-298 798.194,4 -4,4"/>
<!-- _diagram_info -->
<g id="node1" class="node"><title>_diagram_info</title>
<text text-anchor="start" x="8" y="-279.6" font-family="Times,serif" font-size="13.00">Models diagram</text>
<text text-anchor="start" x="8" y="-265.6" font-family="Times,serif" font-size="13.00">Date: Nov 04 2016 &#45; 11:05</text>
<text text-anchor="start" x="8" y="-251.6" font-family="Times,serif" font-size="13.00">Migration version: 20161104005028</text>
<text text-anchor="start" x="8" y="-237.6" font-family="Times,serif" font-size="13.00">Generated by RailRoady 1.5.2</text>
<text text-anchor="start" x="8" y="-223.6" font-family="Times,serif" font-size="13.00">http://railroady.prestonlee.com</text>
</g>
<!-- Picture -->
<g id="node2" class="node"><title>Picture</title>
<ellipse fill="none" stroke="black" cx="633" cy="-18" rx="35.9954" ry="18"/>
<text text-anchor="middle" x="633" y="-14.3" font-family="Times,serif" font-size="14.00">Picture</text>
</g>
<!-- ShoppingCart -->
<g id="node3" class="node"><title>ShoppingCart</title>
<ellipse fill="none" stroke="black" cx="450" cy="-162" rx="59.5901" ry="18"/>
<text text-anchor="middle" x="450" y="-158.3" font-family="Times,serif" font-size="14.00">ShoppingCart</text>
</g>
<!-- Payment -->
<g id="node6" class="node"><title>Payment</title>
<ellipse fill="none" stroke="black" cx="351" cy="-90" rx="42.4939" ry="18"/>
<text text-anchor="middle" x="351" y="-86.3" font-family="Times,serif" font-size="14.00">Payment</text>
</g>
<!-- ShoppingCart&#45;&gt;Payment -->
<g id="edge2" class="edge"><title>ShoppingCart&#45;&gt;Payment</title>
<path fill="none" stroke="#4aaa87" d="M420.615,-140.222C407.315,-130.819 391.682,-119.765 378.603,-110.517"/>
<ellipse fill="none" stroke="#4aaa87" cx="424.269" cy="-142.807" rx="4.00002" ry="4.00002"/>
<ellipse fill="#4aaa87" stroke="#4aaa87" cx="375.288" cy="-108.173" rx="4.00002" ry="4.00002"/>
</g>
<!-- CartItem -->
<g id="node15" class="node"><title>CartItem</title>
<ellipse fill="none" stroke="black" cx="516" cy="-18" rx="42.4939" ry="18"/>
<text text-anchor="middle" x="516" y="-14.3" font-family="Times,serif" font-size="14.00">CartItem</text>
</g>
<!-- ShoppingCart&#45;&gt;CartItem -->
<g id="edge1" class="edge"><title>ShoppingCart&#45;&gt;CartItem</title>
<path fill="none" stroke="#8a6b55" d="M461.361,-136.557C473.216,-111.05 491.735,-71.2069 503.869,-45.0997"/>
<ellipse fill="none" stroke="#8a6b55" cx="459.516" cy="-140.526" rx="4.00002" ry="4.00002"/>
<polygon fill="#8a6b55" stroke="#8a6b55" points="503.965,-44.8933 512.261,-37.7217 506.072,-40.3591 508.18,-35.825 508.18,-35.825 508.18,-35.825 506.072,-40.3591 504.099,-33.9283 503.965,-44.8933 503.965,-44.8933"/>
</g>
<!-- Keyword -->
<g id="node4" class="node"><title>Keyword</title>
<ellipse fill="none" stroke="black" cx="730" cy="-18" rx="43.5923" ry="18"/>
<text text-anchor="middle" x="730" y="-14.3" font-family="Times,serif" font-size="14.00">Keyword</text>
</g>
<!-- Address -->
<g id="node5" class="node"><title>Address</title>
<ellipse fill="none" stroke="black" cx="100" cy="-162" rx="39.7935" ry="18"/>
<text text-anchor="middle" x="100" y="-158.3" font-family="Times,serif" font-size="14.00">Address</text>
</g>
<!-- Event -->
<g id="node9" class="node"><title>Event</title>
<ellipse fill="none" stroke="black" cx="66" cy="-90" rx="31.3957" ry="18"/>
<text text-anchor="middle" x="66" y="-86.3" font-family="Times,serif" font-size="14.00">Event</text>
</g>
<!-- Address&#45;&gt;Event -->
<g id="edge3" class="edge"><title>Address&#45;&gt;Event</title>
<path fill="none" stroke="#0441b1" d="M88.2041,-136.714C85.0894,-130.302 81.7166,-123.358 78.5629,-116.865"/>
<ellipse fill="none" stroke="#0441b1" cx="90.0219" cy="-140.457" rx="4.00002" ry="4.00002"/>
<polygon fill="#0441b1" stroke="#0441b1" points="78.5238,-116.784 78.2024,-105.823 76.3392,-112.287 74.1547,-107.789 74.1547,-107.789 74.1547,-107.789 76.3392,-112.287 70.1069,-109.755 78.5238,-116.784 78.5238,-116.784"/>
</g>
<!-- ApplicationRecord -->
<g id="node7" class="node"><title>ApplicationRecord</title>
<ellipse fill="none" stroke="black" cx="392" cy="-255" rx="77.1866" ry="18"/>
<text text-anchor="middle" x="392" y="-251.3" font-family="Times,serif" font-size="14.00">ApplicationRecord</text>
</g>
<!-- CategoryProduct -->
<g id="node8" class="node"><title>CategoryProduct</title>
<ellipse fill="none" stroke="black" cx="724" cy="-162" rx="70.3881" ry="18"/>
<text text-anchor="middle" x="724" y="-158.3" font-family="Times,serif" font-size="14.00">CategoryProduct</text>
</g>
<!-- Product -->
<g id="node16" class="node"><title>Product</title>
<ellipse fill="none" stroke="black" cx="654" cy="-90" rx="38.1938" ry="18"/>
<text text-anchor="middle" x="654" y="-86.3" font-family="Times,serif" font-size="14.00">Product</text>
</g>
<!-- CategoryProduct&#45;&gt;Product -->
<g id="edge4" class="edge"><title>CategoryProduct&#45;&gt;Product</title>
<path fill="none" stroke="#d3f695" d="M701.495,-138.495C693.665,-130.665 684.874,-121.874 677.004,-114.004"/>
<ellipse fill="none" stroke="#d3f695" cx="704.583" cy="-141.583" rx="4.00002" ry="4.00002"/>
<polygon fill="#d3f695" stroke="#d3f695" points="676.582,-113.582 672.693,-103.329 673.046,-110.046 669.511,-106.511 669.511,-106.511 669.511,-106.511 673.046,-110.046 666.329,-109.693 676.582,-113.582 676.582,-113.582"/>
</g>
<!-- Client -->
<g id="node10" class="node"><title>Client</title>
<ellipse fill="none" stroke="black" cx="264" cy="-255" rx="32.4942" ry="18"/>
<text text-anchor="middle" x="264" y="-251.3" font-family="Times,serif" font-size="14.00">Client</text>
</g>
<!-- Client&#45;&gt;ShoppingCart -->
<g id="edge8" class="edge"><title>Client&#45;&gt;ShoppingCart</title>
<path fill="none" stroke="#867ebe" d="M284.525,-232.566C290.989,-226.637 298.428,-220.581 306,-216 334.035,-199.04 368.372,-186.143 396.484,-177.319"/>
<ellipse fill="none" stroke="#867ebe" cx="281.312" cy="-235.631" rx="4.00002" ry="4.00002"/>
<polygon fill="#867ebe" stroke="#867ebe" points="396.583,-177.289 407.461,-178.672 401.365,-175.828 406.147,-174.368 406.147,-174.368 406.147,-174.368 401.365,-175.828 404.832,-170.064 396.583,-177.289 396.583,-177.289"/>
</g>
<!-- Client&#45;&gt;Address -->
<g id="edge6" class="edge"><title>Client&#45;&gt;Address</title>
<path fill="none" stroke="#60ad70" d="M243.873,-232.799C237.56,-226.877 230.32,-220.766 223,-216 208.45,-206.527 169.019,-190.07 138.687,-178.001"/>
<ellipse fill="none" stroke="#60ad70" cx="246.975" cy="-235.814" rx="4.00002" ry="4.00002"/>
<polygon fill="#60ad70" stroke="#60ad70" points="138.501,-177.928 130.856,-170.067 133.851,-176.09 129.201,-174.252 129.201,-174.252 129.201,-174.252 133.851,-176.09 127.547,-178.436 138.501,-177.928 138.501,-177.928"/>
</g>
<!-- Client&#45;&gt;Event -->
<g id="edge9" class="edge"><title>Client&#45;&gt;Event</title>
<path fill="none" stroke="#678658" d="M244.742,-232.143C238.377,-226.093 230.889,-220.076 223,-216 153.613,-180.151 100.245,-240.619 51,-180 36.6316,-162.313 43.4289,-135.999 51.9811,-116.568"/>
<ellipse fill="none" stroke="#678658" cx="247.884" cy="-235.298" rx="4.00002" ry="4.00002"/>
<polygon fill="#678658" stroke="#678658" points="52.0588,-116.406 60.4323,-109.325 54.2156,-111.895 56.3725,-107.384 56.3725,-107.384 56.3725,-107.384 54.2156,-111.895 52.3126,-105.443 52.0588,-116.406 52.0588,-116.406"/>
</g>
<!-- Telephone -->
<g id="node11" class="node"><title>Telephone</title>
<ellipse fill="none" stroke="black" cx="206" cy="-162" rx="48.1917" ry="18"/>
<text text-anchor="middle" x="206" y="-158.3" font-family="Times,serif" font-size="14.00">Telephone</text>
</g>
<!-- Client&#45;&gt;Telephone -->
<g id="edge5" class="edge"><title>Client&#45;&gt;Telephone</title>
<path fill="none" stroke="#f31883" d="M249.207,-230.791C240.955,-217.843 230.664,-201.697 222.196,-188.411"/>
<ellipse fill="none" stroke="#f31883" cx="251.481" cy="-234.358" rx="4.00002" ry="4.00002"/>
<polygon fill="#f31883" stroke="#f31883" points="222.047,-188.177 220.467,-177.325 219.359,-183.96 216.672,-179.744 216.672,-179.744 216.672,-179.744 219.359,-183.96 212.877,-182.162 222.047,-188.177 222.047,-188.177"/>
</g>
<!-- Professional -->
<g id="node12" class="node"><title>Professional</title>
<ellipse fill="none" stroke="black" cx="582" cy="-162" rx="53.8905" ry="18"/>
<text text-anchor="middle" x="582" y="-158.3" font-family="Times,serif" font-size="14.00">Professional</text>
</g>
<!-- Client&#45;&gt;Professional -->
<g id="edge10" class="edge"><title>Client&#45;&gt;Professional</title>
<path fill="none" stroke="#77ef7f" d="M282.98,-232.638C289.654,-226.351 297.6,-220.073 306,-216 392.391,-174.115 425.211,-200.53 519,-180 524.011,-178.903 529.221,-177.662 534.401,-176.363"/>
<ellipse fill="none" stroke="#77ef7f" cx="280.07" cy="-235.532" rx="4.00002" ry="4.00002"/>
<ellipse fill="#77ef7f" stroke="#77ef7f" cx="538.612" cy="-175.281" rx="4.00001" ry="4.00001"/>
</g>
<!-- CreditCard -->
<g id="node13" class="node"><title>CreditCard</title>
<ellipse fill="none" stroke="black" cx="322" cy="-162" rx="50.0912" ry="18"/>
<text text-anchor="middle" x="322" y="-158.3" font-family="Times,serif" font-size="14.00">CreditCard</text>
</g>
<!-- Client&#45;&gt;CreditCard -->
<g id="edge7" class="edge"><title>Client&#45;&gt;CreditCard</title>
<path fill="none" stroke="#e4e960" d="M278.793,-230.791C287.045,-217.843 297.336,-201.697 305.804,-188.411"/>
<ellipse fill="none" stroke="#e4e960" cx="276.519" cy="-234.358" rx="4.00002" ry="4.00002"/>
<polygon fill="#e4e960" stroke="#e4e960" points="305.953,-188.177 315.123,-182.162 308.641,-183.96 311.328,-179.744 311.328,-179.744 311.328,-179.744 308.641,-183.96 307.533,-177.325 305.953,-188.177 305.953,-188.177"/>
</g>
<!-- Banking -->
<g id="node14" class="node"><title>Banking</title>
<ellipse fill="none" stroke="black" cx="557" cy="-90" rx="40.0939" ry="18"/>
<text text-anchor="middle" x="557" y="-86.3" font-family="Times,serif" font-size="14.00">Banking</text>
</g>
<!-- Professional&#45;&gt;Banking -->
<g id="edge11" class="edge"><title>Professional&#45;&gt;Banking</title>
<path fill="none" stroke="#65cab7" d="M573.167,-136.267C571.05,-130.34 568.779,-123.981 566.628,-117.959"/>
<ellipse fill="none" stroke="#65cab7" cx="574.603" cy="-140.288" rx="4.00001" ry="4.00001"/>
<polygon fill="#65cab7" stroke="#65cab7" points="566.533,-117.693 567.408,-106.762 564.851,-112.984 563.17,-108.275 563.17,-108.275 563.17,-108.275 564.851,-112.984 558.932,-109.789 566.533,-117.693 566.533,-117.693"/>
</g>
<!-- Professional&#45;&gt;Product -->
<g id="edge12" class="edge"><title>Professional&#45;&gt;Product</title>
<path fill="none" stroke="#6c4286" d="M604.487,-139.138C612.775,-131.08 622.181,-121.935 630.552,-113.797"/>
<ellipse fill="none" stroke="#6c4286" cx="601.567" cy="-141.976" rx="4.00002" ry="4.00002"/>
<polygon fill="#6c4286" stroke="#6c4286" points="630.717,-113.637 641.023,-109.892 634.302,-110.151 637.887,-106.666 637.887,-106.666 637.887,-106.666 634.302,-110.151 634.75,-103.439 630.717,-113.637 630.717,-113.637"/>
</g>
<!-- CreditCard&#45;&gt;Payment -->
<g id="edge13" class="edge"><title>CreditCard&#45;&gt;Payment</title>
<path fill="none" stroke="#539b71" d="M332.179,-136.431C334.754,-130.214 337.53,-123.514 340.138,-117.22"/>
<ellipse fill="none" stroke="#539b71" cx="330.551" cy="-140.36" rx="4.00001" ry="4.00001"/>
<polygon fill="#539b71" stroke="#539b71" points="340.217,-117.028 348.202,-109.511 342.131,-112.408 344.045,-107.789 344.045,-107.789 344.045,-107.789 342.131,-112.408 339.887,-106.067 340.217,-117.028 340.217,-117.028"/>
</g>
<!-- Product&#45;&gt;Picture -->
<g id="edge15" class="edge"><title>Product&#45;&gt;Picture</title>
<path fill="none" stroke="#638303" d="M646.58,-64.2675C644.802,-58.34 642.894,-51.9814 641.088,-45.9587"/>
<ellipse fill="none" stroke="#638303" cx="647.767" cy="-68.2236" rx="4.00001" ry="4.00001"/>
<polygon fill="#638303" stroke="#638303" points="641.056,-45.8536 642.493,-34.9822 639.619,-41.0644 638.183,-36.2753 638.183,-36.2753 638.183,-36.2753 639.619,-41.0644 633.872,-37.5684 641.056,-45.8536 641.056,-45.8536"/>
</g>
<!-- Product&#45;&gt;Keyword -->
<g id="edge14" class="edge"><title>Product&#45;&gt;Keyword</title>
<path fill="none" stroke="#5e2f73" d="M677.024,-67.7941C685.957,-59.566 696.205,-50.1271 705.292,-41.757"/>
<ellipse fill="none" stroke="#5e2f73" cx="673.809" cy="-70.7548" rx="4.00002" ry="4.00002"/>
<polygon fill="#5e2f73" stroke="#5e2f73" points="705.562,-41.5087 715.966,-38.0439 709.24,-38.1213 712.917,-34.7339 712.917,-34.7339 712.917,-34.7339 709.24,-38.1213 709.869,-31.4239 705.562,-41.5087 705.562,-41.5087"/>
</g>
<!-- Product&#45;&gt;CartItem -->
<g id="edge16" class="edge"><title>Product&#45;&gt;CartItem</title>
<path fill="none" stroke="#2ec305" d="M621.791,-72.6619C600.607,-61.9166 572.884,-47.8544 551.133,-36.8211"/>
<ellipse fill="none" stroke="#2ec305" cx="625.442" cy="-74.514" rx="4.00002" ry="4.00002"/>
<polygon fill="#2ec305" stroke="#2ec305" points="551.131,-36.8202 544.249,-28.2832 546.672,-34.5583 542.213,-32.2964 542.213,-32.2964 542.213,-32.2964 546.672,-34.5583 540.177,-36.3096 551.131,-36.8202 551.131,-36.8202"/>
</g>
</g>
</svg>
