<?xml version="1.0" encoding="UTF-8" standalone="no"?>
<!DOCTYPE svg PUBLIC "-//W3C//DTD SVG 1.1//EN"
 "http://www.w3.org/Graphics/SVG/1.1/DTD/svg11.dtd">
<!-- Generated by graphviz version 2.38.0 (20140413.2041)
 -->
<!-- Title: models_diagram Pages: 1 -->
<svg width="1288pt" height="904pt"
 viewBox="0.00 0.00 1288.00 904.00" xmlns="http://www.w3.org/2000/svg" xmlns:xlink="http://www.w3.org/1999/xlink">
<g id="graph0" class="graph" transform="scale(1 1) rotate(0) translate(4 900)">
<title>models_diagram</title>
<polygon fill="none" stroke="none" points="-4,4 -4,-900 1284,-900 1284,4 -4,4"/>
<!-- _diagram_info -->
<g id="node1" class="node"><title>_diagram_info</title>
<text text-anchor="start" x="173" y="-784.6" font-family="Times,serif" font-size="13.00">Models diagram</text>
<text text-anchor="start" x="173" y="-770.6" font-family="Times,serif" font-size="13.00">Date: Oct 10 2016 &#45; 23:10</text>
<text text-anchor="start" x="173" y="-756.6" font-family="Times,serif" font-size="13.00">Migration version: 20161004024401</text>
<text text-anchor="start" x="173" y="-742.6" font-family="Times,serif" font-size="13.00">Generated by RailRoady 1.5.2</text>
<text text-anchor="start" x="173" y="-728.6" font-family="Times,serif" font-size="13.00">http://railroady.prestonlee.com</text>
</g>
<!-- Consumer -->
<g id="node2" class="node"><title>Consumer</title>
<path fill="none" stroke="black" d="M51,-444C51,-444 271,-444 271,-444 277,-444 283,-450 283,-456 283,-456 283,-523 283,-523 283,-529 277,-535 271,-535 271,-535 51,-535 51,-535 45,-535 39,-529 39,-523 39,-523 39,-456 39,-456 39,-450 45,-444 51,-444"/>
<text text-anchor="middle" x="161" y="-519.8" font-family="Times,serif" font-size="14.00">Consumer</text>
<polyline fill="none" stroke="black" points="39,-512 283,-512 "/>
<text text-anchor="start" x="47" y="-496.8" font-family="Times,serif" font-size="14.00">id :integer</text>
<text text-anchor="start" x="47" y="-481.8" font-family="Times,serif" font-size="14.00">client_id :integer</text>
<text text-anchor="start" x="47" y="-466.8" font-family="Times,serif" font-size="14.00">created_at :timestamp without time zone</text>
<text text-anchor="start" x="47" y="-451.8" font-family="Times,serif" font-size="14.00">updated_at :timestamp without time zone</text>
</g>
<!-- ShoppingCart -->
<g id="node4" class="node"><title>ShoppingCart</title>
<path fill="none" stroke="black" d="M12,-188.5C12,-188.5 232,-188.5 232,-188.5 238,-188.5 244,-194.5 244,-200.5 244,-200.5 244,-342.5 244,-342.5 244,-348.5 238,-354.5 232,-354.5 232,-354.5 12,-354.5 12,-354.5 6,-354.5 0,-348.5 0,-342.5 0,-342.5 0,-200.5 0,-200.5 0,-194.5 6,-188.5 12,-188.5"/>
<text text-anchor="middle" x="122" y="-339.3" font-family="Times,serif" font-size="14.00">ShoppingCart</text>
<polyline fill="none" stroke="black" points="0,-331.5 244,-331.5 "/>
<text text-anchor="start" x="8" y="-316.3" font-family="Times,serif" font-size="14.00">id :integer</text>
<text text-anchor="start" x="8" y="-301.3" font-family="Times,serif" font-size="14.00">consumer_id :integer</text>
<text text-anchor="start" x="8" y="-286.3" font-family="Times,serif" font-size="14.00">status :integer</text>
<text text-anchor="start" x="8" y="-271.3" font-family="Times,serif" font-size="14.00">fees :double precision</text>
<text text-anchor="start" x="8" y="-256.3" font-family="Times,serif" font-size="14.00">gain :double precision</text>
<text text-anchor="start" x="8" y="-241.3" font-family="Times,serif" font-size="14.00">promotion_discount :double precision</text>
<text text-anchor="start" x="8" y="-226.3" font-family="Times,serif" font-size="14.00">total_paid :double precision</text>
<text text-anchor="start" x="8" y="-211.3" font-family="Times,serif" font-size="14.00">created_at :timestamp without time zone</text>
<text text-anchor="start" x="8" y="-196.3" font-family="Times,serif" font-size="14.00">updated_at :timestamp without time zone</text>
</g>
<!-- Consumer&#45;&gt;ShoppingCart -->
<g id="edge3" class="edge"><title>Consumer&#45;&gt;ShoppingCart</title>
<path fill="none" stroke="#b0e1ba" d="M151.466,-435.696C147.603,-414.3 143.026,-388.951 138.646,-364.691"/>
<ellipse fill="none" stroke="#b0e1ba" cx="152.208" cy="-439.808" rx="4.00001" ry="4.00001"/>
<polygon fill="#b0e1ba" stroke="#b0e1ba" points="138.625,-364.579 141.277,-353.938 137.737,-359.658 136.849,-354.738 136.849,-354.738 136.849,-354.738 137.737,-359.658 132.42,-355.538 138.625,-364.579 138.625,-364.579"/>
</g>
<!-- Transaction -->
<g id="node9" class="node"><title>Transaction</title>
<path fill="none" stroke="black" d="M414,-0.5C414,-0.5 634,-0.5 634,-0.5 640,-0.5 646,-6.5 646,-12.5 646,-12.5 646,-139.5 646,-139.5 646,-145.5 640,-151.5 634,-151.5 634,-151.5 414,-151.5 414,-151.5 408,-151.5 402,-145.5 402,-139.5 402,-139.5 402,-12.5 402,-12.5 402,-6.5 408,-0.5 414,-0.5"/>
<text text-anchor="middle" x="524" y="-136.3" font-family="Times,serif" font-size="14.00">Transaction</text>
<polyline fill="none" stroke="black" points="402,-128.5 646,-128.5 "/>
<text text-anchor="start" x="410" y="-113.3" font-family="Times,serif" font-size="14.00">id :integer</text>
<text text-anchor="start" x="410" y="-98.3" font-family="Times,serif" font-size="14.00">product_id :integer</text>
<text text-anchor="start" x="410" y="-83.3" font-family="Times,serif" font-size="14.00">consumer_id :integer</text>
<text text-anchor="start" x="410" y="-68.3" font-family="Times,serif" font-size="14.00">amount :double precision</text>
<text text-anchor="start" x="410" y="-53.3" font-family="Times,serif" font-size="14.00">unitary_price :double precision</text>
<text text-anchor="start" x="410" y="-38.3" font-family="Times,serif" font-size="14.00">total_price :double precision</text>
<text text-anchor="start" x="410" y="-23.3" font-family="Times,serif" font-size="14.00">created_at :timestamp without time zone</text>
<text text-anchor="start" x="410" y="-8.3" font-family="Times,serif" font-size="14.00">updated_at :timestamp without time zone</text>
</g>
<!-- Consumer&#45;&gt;Transaction -->
<g id="edge2" class="edge"><title>Consumer&#45;&gt;Transaction</title>
<path fill="none" stroke="#c4145c" d="M203.137,-437.262C220.833,-413.49 240.23,-384.096 253,-355 283.591,-285.298 243.435,-247.428 291,-188 317.005,-155.509 354.81,-131.983 392.43,-115.194"/>
<ellipse fill="none" stroke="#c4145c" cx="200.606" cy="-440.619" rx="4.00002" ry="4.00002"/>
<polygon fill="#c4145c" stroke="#c4145c" points="392.802,-115.033 403.767,-115.201 397.393,-113.051 401.983,-111.069 401.983,-111.069 401.983,-111.069 397.393,-113.051 400.199,-106.938 392.802,-115.033 392.802,-115.033"/>
</g>
<!-- CreditCard -->
<g id="node12" class="node"><title>CreditCard</title>
<path fill="none" stroke="black" d="M312,-188.5C312,-188.5 532,-188.5 532,-188.5 538,-188.5 544,-194.5 544,-200.5 544,-200.5 544,-342.5 544,-342.5 544,-348.5 538,-354.5 532,-354.5 532,-354.5 312,-354.5 312,-354.5 306,-354.5 300,-348.5 300,-342.5 300,-342.5 300,-200.5 300,-200.5 300,-194.5 306,-188.5 312,-188.5"/>
<text text-anchor="middle" x="422" y="-339.3" font-family="Times,serif" font-size="14.00">CreditCard</text>
<polyline fill="none" stroke="black" points="300,-331.5 544,-331.5 "/>
<text text-anchor="start" x="308" y="-316.3" font-family="Times,serif" font-size="14.00">id :integer</text>
<text text-anchor="start" x="308" y="-301.3" font-family="Times,serif" font-size="14.00">consumer_id :integer</text>
<text text-anchor="start" x="308" y="-286.3" font-family="Times,serif" font-size="14.00">name :character varying</text>
<text text-anchor="start" x="308" y="-271.3" font-family="Times,serif" font-size="14.00">number :integer</text>
<text text-anchor="start" x="308" y="-256.3" font-family="Times,serif" font-size="14.00">digit :integer</text>
<text text-anchor="start" x="308" y="-241.3" font-family="Times,serif" font-size="14.00">flag :character varying</text>
<text text-anchor="start" x="308" y="-226.3" font-family="Times,serif" font-size="14.00">expiration :character varying</text>
<text text-anchor="start" x="308" y="-211.3" font-family="Times,serif" font-size="14.00">created_at :timestamp without time zone</text>
<text text-anchor="start" x="308" y="-196.3" font-family="Times,serif" font-size="14.00">updated_at :timestamp without time zone</text>
</g>
<!-- Consumer&#45;&gt;CreditCard -->
<g id="edge1" class="edge"><title>Consumer&#45;&gt;CreditCard</title>
<path fill="none" stroke="#55b122" d="M221.396,-438.517C249.167,-415.534 282.961,-387.567 314.835,-361.188"/>
<ellipse fill="none" stroke="#55b122" cx="218.161" cy="-441.194" rx="4.00002" ry="4.00002"/>
<polygon fill="#55b122" stroke="#55b122" points="315.188,-360.896 325.761,-357.987 319.04,-357.708 322.892,-354.52 322.892,-354.52 322.892,-354.52 319.04,-357.708 320.023,-351.053 315.188,-360.896 315.188,-360.896"/>
</g>
<!-- Picture -->
<g id="node3" class="node"><title>Picture</title>
<path fill="none" stroke="black" d="M746,-0.5C746,-0.5 1006,-0.5 1006,-0.5 1012,-0.5 1018,-6.5 1018,-12.5 1018,-12.5 1018,-139.5 1018,-139.5 1018,-145.5 1012,-151.5 1006,-151.5 1006,-151.5 746,-151.5 746,-151.5 740,-151.5 734,-145.5 734,-139.5 734,-139.5 734,-12.5 734,-12.5 734,-6.5 740,-0.5 746,-0.5"/>
<text text-anchor="middle" x="876" y="-136.3" font-family="Times,serif" font-size="14.00">Picture</text>
<polyline fill="none" stroke="black" points="734,-128.5 1018,-128.5 "/>
<text text-anchor="start" x="742" y="-113.3" font-family="Times,serif" font-size="14.00">id :integer</text>
<text text-anchor="start" x="742" y="-98.3" font-family="Times,serif" font-size="14.00">product_id :integer</text>
<text text-anchor="start" x="742" y="-83.3" font-family="Times,serif" font-size="14.00">created_at :timestamp without time zone</text>
<text text-anchor="start" x="742" y="-68.3" font-family="Times,serif" font-size="14.00">updated_at :timestamp without time zone</text>
<text text-anchor="start" x="742" y="-53.3" font-family="Times,serif" font-size="14.00">image_file_name :character varying</text>
<text text-anchor="start" x="742" y="-38.3" font-family="Times,serif" font-size="14.00">image_content_type :character varying</text>
<text text-anchor="start" x="742" y="-23.3" font-family="Times,serif" font-size="14.00">image_file_size :integer</text>
<text text-anchor="start" x="742" y="-8.3" font-family="Times,serif" font-size="14.00">image_updated_at :timestamp without time zone</text>
</g>
<!-- CartItem -->
<g id="node14" class="node"><title>CartItem</title>
<path fill="none" stroke="black" d="M12,-15.5C12,-15.5 232,-15.5 232,-15.5 238,-15.5 244,-21.5 244,-27.5 244,-27.5 244,-124.5 244,-124.5 244,-130.5 238,-136.5 232,-136.5 232,-136.5 12,-136.5 12,-136.5 6,-136.5 0,-130.5 0,-124.5 0,-124.5 0,-27.5 0,-27.5 0,-21.5 6,-15.5 12,-15.5"/>
<text text-anchor="middle" x="122" y="-121.3" font-family="Times,serif" font-size="14.00">CartItem</text>
<polyline fill="none" stroke="black" points="0,-113.5 244,-113.5 "/>
<text text-anchor="start" x="8" y="-98.3" font-family="Times,serif" font-size="14.00">id :integer</text>
<text text-anchor="start" x="8" y="-83.3" font-family="Times,serif" font-size="14.00">shopping_cart_id :integer</text>
<text text-anchor="start" x="8" y="-68.3" font-family="Times,serif" font-size="14.00">quantity :double precision</text>
<text text-anchor="start" x="8" y="-53.3" font-family="Times,serif" font-size="14.00">unitary_price :double precision</text>
<text text-anchor="start" x="8" y="-38.3" font-family="Times,serif" font-size="14.00">created_at :timestamp without time zone</text>
<text text-anchor="start" x="8" y="-23.3" font-family="Times,serif" font-size="14.00">updated_at :timestamp without time zone</text>
</g>
<!-- ShoppingCart&#45;&gt;CartItem -->
<g id="edge4" class="edge"><title>ShoppingCart&#45;&gt;CartItem</title>
<path fill="none" stroke="#7685db" d="M122,-180.24C122,-169.016 122,-157.675 122,-146.825"/>
<ellipse fill="none" stroke="#7685db" cx="122" cy="-184.439" rx="4" ry="4"/>
<polygon fill="#7685db" stroke="#7685db" points="122,-146.592 126.5,-136.592 122,-141.592 122,-136.592 122,-136.592 122,-136.592 122,-141.592 117.5,-136.592 122,-146.592 122,-146.592"/>
</g>
<!-- Keyword -->
<g id="node5" class="node"><title>Keyword</title>
<path fill="none" stroke="black" d="M1048,-23C1048,-23 1268,-23 1268,-23 1274,-23 1280,-29 1280,-35 1280,-35 1280,-117 1280,-117 1280,-123 1274,-129 1268,-129 1268,-129 1048,-129 1048,-129 1042,-129 1036,-123 1036,-117 1036,-117 1036,-35 1036,-35 1036,-29 1042,-23 1048,-23"/>
<text text-anchor="middle" x="1158" y="-113.8" font-family="Times,serif" font-size="14.00">Keyword</text>
<polyline fill="none" stroke="black" points="1036,-106 1280,-106 "/>
<text text-anchor="start" x="1044" y="-90.8" font-family="Times,serif" font-size="14.00">id :integer</text>
<text text-anchor="start" x="1044" y="-75.8" font-family="Times,serif" font-size="14.00">product_id :integer</text>
<text text-anchor="start" x="1044" y="-60.8" font-family="Times,serif" font-size="14.00">word :character varying</text>
<text text-anchor="start" x="1044" y="-45.8" font-family="Times,serif" font-size="14.00">created_at :timestamp without time zone</text>
<text text-anchor="start" x="1044" y="-30.8" font-family="Times,serif" font-size="14.00">updated_at :timestamp without time zone</text>
</g>
<!-- Address -->
<g id="node6" class="node"><title>Address</title>
<path fill="none" stroke="black" d="M313,-391.5C313,-391.5 533,-391.5 533,-391.5 539,-391.5 545,-397.5 545,-403.5 545,-403.5 545,-575.5 545,-575.5 545,-581.5 539,-587.5 533,-587.5 533,-587.5 313,-587.5 313,-587.5 307,-587.5 301,-581.5 301,-575.5 301,-575.5 301,-403.5 301,-403.5 301,-397.5 307,-391.5 313,-391.5"/>
<text text-anchor="middle" x="423" y="-572.3" font-family="Times,serif" font-size="14.00">Address</text>
<polyline fill="none" stroke="black" points="301,-564.5 545,-564.5 "/>
<text text-anchor="start" x="309" y="-549.3" font-family="Times,serif" font-size="14.00">id :integer</text>
<text text-anchor="start" x="309" y="-534.3" font-family="Times,serif" font-size="14.00">client_id :integer</text>
<text text-anchor="start" x="309" y="-519.3" font-family="Times,serif" font-size="14.00">cep :integer</text>
<text text-anchor="start" x="309" y="-504.3" font-family="Times,serif" font-size="14.00">street :character varying</text>
<text text-anchor="start" x="309" y="-489.3" font-family="Times,serif" font-size="14.00">number :integer</text>
<text text-anchor="start" x="309" y="-474.3" font-family="Times,serif" font-size="14.00">complement :character varying</text>
<text text-anchor="start" x="309" y="-459.3" font-family="Times,serif" font-size="14.00">neighborhood :character varying</text>
<text text-anchor="start" x="309" y="-444.3" font-family="Times,serif" font-size="14.00">city :character varying</text>
<text text-anchor="start" x="309" y="-429.3" font-family="Times,serif" font-size="14.00">country :character varying</text>
<text text-anchor="start" x="309" y="-414.3" font-family="Times,serif" font-size="14.00">created_at :timestamp without time zone</text>
<text text-anchor="start" x="309" y="-399.3" font-family="Times,serif" font-size="14.00">updated_at :timestamp without time zone</text>
</g>
<!-- ApplicationRecord -->
<g id="node7" class="node"><title>ApplicationRecord</title>
<ellipse fill="none" stroke="black" cx="806" cy="-760" rx="77.1866" ry="18"/>
<text text-anchor="middle" x="806" y="-756.3" font-family="Times,serif" font-size="14.00">ApplicationRecord</text>
</g>
<!-- Client -->
<g id="node8" class="node"><title>Client</title>
<path fill="none" stroke="black" d="M409.5,-624.5C409.5,-624.5 698.5,-624.5 698.5,-624.5 704.5,-624.5 710.5,-630.5 710.5,-636.5 710.5,-636.5 710.5,-883.5 710.5,-883.5 710.5,-889.5 704.5,-895.5 698.5,-895.5 698.5,-895.5 409.5,-895.5 409.5,-895.5 403.5,-895.5 397.5,-889.5 397.5,-883.5 397.5,-883.5 397.5,-636.5 397.5,-636.5 397.5,-630.5 403.5,-624.5 409.5,-624.5"/>
<text text-anchor="middle" x="554" y="-880.3" font-family="Times,serif" font-size="14.00">Client</text>
<polyline fill="none" stroke="black" points="397.5,-872.5 710.5,-872.5 "/>
<text text-anchor="start" x="405.5" y="-857.3" font-family="Times,serif" font-size="14.00">id :integer</text>
<text text-anchor="start" x="405.5" y="-842.3" font-family="Times,serif" font-size="14.00">login :character varying</text>
<text text-anchor="start" x="405.5" y="-827.3" font-family="Times,serif" font-size="14.00">name :character varying</text>
<text text-anchor="start" x="405.5" y="-812.3" font-family="Times,serif" font-size="14.00">cpf :character varying(11)</text>
<text text-anchor="start" x="405.5" y="-797.3" font-family="Times,serif" font-size="14.00">created_at :timestamp without time zone</text>
<text text-anchor="start" x="405.5" y="-782.3" font-family="Times,serif" font-size="14.00">updated_at :timestamp without time zone</text>
<text text-anchor="start" x="405.5" y="-767.3" font-family="Times,serif" font-size="14.00">email :character varying</text>
<text text-anchor="start" x="405.5" y="-752.3" font-family="Times,serif" font-size="14.00">encrypted_password :character varying</text>
<text text-anchor="start" x="405.5" y="-737.3" font-family="Times,serif" font-size="14.00">reset_password_token :character varying</text>
<text text-anchor="start" x="405.5" y="-722.3" font-family="Times,serif" font-size="14.00">reset_password_sent_at :timestamp without time zone</text>
<text text-anchor="start" x="405.5" y="-707.3" font-family="Times,serif" font-size="14.00">remember_created_at :timestamp without time zone</text>
<text text-anchor="start" x="405.5" y="-692.3" font-family="Times,serif" font-size="14.00">sign_in_count :integer</text>
<text text-anchor="start" x="405.5" y="-677.3" font-family="Times,serif" font-size="14.00">current_sign_in_at :timestamp without time zone</text>
<text text-anchor="start" x="405.5" y="-662.3" font-family="Times,serif" font-size="14.00">last_sign_in_at :timestamp without time zone</text>
<text text-anchor="start" x="405.5" y="-647.3" font-family="Times,serif" font-size="14.00">current_sign_in_ip :inet</text>
<text text-anchor="start" x="405.5" y="-632.3" font-family="Times,serif" font-size="14.00">last_sign_in_ip :inet</text>
</g>
<!-- Client&#45;&gt;Consumer -->
<g id="edge7" class="edge"><title>Client&#45;&gt;Consumer</title>
<path fill="none" stroke="#0bfe14" d="M390.296,-625.327C389.531,-624.881 388.765,-624.439 388,-624 348.473,-601.328 332.005,-609.818 292,-588 267.301,-574.529 242.066,-556.852 220.422,-540.253"/>
<ellipse fill="none" stroke="#0bfe14" cx="393.746" cy="-627.381" rx="4.00002" ry="4.00002"/>
<ellipse fill="#0bfe14" stroke="#0bfe14" cx="216.987" cy="-537.591" rx="4.00002" ry="4.00002"/>
</g>
<!-- Client&#45;&gt;Address -->
<g id="edge6" class="edge"><title>Client&#45;&gt;Address</title>
<path fill="none" stroke="#ed0685" d="M484.756,-617.077C481.406,-610.21 478.069,-603.37 474.78,-596.629"/>
<ellipse fill="none" stroke="#ed0685" cx="486.554" cy="-620.762" rx="4.00002" ry="4.00002"/>
<polygon fill="#ed0685" stroke="#ed0685" points="474.713,-596.492 474.373,-585.532 472.521,-591.999 470.328,-587.505 470.328,-587.505 470.328,-587.505 472.521,-591.999 466.284,-589.478 474.713,-596.492 474.713,-596.492"/>
</g>
<!-- Telephone -->
<g id="node10" class="node"><title>Telephone</title>
<path fill="none" stroke="black" d="M575,-436.5C575,-436.5 795,-436.5 795,-436.5 801,-436.5 807,-442.5 807,-448.5 807,-448.5 807,-530.5 807,-530.5 807,-536.5 801,-542.5 795,-542.5 795,-542.5 575,-542.5 575,-542.5 569,-542.5 563,-536.5 563,-530.5 563,-530.5 563,-448.5 563,-448.5 563,-442.5 569,-436.5 575,-436.5"/>
<text text-anchor="middle" x="685" y="-527.3" font-family="Times,serif" font-size="14.00">Telephone</text>
<polyline fill="none" stroke="black" points="563,-519.5 807,-519.5 "/>
<text text-anchor="start" x="571" y="-504.3" font-family="Times,serif" font-size="14.00">id :integer</text>
<text text-anchor="start" x="571" y="-489.3" font-family="Times,serif" font-size="14.00">client_id :integer</text>
<text text-anchor="start" x="571" y="-474.3" font-family="Times,serif" font-size="14.00">telephone :integer</text>
<text text-anchor="start" x="571" y="-459.3" font-family="Times,serif" font-size="14.00">created_at :timestamp without time zone</text>
<text text-anchor="start" x="571" y="-444.3" font-family="Times,serif" font-size="14.00">updated_at :timestamp without time zone</text>
</g>
<!-- Client&#45;&gt;Telephone -->
<g id="edge5" class="edge"><title>Client&#45;&gt;Telephone</title>
<path fill="none" stroke="#56a3c7" d="M623.344,-616.872C634.51,-593.985 645.527,-571.405 655.09,-551.804"/>
<ellipse fill="none" stroke="#56a3c7" cx="621.446" cy="-620.762" rx="4.00002" ry="4.00002"/>
<polygon fill="#56a3c7" stroke="#56a3c7" points="655.134,-551.713 663.563,-544.699 657.327,-547.22 659.519,-542.726 659.519,-542.726 659.519,-542.726 657.327,-547.22 655.475,-540.753 655.134,-551.713 655.134,-551.713"/>
</g>
<!-- Professional -->
<g id="node11" class="node"><title>Professional</title>
<path fill="none" stroke="black" d="M837,-444C837,-444 1057,-444 1057,-444 1063,-444 1069,-450 1069,-456 1069,-456 1069,-523 1069,-523 1069,-529 1063,-535 1057,-535 1057,-535 837,-535 837,-535 831,-535 825,-529 825,-523 825,-523 825,-456 825,-456 825,-450 831,-444 837,-444"/>
<text text-anchor="middle" x="947" y="-519.8" font-family="Times,serif" font-size="14.00">Professional</text>
<polyline fill="none" stroke="black" points="825,-512 1069,-512 "/>
<text text-anchor="start" x="833" y="-496.8" font-family="Times,serif" font-size="14.00">id :integer</text>
<text text-anchor="start" x="833" y="-481.8" font-family="Times,serif" font-size="14.00">client_id :integer</text>
<text text-anchor="start" x="833" y="-466.8" font-family="Times,serif" font-size="14.00">created_at :timestamp without time zone</text>
<text text-anchor="start" x="833" y="-451.8" font-family="Times,serif" font-size="14.00">updated_at :timestamp without time zone</text>
</g>
<!-- Client&#45;&gt;Professional -->
<g id="edge8" class="edge"><title>Client&#45;&gt;Professional</title>
<path fill="none" stroke="#b52a39" d="M717.704,-625.327C718.469,-624.881 719.235,-624.439 720,-624 759.527,-601.328 775.995,-609.818 816,-588 840.699,-574.529 865.934,-556.852 887.578,-540.253"/>
<ellipse fill="none" stroke="#b52a39" cx="714.254" cy="-627.381" rx="4.00002" ry="4.00002"/>
<ellipse fill="#b52a39" stroke="#b52a39" cx="891.013" cy="-537.591" rx="4.00002" ry="4.00002"/>
</g>
<!-- Banking -->
<g id="node13" class="node"><title>Banking</title>
<path fill="none" stroke="black" d="M575,-203.5C575,-203.5 795,-203.5 795,-203.5 801,-203.5 807,-209.5 807,-215.5 807,-215.5 807,-327.5 807,-327.5 807,-333.5 801,-339.5 795,-339.5 795,-339.5 575,-339.5 575,-339.5 569,-339.5 563,-333.5 563,-327.5 563,-327.5 563,-215.5 563,-215.5 563,-209.5 569,-203.5 575,-203.5"/>
<text text-anchor="middle" x="685" y="-324.3" font-family="Times,serif" font-size="14.00">Banking</text>
<polyline fill="none" stroke="black" points="563,-316.5 807,-316.5 "/>
<text text-anchor="start" x="571" y="-301.3" font-family="Times,serif" font-size="14.00">id :integer</text>
<text text-anchor="start" x="571" y="-286.3" font-family="Times,serif" font-size="14.00">professional_id :integer</text>
<text text-anchor="start" x="571" y="-271.3" font-family="Times,serif" font-size="14.00">bank :integer</text>
<text text-anchor="start" x="571" y="-256.3" font-family="Times,serif" font-size="14.00">agency :integer</text>
<text text-anchor="start" x="571" y="-241.3" font-family="Times,serif" font-size="14.00">account :integer</text>
<text text-anchor="start" x="571" y="-226.3" font-family="Times,serif" font-size="14.00">created_at :timestamp without time zone</text>
<text text-anchor="start" x="571" y="-211.3" font-family="Times,serif" font-size="14.00">updated_at :timestamp without time zone</text>
</g>
<!-- Professional&#45;&gt;Banking -->
<g id="edge9" class="edge"><title>Professional&#45;&gt;Banking</title>
<path fill="none" stroke="#23f6e2" d="M886.176,-438.355C852.895,-410.918 811.042,-376.412 774.14,-345.99"/>
<ellipse fill="none" stroke="#23f6e2" cx="889.627" cy="-441.2" rx="4.00002" ry="4.00002"/>
<polygon fill="#23f6e2" stroke="#23f6e2" points="774.062,-345.925 769.209,-336.092 770.204,-342.745 766.346,-339.564 766.346,-339.564 766.346,-339.564 770.204,-342.745 763.484,-343.036 774.062,-345.925 774.062,-345.925"/>
</g>
<!-- Product -->
<g id="node15" class="node"><title>Product</title>
<path fill="none" stroke="black" d="M837,-188.5C837,-188.5 1057,-188.5 1057,-188.5 1063,-188.5 1069,-194.5 1069,-200.5 1069,-200.5 1069,-342.5 1069,-342.5 1069,-348.5 1063,-354.5 1057,-354.5 1057,-354.5 837,-354.5 837,-354.5 831,-354.5 825,-348.5 825,-342.5 825,-342.5 825,-200.5 825,-200.5 825,-194.5 831,-188.5 837,-188.5"/>
<text text-anchor="middle" x="947" y="-339.3" font-family="Times,serif" font-size="14.00">Product</text>
<polyline fill="none" stroke="black" points="825,-331.5 1069,-331.5 "/>
<text text-anchor="start" x="833" y="-316.3" font-family="Times,serif" font-size="14.00">id :integer</text>
<text text-anchor="start" x="833" y="-301.3" font-family="Times,serif" font-size="14.00">professional_id :integer</text>
<text text-anchor="start" x="833" y="-286.3" font-family="Times,serif" font-size="14.00">name :character varying</text>
<text text-anchor="start" x="833" y="-271.3" font-family="Times,serif" font-size="14.00">description :text</text>
<text text-anchor="start" x="833" y="-256.3" font-family="Times,serif" font-size="14.00">price :double precision</text>
<text text-anchor="start" x="833" y="-241.3" font-family="Times,serif" font-size="14.00">rating :integer</text>
<text text-anchor="start" x="833" y="-226.3" font-family="Times,serif" font-size="14.00">maxQuantity :integer</text>
<text text-anchor="start" x="833" y="-211.3" font-family="Times,serif" font-size="14.00">created_at :timestamp without time zone</text>
<text text-anchor="start" x="833" y="-196.3" font-family="Times,serif" font-size="14.00">updated_at :timestamp without time zone</text>
</g>
<!-- Professional&#45;&gt;Product -->
<g id="edge10" class="edge"><title>Professional&#45;&gt;Product</title>
<path fill="none" stroke="#70055f" d="M947,-435.696C947,-414.395 947,-389.177 947,-365.014"/>
<ellipse fill="none" stroke="#70055f" cx="947" cy="-439.745" rx="4" ry="4"/>
<polygon fill="#70055f" stroke="#70055f" points="947,-364.738 951.5,-354.738 947,-359.738 947,-354.738 947,-354.738 947,-354.738 947,-359.738 942.5,-354.738 947,-364.738 947,-364.738"/>
</g>
<!-- Product&#45;&gt;Picture -->
<g id="edge13" class="edge"><title>Product&#45;&gt;Picture</title>
<path fill="none" stroke="#d65861" d="M914.03,-180.646C911.627,-174.095 909.207,-167.502 906.817,-160.987"/>
<ellipse fill="none" stroke="#d65861" cx="915.512" cy="-184.683" rx="4.00001" ry="4.00001"/>
<polygon fill="#d65861" stroke="#d65861" points="906.785,-160.9 907.565,-149.961 905.063,-156.206 903.34,-151.512 903.34,-151.512 903.34,-151.512 905.063,-156.206 899.116,-153.062 906.785,-160.9 906.785,-160.9"/>
</g>
<!-- Product&#45;&gt;Keyword -->
<g id="edge12" class="edge"><title>Product&#45;&gt;Keyword</title>
<path fill="none" stroke="#51364c" d="M1042.41,-183.006C1059.65,-167.197 1077.25,-151.055 1093.35,-136.289"/>
<ellipse fill="none" stroke="#51364c" cx="1039.43" cy="-185.735" rx="4.00002" ry="4.00002"/>
<polygon fill="#51364c" stroke="#51364c" points="1093.75,-135.918 1104.17,-132.475 1097.44,-132.538 1101.12,-129.159 1101.12,-129.159 1101.12,-129.159 1097.44,-132.538 1098.08,-125.842 1093.75,-135.918 1093.75,-135.918"/>
</g>
<!-- Product&#45;&gt;Transaction -->
<g id="edge11" class="edge"><title>Product&#45;&gt;Transaction</title>
<path fill="none" stroke="#b15d54" d="M817.354,-188.678C816.902,-188.451 816.451,-188.225 816,-188 807.928,-183.974 729.362,-154.146 655.764,-126.426"/>
<ellipse fill="none" stroke="#b15d54" cx="821.144" cy="-190.623" rx="4.00002" ry="4.00002"/>
<polygon fill="#b15d54" stroke="#b15d54" points="655.712,-126.406 647.939,-118.671 651.033,-124.645 646.354,-122.883 646.354,-122.883 646.354,-122.883 651.033,-124.645 644.768,-127.094 655.712,-126.406 655.712,-126.406"/>
</g>
</g>
</svg>
