<?xml version="1.0" encoding="UTF-8" standalone="no"?>
<!DOCTYPE svg PUBLIC "-//W3C//DTD SVG 1.1//EN"
 "http://www.w3.org/Graphics/SVG/1.1/DTD/svg11.dtd">
<!-- Generated by graphviz version 2.38.0 (20140413.2041)
 -->
<!-- Title: models_diagram Pages: 1 -->
<svg width="1310pt" height="919pt"
 viewBox="0.00 0.00 1310.00 919.00" xmlns="http://www.w3.org/2000/svg" xmlns:xlink="http://www.w3.org/1999/xlink">
<g id="graph0" class="graph" transform="scale(1 1) rotate(0) translate(4 915)">
<title>models_diagram</title>
<polygon fill="none" stroke="none" points="-4,4 -4,-915 1306,-915 1306,4 -4,4"/>
<!-- _diagram_info -->
<g id="node1" class="node"><title>_diagram_info</title>
<text text-anchor="start" x="406" y="-799.6" font-family="Times,serif" font-size="13.00">Models diagram</text>
<text text-anchor="start" x="406" y="-785.6" font-family="Times,serif" font-size="13.00">Date: Oct 13 2016 &#45; 17:42</text>
<text text-anchor="start" x="406" y="-771.6" font-family="Times,serif" font-size="13.00">Migration version: 20161013203116</text>
<text text-anchor="start" x="406" y="-757.6" font-family="Times,serif" font-size="13.00">Generated by RailRoady 1.5.2</text>
<text text-anchor="start" x="406" y="-743.6" font-family="Times,serif" font-size="13.00">http://railroady.prestonlee.com</text>
</g>
<!-- Consumer -->
<g id="node2" class="node"><title>Consumer</title>
<path fill="none" stroke="black" d="M808,-459C808,-459 1028,-459 1028,-459 1034,-459 1040,-465 1040,-471 1040,-471 1040,-538 1040,-538 1040,-544 1034,-550 1028,-550 1028,-550 808,-550 808,-550 802,-550 796,-544 796,-538 796,-538 796,-471 796,-471 796,-465 802,-459 808,-459"/>
<text text-anchor="middle" x="918" y="-534.8" font-family="Times,serif" font-size="14.00">Consumer</text>
<polyline fill="none" stroke="black" points="796,-527 1040,-527 "/>
<text text-anchor="start" x="804" y="-511.8" font-family="Times,serif" font-size="14.00">id :integer</text>
<text text-anchor="start" x="804" y="-496.8" font-family="Times,serif" font-size="14.00">client_id :integer</text>
<text text-anchor="start" x="804" y="-481.8" font-family="Times,serif" font-size="14.00">created_at :timestamp without time zone</text>
<text text-anchor="start" x="804" y="-466.8" font-family="Times,serif" font-size="14.00">updated_at :timestamp without time zone</text>
</g>
<!-- ShoppingCart -->
<g id="node4" class="node"><title>ShoppingCart</title>
<path fill="none" stroke="black" d="M939,-196C939,-196 1159,-196 1159,-196 1165,-196 1171,-202 1171,-208 1171,-208 1171,-350 1171,-350 1171,-356 1165,-362 1159,-362 1159,-362 939,-362 939,-362 933,-362 927,-356 927,-350 927,-350 927,-208 927,-208 927,-202 933,-196 939,-196"/>
<text text-anchor="middle" x="1049" y="-346.8" font-family="Times,serif" font-size="14.00">ShoppingCart</text>
<polyline fill="none" stroke="black" points="927,-339 1171,-339 "/>
<text text-anchor="start" x="935" y="-323.8" font-family="Times,serif" font-size="14.00">id :integer</text>
<text text-anchor="start" x="935" y="-308.8" font-family="Times,serif" font-size="14.00">consumer_id :integer</text>
<text text-anchor="start" x="935" y="-293.8" font-family="Times,serif" font-size="14.00">status :integer</text>
<text text-anchor="start" x="935" y="-278.8" font-family="Times,serif" font-size="14.00">fees :double precision</text>
<text text-anchor="start" x="935" y="-263.8" font-family="Times,serif" font-size="14.00">gain :double precision</text>
<text text-anchor="start" x="935" y="-248.8" font-family="Times,serif" font-size="14.00">promotion_discount :double precision</text>
<text text-anchor="start" x="935" y="-233.8" font-family="Times,serif" font-size="14.00">total_paid :double precision</text>
<text text-anchor="start" x="935" y="-218.8" font-family="Times,serif" font-size="14.00">created_at :timestamp without time zone</text>
<text text-anchor="start" x="935" y="-203.8" font-family="Times,serif" font-size="14.00">updated_at :timestamp without time zone</text>
</g>
<!-- Consumer&#45;&gt;ShoppingCart -->
<g id="edge3" class="edge"><title>Consumer&#45;&gt;ShoppingCart</title>
<path fill="none" stroke="#9df830" d="M948.281,-451.837C962.354,-427.828 979.513,-398.552 995.653,-371.016"/>
<ellipse fill="none" stroke="#9df830" cx="946.218" cy="-455.358" rx="4.00002" ry="4.00002"/>
<polygon fill="#9df830" stroke="#9df830" points="995.795,-370.773 1004.73,-364.421 998.323,-366.46 1000.85,-362.146 1000.85,-362.146 1000.85,-362.146 998.323,-366.46 996.97,-359.87 995.795,-370.773 995.795,-370.773"/>
</g>
<!-- Transaction -->
<g id="node10" class="node"><title>Transaction</title>
<path fill="none" stroke="black" d="M1026,-0.5C1026,-0.5 1246,-0.5 1246,-0.5 1252,-0.5 1258,-6.5 1258,-12.5 1258,-12.5 1258,-139.5 1258,-139.5 1258,-145.5 1252,-151.5 1246,-151.5 1246,-151.5 1026,-151.5 1026,-151.5 1020,-151.5 1014,-145.5 1014,-139.5 1014,-139.5 1014,-12.5 1014,-12.5 1014,-6.5 1020,-0.5 1026,-0.5"/>
<text text-anchor="middle" x="1136" y="-136.3" font-family="Times,serif" font-size="14.00">Transaction</text>
<polyline fill="none" stroke="black" points="1014,-128.5 1258,-128.5 "/>
<text text-anchor="start" x="1022" y="-113.3" font-family="Times,serif" font-size="14.00">id :integer</text>
<text text-anchor="start" x="1022" y="-98.3" font-family="Times,serif" font-size="14.00">product_id :integer</text>
<text text-anchor="start" x="1022" y="-83.3" font-family="Times,serif" font-size="14.00">consumer_id :integer</text>
<text text-anchor="start" x="1022" y="-68.3" font-family="Times,serif" font-size="14.00">amount :double precision</text>
<text text-anchor="start" x="1022" y="-53.3" font-family="Times,serif" font-size="14.00">unitary_price :double precision</text>
<text text-anchor="start" x="1022" y="-38.3" font-family="Times,serif" font-size="14.00">total_price :double precision</text>
<text text-anchor="start" x="1022" y="-23.3" font-family="Times,serif" font-size="14.00">created_at :timestamp without time zone</text>
<text text-anchor="start" x="1022" y="-8.3" font-family="Times,serif" font-size="14.00">updated_at :timestamp without time zone</text>
</g>
<!-- Consumer&#45;&gt;Transaction -->
<g id="edge2" class="edge"><title>Consumer&#45;&gt;Transaction</title>
<path fill="none" stroke="#9bb8eb" d="M975.009,-453.838C996.968,-436.715 1023.03,-418.675 1049,-406 1103.26,-379.519 1143.4,-418.02 1180,-370 1225.16,-310.758 1205.15,-224.78 1179.24,-161.272"/>
<ellipse fill="none" stroke="#9bb8eb" cx="971.769" cy="-456.397" rx="4.00002" ry="4.00002"/>
<polygon fill="#9bb8eb" stroke="#9bb8eb" points="1179.09,-160.897 1179.37,-149.935 1177.15,-156.287 1175.22,-151.676 1175.22,-151.676 1175.22,-151.676 1177.15,-156.287 1171.07,-153.418 1179.09,-160.897 1179.09,-160.897"/>
</g>
<!-- CreditCard -->
<g id="node13" class="node"><title>CreditCard</title>
<path fill="none" stroke="black" d="M677,-196C677,-196 897,-196 897,-196 903,-196 909,-202 909,-208 909,-208 909,-350 909,-350 909,-356 903,-362 897,-362 897,-362 677,-362 677,-362 671,-362 665,-356 665,-350 665,-350 665,-208 665,-208 665,-202 671,-196 677,-196"/>
<text text-anchor="middle" x="787" y="-346.8" font-family="Times,serif" font-size="14.00">CreditCard</text>
<polyline fill="none" stroke="black" points="665,-339 909,-339 "/>
<text text-anchor="start" x="673" y="-323.8" font-family="Times,serif" font-size="14.00">id :integer</text>
<text text-anchor="start" x="673" y="-308.8" font-family="Times,serif" font-size="14.00">consumer_id :integer</text>
<text text-anchor="start" x="673" y="-293.8" font-family="Times,serif" font-size="14.00">name :character varying</text>
<text text-anchor="start" x="673" y="-278.8" font-family="Times,serif" font-size="14.00">number :integer</text>
<text text-anchor="start" x="673" y="-263.8" font-family="Times,serif" font-size="14.00">digit :integer</text>
<text text-anchor="start" x="673" y="-248.8" font-family="Times,serif" font-size="14.00">flag :character varying</text>
<text text-anchor="start" x="673" y="-233.8" font-family="Times,serif" font-size="14.00">expiration :character varying</text>
<text text-anchor="start" x="673" y="-218.8" font-family="Times,serif" font-size="14.00">created_at :timestamp without time zone</text>
<text text-anchor="start" x="673" y="-203.8" font-family="Times,serif" font-size="14.00">updated_at :timestamp without time zone</text>
</g>
<!-- Consumer&#45;&gt;CreditCard -->
<g id="edge1" class="edge"><title>Consumer&#45;&gt;CreditCard</title>
<path fill="none" stroke="#03197e" d="M887.719,-451.837C873.646,-427.828 856.487,-398.552 840.347,-371.016"/>
<ellipse fill="none" stroke="#03197e" cx="889.782" cy="-455.358" rx="4.00002" ry="4.00002"/>
<polygon fill="#03197e" stroke="#03197e" points="840.205,-370.773 839.03,-359.87 837.677,-366.46 835.148,-362.146 835.148,-362.146 835.148,-362.146 837.677,-366.46 831.266,-364.421 840.205,-370.773 840.205,-370.773"/>
</g>
<!-- Picture -->
<g id="node3" class="node"><title>Picture</title>
<path fill="none" stroke="black" d="M274,-0.5C274,-0.5 534,-0.5 534,-0.5 540,-0.5 546,-6.5 546,-12.5 546,-12.5 546,-139.5 546,-139.5 546,-145.5 540,-151.5 534,-151.5 534,-151.5 274,-151.5 274,-151.5 268,-151.5 262,-145.5 262,-139.5 262,-139.5 262,-12.5 262,-12.5 262,-6.5 268,-0.5 274,-0.5"/>
<text text-anchor="middle" x="404" y="-136.3" font-family="Times,serif" font-size="14.00">Picture</text>
<polyline fill="none" stroke="black" points="262,-128.5 546,-128.5 "/>
<text text-anchor="start" x="270" y="-113.3" font-family="Times,serif" font-size="14.00">id :integer</text>
<text text-anchor="start" x="270" y="-98.3" font-family="Times,serif" font-size="14.00">product_id :integer</text>
<text text-anchor="start" x="270" y="-83.3" font-family="Times,serif" font-size="14.00">created_at :timestamp without time zone</text>
<text text-anchor="start" x="270" y="-68.3" font-family="Times,serif" font-size="14.00">updated_at :timestamp without time zone</text>
<text text-anchor="start" x="270" y="-53.3" font-family="Times,serif" font-size="14.00">image_file_name :character varying</text>
<text text-anchor="start" x="270" y="-38.3" font-family="Times,serif" font-size="14.00">image_content_type :character varying</text>
<text text-anchor="start" x="270" y="-23.3" font-family="Times,serif" font-size="14.00">image_file_size :integer</text>
<text text-anchor="start" x="270" y="-8.3" font-family="Times,serif" font-size="14.00">image_updated_at :timestamp without time zone</text>
</g>
<!-- CartItem -->
<g id="node15" class="node"><title>CartItem</title>
<path fill="none" stroke="black" d="M701,-8C701,-8 921,-8 921,-8 927,-8 933,-14 933,-20 933,-20 933,-132 933,-132 933,-138 927,-144 921,-144 921,-144 701,-144 701,-144 695,-144 689,-138 689,-132 689,-132 689,-20 689,-20 689,-14 695,-8 701,-8"/>
<text text-anchor="middle" x="811" y="-128.8" font-family="Times,serif" font-size="14.00">CartItem</text>
<polyline fill="none" stroke="black" points="689,-121 933,-121 "/>
<text text-anchor="start" x="697" y="-105.8" font-family="Times,serif" font-size="14.00">id :integer</text>
<text text-anchor="start" x="697" y="-90.8" font-family="Times,serif" font-size="14.00">shopping_cart_id :integer</text>
<text text-anchor="start" x="697" y="-75.8" font-family="Times,serif" font-size="14.00">product_id :integer</text>
<text text-anchor="start" x="697" y="-60.8" font-family="Times,serif" font-size="14.00">quantity :double precision</text>
<text text-anchor="start" x="697" y="-45.8" font-family="Times,serif" font-size="14.00">unitary_price :double precision</text>
<text text-anchor="start" x="697" y="-30.8" font-family="Times,serif" font-size="14.00">created_at :timestamp without time zone</text>
<text text-anchor="start" x="697" y="-15.8" font-family="Times,serif" font-size="14.00">updated_at :timestamp without time zone</text>
</g>
<!-- ShoppingCart&#45;&gt;CartItem -->
<g id="edge4" class="edge"><title>ShoppingCart&#45;&gt;CartItem</title>
<path fill="none" stroke="#be7bc2" d="M945.601,-190.676C929.847,-177.371 913.721,-163.752 898.355,-150.775"/>
<ellipse fill="none" stroke="#be7bc2" cx="948.797" cy="-193.375" rx="4.00002" ry="4.00002"/>
<polygon fill="#be7bc2" stroke="#be7bc2" points="898.035,-150.504 893.298,-140.614 894.215,-147.278 890.395,-144.052 890.395,-144.052 890.395,-144.052 894.215,-147.278 887.491,-147.49 898.035,-150.504 898.035,-150.504"/>
</g>
<!-- Keyword -->
<g id="node5" class="node"><title>Keyword</title>
<path fill="none" stroke="black" d="M12,-23C12,-23 232,-23 232,-23 238,-23 244,-29 244,-35 244,-35 244,-117 244,-117 244,-123 238,-129 232,-129 232,-129 12,-129 12,-129 6,-129 0,-123 0,-117 0,-117 0,-35 0,-35 0,-29 6,-23 12,-23"/>
<text text-anchor="middle" x="122" y="-113.8" font-family="Times,serif" font-size="14.00">Keyword</text>
<polyline fill="none" stroke="black" points="0,-106 244,-106 "/>
<text text-anchor="start" x="8" y="-90.8" font-family="Times,serif" font-size="14.00">id :integer</text>
<text text-anchor="start" x="8" y="-75.8" font-family="Times,serif" font-size="14.00">product_id :integer</text>
<text text-anchor="start" x="8" y="-60.8" font-family="Times,serif" font-size="14.00">word :character varying</text>
<text text-anchor="start" x="8" y="-45.8" font-family="Times,serif" font-size="14.00">created_at :timestamp without time zone</text>
<text text-anchor="start" x="8" y="-30.8" font-family="Times,serif" font-size="14.00">updated_at :timestamp without time zone</text>
</g>
<!-- Address -->
<g id="node6" class="node"><title>Address</title>
<path fill="none" stroke="black" d="M1070,-406.5C1070,-406.5 1290,-406.5 1290,-406.5 1296,-406.5 1302,-412.5 1302,-418.5 1302,-418.5 1302,-590.5 1302,-590.5 1302,-596.5 1296,-602.5 1290,-602.5 1290,-602.5 1070,-602.5 1070,-602.5 1064,-602.5 1058,-596.5 1058,-590.5 1058,-590.5 1058,-418.5 1058,-418.5 1058,-412.5 1064,-406.5 1070,-406.5"/>
<text text-anchor="middle" x="1180" y="-587.3" font-family="Times,serif" font-size="14.00">Address</text>
<polyline fill="none" stroke="black" points="1058,-579.5 1302,-579.5 "/>
<text text-anchor="start" x="1066" y="-564.3" font-family="Times,serif" font-size="14.00">id :integer</text>
<text text-anchor="start" x="1066" y="-549.3" font-family="Times,serif" font-size="14.00">client_id :integer</text>
<text text-anchor="start" x="1066" y="-534.3" font-family="Times,serif" font-size="14.00">cep :integer</text>
<text text-anchor="start" x="1066" y="-519.3" font-family="Times,serif" font-size="14.00">street :character varying</text>
<text text-anchor="start" x="1066" y="-504.3" font-family="Times,serif" font-size="14.00">number :integer</text>
<text text-anchor="start" x="1066" y="-489.3" font-family="Times,serif" font-size="14.00">complement :character varying</text>
<text text-anchor="start" x="1066" y="-474.3" font-family="Times,serif" font-size="14.00">neighborhood :character varying</text>
<text text-anchor="start" x="1066" y="-459.3" font-family="Times,serif" font-size="14.00">city :character varying</text>
<text text-anchor="start" x="1066" y="-444.3" font-family="Times,serif" font-size="14.00">country :character varying</text>
<text text-anchor="start" x="1066" y="-429.3" font-family="Times,serif" font-size="14.00">created_at :timestamp without time zone</text>
<text text-anchor="start" x="1066" y="-414.3" font-family="Times,serif" font-size="14.00">updated_at :timestamp without time zone</text>
</g>
<!-- ApplicationRecord -->
<g id="node7" class="node"><title>ApplicationRecord</title>
<ellipse fill="none" stroke="black" cx="1039" cy="-775" rx="77.1866" ry="18"/>
<text text-anchor="middle" x="1039" y="-771.3" font-family="Times,serif" font-size="14.00">ApplicationRecord</text>
</g>
<!-- CategoryProduct -->
<g id="node8" class="node"><title>CategoryProduct</title>
<path fill="none" stroke="black" d="M22,-459C22,-459 242,-459 242,-459 248,-459 254,-465 254,-471 254,-471 254,-538 254,-538 254,-544 248,-550 242,-550 242,-550 22,-550 22,-550 16,-550 10,-544 10,-538 10,-538 10,-471 10,-471 10,-465 16,-459 22,-459"/>
<text text-anchor="middle" x="132" y="-534.8" font-family="Times,serif" font-size="14.00">CategoryProduct</text>
<polyline fill="none" stroke="black" points="10,-527 254,-527 "/>
<text text-anchor="start" x="18" y="-511.8" font-family="Times,serif" font-size="14.00">id :integer</text>
<text text-anchor="start" x="18" y="-496.8" font-family="Times,serif" font-size="14.00">name :character varying</text>
<text text-anchor="start" x="18" y="-481.8" font-family="Times,serif" font-size="14.00">created_at :timestamp without time zone</text>
<text text-anchor="start" x="18" y="-466.8" font-family="Times,serif" font-size="14.00">updated_at :timestamp without time zone</text>
</g>
<!-- Product -->
<g id="node16" class="node"><title>Product</title>
<path fill="none" stroke="black" d="M153,-188.5C153,-188.5 373,-188.5 373,-188.5 379,-188.5 385,-194.5 385,-200.5 385,-200.5 385,-357.5 385,-357.5 385,-363.5 379,-369.5 373,-369.5 373,-369.5 153,-369.5 153,-369.5 147,-369.5 141,-363.5 141,-357.5 141,-357.5 141,-200.5 141,-200.5 141,-194.5 147,-188.5 153,-188.5"/>
<text text-anchor="middle" x="263" y="-354.3" font-family="Times,serif" font-size="14.00">Product</text>
<polyline fill="none" stroke="black" points="141,-346.5 385,-346.5 "/>
<text text-anchor="start" x="149" y="-331.3" font-family="Times,serif" font-size="14.00">id :integer</text>
<text text-anchor="start" x="149" y="-316.3" font-family="Times,serif" font-size="14.00">professional_id :integer</text>
<text text-anchor="start" x="149" y="-301.3" font-family="Times,serif" font-size="14.00">category_product_id :integer</text>
<text text-anchor="start" x="149" y="-286.3" font-family="Times,serif" font-size="14.00">name :character varying</text>
<text text-anchor="start" x="149" y="-271.3" font-family="Times,serif" font-size="14.00">description :text</text>
<text text-anchor="start" x="149" y="-256.3" font-family="Times,serif" font-size="14.00">price :double precision</text>
<text text-anchor="start" x="149" y="-241.3" font-family="Times,serif" font-size="14.00">rating :integer</text>
<text text-anchor="start" x="149" y="-226.3" font-family="Times,serif" font-size="14.00">maxQuantity :integer</text>
<text text-anchor="start" x="149" y="-211.3" font-family="Times,serif" font-size="14.00">created_at :timestamp without time zone</text>
<text text-anchor="start" x="149" y="-196.3" font-family="Times,serif" font-size="14.00">updated_at :timestamp without time zone</text>
</g>
<!-- CategoryProduct&#45;&gt;Product -->
<g id="edge5" class="edge"><title>CategoryProduct&#45;&gt;Product</title>
<path fill="none" stroke="#5bf0ab" d="M162.321,-451.77C175.074,-430.011 190.358,-403.935 205.119,-378.751"/>
<ellipse fill="none" stroke="#5bf0ab" cx="160.218" cy="-455.358" rx="4.00002" ry="4.00002"/>
<polygon fill="#5bf0ab" stroke="#5bf0ab" points="205.256,-378.517 214.195,-372.165 207.785,-374.203 210.313,-369.89 210.313,-369.89 210.313,-369.89 207.785,-374.203 206.431,-367.614 205.256,-378.517 205.256,-378.517"/>
</g>
<!-- Client -->
<g id="node9" class="node"><title>Client</title>
<path fill="none" stroke="black" d="M642.5,-639.5C642.5,-639.5 931.5,-639.5 931.5,-639.5 937.5,-639.5 943.5,-645.5 943.5,-651.5 943.5,-651.5 943.5,-898.5 943.5,-898.5 943.5,-904.5 937.5,-910.5 931.5,-910.5 931.5,-910.5 642.5,-910.5 642.5,-910.5 636.5,-910.5 630.5,-904.5 630.5,-898.5 630.5,-898.5 630.5,-651.5 630.5,-651.5 630.5,-645.5 636.5,-639.5 642.5,-639.5"/>
<text text-anchor="middle" x="787" y="-895.3" font-family="Times,serif" font-size="14.00">Client</text>
<polyline fill="none" stroke="black" points="630.5,-887.5 943.5,-887.5 "/>
<text text-anchor="start" x="638.5" y="-872.3" font-family="Times,serif" font-size="14.00">id :integer</text>
<text text-anchor="start" x="638.5" y="-857.3" font-family="Times,serif" font-size="14.00">login :character varying</text>
<text text-anchor="start" x="638.5" y="-842.3" font-family="Times,serif" font-size="14.00">name :character varying</text>
<text text-anchor="start" x="638.5" y="-827.3" font-family="Times,serif" font-size="14.00">cpf :character varying(11)</text>
<text text-anchor="start" x="638.5" y="-812.3" font-family="Times,serif" font-size="14.00">created_at :timestamp without time zone</text>
<text text-anchor="start" x="638.5" y="-797.3" font-family="Times,serif" font-size="14.00">updated_at :timestamp without time zone</text>
<text text-anchor="start" x="638.5" y="-782.3" font-family="Times,serif" font-size="14.00">email :character varying</text>
<text text-anchor="start" x="638.5" y="-767.3" font-family="Times,serif" font-size="14.00">encrypted_password :character varying</text>
<text text-anchor="start" x="638.5" y="-752.3" font-family="Times,serif" font-size="14.00">reset_password_token :character varying</text>
<text text-anchor="start" x="638.5" y="-737.3" font-family="Times,serif" font-size="14.00">reset_password_sent_at :timestamp without time zone</text>
<text text-anchor="start" x="638.5" y="-722.3" font-family="Times,serif" font-size="14.00">remember_created_at :timestamp without time zone</text>
<text text-anchor="start" x="638.5" y="-707.3" font-family="Times,serif" font-size="14.00">sign_in_count :integer</text>
<text text-anchor="start" x="638.5" y="-692.3" font-family="Times,serif" font-size="14.00">current_sign_in_at :timestamp without time zone</text>
<text text-anchor="start" x="638.5" y="-677.3" font-family="Times,serif" font-size="14.00">last_sign_in_at :timestamp without time zone</text>
<text text-anchor="start" x="638.5" y="-662.3" font-family="Times,serif" font-size="14.00">current_sign_in_ip :inet</text>
<text text-anchor="start" x="638.5" y="-647.3" font-family="Times,serif" font-size="14.00">last_sign_in_ip :inet</text>
</g>
<!-- Client&#45;&gt;Consumer -->
<g id="edge8" class="edge"><title>Client&#45;&gt;Consumer</title>
<path fill="none" stroke="#faf2da" d="M856.371,-631.817C869.301,-605.314 882.03,-579.225 892.532,-557.7"/>
<ellipse fill="none" stroke="#faf2da" cx="854.446" cy="-635.762" rx="4.00002" ry="4.00002"/>
<ellipse fill="#faf2da" stroke="#faf2da" cx="894.396" cy="-553.879" rx="4.00002" ry="4.00002"/>
</g>
<!-- Client&#45;&gt;Address -->
<g id="edge7" class="edge"><title>Client&#45;&gt;Address</title>
<path fill="none" stroke="#38cef8" d="M950.704,-640.327C951.469,-639.881 952.235,-639.439 953,-639 992.527,-616.328 1008.99,-624.818 1049,-603 1049.09,-602.949 1049.19,-602.898 1049.28,-602.847"/>
<ellipse fill="none" stroke="#38cef8" cx="947.254" cy="-642.381" rx="4.00002" ry="4.00002"/>
<polygon fill="#38cef8" stroke="#38cef8" points="1049.27,-602.854 1060.19,-601.857 1053.62,-600.396 1057.98,-597.938 1057.98,-597.938 1057.98,-597.938 1053.62,-600.396 1055.76,-594.019 1049.27,-602.854 1049.27,-602.854"/>
</g>
<!-- Telephone -->
<g id="node11" class="node"><title>Telephone</title>
<path fill="none" stroke="black" d="M284,-451.5C284,-451.5 504,-451.5 504,-451.5 510,-451.5 516,-457.5 516,-463.5 516,-463.5 516,-545.5 516,-545.5 516,-551.5 510,-557.5 504,-557.5 504,-557.5 284,-557.5 284,-557.5 278,-557.5 272,-551.5 272,-545.5 272,-545.5 272,-463.5 272,-463.5 272,-457.5 278,-451.5 284,-451.5"/>
<text text-anchor="middle" x="394" y="-542.3" font-family="Times,serif" font-size="14.00">Telephone</text>
<polyline fill="none" stroke="black" points="272,-534.5 516,-534.5 "/>
<text text-anchor="start" x="280" y="-519.3" font-family="Times,serif" font-size="14.00">id :integer</text>
<text text-anchor="start" x="280" y="-504.3" font-family="Times,serif" font-size="14.00">client_id :integer</text>
<text text-anchor="start" x="280" y="-489.3" font-family="Times,serif" font-size="14.00">telephone :integer</text>
<text text-anchor="start" x="280" y="-474.3" font-family="Times,serif" font-size="14.00">created_at :timestamp without time zone</text>
<text text-anchor="start" x="280" y="-459.3" font-family="Times,serif" font-size="14.00">updated_at :timestamp without time zone</text>
</g>
<!-- Client&#45;&gt;Telephone -->
<g id="edge6" class="edge"><title>Client&#45;&gt;Telephone</title>
<path fill="none" stroke="#206f44" d="M623.296,-640.327C622.531,-639.881 621.765,-639.439 621,-639 581.473,-616.328 565.005,-624.818 525,-603 504.511,-591.826 483.654,-577.756 464.783,-563.809"/>
<ellipse fill="none" stroke="#206f44" cx="626.746" cy="-642.381" rx="4.00002" ry="4.00002"/>
<polygon fill="#206f44" stroke="#206f44" points="464.547,-563.632 459.243,-554.034 460.545,-560.633 456.544,-557.635 456.544,-557.635 456.544,-557.635 460.545,-560.633 453.846,-561.236 464.547,-563.632 464.547,-563.632"/>
</g>
<!-- Professional -->
<g id="node12" class="node"><title>Professional</title>
<path fill="none" stroke="black" d="M546,-459C546,-459 766,-459 766,-459 772,-459 778,-465 778,-471 778,-471 778,-538 778,-538 778,-544 772,-550 766,-550 766,-550 546,-550 546,-550 540,-550 534,-544 534,-538 534,-538 534,-471 534,-471 534,-465 540,-459 546,-459"/>
<text text-anchor="middle" x="656" y="-534.8" font-family="Times,serif" font-size="14.00">Professional</text>
<polyline fill="none" stroke="black" points="534,-527 778,-527 "/>
<text text-anchor="start" x="542" y="-511.8" font-family="Times,serif" font-size="14.00">id :integer</text>
<text text-anchor="start" x="542" y="-496.8" font-family="Times,serif" font-size="14.00">client_id :integer</text>
<text text-anchor="start" x="542" y="-481.8" font-family="Times,serif" font-size="14.00">created_at :timestamp without time zone</text>
<text text-anchor="start" x="542" y="-466.8" font-family="Times,serif" font-size="14.00">updated_at :timestamp without time zone</text>
</g>
<!-- Client&#45;&gt;Professional -->
<g id="edge9" class="edge"><title>Client&#45;&gt;Professional</title>
<path fill="none" stroke="#ba25ab" d="M717.629,-631.817C704.699,-605.314 691.97,-579.225 681.468,-557.7"/>
<ellipse fill="none" stroke="#ba25ab" cx="719.554" cy="-635.762" rx="4.00002" ry="4.00002"/>
<ellipse fill="#ba25ab" stroke="#ba25ab" cx="679.604" cy="-553.879" rx="4.00002" ry="4.00002"/>
</g>
<!-- Banking -->
<g id="node14" class="node"><title>Banking</title>
<path fill="none" stroke="black" d="M415,-211C415,-211 635,-211 635,-211 641,-211 647,-217 647,-223 647,-223 647,-335 647,-335 647,-341 641,-347 635,-347 635,-347 415,-347 415,-347 409,-347 403,-341 403,-335 403,-335 403,-223 403,-223 403,-217 409,-211 415,-211"/>
<text text-anchor="middle" x="525" y="-331.8" font-family="Times,serif" font-size="14.00">Banking</text>
<polyline fill="none" stroke="black" points="403,-324 647,-324 "/>
<text text-anchor="start" x="411" y="-308.8" font-family="Times,serif" font-size="14.00">id :integer</text>
<text text-anchor="start" x="411" y="-293.8" font-family="Times,serif" font-size="14.00">professional_id :integer</text>
<text text-anchor="start" x="411" y="-278.8" font-family="Times,serif" font-size="14.00">bank :integer</text>
<text text-anchor="start" x="411" y="-263.8" font-family="Times,serif" font-size="14.00">agency :integer</text>
<text text-anchor="start" x="411" y="-248.8" font-family="Times,serif" font-size="14.00">account :integer</text>
<text text-anchor="start" x="411" y="-233.8" font-family="Times,serif" font-size="14.00">created_at :timestamp without time zone</text>
<text text-anchor="start" x="411" y="-218.8" font-family="Times,serif" font-size="14.00">updated_at :timestamp without time zone</text>
</g>
<!-- Professional&#45;&gt;Banking -->
<g id="edge10" class="edge"><title>Professional&#45;&gt;Banking</title>
<path fill="none" stroke="#97b282" d="M625.755,-451.898C609.061,-423.418 588.016,-387.512 569.482,-355.892"/>
<ellipse fill="none" stroke="#97b282" cx="627.782" cy="-455.358" rx="4.00002" ry="4.00002"/>
<polygon fill="#97b282" stroke="#97b282" points="569.384,-355.724 568.209,-344.821 566.856,-351.41 564.327,-347.096 564.327,-347.096 564.327,-347.096 566.856,-351.41 560.445,-349.372 569.384,-355.724 569.384,-355.724"/>
</g>
<!-- Professional&#45;&gt;Product -->
<g id="edge11" class="edge"><title>Professional&#45;&gt;Product</title>
<path fill="none" stroke="#cc0497" d="M598.991,-453.838C577.032,-436.715 550.972,-418.675 525,-406 473.492,-380.864 451.071,-393.941 394.704,-369.986"/>
<ellipse fill="none" stroke="#cc0497" cx="602.231" cy="-456.397" rx="4.00002" ry="4.00002"/>
<polygon fill="#cc0497" stroke="#cc0497" points="394.487,-369.889 387.191,-361.703 389.922,-367.85 385.356,-365.812 385.356,-365.812 385.356,-365.812 389.922,-367.85 383.521,-369.92 394.487,-369.889 394.487,-369.889"/>
</g>
<!-- Product&#45;&gt;Picture -->
<g id="edge14" class="edge"><title>Product&#45;&gt;Picture</title>
<path fill="none" stroke="#c9e0b1" d="M330.515,-181.756C335.603,-174.502 340.712,-167.218 345.736,-160.057"/>
<ellipse fill="none" stroke="#c9e0b1" cx="328.168" cy="-185.1" rx="4.00002" ry="4.00002"/>
<polygon fill="#c9e0b1" stroke="#c9e0b1" points="345.845,-159.902 355.272,-154.299 348.717,-155.808 351.588,-151.715 351.588,-151.715 351.588,-151.715 348.717,-155.808 347.904,-149.131 345.845,-159.902 345.845,-159.902"/>
</g>
<!-- Product&#45;&gt;Keyword -->
<g id="edge13" class="edge"><title>Product&#45;&gt;Keyword</title>
<path fill="none" stroke="#88f5b4" d="M195.442,-181.694C184.887,-166.648 174.244,-151.476 164.462,-137.531"/>
<ellipse fill="none" stroke="#88f5b4" cx="197.832" cy="-185.1" rx="4.00002" ry="4.00002"/>
<polygon fill="#88f5b4" stroke="#88f5b4" points="164.234,-137.205 162.175,-126.434 161.362,-133.112 158.491,-129.019 158.491,-129.019 158.491,-129.019 161.362,-133.112 154.807,-131.603 164.234,-137.205 164.234,-137.205"/>
</g>
<!-- Product&#45;&gt;Transaction -->
<g id="edge12" class="edge"><title>Product&#45;&gt;Transaction</title>
<path fill="none" stroke="#c709b6" d="M392.595,-188.494C393.063,-188.327 393.532,-188.162 394,-188 624.61,-108.035 703.657,-204.61 942,-152 962.471,-147.481 983.634,-141.155 1004.12,-134.073"/>
<ellipse fill="none" stroke="#c709b6" cx="388.765" cy="-189.951" rx="4.00001" ry="4.00001"/>
<polygon fill="#c709b6" stroke="#c709b6" points="1004.37,-133.985 1015.3,-134.899 1009.09,-132.321 1013.8,-130.656 1013.8,-130.656 1013.8,-130.656 1009.09,-132.321 1012.3,-126.413 1004.37,-133.985 1004.37,-133.985"/>
</g>
<!-- Product&#45;&gt;CartItem -->
<g id="edge15" class="edge"><title>Product&#45;&gt;CartItem</title>
<path fill="none" stroke="#dde44d" d="M392.636,-188.599C393.091,-188.398 393.545,-188.198 394,-188 461.217,-158.707 484.002,-170.317 555,-152 595.496,-141.552 639.277,-129.143 678.986,-117.456"/>
<ellipse fill="none" stroke="#dde44d" cx="388.902" cy="-190.322" rx="4.00002" ry="4.00002"/>
<polygon fill="#dde44d" stroke="#dde44d" points="679.131,-117.413 689.996,-118.897 683.926,-115.997 688.721,-114.581 688.721,-114.581 688.721,-114.581 683.926,-115.997 687.447,-110.266 679.131,-117.413 679.131,-117.413"/>
</g>
</g>
</svg>
