<?xml version="1.0" encoding="UTF-8" standalone="no"?>
<!DOCTYPE svg PUBLIC "-//W3C//DTD SVG 1.1//EN"
 "http://www.w3.org/Graphics/SVG/1.1/DTD/svg11.dtd">
<!-- Generated by graphviz version 2.38.0 (20140413.2041)
 -->
<!-- Title: models_diagram Pages: 1 -->
<svg width="728pt" height="302pt"
 viewBox="0.00 0.00 728.24 302.00" xmlns="http://www.w3.org/2000/svg" xmlns:xlink="http://www.w3.org/1999/xlink">
<g id="graph0" class="graph" transform="scale(1 1) rotate(0) translate(4 298)">
<title>models_diagram</title>
<polygon fill="none" stroke="none" points="-4,4 -4,-298 724.239,-298 724.239,4 -4,4"/>
<!-- _diagram_info -->
<g id="node1" class="node"><title>_diagram_info</title>
<text text-anchor="start" x="108.194" y="-279.6" font-family="Times,serif" font-size="13.00">Models diagram</text>
<text text-anchor="start" x="108.194" y="-265.6" font-family="Times,serif" font-size="13.00">Date: Oct 17 2016 &#45; 16:28</text>
<text text-anchor="start" x="108.194" y="-251.6" font-family="Times,serif" font-size="13.00">Migration version: 20161014220607</text>
<text text-anchor="start" x="108.194" y="-237.6" font-family="Times,serif" font-size="13.00">Generated by RailRoady 1.5.2</text>
<text text-anchor="start" x="108.194" y="-223.6" font-family="Times,serif" font-size="13.00">http://railroady.prestonlee.com</text>
</g>
<!-- Consumer -->
<g id="node2" class="node"><title>Consumer</title>
<ellipse fill="none" stroke="black" cx="543.194" cy="-162" rx="47.3916" ry="18"/>
<text text-anchor="middle" x="543.194" y="-158.3" font-family="Times,serif" font-size="14.00">Consumer</text>
</g>
<!-- ShoppingCart -->
<g id="node4" class="node"><title>ShoppingCart</title>
<ellipse fill="none" stroke="black" cx="542.194" cy="-90" rx="59.5901" ry="18"/>
<text text-anchor="middle" x="542.194" y="-86.3" font-family="Times,serif" font-size="14.00">ShoppingCart</text>
</g>
<!-- Consumer&#45;&gt;ShoppingCart -->
<g id="edge2" class="edge"><title>Consumer&#45;&gt;ShoppingCart</title>
<path fill="none" stroke="#f766f9" d="M542.831,-135.64C542.752,-130.063 542.667,-124.132 542.586,-118.476"/>
<ellipse fill="none" stroke="#f766f9" cx="542.889" cy="-139.697" rx="4" ry="4"/>
<polygon fill="#f766f9" stroke="#f766f9" points="542.581,-118.103 546.938,-108.04 542.51,-113.104 542.438,-108.104 542.438,-108.104 542.438,-108.104 542.51,-113.104 537.939,-108.169 542.581,-118.103 542.581,-118.103"/>
</g>
<!-- CreditCard -->
<g id="node13" class="node"><title>CreditCard</title>
<ellipse fill="none" stroke="black" cx="670.194" cy="-90" rx="50.0912" ry="18"/>
<text text-anchor="middle" x="670.194" y="-86.3" font-family="Times,serif" font-size="14.00">CreditCard</text>
</g>
<!-- Consumer&#45;&gt;CreditCard -->
<g id="edge1" class="edge"><title>Consumer&#45;&gt;CreditCard</title>
<path fill="none" stroke="#58550c" d="M576.112,-142.856C594.224,-132.873 616.696,-120.487 635.136,-110.323"/>
<ellipse fill="none" stroke="#58550c" cx="572.397" cy="-144.904" rx="4.00002" ry="4.00002"/>
<polygon fill="#58550c" stroke="#58550c" points="635.338,-110.212 646.268,-109.326 639.717,-107.798 644.096,-105.385 644.096,-105.385 644.096,-105.385 639.717,-107.798 641.924,-101.444 635.338,-110.212 635.338,-110.212"/>
</g>
<!-- Picture -->
<g id="node3" class="node"><title>Picture</title>
<ellipse fill="none" stroke="black" cx="283.194" cy="-18" rx="35.9954" ry="18"/>
<text text-anchor="middle" x="283.194" y="-14.3" font-family="Times,serif" font-size="14.00">Picture</text>
</g>
<!-- Payment -->
<g id="node7" class="node"><title>Payment</title>
<ellipse fill="none" stroke="black" cx="642.194" cy="-18" rx="42.4939" ry="18"/>
<text text-anchor="middle" x="642.194" y="-14.3" font-family="Times,serif" font-size="14.00">Payment</text>
</g>
<!-- ShoppingCart&#45;&gt;Payment -->
<g id="edge4" class="edge"><title>ShoppingCart&#45;&gt;Payment</title>
<path fill="none" stroke="#6eefcc" d="M571.45,-68.5204C584.954,-59.0677 600.912,-47.8975 614.25,-38.5606"/>
<ellipse fill="none" stroke="#6eefcc" cx="568.162" cy="-70.822" rx="4.00002" ry="4.00002"/>
<ellipse fill="#6eefcc" stroke="#6eefcc" cx="617.683" cy="-36.1578" rx="4.00002" ry="4.00002"/>
</g>
<!-- CartItem -->
<g id="node15" class="node"><title>CartItem</title>
<ellipse fill="none" stroke="black" cx="513.194" cy="-18" rx="42.4939" ry="18"/>
<text text-anchor="middle" x="513.194" y="-14.3" font-family="Times,serif" font-size="14.00">CartItem</text>
</g>
<!-- ShoppingCart&#45;&gt;CartItem -->
<g id="edge3" class="edge"><title>ShoppingCart&#45;&gt;CartItem</title>
<path fill="none" stroke="#57b8f5" d="M532.015,-64.4306C529.44,-58.214 526.664,-51.5142 524.056,-45.2195"/>
<ellipse fill="none" stroke="#57b8f5" cx="533.643" cy="-68.3595" rx="4.00001" ry="4.00001"/>
<polygon fill="#57b8f5" stroke="#57b8f5" points="523.977,-45.0276 524.307,-34.0666 522.063,-40.4083 520.149,-35.789 520.149,-35.789 520.149,-35.789 522.063,-40.4083 515.992,-37.5114 523.977,-45.0276 523.977,-45.0276"/>
</g>
<!-- Keyword -->
<g id="node5" class="node"><title>Keyword</title>
<ellipse fill="none" stroke="black" cx="380.194" cy="-18" rx="43.5923" ry="18"/>
<text text-anchor="middle" x="380.194" y="-14.3" font-family="Times,serif" font-size="14.00">Keyword</text>
</g>
<!-- Address -->
<g id="node6" class="node"><title>Address</title>
<ellipse fill="none" stroke="black" cx="198.194" cy="-162" rx="39.7935" ry="18"/>
<text text-anchor="middle" x="198.194" y="-158.3" font-family="Times,serif" font-size="14.00">Address</text>
</g>
<!-- ApplicationRecord -->
<g id="node8" class="node"><title>ApplicationRecord</title>
<ellipse fill="none" stroke="black" cx="492.194" cy="-255" rx="77.1866" ry="18"/>
<text text-anchor="middle" x="492.194" y="-251.3" font-family="Times,serif" font-size="14.00">ApplicationRecord</text>
</g>
<!-- CategoryProduct -->
<g id="node9" class="node"><title>CategoryProduct</title>
<ellipse fill="none" stroke="black" cx="70.1938" cy="-162" rx="70.3881" ry="18"/>
<text text-anchor="middle" x="70.1938" y="-158.3" font-family="Times,serif" font-size="14.00">CategoryProduct</text>
</g>
<!-- Product -->
<g id="node16" class="node"><title>Product</title>
<ellipse fill="none" stroke="black" cx="327.194" cy="-90" rx="38.1938" ry="18"/>
<text text-anchor="middle" x="327.194" y="-86.3" font-family="Times,serif" font-size="14.00">Product</text>
</g>
<!-- CategoryProduct&#45;&gt;Product -->
<g id="edge5" class="edge"><title>CategoryProduct&#45;&gt;Product</title>
<path fill="none" stroke="#3d5c22" d="M124.183,-146.295C172.056,-133.255 241.01,-114.474 284.956,-102.504"/>
<ellipse fill="none" stroke="#3d5c22" cx="120.296" cy="-147.353" rx="4.00001" ry="4.00001"/>
<polygon fill="#3d5c22" stroke="#3d5c22" points="285.1,-102.465 295.931,-104.179 289.924,-101.151 294.748,-99.8373 294.748,-99.8373 294.748,-99.8373 289.924,-101.151 293.566,-95.4955 285.1,-102.465 285.1,-102.465"/>
</g>
<!-- Client -->
<g id="node10" class="node"><title>Client</title>
<ellipse fill="none" stroke="black" cx="364.194" cy="-255" rx="32.4942" ry="18"/>
<text text-anchor="middle" x="364.194" y="-251.3" font-family="Times,serif" font-size="14.00">Client</text>
</g>
<!-- Client&#45;&gt;Consumer -->
<g id="edge8" class="edge"><title>Client&#45;&gt;Consumer</title>
<path fill="none" stroke="#d6f1ac" d="M384.767,-232.644C391.232,-226.718 398.66,-220.643 406.194,-216 422.575,-205.905 467.247,-189.296 501.165,-177.359"/>
<ellipse fill="none" stroke="#d6f1ac" cx="381.552" cy="-235.705" rx="4.00002" ry="4.00002"/>
<ellipse fill="#d6f1ac" stroke="#d6f1ac" cx="505.319" cy="-175.906" rx="4.00001" ry="4.00001"/>
</g>
<!-- Client&#45;&gt;Address -->
<g id="edge7" class="edge"><title>Client&#45;&gt;Address</title>
<path fill="none" stroke="#9c0d4f" d="M344.084,-232.773C337.772,-226.85 330.527,-220.745 323.194,-216 308.372,-206.411 268.1,-189.898 237.235,-177.847"/>
<ellipse fill="none" stroke="#9c0d4f" cx="347.186" cy="-235.789" rx="4.00002" ry="4.00002"/>
<polygon fill="#9c0d4f" stroke="#9c0d4f" points="236.912,-177.722 229.216,-169.91 232.25,-175.914 227.589,-174.105 227.589,-174.105 227.589,-174.105 232.25,-175.914 225.961,-178.301 236.912,-177.722 236.912,-177.722"/>
</g>
<!-- Telephone -->
<g id="node11" class="node"><title>Telephone</title>
<ellipse fill="none" stroke="black" cx="304.194" cy="-162" rx="48.1917" ry="18"/>
<text text-anchor="middle" x="304.194" y="-158.3" font-family="Times,serif" font-size="14.00">Telephone</text>
</g>
<!-- Client&#45;&gt;Telephone -->
<g id="edge6" class="edge"><title>Client&#45;&gt;Telephone</title>
<path fill="none" stroke="#f7dd59" d="M348.891,-230.791C340.354,-217.843 329.708,-201.697 320.948,-188.411"/>
<ellipse fill="none" stroke="#f7dd59" cx="351.265" cy="-234.392" rx="4.00002" ry="4.00002"/>
<polygon fill="#f7dd59" stroke="#f7dd59" points="320.738,-188.092 318.991,-177.267 317.986,-183.918 315.234,-179.744 315.234,-179.744 315.234,-179.744 317.986,-183.918 311.477,-182.221 320.738,-188.092 320.738,-188.092"/>
</g>
<!-- Professional -->
<g id="node12" class="node"><title>Professional</title>
<ellipse fill="none" stroke="black" cx="424.194" cy="-162" rx="53.8905" ry="18"/>
<text text-anchor="middle" x="424.194" y="-158.3" font-family="Times,serif" font-size="14.00">Professional</text>
</g>
<!-- Client&#45;&gt;Professional -->
<g id="edge9" class="edge"><title>Client&#45;&gt;Professional</title>
<path fill="none" stroke="#4ef4ed" d="M379.497,-230.791C388.444,-217.221 399.708,-200.137 408.689,-186.515"/>
<ellipse fill="none" stroke="#4ef4ed" cx="377.122" cy="-234.392" rx="4.00002" ry="4.00002"/>
<ellipse fill="#4ef4ed" stroke="#4ef4ed" cx="410.952" cy="-183.083" rx="4.00002" ry="4.00002"/>
</g>
<!-- Banking -->
<g id="node14" class="node"><title>Banking</title>
<ellipse fill="none" stroke="black" cx="424.194" cy="-90" rx="40.0939" ry="18"/>
<text text-anchor="middle" x="424.194" y="-86.3" font-family="Times,serif" font-size="14.00">Banking</text>
</g>
<!-- Professional&#45;&gt;Banking -->
<g id="edge10" class="edge"><title>Professional&#45;&gt;Banking</title>
<path fill="none" stroke="#15cdd2" d="M424.194,-135.64C424.194,-130.063 424.194,-124.132 424.194,-118.476"/>
<ellipse fill="none" stroke="#15cdd2" cx="424.194" cy="-139.697" rx="4" ry="4"/>
<polygon fill="#15cdd2" stroke="#15cdd2" points="424.194,-118.104 428.694,-108.104 424.194,-113.104 424.194,-108.104 424.194,-108.104 424.194,-108.104 424.194,-113.104 419.694,-108.104 424.194,-118.104 424.194,-118.104"/>
</g>
<!-- Professional&#45;&gt;Product -->
<g id="edge11" class="edge"><title>Professional&#45;&gt;Product</title>
<path fill="none" stroke="#d72223" d="M395.789,-140.502C383.159,-131.388 368.321,-120.679 355.681,-111.558"/>
<ellipse fill="none" stroke="#d72223" cx="399.423" cy="-143.124" rx="4.00002" ry="4.00002"/>
<polygon fill="#d72223" stroke="#d72223" points="355.445,-111.388 349.97,-101.887 351.391,-108.462 347.336,-105.536 347.336,-105.536 347.336,-105.536 351.391,-108.462 344.703,-109.185 355.445,-111.388 355.445,-111.388"/>
</g>
<!-- CreditCard&#45;&gt;Payment -->
<g id="edge12" class="edge"><title>CreditCard&#45;&gt;Payment</title>
<path fill="none" stroke="#7b1d09" d="M660.366,-64.4306C657.879,-58.214 655.199,-51.5142 652.682,-45.2195"/>
<ellipse fill="none" stroke="#7b1d09" cx="661.93" cy="-68.341" rx="4.00001" ry="4.00001"/>
<polygon fill="#7b1d09" stroke="#7b1d09" points="652.623,-45.0738 653.088,-34.1177 650.766,-40.4314 648.909,-35.789 648.909,-35.789 648.909,-35.789 650.766,-40.4314 644.731,-37.4603 652.623,-45.0738 652.623,-45.0738"/>
</g>
<!-- Product&#45;&gt;Picture -->
<g id="edge14" class="edge"><title>Product&#45;&gt;Picture</title>
<path fill="none" stroke="#2028b8" d="M312.438,-65.5255C308.08,-58.5919 303.295,-50.9789 298.88,-43.9555"/>
<ellipse fill="none" stroke="#2028b8" cx="314.638" cy="-69.0244" rx="4.00002" ry="4.00002"/>
<polygon fill="#2028b8" stroke="#2028b8" points="298.868,-43.9363 297.356,-33.0752 296.207,-39.7031 293.546,-35.4699 293.546,-35.4699 293.546,-35.4699 296.207,-39.7031 289.736,-37.8647 298.868,-43.9363 298.868,-43.9363"/>
</g>
<!-- Product&#45;&gt;Keyword -->
<g id="edge13" class="edge"><title>Product&#45;&gt;Keyword</title>
<path fill="none" stroke="#27aab0" d="M344.486,-66.1611C349.902,-59.0081 355.904,-51.0812 361.417,-43.7997"/>
<ellipse fill="none" stroke="#27aab0" cx="341.901" cy="-69.5756" rx="4.00002" ry="4.00002"/>
<polygon fill="#27aab0" stroke="#27aab0" points="361.563,-43.606 371.188,-38.3498 364.582,-39.6197 367.6,-35.6334 367.6,-35.6334 367.6,-35.6334 364.582,-39.6197 364.012,-32.917 361.563,-43.606 361.563,-43.606"/>
</g>
<!-- Product&#45;&gt;CartItem -->
<g id="edge15" class="edge"><title>Product&#45;&gt;CartItem</title>
<path fill="none" stroke="#1bf275" d="M363.816,-75.2173C395.225,-63.3968 440.412,-46.3909 472.851,-34.1827"/>
<ellipse fill="none" stroke="#1bf275" cx="360" cy="-76.6536" rx="4.00001" ry="4.00001"/>
<polygon fill="#1bf275" stroke="#1bf275" points="473.12,-34.0814 484.065,-34.7707 477.8,-32.3202 482.48,-30.5591 482.48,-30.5591 482.48,-30.5591 477.8,-32.3202 480.895,-26.3475 473.12,-34.0814 473.12,-34.0814"/>
</g>
</g>
</svg>
