<?xml version="1.0" encoding="utf-8"?>
<!-- Generator: Adobe Illustrator 19.1.0, SVG Export Plug-In . SVG Version: 6.00 Build 0)  -->
<svg version="1.1" id="Layer_1" xmlns="http://www.w3.org/2000/svg" xmlns:xlink="http://www.w3.org/1999/xlink" x="0px" y="0px"
	 viewBox="0 0 102 102" style="enable-background:new 0 0 102 102;" xml:space="preserve">
<style type="text/css">
	.st0{fill:#C1171E;}
</style>
<g>
	<rect x="34.8" y="60.2" class="st0" width="18.7" height="5.3"/>
	<rect x="68.5" y="32.2" class="st0" width="18.7" height="5.3"/>
	<rect x="62.5" y="60.2" class="st0" width="6" height="5.3"/>
	<path class="st0" d="M32.1,17.5c1.3-1.3,1.3-3.4,0-4.6c-1.3-1.3-3.4-1.3-4.6,0c-1.3,1.3-1.3,3.4,0,4.6S30.9,18.8,32.1,17.5z
		 M28.6,14c0.7-0.7,1.9-0.8,2.6-0.1c0.7,0.7,0.7,1.9-0.1,2.6c-0.7,0.7-1.9,0.8-2.6,0.1C27.8,15.9,27.9,14.7,28.6,14z"/>
	<path class="st0" d="M101.4,40l0-8.3c-0.1-2.5-0.5-4.8-1.5-6.9c-1.1-2.4-2.9-4.3-5.2-5.7c-2.3-1.4-5.2-2.3-8.6-2.3H75.1h-0.4H58.6
		c-0.1-2.2-0.6-4.3-1.5-6.2c-1.1-2.4-2.9-4.4-5.2-5.8c-2.3-1.4-5.2-2.4-8.6-2.4H37H26.6h-1h-7.4h-2.1c-3.4,0-6.3,1-8.6,2.4
		c-2.3,1.4-4.1,3.4-5.2,5.8c-1,2.1-1.4,4.5-1.5,7l0,7.5c0,0,0,0,0,0l0,1.5l0,0.2c0,0,0,0,0,0l0,57.7c0.1,2.5,0.5,4.9,1.5,7
		c1.1,2.4,2.9,4.2,5.2,5.6c2.3,1.4,5.2,2.2,8.6,2.2h1.8c0,0.1,0,0.1,0,0.2h5.3c0-11.5,9.4-20.9,20.9-20.9h26.8
		c6.6,0,11.9-5.3,11.9-11.9h0l0-5.1c-0.1-2.5-0.5-4.4-1.5-6.5c-0.6-1.3-1.4-2.4-2.4-3.4C88.6,53.6,96,62.1,96,72.3h0v0.3h5.3
		L101.4,40L101.4,40z M8.8,10.1c1.7-1.5,4.4-2.6,7.7-2.6h1.7h7.4h1H37h5.7c3.3,0,6,1.2,7.7,2.6c2,1.8,2.8,4.5,2.9,6.8h-5.5
		c-3.4,0-6.3,0.9-8.6,2.3c-1.8,1.1-3.3,2.6-4.4,4.3H6l0-6.5C6,14.6,6.8,11.8,8.8,10.1z M35.2,47.2h-1.9c-3.4,0-6.3,0.9-8.6,2.3
		c-2.3,1.4-4.1,3.3-5.2,5.7c-1,2.1-1.4,4.4-1.5,6.9l0,6.3h0v6.1H6l0-45.7h26.7c-0.1,0.8-0.2,1.7-0.3,2.7l0,8.5h0
		C32.5,42.7,33.6,45.2,35.2,47.2z M8.8,92c-2-1.8-2.9-4.4-2.9-6.7l0-5.6h12v14.7h-1.4C13.2,94.4,10.5,93.5,8.8,92z M70.9,73.5H44.1
		c-8.5,0-16.1,4.1-20.9,10.4V64h0l0-2.7c0-2.3,0.8-4.8,2.9-6.6c1.7-1.5,4.4-2.6,7.7-2.6h10.4h0.4H67c3.3,0,6,0.8,7.7,2.3
		c2,1.8,2.9,4.3,2.9,6.6l0,5.8h0C77.5,70.5,74.5,73.5,70.9,73.5z M75.1,46.1H44.3c-3.6,0-6.6-3-6.6-6.6h0l0-8.8
		c0-2.3,0.8-4.8,2.9-6.6c1.7-1.5,4.4-2.3,7.7-2.3h26.5h0.4h10.4c3.3,0,6,1.1,7.7,2.6c2,1.8,2.9,4.3,2.9,6.6l0,7.3h0v18.3
		C91.2,50.2,83.6,46.1,75.1,46.1z"/>
</g>
</svg>
