<?xml version="1.0" encoding="utf-8"?>
<!-- Generator: Adobe Illustrator 16.0.0, SVG Export Plug-In . SVG Version: 6.00 Build 0)  -->
<!DOCTYPE svg PUBLIC "-//W3C//DTD SVG 1.1//EN" "http://www.w3.org/Graphics/SVG/1.1/DTD/svg11.dtd">
<svg version="1.1"  xmlns="http://www.w3.org/2000/svg" xmlns:xlink="http://www.w3.org/1999/xlink" x="0px" y="0px"
     width="48px" height="48px" viewBox="0 0 48 48" enable-background="new 0 0 48 48" xml:space="preserve">
<path fill="#FFFFFF" d="M24,2.375c-8.865,0-16.077,7.212-16.077,16.077c0,3.655,2.581,9.292,7.669,16.754c3.726,5.462,7.503,9.971,7.542,10.016
    c0.214,0.256,0.532,0.403,0.866,0.403c0.335,0,0.653-0.147,0.866-0.403c0.039-0.045,3.816-4.554,7.542-10.016
    c5.089-7.462,7.669-13.099,7.669-16.754C40.077,9.587,32.864,2.375,24,2.375z M24,26.827c-4.607,0-8.342-3.734-8.342-8.341
    c0-4.606,3.734-8.341,8.342-8.341c4.608,0,8.342,3.735,8.342,8.341C32.342,23.093,28.608,26.827,24,26.827z"/>
</svg>
