<?xml version="1.0" encoding="utf-8"?>
<!-- Generator: Adobe Illustrator 16.0.0, SVG Export Plug-In . SVG Version: 6.00 Build 0)  -->
<!DOCTYPE svg PUBLIC "-//W3C//DTD SVG 1.1//EN" "http://www.w3.org/Graphics/SVG/1.1/DTD/svg11.dtd">
<svg version="1.1"  xmlns="http://www.w3.org/2000/svg" xmlns:xlink="http://www.w3.org/1999/xlink" x="0px" y="0px"
     width="48px" height="48px" viewBox="0 0 48 48" enable-background="new 0 0 48 48" xml:space="preserve">
<path fill="#FFFFFF" d="M18.443,17.582"/>
<path fill="#FFFFFF" d="M41.005,36.319c-3.864-3.439-7.724-6.885-11.708-10.438c0.846-0.936,1.626-1.798,2.452-2.711
    c1.577,1.201,3.062,1.318,4.392-0.07c3.712-3.875,7.393-7.781,11.178-11.772c-0.366-0.305-1.315-1.146-2.288-2.011
    c-2.314,2.368-4.547,4.653-6.855,7.015c-0.516-0.476-1.075-0.991-1.453-1.339c2.258-2.328,4.466-4.606,6.804-7.017
    c-0.019-0.016-0.037-0.033-0.055-0.048l-1.5-1.377l-0.03-0.029C41.84,6.43,41.667,6.266,41.452,6.06
    c-2.331,2.384-4.577,4.683-6.9,7.061c-0.517-0.476-1.075-0.991-1.453-1.339c2.291-2.362,4.531-4.674,6.907-7.125
    c-0.899-0.875-1.832-1.782-2.186-2.105c-3.364,3.539-6.64,6.999-9.935,10.44c-1.561,1.631-2.884,3.284-0.933,5.458
    c-1.074,0.959-1.954,1.745-2.927,2.614c-1.083-0.956-2.113-1.782-3.03-2.718c-0.311-0.316-0.503-0.922-0.469-1.375
    c0.491-6.516-3.35-12.068-9.556-13.74C6.059,1.908,1.792,4.489,1.348,9.054C0.77,14.974,7.414,22.861,13.372,22.659
    c2.961-0.1,3.716,1.749,5.239,3.336c-4.397,3.923-8.667,7.704-12.904,11.524c-1.785,1.609-1.791,3.01-0.141,4.749
    c0.092,0.096,0.187,0.189,0.279,0.284c3.065,3.119,3.757,3.183,6.765,0.116c3.625-3.695,7.151-7.489,10.929-11.46
    c3.485,3.848,6.503,7.195,9.539,10.527c3.809,4.179,4.022,4.177,8.062,0.149C43.434,39.601,43.402,38.454,41.005,36.319z"/>
</svg>
