<?xml version="1.0" encoding="utf-8"?>
<!-- Generator: Adobe Illustrator 16.0.0, SVG Export Plug-In . SVG Version: 6.00 Build 0)  -->
<!DOCTYPE svg PUBLIC "-//W3C//DTD SVG 1.1//EN" "http://www.w3.org/Graphics/SVG/1.1/DTD/svg11.dtd">
<svg version="1.1"  xmlns="http://www.w3.org/2000/svg" xmlns:xlink="http://www.w3.org/1999/xlink" x="0px" y="0px"
     width="48px" height="48px" viewBox="0 0 48 48" enable-background="new 0 0 48 48" xml:space="preserve">
<path fill="#FFFFFF" d="M37.394,39.732c4.13-2.358,7.353-6.291,8.682-11.24c2.651-9.866-3.22-20.01-13.115-22.654
    c-4.961-1.326-9.993-0.513-14.111,1.872c-4.129,2.358-7.352,6.292-8.681,11.238C8.959,23.447,9.527,28,11.435,31.877l-10.05,5.787
    c-0.603,0.348-0.81,1.116-0.461,1.718c0.348,0.602,1.119,0.807,1.721,0.459l10.051-5.785c2.413,3.58,6.08,6.344,10.587,7.548
    C28.245,42.93,33.275,42.116,37.394,39.732z M14.381,31.64c-4.384-7.574-1.782-17.258,5.812-21.63
    c3.318-1.91,7.04-2.491,10.544-1.907c4.512,0.756,8.66,3.441,11.125,7.699c4.385,7.574,1.782,17.258-5.811,21.63
    c-3.318,1.911-7.039,2.49-10.545,1.906C20.996,38.582,16.846,35.897,14.381,31.64z"/>
</svg>
