<?xml version="1.0" encoding="utf-8"?>
<!-- Generator: Adobe Illustrator 19.1.0, SVG Export Plug-In . SVG Version: 6.00 Build 0)  -->
<svg version="1.1" id="Layer_1" xmlns="http://www.w3.org/2000/svg" xmlns:xlink="http://www.w3.org/1999/xlink" x="0px" y="0px"
	 viewBox="0 0 102 102" style="enable-background:new 0 0 102 102;" xml:space="preserve">
<style type="text/css">
	.st0{fill:#C1171E;}
</style>
<g>
	<path class="st0" d="M100.9,2.7h-4.8H5.9H0.8V8v6.3v5.3v6.7c0,4.9,1.1,8.6,3.3,11.3c0.5,0.6,1,1.1,1.5,1.5v44.5
		c0,4.9,1.1,8.6,3.3,11.3c2.1,2.6,5.1,3.9,8.7,4c0,0,0.1,0,0.2,0v0h37.6h5.2v-5V81l0,0l0-6c0-1.7,0.3-3.1,1.3-4.2
		c1.1-1,2.7-1.1,4.2-1.2h7.2c1.5,0.1,3.1,0.2,4.2,1.2c1,1.1,1.3,2.4,1.3,4.2l0,6l0,0v13.1v5h5.2h1.9v0c0.1,0,0.2,0,0.2,0
		c3.6-0.1,6.6-1.4,8.7-4c2.2-2.7,3.3-6.5,3.3-11.3v-46c0,0,0.1-0.1,0.1-0.1c2.2-2.7,3.3-6.5,3.3-11.3V2.7H100.9z M5.9,8h90.1l0,6.3
		H5.9L5.9,8z M96.1,28c0,2.8-0.6,4.9-1.8,6.4c-1.2,1.4-2.8,2.2-4.8,2.3c0,0-0.4,0-0.4,0c-2-0.1-3.6-0.8-4.8-2.3
		c-1.2-1.5-1.8-3.7-1.8-6.4V22v-2.3h13.7V22V28z M25,19.7h13.7V22V28c0,2.8-0.6,4.9-1.8,6.4c-1.2,1.4-2.8,2.2-4.8,2.3
		c0,0-0.4,0-0.4,0c-2-0.1-3.6-0.8-4.8-2.3C25.6,32.9,25,30.8,25,28V22V19.7z M44,22v-2.3h13.7V22V28c0,2.8-0.6,4.9-1.8,6.4
		c-1.2,1.4-2.8,2.2-4.8,2.3c0,0-0.4,0-0.4,0c-2-0.1-3.6-0.8-4.8-2.3C44.6,32.9,44,30.8,44,28V22z M63.5,22v-2.3H77v6.7
		c0,0.7,0,1.4,0.1,2.1c-0.1,2.5-0.7,4.5-1.8,6c-1.2,1.4-2.8,2.2-4.8,2.3c0,0-0.4,0-0.4,0c-2-0.1-3.6-0.8-4.8-2.3
		c-1.2-1.5-1.8-3.7-1.8-6.4V22z M19.6,19.7V22V28c0,2.8-0.6,4.9-1.8,6.4c-1.2,1.4-2.8,2.2-4.8,2.3c0,0-0.4,0-0.4,0
		c-2-0.1-3.6-0.8-4.8-2.3c-1.2-1.5-1.8-3.7-1.8-6.4V22v-2.3H19.6z M92.5,85.4c0,2.8-0.6,4.9-1.8,6.4c-1.2,1.4-2.8,2.2-4.8,2.3
		c0,0-0.1,0-0.1,0c0,0-0.1,0-0.1,0v0h-0.1c0,0-0.1,0-0.1,0l0,0h-1.7v-17h0l0-4.7l0,0c0-1.8-0.3-3.3-1-4.5c0,0,0-0.1-0.1-0.1
		c-0.2-0.4-0.5-0.8-0.8-1.1c0,0,0,0,0-0.1c0,0-0.1-0.1-0.1-0.1c0,0-0.1-0.1-0.1-0.1c0,0,0,0,0,0c-0.4-0.3-0.7-0.6-1.1-0.9
		c0,0-0.1,0-0.1-0.1c-1.2-0.7-2.7-1-4.5-1l0,0l-3.1,0l0,0l-1.5,0l-0.8,0l0,0l-7.2,0l0,0c-1.8,0-3.3,0.3-4.5,1c0,0-0.1,0-0.1,0.1
		c-0.4,0.2-0.8,0.5-1.1,0.9c0,0,0,0,0,0c0,0-0.1,0.1-0.1,0.1c0,0-0.1,0.1-0.1,0.1c0,0,0,0,0,0.1c-0.3,0.3-0.6,0.7-0.8,1.1
		c0,0,0,0.1-0.1,0.1c-0.7,1.2-1,2.7-1,4.5l0,0l0,4.7h0v17H17.9l0,0c0,0,0,0-0.1,0h-0.1v0c0,0-0.1,0-0.1,0c0,0-0.1,0-0.1,0
		c-2-0.1-3.6-0.8-4.8-2.3c-1.2-1.5-1.8-3.7-1.8-6.4v-9.1V41.6c0.5,0.1,1.1,0.1,1.6,0.2c0,0,0.6,0,0.7,0c3.6-0.1,6.4-1.4,8.5-4
		c0.2-0.3,0.4-0.6,0.6-0.9c0.2,0.3,0.4,0.6,0.6,0.9c2.1,2.6,4.9,3.9,8.5,4c0,0,0.6,0,0.7,0c3.6-0.1,6.4-1.4,8.5-4
		c0.2-0.3,0.5-0.6,0.7-1c0.2,0.3,0.4,0.7,0.7,1c2.1,2.6,4.9,3.9,8.5,4c0,0,0.6,0,0.7,0c3.6-0.1,6.4-1.4,8.5-4
		c0.3-0.4,0.6-0.8,0.9-1.3c0.3,0.5,0.6,0.9,0.9,1.3c2.1,2.6,4.9,3.9,8.5,4c0,0,0.6,0,0.7,0c3.6-0.1,6.4-1.4,8.5-4
		c0.2-0.3,0.4-0.6,0.6-0.9c0.2,0.3,0.4,0.6,0.6,0.9c2.1,2.6,4.9,3.9,8.5,4c0,0,0.6,0,0.7,0c1.1,0,2.1-0.2,3.1-0.5v35.1V85.4z"/>
	<rect x="60.3" y="48.3" class="st0" width="18.7" height="5.3"/>
	<path class="st0" d="M32,48c-6.8,0-12.2,5.5-12.2,12.2h5.4c0-3.8,3.1-6.9,6.9-6.9s6.9,3.1,6.9,6.9h5.4C44.2,53.5,38.7,48,32,48z"/>
</g>
</svg>
