<?xml version="1.0" encoding="utf-8"?>
<!-- Generator: Adobe Illustrator 16.0.0, SVG Export Plug-In . SVG Version: 6.00 Build 0)  -->
<!DOCTYPE svg PUBLIC "-//W3C//DTD SVG 1.1//EN" "http://www.w3.org/Graphics/SVG/1.1/DTD/svg11.dtd">
<svg version="1.1"  xmlns="http://www.w3.org/2000/svg" xmlns:xlink="http://www.w3.org/1999/xlink" x="0px" y="0px"
     width="175px" height="35px" viewBox="0 0 175 35" enable-background="new 0 0 175 35" xml:space="preserve">
<path fill="#F2F3F3" d="M0,0v35h175V0H0z M39.031,15.158l-7.196,4.85l2.741,8.057c0.28,0.824-0.004,1.734-0.703,2.252
    c-0.354,0.263-0.771,0.394-1.19,0.394c-0.409,0-0.819-0.125-1.168-0.377l-7.279-5.235l-7.29,5.397
    c-0.354,0.262-0.771,0.394-1.19,0.394c-0.412,0-0.824-0.128-1.174-0.382c-0.706-0.512-0.999-1.423-0.724-2.251l2.752-8.268
    l-7.198-4.826c-0.731-0.49-1.057-1.151-0.8-1.993C8.867,12.326,9.644,12,10.524,12h9.009l2.783-8.817
    c0.268-0.824,1.036-1.507,1.902-1.507c0.866,0,1.635,0.746,1.902,1.569L28.904,12h9.009c0.88,0,1.656,0.324,1.913,1.166
    C40.083,14.007,39.76,14.667,39.031,15.158z M70.589,15.161l-7.198,4.825l2.752,8.269c0.275,0.828-0.018,1.739-0.724,2.251
    c-0.35,0.254-0.762,0.381-1.174,0.381c-0.419,0-0.837-0.131-1.19-0.393l-7.29-5.398l-7.279,5.236
    c-0.349,0.252-0.759,0.377-1.168,0.377c-0.419,0-0.837-0.131-1.19-0.393c-0.699-0.519-0.983-1.428-0.703-2.252l2.741-8.058
    l-7.196-4.85c-0.729-0.491-1.052-1.151-0.795-1.992C40.431,12.324,41.207,12,42.087,12h9.009l2.783-8.817
    c0.268-0.824,1.036-1.507,1.902-1.507c0.866,0,1.635,0.746,1.902,1.569L60.467,12h9.009c0.881,0,1.657,0.326,1.913,1.168
    C71.646,14.01,71.32,14.671,70.589,15.161z M102.309,15.161l-7.199,4.825l2.752,8.269c0.275,0.828-0.018,1.739-0.723,2.251
    c-0.351,0.254-0.763,0.381-1.175,0.381c-0.419,0-0.837-0.131-1.19-0.393l-7.29-5.398l-7.279,5.236
    c-0.349,0.252-0.759,0.377-1.168,0.377c-0.419,0-0.837-0.131-1.19-0.393c-0.699-0.519-0.983-1.428-0.703-2.252l2.741-8.058
    l-7.196-4.85c-0.729-0.491-1.052-1.151-0.795-1.992C72.149,12.324,72.926,12,73.806,12h9.009l2.783-8.817
    c0.268-0.824,1.036-1.507,1.902-1.507s1.635,0.746,1.902,1.569L92.186,12h9.01c0.881,0,1.656,0.326,1.912,1.168
    C103.364,14.01,103.039,14.671,102.309,15.161z M133.948,15.161l-7.198,4.825l2.752,8.269c0.275,0.828-0.018,1.739-0.725,2.251
    c-0.35,0.254-0.762,0.381-1.174,0.381c-0.418,0-0.836-0.131-1.189-0.393l-7.29-5.398l-7.278,5.236
    c-0.35,0.252-0.76,0.377-1.169,0.377c-0.419,0-0.837-0.131-1.19-0.393c-0.698-0.519-0.982-1.428-0.702-2.252l2.741-8.058
    l-7.196-4.85c-0.729-0.491-1.052-1.151-0.795-1.992c0.257-0.842,1.032-1.166,1.913-1.166h9.009l2.782-8.817
    c0.269-0.824,1.037-1.507,1.902-1.507c0.866,0,1.635,0.746,1.902,1.569L123.826,12h9.009c0.881,0,1.657,0.326,1.913,1.168
    C135.005,14.01,134.68,14.671,133.948,15.161z M165.589,15.161l-7.198,4.825l2.752,8.269c0.275,0.828-0.018,1.739-0.724,2.251
    c-0.351,0.254-0.762,0.381-1.174,0.381c-0.419,0-0.837-0.131-1.19-0.393l-7.289-5.398l-7.279,5.236
    c-0.35,0.252-0.76,0.377-1.168,0.377c-0.42,0-0.838-0.131-1.19-0.393c-0.698-0.519-0.983-1.428-0.703-2.252l2.741-8.058l-7.195-4.85
    c-0.729-0.491-1.053-1.151-0.796-1.992c0.257-0.842,1.033-1.166,1.913-1.166h9.01l2.782-8.817c0.269-0.824,1.036-1.507,1.902-1.507
    s1.635,0.746,1.901,1.569L155.467,12h9.01c0.881,0,1.656,0.326,1.912,1.168C166.646,14.01,166.32,14.671,165.589,15.161z"/>
</svg>
